<?xml version="1.0" encoding="UTF-8"?>
<svg width="16px" height="17px" viewBox="0 0 16 17" version="1.1" xmlns="http://www.w3.org/2000/svg" xmlns:xlink="http://www.w3.org/1999/xlink">
    <!-- Generator: Sketch 61.1 (89650) - https://sketch.com -->
    <title>删除</title>
    <desc>Created with Sketch.</desc>
    <g id="页面-1" stroke="none" stroke-width="1" fill="none" fill-rule="evenodd">
        <g id="提现-支付宝提现" transform="translate(-316.000000, -106.000000)" fill-rule="nonzero">
            <g id="删除" transform="translate(316.000000, 106.500000)">
                <rect id="矩形" fill="#000000" opacity="0" x="0" y="0" width="16" height="16"></rect>
                <path d="M5.97375428,6.33371428 L5.97375428,12.3337143 C5.97672238,12.4235985 5.94199869,12.5106346 5.87797371,12.5737914 C5.81394874,12.6369483 5.72644675,12.6704806 5.63661142,12.6662857 L4.96004,12.6662857 C4.86999919,12.6705013 4.7823078,12.6368164 4.71824468,12.5734048 C4.65418156,12.5099931 4.61960207,12.4226506 4.62289714,12.3325714 L4.62289714,6.33257142 C4.61992905,6.2426872 4.65465274,6.15565113 4.71867772,6.09249429 C4.78270269,6.02933746 4.87020467,5.99580515 4.96004,6 L5.63432572,6 C5.72436653,5.99578439 5.81205791,6.02946933 5.87612103,6.09288096 C5.94018415,6.15629259 5.97476364,6.24363509 5.97146858,6.33371428 L5.97261142,6.33371428 L5.97375428,6.33371428 Z M8.67546858,6.33371428 L8.67546858,12.3337143 C8.67845909,12.4238069 8.64358215,12.5110345 8.57930134,12.5742295 C8.51502053,12.6374245 8.4272115,12.6708105 8.33718286,12.6662857 L7.66289714,12.6662857 C7.57285633,12.6705013 7.48516494,12.6368164 7.42110182,12.5734048 C7.3570387,12.5099931 7.32245921,12.4226506 7.32575428,12.3325714 L7.32575428,6.33257142 C7.32278619,6.2426872 7.35750988,6.15565113 7.42153486,6.09249429 C7.48555983,6.02933746 7.57306181,5.99580515 7.66289714,6 L8.33718286,6 C8.42722367,5.99578439 8.51491505,6.02946933 8.57897817,6.09288096 C8.64304129,6.15629259 8.67762078,6.24363509 8.67432572,6.33371428 L8.67546858,6.33371428 Z M11.3771829,6.33371428 L11.3771829,12.3337143 C11.3801734,12.4238069 11.3452964,12.5110345 11.2810156,12.5742295 C11.2167348,12.6374245 11.1289258,12.6708105 11.0388971,12.6662857 L10.3646114,12.6662857 C10.2745706,12.6705013 10.1868792,12.6368164 10.1228161,12.5734048 C10.058753,12.5099931 10.0241735,12.4226506 10.0274686,12.3325714 L10.0263257,6.33257142 C10.0233576,6.2426872 10.0580813,6.15565113 10.1221063,6.09249429 C10.1861313,6.02933746 10.2736332,5.99580515 10.3634686,6 L11.0388971,6 C11.1289379,5.99578439 11.2166293,6.02946933 11.2806925,6.09288096 C11.3447556,6.15629259 11.3793351,6.24363509 11.37604,6.33371428 L11.3771829,6.33371428 Z M12.7268971,13.8754286 L12.7268971,4 L3.27311499,4 L3.27311499,13.8742857 C3.2704579,14.1272541 3.34985963,14.3742818 3.49946858,14.5782857 C3.55204,14.6377143 3.5897543,14.6662857 3.61032572,14.6662857 L12.3897543,14.6662857 C12.4103257,14.6662857 12.4468971,14.6377143 12.5006114,14.5782857 C12.650392,14.3747375 12.7301863,14.1281368 12.7280822,13.8754286 L12.7268971,13.8754286 Z M5.63661142,2.66628572 L10.3634686,2.66628572 L9.85718286,1.448 C9.81352701,1.38906675 9.74961836,1.34836061 9.67775428,1.33371428 L6.33261142,1.33371428 C6.26074735,1.34836061 6.19683871,1.38906675 6.15318286,1.448 L5.63661142,2.66628572 Z M15.4286114,3 L15.4286114,3.66628572 C15.4319065,3.75636491 15.397327,3.84370741 15.3332639,3.90711904 C15.2692008,3.97053067 15.1815094,4.0042156 15.0914686,4 L14.0777543,4 L14.0777543,13.8742857 C14.0777543,14.4514286 13.9131829,14.9485714 13.5817543,15.3702857 C13.2503257,15.7897143 12.8537543,16 12.3897543,16 L3.61032572,16 C3.14632572,16 2.74861144,15.7965714 2.41832572,15.3908571 C2.08689714,14.984 1.92232572,14.4925714 1.92232572,13.9165714 L1.92232572,4 L0.908611422,4 C0.818570618,4.0042156 0.730879238,3.97053067 0.666816121,3.90711904 C0.602753003,3.84370741 0.568173516,3.75636491 0.571468578,3.66628572 L0.571468578,3 C0.568173516,2.90992081 0.602753003,2.82257831 0.666816121,2.75916668 C0.730879238,2.69575505 0.818570618,2.66207011 0.908611422,2.66628572 L4.16918286,2.66628572 L4.90861142,0.926857141 C5.01375428,0.669714281 5.20346856,0.451428563 5.47775428,0.270857141 C5.75204,0.0902857187 6.03089714,0 6.31204,0 L9.68804,0 C9.96918286,0 10.24804,0.0902857187 10.5223257,0.270857141 C10.7966114,0.451428562 10.9863257,0.670857141 11.0914686,0.926857141 L11.8308971,2.66628572 L15.0914686,2.66628572 C15.1815094,2.66207011 15.2692008,2.69575505 15.3332639,2.75916668 C15.397327,2.82257831 15.4319065,2.90992081 15.4286114,3 Z" id="形状" fill="#FFFFFF"></path>
            </g>
        </g>
    </g>
</svg>