<?xml version="1.0" encoding="UTF-8"?>
<svg width="26px" height="22px" viewBox="0 0 26 22" version="1.1" xmlns="http://www.w3.org/2000/svg" xmlns:xlink="http://www.w3.org/1999/xlink">
    <!-- Generator: Sketch 54.1 (76490) - https://sketchapp.com -->
    <title>形状结合</title>
    <desc>Created with Sketch.</desc>
    <defs>
        <filter x="-118.2%" y="-144.4%" width="336.4%" height="388.9%" filterUnits="objectBoundingBox" id="filter-1">
            <feOffset dx="0" dy="1" in="SourceAlpha" result="shadowOffsetOuter1"></feOffset>
            <feGaussianBlur stdDeviation="1" in="shadowOffsetOuter1" result="shadowBlurOuter1"></feGaussianBlur>
            <feColorMatrix values="0 0 0 0 0   0 0 0 0 0   0 0 0 0 0  0 0 0 0.18 0" type="matrix" in="shadowBlurOuter1" result="shadowMatrixOuter1"></feColorMatrix>
            <feOffset dx="0" dy="1" in="SourceAlpha" result="shadowOffsetOuter2"></feOffset>
            <feGaussianBlur stdDeviation="1" in="shadowOffsetOuter2" result="shadowBlurOuter2"></feGaussianBlur>
            <feColorMatrix values="0 0 0 0 0   0 0 0 0 0   0 0 0 0 0  0 0 0 0.04 0" type="matrix" in="shadowBlurOuter2" result="shadowMatrixOuter2"></feColorMatrix>
            <feOffset dx="0" dy="2" in="SourceAlpha" result="shadowOffsetOuter3"></feOffset>
            <feGaussianBlur stdDeviation="3" in="shadowOffsetOuter3" result="shadowBlurOuter3"></feGaussianBlur>
            <feColorMatrix values="0 0 0 0 0   0 0 0 0 0   0 0 0 0 0  0 0 0 0.04 0" type="matrix" in="shadowBlurOuter3" result="shadowMatrixOuter3"></feColorMatrix>
            <feMerge>
                <feMergeNode in="shadowMatrixOuter1"></feMergeNode>
                <feMergeNode in="shadowMatrixOuter2"></feMergeNode>
                <feMergeNode in="shadowMatrixOuter3"></feMergeNode>
                <feMergeNode in="SourceGraphic"></feMergeNode>
            </feMerge>
        </filter>
    </defs>
    <g id="页面-1" stroke="none" stroke-width="1" fill="none" fill-rule="evenodd">
        <g id="有声小说主页备份" transform="translate(-31.000000, -453.000000)" fill="#FFFFFF" fill-rule="nonzero">
            <g id="编组-2" filter="url(#filter-1)" transform="translate(33.000000, 454.000000)">
                <path d="M17.3250147,7.53861603 C17.3250147,7.53861603 17.3250147,7.53861603 17.3250147,7.53861603 L17.2954046,7.54603093 L17.3250147,7.53861603 Z M18.6977871,8.86850923 C18.7312051,9.57129545 18.6746754,10.280947 18.5257604,10.9837382 C17.5679427,15.5040363 13.0869849,18.3758278 8.52033992,17.4021609 C6.63929711,17.0010962 4.98633895,15.9965364 3.78068079,14.564728 L3.57260546,14.3076567 L4.51981976,13.5709172 C5.5676639,14.9181138 7.05769873,15.8633323 8.77057144,16.2285407 C12.6916074,17.0645557 16.532185,14.603176 17.3518248,10.7349909 C17.5553868,9.77429834 17.5573072,8.80027119 17.3662323,7.85864395 L17.2954046,7.54603093 L17.3250147,7.53861603 C17.3064112,7.38325939 17.3482196,7.22083308 17.4544649,7.08963106 C17.6630034,6.83210754 18.0408212,6.79239729 18.2983447,7.00093572 L21.0960702,9.26648913 C21.3535937,9.47502756 21.393304,9.85284542 21.1847655,10.1103689 C20.9762271,10.3678925 20.5984093,10.4076027 20.3408857,10.1990643 L18.6977871,8.86850923 Z M3.69399768,11.8997165 L3.77645497,11.9664891 C4.03397848,12.1750276 4.07368874,12.5528454 3.86515031,12.8103689 C3.65661187,13.0678925 3.27879401,13.1076027 3.0212705,12.8990643 L0.223545035,10.6335109 C-0.033978483,10.4249724 -0.0736887403,10.0471546 0.134849693,9.78963106 C0.343388125,9.53210754 0.721205986,9.49239729 0.978729504,9.70093572 L1.97620934,10.508679 C1.74214432,9.37778623 1.84428239,8.37525182 2.21548887,6.98989037 C3.4112918,2.52709309 8.03884071,-0.107453809 12.5488737,1.10100588 C14.6632016,1.66753835 16.4369313,2.99893122 17.5639052,4.80396232 L17.7204687,5.06501449 L16.680481,5.663701 C15.7228225,4.00013738 14.1427462,2.77041417 12.2382908,2.26011687 C8.3653011,1.2223524 4.39802643,3.4809933 3.37459986,7.30047322 C2.90764372,9.04317727 2.91926324,9.98275145 3.58708844,11.6413423 L3.69399768,11.8997165 Z M6.71961524,6.8 C6.71961524,6.46862915 6.98824439,6.2 7.31961524,6.2 L13.3196152,6.2 C13.6509861,6.2 13.9196152,6.46862915 13.9196152,6.8 C13.9196152,7.13137085 13.6509861,7.4 13.3196152,7.4 L7.31961524,7.4 C6.98824439,7.4 6.71961524,7.13137085 6.71961524,6.8 Z M6.71961524,9.2 C6.71961524,8.86862915 6.98824439,8.6 7.31961524,8.6 L13.3196152,8.6 C13.6509861,8.6 13.9196152,8.86862915 13.9196152,9.2 C13.9196152,9.53137085 13.6509861,9.8 13.3196152,9.8 L7.31961524,9.8 C6.98824439,9.8 6.71961524,9.53137085 6.71961524,9.2 Z M6.71961524,11.6 C6.71961524,11.2686292 6.98824439,11 7.31961524,11 L13.3196152,11 C13.6509861,11 13.9196152,11.2686292 13.9196152,11.6 C13.9196152,11.9313708 13.6509861,12.2 13.3196152,12.2 L7.31961524,12.2 C6.98824439,12.2 6.71961524,11.9313708 6.71961524,11.6 Z" id="形状结合"></path>
            </g>
        </g>
    </g>
</svg>