<?xml version="1.0" encoding="UTF-8"?>
<svg width="8px" height="9px" viewBox="0 0 8 9" version="1.1" xmlns="http://www.w3.org/2000/svg" xmlns:xlink="http://www.w3.org/1999/xlink">
    <!-- Generator: Sketch 59.1 (86144) - https://sketch.com -->
    <title>自动定位</title>
    <desc>Created with Sketch.</desc>
    <defs>
        <path d="M5.2,3.56150621 C4.93475806,3.56150621 4.68548387,3.6644728 4.49741935,3.85265312 C4.31024194,4.04083344 4.20645161,4.29026113 4.20645161,4.55566639 C4.20645161,4.82107165 4.31024194,5.07049934 4.49741935,5.25867966 C4.68548387,5.44597234 4.93475806,5.54982657 5.2,5.54982657 C5.46524194,5.54982657 5.71451613,5.44597234 5.90258065,5.25867966 C6.09064516,5.07049934 6.19354839,4.82107165 6.19354839,4.55566639 C6.19354839,4.29026113 6.09064516,4.04083344 5.90258065,3.85265312 C5.71451613,3.6644728 5.46524194,3.56150621 5.2,3.56150621 Z M8.23919355,3.22508951 C8.07241935,2.83985244 7.83379032,2.49455931 7.53040323,2.19808654 C7.22701613,1.90161377 6.87483871,1.66993895 6.48185484,1.50750027 C6.07556452,1.3388481 5.64443548,1.25363437 5.2,1.25363437 C4.75556452,1.25363437 4.32443548,1.3388481 3.91814516,1.50661263 C3.52516129,1.6690513 3.17298387,1.90161377 2.86959677,2.1971989 C2.56620968,2.49367166 2.32758065,2.83985244 2.16080645,3.22420187 C1.98782258,3.62364122 1.9,4.04793459 1.9,4.48465495 C1.9,5.11133092 2.04991935,5.73534396 2.34443548,6.33716592 C2.58129032,6.82093137 2.91217742,7.29226981 3.3291129,7.74052953 C4.04145161,8.50567781 4.7883871,8.97346568 5.00040323,9.09862335 C5.0616129,9.13501671 5.13080645,9.15276957 5.1991129,9.15276957 C5.26830645,9.15276957 5.3366129,9.13501671 5.39782258,9.09862335 C5.60983871,8.97346568 6.35677419,8.50567781 7.0691129,7.74052953 C7.48604839,7.29315745 7.81693548,6.82093137 8.05379032,6.33716592 C8.35008065,5.7362316 8.5,5.1131062 8.5,4.48554259 C8.5,4.04882223 8.41217742,3.62452887 8.23919355,3.22508951 Z M5.2,6.1179181 C4.33774194,6.1179181 3.63870968,5.4184554 3.63870968,4.55566639 C3.63870968,3.69287738 4.33774194,2.99341468 5.2,2.99341468 C6.06225806,2.99341468 6.76129032,3.69287738 6.76129032,4.55566639 C6.76129032,5.4184554 6.06225806,6.1179181 5.2,6.1179181 Z" id="path-1"></path>
    </defs>
    <g id="APP" stroke="none" stroke-width="1" fill="none" fill-rule="evenodd">
        <g id="附近的-" transform="translate(-16.000000, -90.000000)">
            <g id="矩形" transform="translate(14.960000, 88.934729)">
                <mask id="mask-2" fill="white">
                    <use xlink:href="#path-1"></use>
                </mask>
                <use id="自动定位" fill="#444444" fill-rule="nonzero" xlink:href="#path-1"></use>
            </g>
        </g>
    </g>
</svg>