<?xml version="1.0" encoding="UTF-8"?>
<svg width="10px" height="18px" viewBox="0 0 10 18" version="1.1" xmlns="http://www.w3.org/2000/svg" xmlns:xlink="http://www.w3.org/1999/xlink">
    <title>蒙版</title>
    <defs>
        <path d="M8.96834407,0.353148914 C8.97718662,0.360912976 8.98593171,0.368787348 8.99457728,0.376770181 C9.58589231,0.922757499 9.63398236,1.84065918 9.10295794,2.44544731 L3.347,9 L9.10295794,15.5545527 C9.60079333,16.1215416 9.5896414,16.9637279 9.09907417,17.5166661 L8.99457728,17.6232298 C8.98593171,17.6312127 8.97718662,17.639087 8.96834407,17.6468511 C8.38274271,18.1610289 7.49119555,18.1031286 6.97701775,17.5175273 L6.97701775,17.5175273 L0.364896314,9.98692723 C0.115741551,9.7031628 -0.00592388863,9.35046789 -0.00380708057,8.9996 C-0.00569225002,8.64886101 0.115978615,8.29656721 0.364896314,8.01307277 L6.97701775,0.482472725 C7.49119555,-0.103128638 8.38274271,-0.16102888 8.96834407,0.353148914 Z" id="path-1"></path>
    </defs>
    <g id="页面-2" stroke="none" stroke-width="1" fill="none" fill-rule="evenodd">
        <g id="短视频-游戏-最近玩过" transform="translate(-16.000000, -51.000000)">
            <g id="icon/首页/点赞" transform="translate(16.000000, 51.000000)">
                <mask id="mask-2" fill="white">
                    <use xlink:href="#path-1"></use>
                </mask>
                <use id="蒙版" fill="#3A3A44" xlink:href="#path-1"></use>
            </g>
        </g>
    </g>
</svg>