<?xml version="1.0" encoding="UTF-8"?>
<svg width="10px" height="17px" viewBox="0 0 10 17" version="1.1" xmlns="http://www.w3.org/2000/svg" xmlns:xlink="http://www.w3.org/1999/xlink">
    <!-- Generator: Sketch 64 (93537) - https://sketch.com -->
    <title>返回</title>
    <desc>Created with Sketch.</desc>
    <g id="组件" stroke="none" stroke-width="1" fill="none" fill-rule="evenodd">
        <g id="分页面导航栏" transform="translate(-16.000000, -14.000000)" fill-rule="nonzero">
            <g id="返回" transform="translate(10.000000, 11.000000)">
                <rect id="矩形" fill="#000000" opacity="0" x="0" y="0" width="22" height="22"></rect>
                <path d="M8.24694367,11.2830778 L14.9240284,4.60599302 C15.2919905,4.23848885 15.2919905,3.64267436 14.9240284,3.27562813 C14.5569822,2.90812396 13.9611677,2.90812396 13.5936635,3.27562813 L6.27528467,10.5935527 C5.90823844,10.9605989 5.90823844,11.5564134 6.27528467,11.9239176 C6.3042269,11.9528598 6.33730166,11.9758268 6.36899892,12.0001749 C6.3745126,12.0061465 6.37864511,12.0130377 6.38415879,12.0190093 L13.5307306,19.1655812 C13.8895082,19.5243587 14.4710823,19.5243587 14.8298562,19.1655812 C15.1886301,18.8068036 15.1886338,18.2252295 14.8298562,17.8664556 L8.24694367,11.2830778 Z" id="路径" fill="#FFFFFF"></path>
            </g>
        </g>
    </g>
</svg>