<?xml version="1.0" encoding="UTF-8"?>
<svg width="7px" height="12px" viewBox="0 0 7 12" version="1.1" xmlns="http://www.w3.org/2000/svg" xmlns:xlink="http://www.w3.org/1999/xlink">
    <!-- Generator: Sketch 59.1 (86144) - https://sketch.com -->
    <title>切换@1x</title>
    <desc>Created with Sketch.</desc>
    <g id="APP" stroke="none" stroke-width="1" fill="none" fill-rule="evenodd">
        <g id="附近的-" transform="translate(-337.000000, -88.000000)" fill="#DDDDDD">
            <path d="M337.922423,94.0934951 C337.932476,93.8987001 338.003813,93.713651 338.138143,93.562879 C338.140139,93.5606389 338.142146,93.5584093 338.144166,93.5561903 L342.162467,89.1402916 C342.48539,88.7854163 343.033824,88.7566757 343.39207,89.0758544 C343.745493,89.3907348 343.776737,89.9325014 343.461857,90.2859238 L343.455834,90.2926125 L339.956,94.1376798 L343.455834,97.9832496 C343.456844,97.9843591 343.457851,97.9854712 343.458855,97.986586 C343.776737,98.3433607 343.745493,98.8851272 343.39207,99.2000077 C343.033824,99.5191863 342.48539,99.4904457 342.162467,99.1355704 L342.162467,99.1355704 L338.144166,94.7196717 L338.144166,94.7196717 C338.003603,94.5619753 337.932253,94.376583 337.922223,94.1891958 C337.922703,94.1870541 337.922558,94.1847108 337.922423,94.182367 L337.922423,94.0934951 L337.922423,94.0934951 Z" id="切换" transform="translate(340.800000, 94.137931) scale(-1, 1) translate(-340.800000, -94.137931) "></path>
        </g>
    </g>
</svg>