<svg xmlns="http://www.w3.org/2000/svg" width="33.229" height="33.229" viewBox="0 0 33.229 33.229">
    <path data-name="路径 9046" d="M80.614 64a16.614 16.614 0 1 0 16.615 16.614A16.62 16.62 0 0 0 80.614 64zm0 31.013a14.4 14.4 0 1 1 14.4-14.4 14.4 14.4 0 0 1-14.4 14.4zM82.143 80.5l5.826-5.76a1.1 1.1 0 0 0 0-1.573 1.123 1.123 0 0 0-1.595 0l-5.826 5.715-5.715-5.737a1.112 1.112 0 0 0-1.573 1.573l5.693 5.737-6.048 5.985a1.1 1.1 0 0 0 0 1.573 1.123 1.123 0 0 0 1.595 0l6.025-5.959 5.937 5.959a1.112 1.112 0 0 0 1.573-1.573z" transform="translate(-64 -64)" style="fill:#fff"/>
</svg>
