<?xml version="1.0" encoding="UTF-8"?>
<svg width="28px" height="21px" viewBox="0 0 28 21" version="1.1" xmlns="http://www.w3.org/2000/svg" xmlns:xlink="http://www.w3.org/1999/xlink">
    <!-- Generator: Sketch 59.1 (86144) - https://sketch.com -->
    <title>合并形状</title>
    <desc>Created with Sketch.</desc>
    <defs>
        <path d="M268.641369,620.061576 C271.822529,620.061576 274.401369,622.642004 274.401369,625.825123 L274.401369,632.549261 C274.401369,635.73238 271.822529,638.312808 268.641369,638.312808 L257.45749,638.312808 C255.910072,638.312808 254.427733,637.689805 253.34443,636.584155 L250.128309,633.301692 C249.072675,632.224282 248.481369,630.775621 248.481369,629.266798 L248.481369,629.028068 C248.481369,627.576114 249.029045,626.177655 250.014907,625.112268 L252.978772,621.909323 C254.0689,620.73126 255.600707,620.061576 257.205234,620.061576 L268.641369,620.061576 Z M268.641369,621.982759 L257.205234,621.982759 C256.135549,621.982759 255.114345,622.429214 254.387593,623.21459 L251.423728,626.417535 C250.766486,627.127793 250.401369,628.060098 250.401369,629.028068 L250.401369,629.266798 C250.401369,630.27268 250.795573,631.238454 251.499329,631.956727 L254.71545,635.239191 C255.437652,635.97629 256.425878,636.391626 257.45749,636.391626 L268.641369,636.391626 C270.762142,636.391626 272.481369,634.67134 272.481369,632.549261 L272.481369,625.825123 C272.481369,623.703044 270.762142,621.982759 268.641369,621.982759 Z M261.267328,625.42428 C261.267467,625.42442 261.267606,625.424559 261.267746,625.424698 L263.303369,627.462576 L265.340681,625.424698 C265.686532,625.078633 266.230898,625.051854 266.607472,625.344472 L266.697908,625.42428 C266.698047,625.42442 266.698186,625.424559 266.698326,625.424698 C267.073297,625.7999 267.073297,626.407977 266.698326,626.783179 L264.661369,628.820576 L266.698326,630.858622 C267.073297,631.233824 267.073297,631.841901 266.698326,632.217103 C266.352474,632.563168 265.808108,632.589947 265.431534,632.29733 L265.340681,632.217103 L265.340681,632.217103 L263.303369,630.178576 L261.267746,632.217103 C260.893073,632.592006 260.285422,632.592193 259.910518,632.217521 L259.910101,632.217103 C259.53513,631.841901 259.53513,631.233824 259.910101,630.858622 L261.946369,628.820576 L259.910101,626.783179 C259.53513,626.407977 259.53513,625.7999 259.910101,625.424698 C260.284773,625.049795 260.892424,625.049608 261.267328,625.42428 Z" id="path-1"></path>
        <filter x="-2.9%" y="-4.1%" width="109.6%" height="113.7%" filterUnits="objectBoundingBox" id="filter-2">
            <feMorphology radius="0.25" operator="dilate" in="SourceAlpha" result="shadowSpreadOuter1"></feMorphology>
            <feOffset dx="0.5" dy="0.5" in="shadowSpreadOuter1" result="shadowOffsetOuter1"></feOffset>
            <feGaussianBlur stdDeviation="0.25" in="shadowOffsetOuter1" result="shadowBlurOuter1"></feGaussianBlur>
            <feComposite in="shadowBlurOuter1" in2="SourceAlpha" operator="out" result="shadowBlurOuter1"></feComposite>
            <feColorMatrix values="0 0 0 0 0   0 0 0 0 0   0 0 0 0 0  0 0 0 0.14 0" type="matrix" in="shadowBlurOuter1"></feColorMatrix>
        </filter>
    </defs>
    <g id="APP" stroke="none" stroke-width="1" fill="none" fill-rule="evenodd">
        <g id="拍视频-copy" transform="translate(-248.000000, -619.000000)" fill-rule="nonzero">
            <g id="合并形状">
                <use fill="black" fill-opacity="1" filter="url(#filter-2)" xlink:href="#path-1"></use>
                <use stroke="#FFFFFF" stroke-width="0.5" fill="#FFFFFF" xlink:href="#path-1"></use>
            </g>
        </g>
    </g>
</svg>