<?xml version="1.0" encoding="UTF-8"?>
<svg width="20px" height="20px" viewBox="0 0 20 20" version="1.1" xmlns="http://www.w3.org/2000/svg" xmlns:xlink="http://www.w3.org/1999/xlink">
    <title>点赞</title>
    <g id="页面-1" stroke="none" stroke-width="1" fill="none" fill-rule="evenodd">
        <g id="AV解说-文章主页" transform="translate(-121.000000, -2140.000000)" fill="#000000" fill-rule="nonzero">
            <g id="点赞" transform="translate(121.000000, 2140.000000)">
                <rect id="矩形" opacity="0" x="0" y="0" width="19.2" height="19.2"></rect>
                <path d="M3.56612297,8.83896718 C3.83698573,8.83896718 4.05623548,8.61923775 4.05623548,8.34887387 C4.05623548,8.07803031 3.83698573,7.85828169 3.56612297,7.85828169 C3.56103842,7.85828169 3.55693239,7.861083 3.55230834,7.861083 L2.38050124,7.86382674 C2.35377375,7.86016204 2.3261253,7.85828169 2.29849603,7.85828169 C1.92954938,7.85828169 1.63059686,8.16093731 1.63059686,8.535429 L1.62416921,16.6603139 C1.62416921,17.0343643 1.92356303,17.3277718 2.29298934,17.3277718 C2.32892659,17.3277718 2.36440333,17.3332593 2.39892073,17.3277718 L3.54309859,17.3281939 C3.54495973,17.3281939 3.54588069,17.3290957 3.54774184,17.3290957 C3.5495646,17.3290957 3.55048558,17.3281939 3.55232753,17.3281939 L3.56614215,17.3281939 L3.56614215,17.3254118 C3.81764524,17.315281 4.01941564,17.1112466 4.01941564,16.8574027 C4.01941564,16.6031559 3.81766442,16.3991214 3.56614215,16.3889907 L3.56614215,16.3816037 L2.61084105,16.3816037 L2.63802902,8.83892882 L3.56612297,8.8389288 L3.56612297,8.83896718 Z M17.3722952,8.13653143 C17.0107355,7.54693438 16.4846858,7.30830577 15.848119,7.28253763 C15.8149255,7.27791356 15.7818087,7.27516982 15.7472338,7.27516982 L11.8950999,7.26225697 C12.147524,6.52988951 12.3207058,5.65745704 12.3207058,4.83755852 C12.3207058,4.30600211 12.2608232,3.78826035 12.1511695,3.28987824 L12.1419789,3.29079922 C11.942511,2.41744575 11.171923,1.76614335 10.2488561,1.76614335 C9.17515202,1.76614335 8.45886326,2.66896804 8.45886326,3.75600703 C8.45886326,3.81679142 8.45333741,3.87577222 8.45886326,3.93473385 C8.40268374,5.96698159 6.74811276,7.60127194 4.77943151,7.82560624 L4.77943151,8.85464295 L4.76469591,13.0214051 L4.76469591,17.3291149 L4.96550696,17.3291149 L14.3409808,17.3332784 L14.504972,17.3287119 C14.8679131,17.3296329 15.0719668,17.2383796 15.4012923,17.026536 C15.7140978,16.8247656 15.9494838,16.5483962 16.1042461,16.2361087 C16.1466302,16.1734632 16.1797853,16.1034499 16.1999892,16.0260879 L17.6440789,9.57001072 C17.6638799,9.49401105 17.6693674,9.41661073 17.6638799,9.34199252 C17.6933127,8.93336717 17.6021553,8.51146442 17.3722952,8.13653143 Z M16.7592324,9.12821107 L15.2032826,16.02415 L15.2014214,16.023229 C15.1535115,16.1383894 15.0724273,16.240656 14.9600683,16.3124921 C14.881747,16.3636255 14.795559,16.3940752 14.708546,16.4055682 C14.6804562,16.4019035 14.6514263,16.4055682 14.6219167,16.4055682 L5.67763215,16.3954375 L5.67440874,8.75652066 C7.34922203,8.00153173 8.57768831,7.26269827 9.21059042,5.50037312 C9.2119527,5.5008336 9.21293123,5.5012941 9.21425513,5.5017354 C9.27049219,5.33041476 9.33263886,5.11296859 9.37732536,4.87990419 C9.48141478,4.33267202 9.47592731,3.79008309 9.47592731,3.79008309 C9.38335009,3.07795791 9.96231754,2.79698361 10.3077601,2.79698361 C10.7822161,2.81311987 11.250206,3.42804375 11.250206,3.77811039 C11.250206,3.77811039 11.3552164,4.29493119 11.3561373,4.85043296 C11.3570391,5.55104595 11.2686255,5.91632788 11.2686255,5.91632788 L11.2598762,5.91632788 C11.1497621,6.49531453 10.9558583,7.04392817 10.6886603,7.54691514 L10.6955676,7.55334279 C10.6513416,7.64363677 10.6260147,7.74498246 10.6260147,7.85227612 C10.6260147,8.22582765 10.9839289,8.25994213 11.3528755,8.25994213 L15.8296611,8.2650075 C15.8296611,8.2650075 16.104649,8.27373757 16.1051095,8.27373757 L16.1051095,8.2756179 C16.3325905,8.26364522 16.5592656,8.37326049 16.6882406,8.58330049 C16.7914474,8.75235707 16.8089459,8.95088486 16.7536106,9.12682957 L16.7592324,9.12821107 Z M5.01593083,17.3858094 C5.05424347,17.3887565 5.06885623,17.3887565 5.05141903,17.3828623 C5.08064467,17.3770909 5.09550307,17.3738982 5.01593083,17.3738982 C4.93635859,17.3738982 4.95121699,17.3770909 4.98338971,17.3828623 C4.96877695,17.3887565 4.98056539,17.3887565 5.01593083,17.3858094 Z" id="形状"></path>
            </g>
        </g>
    </g>
</svg>