<?xml version="1.0" encoding="UTF-8"?>
<svg width="17px" height="16px" viewBox="0 0 17 16" version="1.1" xmlns="http://www.w3.org/2000/svg" xmlns:xlink="http://www.w3.org/1999/xlink">
    <!-- Generator: Sketch 59.1 (86144) - https://sketch.com -->
    <title>兑换码</title>
    <desc>Created with Sketch.</desc>
    <g id="APP" stroke="none" stroke-width="1" fill="none" fill-rule="evenodd">
        <g id="我-左滑-设置" transform="translate(-16.000000, -496.000000)" fill="#FFFFFF" fill-rule="nonzero">
            <g id="分组-copy-8备份" transform="translate(15.000000, 493.000000)">
                <g id="分组-copy-7" transform="translate(0.500000, 0.000000)">
                    <path d="M13.5,3 C14.1903559,3 14.75,3.55964406 14.75,4.25 L14.75,4.25 L14.7508057,6.51128348 C16.1520459,6.63796939 17.25,7.81576423 17.25,9.25 L17.25,9.25 L17.25,17.25 C17.25,18.2164983 16.4664983,19 15.5,19 L15.5,19 L2.5,19 C1.53350169,19 0.75,18.2164983 0.75,17.25 L0.75,17.25 L0.75,9.25 C0.75,7.81542332 1.84847614,6.63740948 3.25019359,6.51119332 L3.25,4.25 C3.25,3.55964406 3.80964406,3 4.5,3 L4.5,3 Z M15.75,10.299 L9.47400284,13.913588 C9.18057906,14.0825226 8.81942094,14.0825226 8.52599716,13.913588 L8.52599716,13.913588 L2.25,10.3 L2.25,17.25 C2.25,17.3683467 2.33223341,17.4674868 2.44267729,17.4933973 L2.5,17.5 L15.5,17.5 C15.6380712,17.5 15.75,17.3880712 15.75,17.25 L15.75,17.25 L15.75,10.299 Z M13.25,4.5 L4.75,4.5 L4.75,10.009 L9,12.4556471 L13.25,10.008 L13.25,4.5 Z M10.767767,6.68933983 C11.3075796,7.22915244 11.3543439,8.08620404 10.8652487,8.7024903 L10.767767,8.81066017 L9,10.5784271 L7.23223305,8.81066017 C6.64644661,8.22487373 6.64644661,7.27512627 7.23223305,6.68933983 C7.66872063,6.25285224 8.3126252,6.13872917 8.86894526,6.36960367 L8.99563779,6.42901692 L9.11963244,6.3693961 C9.6660191,6.13711098 10.322186,6.24375889 10.767767,6.68933983 Z M7.93933983,7.39644661 C7.74407768,7.59170876 7.74407768,7.90829124 7.93933983,8.10355339 L9.00014886,9.16436242 L10.0408848,8.12450245 L10.099937,8.05948397 C10.2561054,7.86227091 10.2405009,7.57628737 10.0606602,7.39644661 C9.86539803,7.20118446 9.54881554,7.20118446 9.35355339,7.39644661 L9.01980824,7.73019176 L8.60237719,7.35716976 C8.40516413,7.2010014 8.11918059,7.21660585 7.93933983,7.39644661 Z M3.25005064,8.02499425 C2.88263782,8.09955922 2.57373848,8.3352736 2.40033904,8.65515099 L3.25,9.145 Z M15.599661,8.65515099 C15.4264165,8.33555943 15.1179141,8.09998053 14.7509341,8.02519452 L14.75,9.145 Z" id="兑换码"></path>
                </g>
            </g>
        </g>
    </g>
</svg>