<?xml version="1.0" encoding="UTF-8"?>
<svg width="16px" height="16px" viewBox="0 0 16 16" version="1.1" xmlns="http://www.w3.org/2000/svg" xmlns:xlink="http://www.w3.org/1999/xlink">
    <title>编组 6@3x</title>
    <g id="页面-3" stroke="none" stroke-width="1" fill="none" fill-rule="evenodd">
        <g id="短视频-福利广场-任务-点击箱子弹出备份-4" transform="translate(-71.000000, -225.000000)">
            <g id="编组-6" transform="translate(71.000000, 225.000000)">
                <circle id="椭圆形" fill="#FF0000" cx="8" cy="8" r="8"></circle>
                <g id="勾" fill-rule="nonzero">
                    <rect id="矩形" fill="#000000" opacity="0" x="0" y="0" width="16" height="16"></rect>
                    <path d="M8.03125,1.7859375 C4.5953125,1.7859375 1.8,4.58125 1.8,8.0171875 C1.8,11.4546875 4.5953125,14.25 8.03125,14.25 C11.4671875,14.25 14.2625,11.4546875 14.2625,8.0171875 C14.2625,4.5828125 11.4671875,1.7859375 8.03125,1.7859375 Z M7.19375,11.5625 C7.1265625,11.66875 6.9703125,11.6671875 6.9078125,11.5578125 C6.5078125,10.8609375 5.2484375,8.9078125 3.3859375,8.3203125 L4.2078125,7.7859375 C4.99375,7.275 6.053125,7.5015625 6.54375,8.3 C6.8984375,8.8765625 7.0453125,9.45 7.0453125,9.45 C7.0453125,9.45 8.9328125,5.2 11.55625,4.403125 C11.55625,4.403125 10.7375,6.2734375 11.9328125,7.6234375 C11.9296875,7.6234375 9.2078125,8.38125 7.19375,11.5625 L7.19375,11.5625 Z" id="形状" fill="#FFFFFF"></path>
                </g>
            </g>
        </g>
    </g>
</svg>