<?xml version="1.0" encoding="UTF-8"?>
<svg width="16px" height="16px" viewBox="0 0 16 16" version="1.1" xmlns="http://www.w3.org/2000/svg" xmlns:xlink="http://www.w3.org/1999/xlink">
    <!-- Generator: Sketch 64 (93537) - https://sketch.com -->
    <title>icon/查看更多备份 2</title>
    <desc>Created with Sketch.</desc>
    <g id="页面-1" stroke="none" stroke-width="1" fill="none" fill-rule="evenodd">
        <g id="有声主页备份" transform="translate(-145.000000, -544.000000)" fill="#FFFFFF">
            <g id="icon/查看更多备份-2" transform="translate(145.000000, 544.000000)">
                <path d="M1.44765078,7.85139055 C1.46669831,7.01901363 1.63812605,6.21139849 1.96002925,5.45140217 C2.28955146,4.67045357 2.76193013,3.97140934 3.36383198,3.36760274 C3.96573382,2.76379614 4.66668281,2.29141747 5.44763141,1.96189526 C6.25524654,1.62094453 7.11238525,1.44761204 7.99809525,1.44761204 C8.88380524,1.44761204 9.74094395,1.62094453 10.5466543,1.96189526 C11.3256982,2.29141747 12.0266472,2.76379614 12.628549,3.36760274 C12.8171195,3.55617325 12.9942615,3.75617229 13.1580703,3.96569508 L12.0114091,4.86092884 C11.9104573,4.9390237 11.9447428,5.09902293 12.0685517,5.12949897 L15.4152022,5.94854262 C15.5104398,5.97139965 15.6037727,5.89901905 15.6037727,5.80187666 L15.6190107,2.35617907 C15.6190107,2.22856064 15.4723448,2.15618003 15.3732976,2.23617965 L14.2990171,3.07617558 C12.8342623,1.20189894 10.5561781,0 7.99619049,0 C3.6324021,0 0.0819431077,3.49712592 2.66453526e-13,7.84377154 C-0.00186601019,7.92948541 0.0667050863,7.99996126 0.152418957,7.99996126 L1.29527057,7.99996126 C1.37907968,7.99996126 1.44574603,7.93329491 1.44765078,7.85139055 Z M15.847581,7.99996126 L14.7047294,7.99996126 C14.6209203,7.99996126 14.554254,8.0666276 14.5523492,8.14853197 C14.5333017,8.98090889 14.361874,9.78852402 14.0399707,10.5485203 C13.7104485,11.3294689 13.2380699,12.0304179 12.636168,12.6323198 C12.0342662,13.2342216 11.3333172,13.708505 10.5523686,14.0380273 C9.74475346,14.378978 8.88761475,14.5523105 8.00190475,14.5523105 C7.11619476,14.5523105 6.25905605,14.378978 5.45144091,14.0380273 C4.67239707,13.708505 3.97144808,13.2361264 3.36954623,12.6323198 C3.18097572,12.4437493 3.00383372,12.2437502 2.84002499,12.0342274 L3.9866861,11.1389937 C4.08763799,11.0608988 4.05335245,10.9008996 3.92954352,10.8704235 L0.582893063,10.0513799 C0.487655429,10.0285229 0.394322547,10.1009035 0.394322547,10.1980459 L0.380989279,13.6456482 C0.380989279,13.7732666 0.527655235,13.8456472 0.626702374,13.7656476 L1.70098289,12.9256517 C3.1657377,14.7980236 5.4438219,15.9999225 8.00380951,15.9999225 C12.3695026,15.9999225 15.9180569,12.5008918 16,8.15615098 C16.001866,8.07043711 15.9332949,7.99996126 15.847581,7.99996126 Z" id="形状"></path>
            </g>
        </g>
    </g>
</svg>