<?xml version="1.0" encoding="UTF-8"?>
<svg width="13px" height="13px" viewBox="0 0 13 13" version="1.1" xmlns="http://www.w3.org/2000/svg" xmlns:xlink="http://www.w3.org/1999/xlink">
    <!-- Generator: Sketch 59.1 (86144) - https://sketch.com -->
    <title>生日</title>
    <desc>Created with Sketch.</desc>
    <g id="页面-1" stroke="none" stroke-width="1" fill="none" fill-rule="evenodd">
        <g id="精选备份-13" transform="translate(-23.000000, -613.000000)" fill-rule="nonzero">
            <g id="生日" transform="translate(23.000000, 613.000000)">
                <rect id="矩形" fill="#000000" opacity="0" x="0" y="0" width="13" height="13"></rect>
                <path d="M6.49675,3.91462746 C6.95175,3.91462746 7.372625,3.71475 7.596875,3.3905625 C7.821125,3.0655625 7.814625,2.6674375 7.580625,2.348125 L6.4959375,0.8125 L5.4136875,2.348125 C5.17927442,2.65410178 5.17267542,3.07742788 5.3974375,3.3905625 C5.620875,3.71475 6.04175,3.9154375 6.49675,3.91462746 Z M9.399,9.07725 L8.71975,8.5215 L8.03725,9.07725 C7.213375,9.751625 5.773625,9.751625 4.94975,9.07725 L4.2705,8.5215 L3.588,9.07725 C3.183375,9.41525 2.62925,9.6045625 2.05075,9.602125 C1.61759771,9.60407462 1.19121184,9.49468035 0.8125,9.2844375 L0.8125,11.67075 C0.8125,11.955125 1.096875,12.1875 1.4438125,12.1875 L11.5496875,12.1875 C11.896625,12.1875 12.181,11.955125 12.181,11.67075 L12.181,9.2844375 C11.802651,9.49485278 11.3764805,9.6042636 10.9435625,9.602125 C10.3634375,9.60375 9.806875,9.41525 9.3998125,9.07725 L9.399,9.07725 Z M10.28625,5.4656875 L7.1280625,5.4656875 L7.1280625,4.4321875 L5.86625,4.4321875 L5.86625,5.4656875 L2.70725,5.4656875 C1.662375,5.4656875 0.8125,6.1611875 0.8125,7.0175625 L0.8125,7.8138125 C0.8125,8.372 1.36825,8.827 2.05075,8.827 C2.38225,8.827 2.6918125,8.721375 2.925,8.529625 L4.277,7.4254375 L5.62575,8.5271875 C6.0929375,8.9090625 6.9070625,8.9090625 7.3750625,8.5271875 L8.72625,7.4254375 L10.075,8.5271875 C10.3081875,8.718125 10.61775,8.8245625 10.94925,8.8245625 C11.63175,8.8245625 12.1875,8.3695625 12.1875,7.8105625 L12.1875,7.01675 C12.181,6.1611875 11.3319375,5.4656875 10.28625,5.4656875 Z" id="形状" fill="#FF6290"></path>
            </g>
        </g>
    </g>
</svg>