<?xml version="1.0" encoding="UTF-8"?>
<svg width="12px" height="15px" viewBox="0 0 12 15" version="1.1" xmlns="http://www.w3.org/2000/svg" xmlns:xlink="http://www.w3.org/1999/xlink">
    <!-- Generator: Sketch 59.1 (86144) - https://sketch.com -->
    <title>地址</title>
    <desc>Created with Sketch.</desc>
    <g id="页面-1" stroke="none" stroke-width="1" fill="none" fill-rule="evenodd">
        <g id="精选备份-12" transform="translate(-16.000000, -36.000000)" fill="#FFFFFF" fill-rule="nonzero">
            <g id="地址" transform="translate(16.000000, 36.000000)">
                <path d="M6.00002475,-8.8817842e-16 C9.30902475,-8.8817842e-16 12.0000655,2.723 12.0000655,6.07 C12.0055966,7.57415969 11.4389692,9.02415375 10.4150247,10.126 L6.98602475,14.511 C6.75086286,14.8166347 6.38761494,14.9963878 6.00198399,14.9979625 C5.61635303,14.9995167 5.25165864,14.8227167 5.01402475,14.519 L1.51602475,10.094 C0.536269247,8.98278948 -0.00297212966,7.55145222 1.23221062e-05,6.07 C1.23221062e-05,2.723 2.69102475,-8.8817842e-16 6.00002475,-8.8817842e-16 Z M9.05402475,5.86 C9.05402475,4.174 7.69002475,2.801 6.01402475,2.801 C5.20502475,2.801 4.44302475,3.122 3.87102475,3.703 C3.29885134,4.28109847 2.97947643,5.0626319 2.98299549,5.876 C2.98902475,7.562 4.35302475,8.93604047 6.02202475,8.93604047 C6.8294869,8.94021896 7.60362368,8.61438071 8.16502475,8.034 C8.73802475,7.454 9.05402475,6.681 9.05402475,5.861 L9.05402475,5.86 Z M7.76402475,5.86 C7.76402475,6.334 7.58402475,6.776 7.25702475,7.108 C6.93274946,7.44152719 6.48720709,7.62948474 6.02202475,7.62900094 C5.05602475,7.62900094 4.27202475,6.839 4.27202475,5.869 C4.27202475,5.396 4.45202475,4.953 4.77802475,4.622 C5.11802475,4.286 5.55802475,4.101 6.02202475,4.101 C6.48902475,4.101 6.92702475,4.283 7.25702475,4.617 C7.58702475,4.95 7.76902475,5.392 7.76502475,5.861 L7.76402475,5.86 Z" id="形状"></path>
            </g>
        </g>
    </g>
</svg>