<?xml version="1.0" encoding="UTF-8"?>
<svg width="10px" height="12px" viewBox="0 0 10 12" version="1.1" xmlns="http://www.w3.org/2000/svg" xmlns:xlink="http://www.w3.org/1999/xlink">
    <!-- Generator: Sketch 59.1 (86144) - https://sketch.com -->
    <title>编组 4</title>
    <desc>Created with Sketch.</desc>
    <g id="页面-1" stroke="none" stroke-width="1" fill="none" fill-rule="evenodd">
        <g id="精选备份-13" transform="translate(-25.000000, -687.000000)">
            <g id="编组-4" transform="translate(23.000000, 686.000000)">
                <rect id="矩形" fill="#D8D8D8" opacity="0" x="0" y="0" width="13" height="13"></rect>
                <path d="M6.71630682,12.5 L6.70454545,12.5 C6.49872159,12.5 6.30465909,12.4195 6.16352273,12.27 C6.05178977,12.155 5.04619318,11.11425 4.04059659,9.80325 C2.68803977,8.0265 2,6.60625 2,5.59425 C2,3.0585 4.11116477,1 6.70454545,1 C9.29792614,1 11.4090909,3.0585 11.4090909,5.59425 C11.4090909,6.2095 11.167983,6.96275 10.685767,7.83675 C10.2270739,8.67625 9.53315341,9.65375 8.62164773,10.73475 L8.61576705,10.7405 L7.26321023,12.247 C7.12795455,12.408 6.92801136,12.5 6.71630682,12.5 Z M6.70454545,7.739 C7.92184659,7.739 8.90392045,6.773 8.90392045,5.5885 C8.90392045,4.404 7.92184659,3.44375 6.70454545,3.44375 C5.48724432,3.44375 4.49928977,4.404 4.49928977,5.59425 C4.49928977,6.7845 5.48724432,7.739 6.70454545,7.739 Z" id="形状" fill="#FF6290" fill-rule="nonzero"></path>
            </g>
        </g>
    </g>
</svg>