<?xml version="1.0" encoding="UTF-8"?>
<svg width="41px" height="42px" viewBox="0 0 41 42" version="1.1" xmlns="http://www.w3.org/2000/svg" xmlns:xlink="http://www.w3.org/1999/xlink">
    <!-- Generator: Sketch 59.1 (86144) - https://sketch.com -->
    <title>形状结合</title>
    <desc>Created with Sketch.</desc>
    <g id="页面-1" stroke="none" stroke-width="1" fill="none" fill-rule="evenodd">
        <g id="发布/图片" transform="translate(-49.000000, -365.000000)" fill="#ABA7A7">
            <g id="编组-2" transform="translate(16.000000, 333.000000)">
                <path d="M53.4423077,32 C55.0991619,32 56.4423077,33.3431458 56.4423077,35 L56.442,49.666 L70.7692308,49.6666667 C72.426085,49.6666667 73.7692308,51.0098124 73.7692308,52.6666667 L73.7692308,52.9019608 C73.7692308,54.558815 72.426085,55.9019608 70.7692308,55.9019608 L56.442,55.901 L56.4423077,70.5686275 C56.4423077,72.2254817 55.0991619,73.5686275 53.4423077,73.5686275 L53.3269231,73.5686275 C51.6700688,73.5686275 50.3269231,72.2254817 50.3269231,70.5686275 L50.326,55.901 L36,55.9019608 C34.3431458,55.9019608 33,54.558815 33,52.9019608 L33,52.6666667 C33,51.0098124 34.3431458,49.6666667 36,49.6666667 L50.326,49.666 L50.3269231,35 C50.3269231,33.3431458 51.6700688,32 53.3269231,32 L53.4423077,32 Z" id="形状结合"></path>
            </g>
        </g>
    </g>
</svg>