<?xml version="1.0" encoding="UTF-8"?>
<svg width="12px" height="6px" viewBox="0 0 12 6" version="1.1" xmlns="http://www.w3.org/2000/svg" xmlns:xlink="http://www.w3.org/1999/xlink">
    <!-- Generator: Sketch 59.1 (86144) - https://sketch.com -->
    <title>更多备份</title>
    <desc>Created with Sketch.</desc>
    <g id="页面-1" stroke="none" stroke-width="1" fill="none" fill-rule="evenodd">
        <g id="撩吧备份-7" transform="translate(-332.000000, -317.000000)" fill-rule="nonzero">
            <g id="更多备份" transform="translate(337.500000, 320.000000) rotate(-270.000000) translate(-337.500000, -320.000000) translate(331.000000, 313.500000)">
                <rect id="矩形" fill="#000000" opacity="0" x="0" y="0" width="12.8" height="12.8"></rect>
                <path d="M8.8,5.37142858 L4.89142858,1.12 C4.771566,0.99463397 4.60760782,0.920852788 4.43428571,0.914273919 C4.25265495,0.913195596 4.07875891,0.98772247 3.95428571,1.12 C3.82292078,1.24510946 3.74857142,1.41859129 3.74857142,1.6 C3.74857142,1.78140871 3.82292078,1.95489054 3.95428571,2.08 L7.86285714,6.33142858 C7.93142856,6.4 7.93142856,6.46857144 7.86285714,6.46857143 L3.88571429,10.72 C3.74496508,10.8403947 3.66189383,11.0148443 3.65714286,11.2 C3.65767472,11.3812991 3.73193836,11.554581 3.86285714,11.68 C3.99945449,11.7937795 4.16625998,11.8652676 4.34285714,11.8857143 C4.52494378,11.8890968 4.69972958,11.8141886 4.82285714,11.68 L8.73142858,7.42857143 C9.04815999,7.18632188 9.23951841,6.81476753 9.25280279,6.41623628 C9.26608716,6.01770503 9.09989631,5.63423238 8.8,5.37142858 Z" id="路径" fill="#FFFFFF"></path>
            </g>
        </g>
    </g>
</svg>