<?xml version="1.0" encoding="UTF-8"?>
<svg width="14px" height="13px" viewBox="0 0 14 13" version="1.1" xmlns="http://www.w3.org/2000/svg" xmlns:xlink="http://www.w3.org/1999/xlink">
    <!-- Generator: Sketch 54.1 (76490) - https://sketchapp.com -->
    <title>分组</title>
    <desc>Created with Sketch.</desc>
    <g id="影院和社区" stroke="none" stroke-width="1" fill="none" fill-rule="evenodd">
        <g id="发布/视频" transform="translate(-102.000000, -204.000000)">
            <g id="分组" transform="translate(102.000000, 204.500000)">
                <circle id="椭圆形" fill="#BDBDBD" cx="7" cy="6.22222222" r="6.22222222"></circle>
                <path d="M7,5.25215439 L8.94013566,3.31201874 C9.20801249,3.0441419 9.64232665,3.0441419 9.91020349,3.31201874 C10.1780803,3.57989557 10.1780803,4.01420973 9.91020349,4.28208657 L7.97006783,6.22222222 L9.91020349,8.16235788 C10.1780803,8.43023471 10.1780803,8.86454887 9.91020349,9.13242571 C9.64232665,9.40030254 9.20801249,9.40030254 8.94013566,9.13242571 L7,7.19229005 L5.05986434,9.13242571 C4.79198751,9.40030254 4.35767335,9.40030254 4.08979651,9.13242571 C3.82191968,8.86454887 3.82191968,8.43023471 4.08979651,8.16235788 L6.02993217,6.22222222 L4.08979651,4.28208657 C3.82191968,4.01420973 3.82191968,3.57989557 4.08979651,3.31201874 C4.35767335,3.0441419 4.79198751,3.0441419 5.05986434,3.31201874 L7,5.25215439 Z" id="合并形状" fill="#FFFFFF"></path>
            </g>
        </g>
    </g>
</svg>