<?xml version="1.0" encoding="UTF-8"?>
<svg width="22px" height="22px" viewBox="0 0 22 22" version="1.1" xmlns="http://www.w3.org/2000/svg" xmlns:xlink="http://www.w3.org/1999/xlink">
    <!-- Generator: Sketch 59.1 (86144) - https://sketch.com -->
    <title>关闭</title>
    <desc>Created with Sketch.</desc>
    <g id="APP" stroke="none" stroke-width="1" fill="none" fill-rule="evenodd">
        <g id="已绑定手机1" transform="translate(-304.000000, -282.000000)" fill="#FFFFFF">
            <g id="关闭" transform="translate(304.000000, 282.000000)">
                <path d="M20.9334021,6.80516129 C20.3961287,5.57462501 19.6271113,4.46956622 18.6476603,3.520808 C17.668328,2.57196351 16.5277128,1.82709184 15.2573648,1.30663627 C13.9419324,0.767520085 12.5448791,0.494252874 11.1052642,0.494252874 C9.66553061,0.494252874 8.26856636,0.767520085 6.95301525,1.30663627 C5.68278602,1.82709184 4.54208176,2.57207853 3.56274947,3.520808 C2.58329847,4.46956622 1.81437007,5.57462501 1.27712635,6.80516129 C0.720620096,8.0796032 0.438538206,9.43291421 0.438538206,10.8276293 C0.438538206,12.2222582 0.720620096,13.5756842 1.27712635,14.8500111 C1.81437007,16.0806624 2.58341719,17.1856062 3.56274947,18.1343644 C4.54208176,19.0832089 5.68278602,19.8281956 6.95301525,20.3486512 C8.26856636,20.8876523 9.66553061,21.1609195 11.1052642,21.1609195 C12.5448791,21.1609195 13.9419324,20.8876523 15.2573648,20.3486512 C16.5277128,19.8281956 17.668328,19.0832089 18.6476603,18.1343644 C19.6271113,17.1856062 20.3961287,16.0806624 20.9334021,14.8500111 C21.4897896,13.5756842 21.7718715,12.2222582 21.7718715,10.8276293 C21.7718715,9.43291421 21.4897896,8.0796032 20.9334021,6.80516129 Z M11.1052642,19.7486652 C6.02749341,19.7486652 1.89634715,15.7466404 1.89634715,10.8276293 C1.89634715,5.90853201 6.02749341,1.90650725 11.1052642,1.90650725 C16.1829163,1.90650725 20.3140329,5.90853201 20.3140329,10.8276293 C20.3140329,15.7466404 16.1829163,19.7486652 11.1052642,19.7486652 Z" id="Fill-1"></path>
                <path d="M15.3349819,6.45546423 C15.0817667,6.20236134 14.682983,6.19080155 14.4440906,6.42958159 L10.8660331,10.0077578 L7.28786283,6.42958159 C7.04908319,6.19080155 6.65015851,6.20236134 6.39708424,6.45557701 C6.14386899,6.7086517 6.13230922,7.10757704 6.37120164,7.34635708 L9.94925912,10.9244205 L6.37120164,14.5025967 C6.13230922,14.7414895 6.14398177,15.1402739 6.39708424,15.3934896 C6.65027129,15.6465643 7.04908319,15.658124 7.28794741,15.4193722 L10.8660331,11.8411678 L14.4440906,15.4193722 C14.682983,15.658124 15.0817667,15.6465643 15.3349819,15.3934896 C15.5880562,15.1402739 15.5997287,14.7414895 15.3608645,14.5025967 L11.7826661,10.9244205 L15.3608645,7.34635708 C15.599616,7.10746427 15.5880562,6.7086517 15.3349819,6.45546423 Z" id="Fill-2"></path>
            </g>
        </g>
    </g>
</svg>