<svg width="20" height="20" viewBox="0 0 20 20" fill="none" xmlns="http://www.w3.org/2000/svg">
    <path d="M7.64 14.638V6.594a1.6 1.6 0 0 1 .27-.886l2.161-3.214c.34-.515 1.188-.88 1.908-.61.776.261 1.29 1.132 1.124 1.908l-.412 2.589a.794.794 0 0 0 .167.617c.134.15.332.246.546.246h3.254c.625 0 1.163.253 1.48.696.301.428.356.982.159 1.544l-1.948 5.93c-.245.981-1.314 1.78-2.375 1.78h-3.088c-.53 0-1.274-.181-1.615-.522l-1.013-.783a1.571 1.571 0 0 1-.617-1.251zM5.123 5.05h-.815c-1.227 0-1.726.476-1.726 1.647v7.965c0 1.171.499 1.646 1.726 1.646h.815c1.227 0 1.726-.475 1.726-1.646V6.697c0-1.171-.499-1.646-1.726-1.646z" fill="#00D6BE"/>
</svg>
