<?xml version="1.0" encoding="UTF-8"?>
<svg width="45px" height="45px" viewBox="0 0 45 45" version="1.1" xmlns="http://www.w3.org/2000/svg"
    xmlns:xlink="http://www.w3.org/1999/xlink">
    <!-- Generator: Sketch 54.1 (76490) - https://sketchapp.com -->
    <title>举报 copy 5</title>
    <desc>Created with Sketch.</desc>
    <g id="APP" stroke="none" stroke-width="1" fill="none" fill-rule="evenodd">
        <g id="首页-分享到" transform="translate(-74.000000, -613.000000)">
            <g id="编组-3" transform="translate(-1.000000, 481.295567)">
                <g id="分组-6" transform="translate(74.000000, 131.000000)">
                    <g id="举报-copy-5">
                        <g id="举报-copy-3" transform="translate(0.880000, 0.103448)">
                            <g id="lianjie">
                                <g id="分组-9">
                                    <circle id="椭圆形复制-2" fill="#E8E8E8" cx="22.62" cy="23.1009852"
                                        r="22.5"></circle>
                                    <path
                                        d="M18.4943439,22.6845037 C18.6679152,23.093412 18.4771368,23.5656051 18.0682285,23.7391763 C17.6593201,23.9127476 17.1871271,23.7219693 17.0135558,23.3130609 L14.5375571,17.4799735 C13.522321,15.0882272 14.638203,12.3263222 17.0299494,11.3110861 C19.4216957,10.29585 22.1836007,11.4117321 23.1988368,13.8034784 L25.6748355,19.6365658 C26.6900716,22.0283122 25.5741895,24.7902171 23.1824432,25.8054532 C22.7735348,25.9790245 22.3013418,25.7882461 22.1277705,25.3793378 C21.9541992,24.9704294 22.1449776,24.4982364 22.5538859,24.3246651 C24.1278156,23.6565716 24.8621409,21.8390527 24.1940474,20.2651231 L21.7180487,14.4320357 C21.0499552,12.858106 19.2324363,12.1237808 17.6585066,12.7918743 C16.084577,13.4599678 15.3502517,15.2774866 16.0183452,16.8514163 L18.4943439,22.6845037 Z M26.6208946,24.2105203 C26.4473233,23.801612 26.6381017,23.3294189 27.04701,23.1558476 C27.4559184,22.9822763 27.9281114,23.1730547 28.1016827,23.5819631 L30.7024429,28.7219969 C31.717679,31.1137433 30.601797,33.8756482 28.2100506,34.8908843 C25.8183043,35.9061204 23.0563993,34.7902384 22.0411632,32.398492 L19.5651645,26.5654046 C18.5499284,24.1736583 19.6658105,21.4117533 22.0575568,20.3965172 C22.4664652,20.2229459 22.9386582,20.4137243 23.1122295,20.8226327 C23.2858008,21.231541 23.0950224,21.703734 22.6861141,21.8773053 C21.1121844,22.5453988 20.3778591,24.3629177 21.0459526,25.9368474 L23.5219513,31.7699348 C24.1900448,33.3438644 26.0075637,34.0781897 27.5814934,33.4100962 C29.155423,32.7420027 29.8897483,30.9244838 29.2216548,29.3505542 L26.6208946,24.2105203 Z"
                                        id="合并形状" fill="#4A4A4A" fill-rule="nonzero"
                                        transform="translate(22.620000, 23.100985) rotate(-15.000000) translate(-22.620000, -23.100985) "></path>
                                </g>
                            </g>
                        </g>
                    </g>
                </g>
            </g>
        </g>
    </g>
</svg>