<?xml version="1.0" encoding="UTF-8"?>
<svg width="13px" height="9px" viewBox="0 0 13 9" version="1.1" xmlns="http://www.w3.org/2000/svg" xmlns:xlink="http://www.w3.org/1999/xlink">
    <!-- Generator: Sketch 59.1 (86144) - https://sketch.com -->
    <title>形状</title>
    <desc>Created with Sketch.</desc>
    <g id="页面-1" stroke="none" stroke-width="1" fill="none" fill-rule="evenodd">
        <g id="精选备份-12" transform="translate(-81.000000, -369.000000)" fill="#FFFFFF" fill-rule="nonzero">
            <g id="编组-11" transform="translate(16.000000, 211.000000)">
                <g id="浏览" transform="translate(65.000000, 156.500000)">
                    <path d="M12.6322097,6.13979904 C12.5175223,5.99635511 9.82130327,2.41102453 6.40803767,2.41102453 C2.99483981,2.41102453 0.29859065,5.99636264 0.18390325,6.13979904 C0.0691481125,6.28317524 0.0691481125,6.51269305 0.18390325,6.65607676 C0.298590662,6.79952069 2.99483229,10.3848513 6.40803767,10.3848513 C9.82130327,10.3848513 12.5175223,6.79952069 12.6322097,6.65607676 C12.7469875,6.48401178 12.7469875,6.28317523 12.6322097,6.13979904 Z M6.40803767,9.49568706 C3.91267775,9.49568706 1.73277406,7.17240718 1.07305992,6.36924159 C1.73277406,5.59483253 3.91267775,3.24280364 6.40803767,3.24280364 C8.90343522,3.24280364 11.0833464,5.56614374 11.7430606,6.36924159 C11.0833389,7.17240718 8.90343522,9.49568706 6.40803767,9.49568706 Z M6.43671894,4.53355065 C5.43285979,4.53355065 4.60101294,5.36532976 4.60101294,6.36924911 C4.60101294,7.37317599 5.43286731,8.20495511 6.43671894,8.20495511 C7.44062324,8.20495511 8.27240235,7.373176 8.27240235,6.36924911 C8.27240235,5.36532976 7.44062324,4.53355065 6.43671894,4.53355065 L6.43671894,4.53355065 Z M6.43671894,7.37316848 C5.89175995,7.37316848 5.46154857,6.9428969 5.46154857,6.3979379 C5.46154857,5.85297139 5.89175995,5.42270733 6.43671894,5.42270733 C6.98174566,5.42270733 7.41192692,5.85297138 7.41192692,6.3979379 C7.41192692,6.94289689 6.98174566,7.37316848 6.43671894,7.37316848 L6.43671894,7.37316848 Z" id="形状"></path>
                </g>
            </g>
        </g>
    </g>
</svg>