<?xml version="1.0" encoding="UTF-8"?>
<svg width="29px" height="22px" viewBox="0 0 29 22" version="1.1" xmlns="http://www.w3.org/2000/svg" xmlns:xlink="http://www.w3.org/1999/xlink">
    <!-- Generator: Sketch 59.1 (86144) - https://sketch.com -->
    <title>隐藏</title>
    <desc>Created with Sketch.</desc>
    <g id="页面-1" stroke="none" stroke-width="1" fill="none" fill-rule="evenodd" opacity="0.5">
        <g id="首页" transform="translate(-312.000000, -652.000000)" fill-rule="nonzero">
            <g id="隐藏" transform="translate(312.000000, 648.000000)">
                <rect id="矩形" fill="#000000" opacity="0" x="0" y="0" width="29.3008696" height="29.3008696"></rect>
                <path d="M14.8701913,25.4185043 C6.59269565,25.4185043 0.732521739,18.6793043 0.732521739,15.0899478 C0.732521739,11.4273391 6.59269565,4.7613913 14.8701913,4.7613913 C23.147687,4.7613913 29.0078609,11.5005913 29.0078609,15.0899478 C29.0078609,18.6060522 23.0011826,25.4185043 14.8701913,25.4185043 Z M14.8701913,9.30302609 C11.7203478,9.30302609 9.15652174,11.8668522 9.15652174,15.0899478 C9.15652174,18.2397913 11.7203478,20.8768696 14.8701913,20.8768696 C18.0200348,20.8768696 20.5838609,18.3130435 20.5838609,15.0899478 C20.5838609,11.8668522 18.0200348,9.30302609 14.8701913,9.30302609 Z M14.8701913,19.0533217 C17.0855759,19.0533217 18.8701913,17.2823294 18.8701913,15.0838561 C18.8701913,12.8853828 17.0855759,11.0533217 14.8701913,11.0533217 C12.6548067,11.0533217 10.8701913,12.8243141 10.8701913,15.0227874 C10.8701913,17.2212607 12.6548067,19.0533217 14.8701913,19.0533217 Z" id="形状" fill="#FFFFFF"></path>
            </g>
        </g>
    </g>
</svg>