<?xml version="1.0" encoding="UTF-8"?>
<svg width="29px" height="25px" viewBox="0 0 29 25" version="1.1" xmlns="http://www.w3.org/2000/svg" xmlns:xlink="http://www.w3.org/1999/xlink">
    <!-- Generator: Sketch 59.1 (86144) - https://sketch.com -->
    <title>隐藏</title>
    <desc>Created with Sketch.</desc>
    <g id="页面-1" stroke="none" stroke-width="1" fill="none" fill-rule="evenodd" opacity="1">
        <g id="首页/隐藏" transform="translate(-313.000000, -650.000000)">
            <g id="隐藏" transform="translate(312.000000, 648.000000)">
                <rect id="矩形" fill="#FFFFFF" fill-rule="nonzero" opacity="0" x="0" y="0" width="30" height="30"></rect>
                <path d="M8.77620317,6.37915719 L11.4791199,10.8765277 C10.2239387,11.9335523 9.424,13.5282052 9.424,15.3285565 C9.424,18.4784 11.9878261,21.1154783 15.1376696,21.1154783 C15.9258016,21.1154783 16.6772451,20.9549659 17.3610177,20.6637759 L19.8862563,24.8687789 C18.4177612,25.3643097 16.8233675,25.657113 15.1376696,25.657113 C6.86017391,25.657113 1,18.917913 1,15.3285565 C1,12.7011243 4.01573031,8.52813031 8.77620317,6.37915719 Z M15.1376696,5 C23.4151652,5 29.2753391,11.7392 29.2753391,15.3285565 C29.2753391,17.7932616 26.3238528,21.8776848 21.7581098,24.0999828 L19.0353035,19.5675643 C20.1520915,18.5152173 20.8513391,17.0117902 20.8513391,15.3285565 C20.8513391,12.1054609 18.287513,9.54163478 15.1376696,9.54163478 C14.462247,9.54163478 13.8137697,9.65952067 13.2117382,9.87651424 L10.6802503,5.66306637 C12.0617169,5.24352847 13.555537,5 15.1376696,5 Z M12.3822409,12.3794084 L16.4127643,19.0873885 C16.0125806,19.220091 15.583862,19.2919304 15.1376696,19.2919304 C12.9222849,19.2919304 11.1376696,17.4598694 11.1376696,15.2613961 C11.1376696,14.1244727 11.6149401,13.1018732 12.3822409,12.3794084 Z M15.1376696,11.2919304 C17.3530542,11.2919304 19.1376696,13.1239915 19.1376696,15.3224648 C19.1376696,16.3565506 18.7428348,17.296059 18.0940537,18.0011769 L14.136835,11.4162849 C14.4565164,11.3350854 14.7918446,11.2919304 15.1376696,11.2919304 Z" id="形状结合" fill="#FFFFFF" fill-rule="nonzero"></path>
                <rect id="矩形" fill="#FFFFFF" transform="translate(16.000000, 14.500000) rotate(-31.000000) translate(-16.000000, -14.500000) " x="15" y="0.5" width="2" height="28" rx="1"></rect>
            </g>
        </g>
    </g>
</svg>