<?xml version="1.0" encoding="UTF-8"?>
<svg width="16px" height="16px" viewBox="0 0 16 16" version="1.1" xmlns="http://www.w3.org/2000/svg" xmlns:xlink="http://www.w3.org/1999/xlink">
    <title>反馈备份</title>
    <g id="页面-1" stroke="none" stroke-width="1" fill="none" fill-rule="evenodd">
        <g id="用户反馈" transform="translate(-181.000000, -564.000000)" fill-rule="nonzero">
            <g id="反馈备份" transform="translate(181.000000, 564.000000)">
                <rect id="矩形" fill="#000000" opacity="0" x="0" y="0" width="16" height="16"></rect>
                <path d="M6.497,11.8 L8,13.303 L9.503,11.8 L13.8,11.8 L13.8,3.2 L11,3.2 L11,2 L15,2 L15,13 L10,13 L8,15 L6,13 L1,13 L1,2 L5,2 L5,3.2 L2.2,3.2 L2.2,11.8 L6.497,11.8 Z M7.4,1 L8.6,1 L8.6,8 L7.4,8 L7.4,1 Z M7.4,9 L8.6,9 L8.6,10.2 L7.4,10.2 L7.4,9 Z" id="形状" fill="#FFFFFF"></path>
            </g>
        </g>
    </g>
</svg>