<svg xmlns="http://www.w3.org/2000/svg" xmlns:xlink="http://www.w3.org/1999/xlink" width="36.439" height="36.326" viewBox="0 0 36.439 36.326">
  <defs>
    <linearGradient id="linear-gradient" x1="-2.909" y1="2.647" x2="-2.909" y2="2.601" gradientUnits="objectBoundingBox">
      <stop offset="0" stop-color="#ff972a"/>
      <stop offset="1" stop-color="#ffcc34"/>
    </linearGradient>
    <linearGradient id="linear-gradient-2" x1="-2.973" y1="2.537" x2="-2.967" y2="2.492" gradientUnits="objectBoundingBox">
      <stop offset="0" stop-color="#fecf32"/>
      <stop offset="1" stop-color="#ff8700"/>
    </linearGradient>
    <linearGradient id="linear-gradient-3" x1="-1.796" y1="2.78" x2="-1.768" y2="2.752" gradientUnits="objectBoundingBox">
      <stop offset="0" stop-color="#fbcc29"/>
      <stop offset="1" stop-color="#feef5b"/>
    </linearGradient>
    <linearGradient id="linear-gradient-4" x1="-1.792" y1="2.781" x2="-1.765" y2="2.752" gradientUnits="objectBoundingBox">
      <stop offset="0" stop-color="#fff" stop-opacity="0"/>
      <stop offset="0.575" stop-color="#fff" stop-opacity="0"/>
      <stop offset="1" stop-color="#fff" stop-opacity="0.49"/>
    </linearGradient>
  </defs>
  <g id="icon_jb_3_" data-name="icon_jb (3)" transform="translate(-6.319 -6.335)">
    <g id="椭圆形" transform="matrix(0.966, -0.259, 0.259, 0.966, 6.319, 13.318)">
      <g id="path-2-link" transform="translate(0 0)">
        <path id="path-2" d="M13.49,0a13.5,13.5,0,0,1,13.49,13.366A13.49,13.49,0,0,1,0,13.366,13.5,13.5,0,0,1,13.49,0Z" fill="url(#linear-gradient)"/>
      </g>
    </g>
    <g id="椭圆形_1_" transform="matrix(0.966, -0.259, 0.259, 0.966, 8.674, 15.716)">
      <g id="path-5-link" transform="translate(0 0)">
        <path id="path-5" d="M13.49,0a13.5,13.5,0,0,1,13.49,13.366A13.49,13.49,0,0,1,0,13.366,13.5,13.5,0,0,1,13.49,0Z" fill="url(#linear-gradient-2)"/>
      </g>
    </g>
    <path id="椭圆形_2_" d="M37.164,12.18a17.48,17.48,0,0,1,0,24.875A17.59,17.59,0,0,1,12.289,12.18,17.7,17.7,0,0,1,37.164,12.18Zm-2.97,3.094a13.3,13.3,0,1,0,0,18.811A13.3,13.3,0,0,0,34.194,15.274Z" transform="translate(0.194 0.176)" fill="url(#linear-gradient-3)"/>
    <path id="椭圆形_3_" d="M37.064,12.18a17.48,17.48,0,0,1,0,24.875A17.59,17.59,0,0,1,12.189,12.18,17.7,17.7,0,0,1,37.064,12.18ZM33.97,15.274a13.3,13.3,0,1,0,0,18.811A13.3,13.3,0,0,0,33.97,15.274Z" transform="translate(0.171 0.176)" stroke="#707070" stroke-width="0.65" fill="url(#linear-gradient-4)"/>
    <g id="合并形状" transform="translate(8.535 8.547)" opacity="0.8">
      <g id="path-10-link" transform="translate(0 0)">
        <path id="path-10" d="M18,32.472a.121.121,0,0,1,.124.124l.124.124h0c.248,0,.5.371.5.619,0,.124,0,.124-.124.248l-.124.124c0,.248-.124.619-.371.619h-.371a.6.6,0,0,1-.743-.248V33.71a.464.464,0,0,1,0-.743.432.432,0,0,1,.248-.124h.124C17.377,32.348,17.748,32.225,18,32.472Zm15.47-15.717a.121.121,0,0,1,.124.124l.124.124c.248,0,.5.371.5.619,0,.124,0,.124-.124.248l-.124.124c0,.248-.124.619-.371.619h-.371a.6.6,0,0,1-.743-.248v-.371a.464.464,0,0,1,0-.743.383.383,0,0,1,.248-.124h0Q33.094,16.569,33.465,16.755Zm-30.939,0a.121.121,0,0,1,.124.124L2.773,17h0c.248,0,.5.371.5.619,0,.124,0,.124-.124.248l-.124.124c0,.248-.124.619-.371.619H2.278a.6.6,0,0,1-.743-.248v-.371a.464.464,0,0,1,0-.743A.266.266,0,0,1,1.783,17h0A.6.6,0,0,1,2.526,16.755ZM18,1.409a.121.121,0,0,1,.124.124l.124.124h0c.248,0,.5.371.5.619,0,.124,0,.124-.124.248l-.124.124c0,.248-.124.619-.371.619h-.371a.6.6,0,0,1-.743-.248V2.646a.464.464,0,0,1,0-.743.383.383,0,0,1,.248-.124h0A.552.552,0,0,1,18,1.409Z" transform="translate(-1.35 -1.362)" fill="#ff7b32"/>
      </g>
    </g>
    <g id="组_985" data-name="组 985" transform="translate(17.929 18.42)">
      <path id="路径_151" data-name="路径 151" d="M16.938,28.6c0,.371,0,.5-.248.248l-.99-.866a16.566,16.566,0,0,0,1.856-4.208l.99.743A17.566,17.566,0,0,1,16.938,28.6Zm.866-6.435A17.709,17.709,0,0,0,15.948,20.8l.743-.99a14.323,14.323,0,0,1,1.98,1.361Zm.371-3.465a9.345,9.345,0,0,0-1.733-1.361l.866-.99a6.019,6.019,0,0,1,1.733,1.361Zm3.713,9.282a.266.266,0,0,0,.248-.248l.124-5.2H21.145c0,3.094-.743,5.322-2.351,6.559l-.743-.99c1.361-1.114,1.98-3.218,1.98-6.312V19.565H18.794V18.451h1.733V16.1H21.64q.557,0,0,.371v1.98h2.1v1.114h-2.6v1.856h2.1l-.124,6.188c0,.99-.371,1.485-.866,1.485H21.022L20.9,27.981ZM23.249,20.8a10.487,10.487,0,0,0,1.98-4.7l.99.124q.371.186,0,.371c-.124.371-.248.866-.5,1.485h3.094v1.114H25.229a11.446,11.446,0,0,1-1.238,2.475Zm3.094,1.733.743-.99H24.858V20.432H27.7l.124-.124.619.743c.248.248.124.371-.124.371l-1.238,1.238v1.361h1.98v1.114h-1.98v2.846c0,.619-.248.99-.743.99H25.229l-.124-1.114h.619a.266.266,0,0,0,.248-.248V25.134h-2.1V24.02h2.1V22.412Z" transform="translate(-15.7 -16.1)" fill="#fff"/>
    </g>
  </g>
</svg>
