<?xml version="1.0" encoding="UTF-8"?>
<svg width="18px" height="18px" viewBox="0 0 18 18" version="1.1" xmlns="http://www.w3.org/2000/svg" xmlns:xlink="http://www.w3.org/1999/xlink">
    <!-- Generator: Sketch 59.1 (86144) - https://sketch.com -->
    <title>icon_jb (3)</title>
    <desc>Created with Sketch.</desc>
    <defs>
        <linearGradient x1="50%" y1="0%" x2="50%" y2="100%" id="linearGradient-1">
            <stop stop-color="#FF972A" offset="0%"></stop>
            <stop stop-color="#FFCC34" offset="100%"></stop>
        </linearGradient>
        <linearGradient x1="50%" y1="0%" x2="50%" y2="100%" id="linearGradient-2">
            <stop stop-color="#FF972A" offset="0%"></stop>
            <stop stop-color="#FFCC34" offset="100%"></stop>
        </linearGradient>
        <linearGradient x1="46.0996186%" y1="0.262140577%" x2="58.4506482%" y2="98.1973118%" id="linearGradient-3">
            <stop stop-color="#FECF32" offset="0%"></stop>
            <stop stop-color="#FF8700" offset="100%"></stop>
        </linearGradient>
        <linearGradient x1="46.0996186%" y1="0.262140577%" x2="58.4506482%" y2="98.1973118%" id="linearGradient-4">
            <stop stop-color="#FECF32" offset="0%"></stop>
            <stop stop-color="#FF8700" offset="100%"></stop>
        </linearGradient>
        <linearGradient x1="9.53994276%" y1="11.0967359%" x2="87.766245%" y2="90.7370033%" id="linearGradient-5">
            <stop stop-color="#FBCC29" offset="0%"></stop>
            <stop stop-color="#FEEF5B" offset="100%"></stop>
        </linearGradient>
        <linearGradient x1="9.53994276%" y1="11.0967359%" x2="87.766245%" y2="90.7370033%" id="linearGradient-6">
            <stop stop-color="#FFFFFF" stop-opacity="0" offset="0%"></stop>
            <stop stop-color="#FFFFFF" stop-opacity="0" offset="57.4512283%"></stop>
            <stop stop-color="#FFFFFF" stop-opacity="0.491055254" offset="100%"></stop>
        </linearGradient>
        <linearGradient x1="87.4006167%" y1="82.3697327%" x2="17.4891738%" y2="13.4552138%" id="linearGradient-7">
            <stop stop-color="#FFE89B" offset="0%"></stop>
            <stop stop-color="#FF8809" offset="100%"></stop>
        </linearGradient>
        <linearGradient x1="50%" y1="0%" x2="50%" y2="100%" id="linearGradient-8">
            <stop stop-color="#FFED7A" offset="2.06397804%"></stop>
            <stop stop-color="#FCD83B" offset="100%"></stop>
        </linearGradient>
        <linearGradient x1="50%" y1="-4.86884647%" x2="50%" y2="97.4464917%" id="linearGradient-9">
            <stop stop-color="#FFFACB" offset="0%"></stop>
            <stop stop-color="#FFEB44" offset="100%"></stop>
        </linearGradient>
        <linearGradient x1="50%" y1="0%" x2="50%" y2="100%" id="linearGradient-10">
            <stop stop-color="#FFED7A" offset="2.06397804%"></stop>
            <stop stop-color="#FCD83B" offset="100%"></stop>
        </linearGradient>
        <linearGradient x1="50%" y1="-4.86884647%" x2="50%" y2="97.4464917%" id="linearGradient-11">
            <stop stop-color="#FFFACB" offset="0%"></stop>
            <stop stop-color="#FFEB44" offset="100%"></stop>
        </linearGradient>
    </defs>
    <g id="影院和社区" stroke="none" stroke-width="1" fill="none" fill-rule="evenodd">
        <g id="icon_jb-(3)" transform="translate(-3.000000, -3.000000)">
            <g id="编组">
                <g id="椭圆形" transform="translate(11.150225, 10.679527) rotate(-15.000000) translate(-11.150225, -10.679527) translate(3.650225, 3.179527)" fill="url(#linearGradient-2)">
                    <g id="path-2-link" transform="translate(0.620192, 0.396125)">
                        <ellipse id="path-2" cx="6.69878291" cy="7.40125676" rx="6.42861621" ry="6.41174206"></ellipse>
                    </g>
                </g>
                <g id="椭圆形" transform="translate(11.363155, 11.681663) rotate(-15.000000) translate(-11.363155, -11.681663) translate(3.863155, 4.181663)" fill="url(#linearGradient-4)">
                    <g id="path-5-link" transform="translate(0.991198, 1.008650)">
                        <ellipse id="path-5" cx="7.1587641" cy="7.1396569" rx="6.42861621" ry="6.41174206"></ellipse>
                    </g>
                </g>
                <path d="M12.0523358,20.4272578 C7.39149301,20.4272578 3.61313335,16.6603477 3.61313335,12.0136286 C3.61313335,7.36690949 7.39149301,3.5999994 12.0523358,3.5999994 C16.7131787,3.5999994 20.4915384,7.36690949 20.4915384,12.0136286 C20.4915384,16.6603477 16.7131787,20.4272578 12.0523358,20.4272578 Z M12.0523358,18.3701149 C15.5735968,18.3701149 18.4281428,15.524219 18.4281428,12.0136286 C18.4281428,8.50303812 15.5735968,5.65714226 12.0523358,5.65714226 C8.53107492,5.65714226 5.67652892,8.50303812 5.67652892,12.0136286 C5.67652892,15.524219 8.53107492,18.3701149 12.0523358,18.3701149 Z" id="椭圆形" fill="url(#linearGradient-5)" fill-rule="nonzero" transform="translate(12.052336, 12.013629) rotate(-135.000000) translate(-12.052336, -12.013629) "></path>
                <path d="M12.0392035,20.4272584 C7.37836066,20.4272584 3.60000099,16.6603483 3.60000099,12.0136292 C3.60000099,7.3669101 7.37836066,3.60000001 12.0392035,3.60000001 C16.7000464,3.60000001 20.478406,7.3669101 20.478406,12.0136292 C20.478406,16.6603483 16.7000464,20.4272584 12.0392035,20.4272584 Z M12.0392035,18.3701155 C15.5604645,18.3701155 18.4150105,15.5242196 18.4150105,12.0136292 C18.4150105,8.50303873 15.5604645,5.65714287 12.0392035,5.65714287 C8.51794256,5.65714287 5.66339656,8.50303873 5.66339656,12.0136292 C5.66339656,15.5242196 8.51794256,18.3701155 12.0392035,18.3701155 Z" id="椭圆形" stroke="url(#linearGradient-7)" stroke-width="0.1" fill="url(#linearGradient-6)" fill-rule="nonzero" transform="translate(12.039203, 12.013629) rotate(-135.000000) translate(-12.039203, -12.013629) "></path>
                <g id="合并形状" opacity="0.800000012" transform="translate(4.000000, 4.000000)" fill="#FF7B32">
                    <g id="path-10-link">
                        <path d="M8.1649092,15.0605037 C8.1981252,15.0769466 8.2271284,15.1003587 8.2500811,15.1289024 L8.2797426,15.1753371 L8.280461,15.1754412 C8.4185258,15.1954424 8.5142352,15.3235802 8.4942341,15.4616449 C8.4889082,15.4984082 8.4755782,15.5333097 8.4554434,15.5639987 L8.4202874,15.6065788 C8.4439853,15.7443294 8.3515274,15.8752092 8.2137768,15.8989071 C8.1589872,15.9083328 8.1026184,15.8994555 8.0533777,15.8736466 L8.051295,15.8736466 C7.9274954,15.9385347 7.7745338,15.8907775 7.7096457,15.7669779 C7.6924398,15.7341508 7.682759,15.6981556 7.6810097,15.6615723 L7.6843853,15.6065788 C7.5843393,15.5093536 7.5820526,15.3494338 7.6792778,15.2493878 C7.7051665,15.222748 7.7364431,15.2023133 7.7707569,15.1892832 L7.8249301,15.1753371 C7.8871023,15.0497441 8.0393162,14.9983314 8.1649092,15.0605037 Z M15.5772927,7.5867463 C15.6105088,7.6031893 15.6395119,7.6266013 15.6624646,7.6551451 L15.6928446,7.7016838 C15.8309093,7.721685 15.9266188,7.8498228 15.9066176,7.9878876 C15.9012918,8.0246508 15.8879617,8.0595524 15.8678269,8.0902413 L15.832671,8.1328214 C15.8563689,8.270572 15.7639109,8.4014518 15.6261603,8.4251497 C15.5713708,8.4345754 15.5150019,8.4256982 15.4657613,8.3998893 L15.4636785,8.3998893 C15.3398789,8.4647774 15.1869173,8.4170201 15.1220292,8.2932205 C15.1048233,8.2603934 15.0951425,8.2243982 15.0933933,8.1878149 L15.0967688,8.1328214 C14.9967228,8.0355963 14.9944362,7.8756764 15.0916613,7.7756305 C15.1304944,7.7356708 15.1814503,7.7096726 15.2365952,7.7016838 L15.2373136,7.7015798 C15.2994859,7.5759867 15.4516997,7.5245741 15.5772927,7.5867463 Z M0.76612782,7.5867463 C0.79934387,7.6031893 0.82834698,7.6266013 0.85129969,7.6551451 L0.88096126,7.7015798 L0.88167966,7.7016838 C1.01974443,7.721685 1.11545388,7.8498228 1.09545268,7.9878876 C1.09012686,8.0246508 1.07679682,8.0595524 1.05666199,8.0902413 L1.02150607,8.1328214 C1.04520395,8.270572 0.95274599,8.4014518 0.81499542,8.4251497 C0.76020584,8.4345754 0.70383701,8.4256982 0.65459635,8.3998893 L0.65251361,8.3998893 C0.528714,8.4647774 0.3757524,8.4170201 0.31086432,8.2932205 C0.29365839,8.2603934 0.28397764,8.2243982 0.28222838,8.1878149 L0.28560389,8.1328214 C0.18555794,8.0355963 0.18327125,7.8756764 0.28049644,7.7756305 C0.31932946,7.7356708 0.37028541,7.7096726 0.4254303,7.7016838 L0.4261487,7.7015798 C0.48832096,7.5759867 0.6405348,7.5245741 0.76612782,7.5867463 Z M8.1649092,0.25923022 C8.1981252,0.27567315 8.2271284,0.29908522 8.2500811,0.32762897 L8.2797426,0.37406366 L8.280461,0.37416773 C8.4185258,0.39416892 8.5142352,0.52230671 8.4942341,0.66037148 C8.4889082,0.69713474 8.4755782,0.73203625 8.4554434,0.7627252 L8.4202874,0.80530534 C8.4439853,0.9430559 8.3515274,1.07393573 8.2137768,1.09763361 C8.1589872,1.10705932 8.1026184,1.09818208 8.0533777,1.07237318 L8.0523363,1.07182736 L8.051295,1.07237318 C7.9274954,1.13726126 7.7745338,1.08950403 7.7096457,0.96570441 C7.6924398,0.93287731 7.682759,0.89688212 7.6810097,0.86029884 L7.6843853,0.80530534 C7.5843393,0.70808016 7.5820526,0.5481603 7.6792778,0.44811435 C7.7181108,0.40815468 7.7690668,0.38215647 7.8242117,0.37416773 L7.8249301,0.37406366 C7.8871023,0.24847064 8.0393162,0.19705796 8.1649092,0.25923022 Z" id="path-10"></path>
                    </g>
                </g>
            </g>
            <g id="编组-2" transform="translate(11.973832, 11.500685) rotate(-3.000000) translate(-11.973832, -11.500685) translate(7.473832, 6.500685)" fill="url(#linearGradient-10)" fill-rule="nonzero" stroke="url(#linearGradient-11)" stroke-width="0.5">
                <path d="M0.194302018,8.47127282 C1.24091648,5.00138107 1.91449259,3.05237611 2.21503035,2.62425796 C2.665837,1.98208074 3.12882191,1.1805649 4.89462911,1.00358515 C6.6604363,0.826605397 8.53394983,1.64673919 8.75959626,3.31148072 C8.98524269,4.97622225 7.58453544,6.533928 6.12164978,7.116189 C4.65876411,7.69844999 3.57203565,7.35025135 3.3162636,6.50641448 C3.1457489,5.94385656 3.68008767,5.42721672 4.91927992,4.95649494 L6.8431673,4.11464486 C6.47133584,3.84521241 6.11132728,3.58673399 5.76314162,3.33920962 C5.41495595,3.09168525 4.96919265,2.77672236 4.42585169,2.39432095 L4.34277043,2.65545996 L2.70648466,8.30531929 C2.50811197,9.12356241 2.00743802,9.53268397 1.20446281,9.53268397 C0.401487604,9.53268397 0.0647673393,9.17888026 0.194302018,8.47127282 Z" id="路径-11"></path>
            </g>
        </g>
    </g>
</svg>