<?xml version="1.0" encoding="UTF-8"?>
<svg width="12px" height="11px" viewBox="0 0 12 11" version="1.1" xmlns="http://www.w3.org/2000/svg" xmlns:xlink="http://www.w3.org/1999/xlink">
    <!-- Generator: Sketch 59.1 (86144) - https://sketch.com -->
    <title>形状</title>
    <desc>Created with Sketch.</desc>
    <g id="页面-1" stroke="none" stroke-width="1" fill="none" fill-rule="evenodd">
        <g id="我的-左滑-我的下载" transform="translate(-28.000000, -492.000000)" fill="#FFFFFF" fill-rule="nonzero">
            <g id="编组备份" transform="translate(15.000000, 295.000000)">
                <path d="M21.4989244,197.937555 C22.2228025,197.937555 22.8979135,198.230345 23.3992065,198.761669 C24.3764556,199.797496 24.3249641,201.504113 23.2842361,202.565349 L19.0003598,206.935926 L14.7159387,202.565632 C13.6754831,201.504113 13.6237192,199.797779 14.6009682,198.761951 C15.1025337,198.230345 15.7773723,197.937863 16.5012504,197.937863 C17.2060575,197.937863 17.8680913,198.217358 18.3652978,198.724121 L19.0000874,199.37176 L19.634877,198.724121 C20.1316375,198.217184 20.8017304,197.934437 21.4989244,197.937555 M16.5015228,197 C15.5754928,197 14.6500078,197.368708 13.9539187,198.106407 C12.6126873,199.528447 12.7137633,201.838943 14.0811491,203.23388 L18.5769851,207.819865 C18.8114403,208.060045 19.1887345,208.060045 19.4231896,207.819865 L23.9187532,203.23388 C25.2864115,201.838943 25.387215,199.528164 24.0459836,198.106407 C23.350167,197.368708 22.424137,197 21.4983795,197 C20.5938724,197 19.6899102,197.352051 18.9998149,198.055872 C18.310537,197.351769 17.4057575,197 16.5015228,197 Z" id="形状"></path>
            </g>
        </g>
    </g>
</svg>