<?xml version="1.0" encoding="UTF-8"?>
<svg width="9px" height="10px" viewBox="0 0 9 10" version="1.1" xmlns="http://www.w3.org/2000/svg" xmlns:xlink="http://www.w3.org/1999/xlink">
    <!-- Generator: Sketch 59.1 (86144) - https://sketch.com -->
    <title>解锁</title>
    <desc>Created with Sketch.</desc>
    <g id="页面-1" stroke="none" stroke-width="1" fill="none" fill-rule="evenodd">
        <g id="精选备份-12" transform="translate(-36.000000, -559.000000)" fill-rule="nonzero">
            <g id="编组-11" transform="translate(16.000000, 401.000000)">
                <g id="解锁" transform="translate(20.000000, 158.000000)">
                    <rect id="矩形" fill="#000000" opacity="0" x="0" y="0" width="9.6" height="9.6"></rect>
                    <path d="M7.68,3.36 L3.36,3.36 L3.36,2.4 C3.36000002,1.60470997 4.00470997,0.96000003 4.8,0.96000003 C5.59529003,0.96000003 6.23999998,1.60470997 6.24,2.4 L7.2,2.4 C7.19999997,1.07451662 6.12548338,5.05762046e-08 4.8,5.05762046e-08 C3.47451662,5.05762046e-08 2.40000003,1.07451662 2.4,2.4 L2.4,3.36 L1.92,3.36 C1.38980664,3.36 0.96,3.78980664 0.96,4.32 L0.96,8.64 C0.96,9.17019336 1.38980664,9.6 1.92,9.6 L7.68,9.6 C8.21019336,9.6 8.64,9.17019336 8.64,8.64 L8.64,4.32 C8.64,3.78980664 8.21019336,3.36 7.68,3.36 Z M7.68,8.64 L1.92,8.64 L1.92,4.32 L7.68,4.32 L7.68,8.64 Z M4.8,7.68 C5.06509668,7.68 5.28,7.46509668 5.28,7.2 L5.28,5.76 C5.28,5.49490333 5.06509667,5.28000002 4.8,5.28000002 C4.53490333,5.28000002 4.32,5.49490333 4.32,5.76 L4.32,7.2 C4.32,7.32730392 4.37057128,7.44939379 4.46058875,7.53941125 C4.55060621,7.62942872 4.67269608,7.68 4.8,7.68 L4.8,7.68 Z" id="形状" fill="#FFFFFF"></path>
                </g>
            </g>
        </g>
    </g>
</svg>