<?xml version="1.0" encoding="UTF-8"?>
<svg width="14px" height="13px" viewBox="0 0 14 13" version="1.1" xmlns="http://www.w3.org/2000/svg" xmlns:xlink="http://www.w3.org/1999/xlink">
    <!-- Generator: Sketch 59.1 (86144) - https://sketch.com -->
    <title>形状结合</title>
    <desc>Created with Sketch.</desc>
    <g id="页面-1" stroke="none" stroke-width="1" fill="none" fill-rule="evenodd" opacity="0.5">
        <g id="主播主页2" transform="translate(-317.000000, -659.000000)" fill="#231815" fill-rule="nonzero" stroke="#000000">
            <g id="编组-2" transform="translate(304.000000, 636.000000)">
                <g id="箭头2_下" transform="translate(13.500000, 23.000000)">
                    <path d="M11.7541086,5.61941969 C11.9414587,5.43191153 12.2454003,5.43191153 12.4329085,5.61941969 C12.6202586,5.8067698 12.6202586,6.1106888 12.4329085,6.29821954 L12.4329085,6.29821954 L6.76212442,11.9690487 C6.56222109,12.1691553 6.23793696,12.1691553 6.03803362,11.9690487 L6.03803362,11.9690487 L0.36727215,6.29821954 C0.179763987,6.1106888 0.179763987,5.8067698 0.36727215,5.61941969 C0.554599687,5.43191153 0.858541262,5.43191153 1.04604942,5.61941969 L1.04604942,5.61941969 L6.40002258,10.973438 L6.40002258,10.973438 Z M11.7541086,0.821671813 C11.9416394,0.63416365 12.2455584,0.63416365 12.4329085,0.821671813 C12.6204166,1.00902193 12.6204166,1.31294093 12.4329085,1.50047166 L12.4329085,1.50047166 L6.76212442,7.17130086 C6.56222109,7.37122678 6.23793696,7.37122678 6.03803362,7.17130086 L6.03803362,7.17130086 L0.36727215,1.50047166 C0.179763987,1.31296351 0.179763987,1.00902193 0.36727215,0.821671813 C0.554780312,0.63416365 0.858541262,0.63416365 1.04604942,0.821671813 L1.04604942,0.821671813 L6.40018062,6.17569013 L6.40018062,6.17569013 Z" id="形状结合"></path>
                </g>
            </g>
        </g>
    </g>
</svg>