<?xml version="1.0" encoding="UTF-8"?>
<svg width="19px" height="19px" viewBox="0 0 19 19" version="1.1" xmlns="http://www.w3.org/2000/svg" xmlns:xlink="http://www.w3.org/1999/xlink">
    <!-- Generator: Sketch 59.1 (86144) - https://sketch.com -->
    <title>消息</title>
    <desc>Created with Sketch.</desc>
    <g id="页面-1" stroke="none" stroke-width="1" fill="none" fill-rule="evenodd">
        <g id="我的备份-10" transform="translate(-289.000000, -46.000000)" fill-rule="nonzero">
            <g id="消息" transform="translate(289.000000, 46.000000)">
                <rect id="矩形" fill="#000000" opacity="0" x="0" y="0" width="19.2" height="19.2"></rect>
                <path d="M3.31875,14.428125 C2.14875,14.428125 1.2,13.479375 1.2,12.309375 L1.2,12.309375 L1.2,3.31875 C1.2,2.14875 2.14875,1.2 3.31875,1.2 L3.31875,1.2 L15.88125,1.2 C17.05125,1.2 18,2.14875 18,3.31875 L18,3.31875 L18,12.309375 C18,13.479375 17.05125,14.428125 15.88125,14.428125 L15.88125,14.428125 L15.88125,14.43 L12.44625,14.43 L10.71,17.368125 C10.475625,17.76375 10.063125,18 9.601875,18 C9.1425,18 8.728125,17.76375 8.495625,17.368125 L6.755625,14.43 L3.31875,14.43 Z M5.98875,7.215 C6.61007034,7.215 7.11375,7.71867966 7.11375,8.34 C7.11375,8.96132034 6.61007034,9.465 5.98875,9.465 C5.36742966,9.465 4.86375,8.96132034 4.86375,8.34 C4.86375,7.71867966 5.36742966,7.215 5.98875,7.215 Z M9.6,7.215 C10.2213203,7.215 10.725,7.71867966 10.725,8.34 C10.725,8.96132034 10.2213203,9.465 9.6,9.465 C8.97867966,9.465 8.475,8.96132034 8.475,8.34 C8.475,7.71867966 8.97867966,7.215 9.6,7.215 Z M13.21125,7.215 C13.8325703,7.215 14.33625,7.71867966 14.33625,8.34 C14.33625,8.96132034 13.8325703,9.465 13.21125,9.465 C12.5899297,9.465 12.08625,8.96132034 12.08625,8.34 C12.08625,7.71867966 12.5899297,7.215 13.21125,7.215 Z M15.88125,13.168125 C16.35375,13.168125 16.74,12.78375 16.74,12.309375 L16.74,12.309375 L16.74,3.31875 C16.74,2.84625 16.355625,2.46 15.88125,2.46 L15.88125,2.46 L3.31875,2.46 C2.84625,2.46 2.46,2.844375 2.46,3.31875 L2.46,3.31875 L2.46,12.309375 C2.46,12.781875 2.844375,13.168125 3.31875,13.168125 L3.31875,13.168125 L3.31875,13.17 L7.471875,13.17 L9.579375,16.726875 L9.624375,16.726875 L11.72625,13.17 L15.88125,13.17 Z" id="形状结合" stroke="#FFFFFF" stroke-width="0.5" fill="#FFFFFF"></path>
            </g>
        </g>
    </g>
</svg>