<?xml version="1.0" encoding="UTF-8"?>
<svg width="11px" height="11px" viewBox="0 0 11 11" version="1.1" xmlns="http://www.w3.org/2000/svg" xmlns:xlink="http://www.w3.org/1999/xlink">
    <title>icon_项目</title>
    <desc>Created with Sketch.</desc>
    <g id="页面-1" stroke="none" stroke-width="1" fill="none" fill-rule="evenodd">
        <g id="精选备份-13" transform="translate(-24.000000, -712.000000)" fill-rule="nonzero">
            <g id="icon_项目" transform="translate(23.000000, 711.000000)">
                <rect id="矩形" fill="#000000" opacity="0" x="0" y="0" width="13" height="13"></rect>
                <path d="M10.7376953,7.07636719 L7.07509766,7.07636719 L7.07509766,10.7288086 C7.07509766,11.315332 7.4953125,11.7799805 8.08183594,11.7799805 L10.7376953,11.7799805 C11.3242188,11.7799805 11.7787109,11.315332 11.7787109,10.7288086 L11.7787109,8.07294922 C11.7787109,7.48642578 11.3242188,7.07636719 10.7376953,7.07636719 Z M1.23144531,8.07294922 L1.23144531,10.7288086 C1.23144531,11.315332 1.65292969,11.7799805 2.23945313,11.7799805 L4.8953125,11.7799805 C5.48183594,11.7799805 5.93505859,11.315332 5.93505859,10.7288086 L5.93505859,7.07636719 L2.23945313,7.07636719 C1.65292969,7.07636719 1.23144531,7.48642578 1.23144531,8.07294922 Z M4.8953125,1.23271484 L2.23945313,1.23271484 C1.65292969,1.23271484 1.23144531,1.64404297 1.23144531,2.23056641 L1.23144531,4.88642578 C1.23144531,5.47294922 1.65292969,5.93632812 2.23945313,5.93632812 L5.93505859,5.93632812 L5.93505859,2.23056641 C5.93505859,1.64404297 5.48183594,1.23271484 4.8953125,1.23271484 Z M11.7787109,4.44970703 L11.7787109,2.62539063 C11.7787109,1.79638672 11.1414063,1.23271484 10.3111328,1.23271484 L8.48681641,1.23271484 C7.65654297,1.23271484 6.93291016,1.79638672 6.93291016,2.62539063 L6.93291016,6.07851563 L10.3111328,6.07851563 C11.1414063,6.07851563 11.7787109,5.27998047 11.7787109,4.44970703 L11.7787109,4.44970703 Z M8.07294922,2.62539062 C8.07294922,2.42353516 8.28496094,2.37275391 8.48681641,2.37275391 L10.3111328,2.37275391 C10.5129883,2.37275391 10.6386719,2.42353516 10.6386719,2.62539062 L10.6386719,4.44970703 C10.6386719,4.6515625 10.5129883,4.93847656 10.3111328,4.93847656 L8.07294922,4.93847656 L8.07294922,2.62539062 Z" id="形状" fill="#FF6290"></path>
            </g>
        </g>
    </g>
</svg>