<?xml version="1.0" encoding="UTF-8"?>
<svg width="11px" height="13px" viewBox="0 0 11 13" version="1.1" xmlns="http://www.w3.org/2000/svg" xmlns:xlink="http://www.w3.org/1999/xlink">
    <!-- Generator: Sketch 59.1 (86144) - https://sketch.com -->
    <title>emi价格</title>
    <desc>Created with Sketch.</desc>
    <g id="页面-1" stroke="none" stroke-width="1" fill="none" fill-rule="evenodd">
        <g id="精选备份-13" transform="translate(-24.000000, -638.000000)" fill-rule="nonzero">
            <g id="emi价格" transform="translate(23.000000, 638.000000)">
                <rect id="矩形" fill="#000000" opacity="0" x="0" y="0" width="13" height="13"></rect>
                <path d="M6.32708516,0.484384558 C6.346096,0.484384558 6.36965031,0.474909183 6.39848258,0.456299886 C6.45546385,0.417630104 6.5321221,0.351200015 6.62707382,0.256309663 C6.74136091,0.151926861 6.85525513,0.0752360527 6.96921768,0.0278250273 C7.08350477,-0.0203884307 7.23617223,-0.00558635645 7.42599023,0.0707117734 C7.52167642,0.0987793828 7.5972586,0.139002779 7.6545815,0.191416126 C7.71188731,0.243761185 7.76659684,0.293852647 7.81937627,0.341673427 C7.8714212,0.388350333 7.92833417,0.428966408 7.99066171,0.462377779 C8.05216937,0.495789163 8.13077483,0.512127776 8.22564115,0.512127776 C8.32139565,0.512127776 8.40225576,0.498059834 8.46832398,0.469975149 C8.5351779,0.441173421 8.59969179,0.414966754 8.66119945,0.391423424 C8.72345868,0.367470353 8.78498343,0.350807349 8.84729386,0.341673427 C8.90881861,0.33146392 8.98281229,0.341673427 9.06826711,0.369809324 C9.16395331,0.40776205 9.22773271,0.462377779 9.26115967,0.533741889 C9.29458663,0.60508891 9.30406643,0.679116382 9.28925745,0.755414499 C9.27518295,0.830910209 9.24182429,0.907208339 9.18977936,0.983096728 C9.13699993,1.06019728 9.07241773,1.12087383 8.99688681,1.1690873 C8.8157287,1.28333814 8.67788731,1.39944992 8.58300393,1.51902748 C8.48733482,1.63780263 8.39238311,1.76383368 8.29744847,1.89701823 C8.24919546,1.96384098 8.19721882,2.03940496 8.14023756,2.12550286 C8.08327335,2.21093492 8.03049392,2.29669135 7.98304371,2.3821234 C7.92606243,2.4865062 7.86421314,2.58667204 7.79776915,2.68229651 L4.84239498,2.68229651 C4.77560939,2.56806273 4.70875544,2.45835323 4.64229439,2.35398752 C4.58498859,2.25834595 4.52307097,2.16352388 4.45660989,2.06861646 C4.38975597,1.97297488 4.33284302,1.88754283 4.28534154,1.81206421 C4.19006529,1.66894331 4.08296917,1.54296347 3.96374579,1.43325399 C3.84450529,1.32354449 3.72835639,1.22638344 3.61405223,1.14060995 C3.49062695,1.05524618 3.40481343,0.939083184 3.35697036,0.790686813 C3.30946887,0.643844068 3.35203402,0.517795929 3.48569065,0.41269607 C3.55213464,0.366002102 3.62805842,0.346607447 3.7142648,0.356475501 C3.79973673,0.366002102 3.89048658,0.384611398 3.98535287,0.41269607 C4.08069744,0.441497812 4.17337743,0.470384903 4.26371734,0.498862254 C4.35405727,0.527663982 4.43727451,0.532205337 4.51359116,0.512861908 C4.64683784,0.484777236 4.74672588,0.435027227 4.81316988,0.362946073 C4.88002383,0.291581964 4.99432799,0.203554863 5.15565536,0.0991720488 C5.27949056,0.0228909941 5.41726364,-0.00331568555 5.56993108,0.0206203232 C5.72259855,0.0444880313 5.83647571,0.0946477695 5.91248489,0.170536158 C5.95077987,0.218749604 5.99107328,0.258563259 6.03398005,0.291974643 C6.07647687,0.324600669 6.12165536,0.356475501 6.16915684,0.384611398 C6.21732447,0.42215437 6.27010389,0.455975495 6.32708516,0.484384558 L6.32708516,0.484384558 Z M7.94015402,3.33812923 C8.0544411,3.48999136 8.19756043,3.65697996 8.3688288,3.83764381 C8.51121366,3.99930569 8.68775996,4.18224023 8.89699877,4.38684011 C9.10623755,4.59138875 9.34924492,4.8077176 9.62533766,5.03620222 C9.85392889,5.23547539 10.0897111,5.47116474 10.331984,5.74251906 C10.5742399,6.01389045 10.7864849,6.33047049 10.9675747,6.69138848 C11.1479812,7.05305765 11.2748226,7.4690694 11.34581,7.93971398 C11.4172075,8.41107559 11.4050631,8.93672854 11.3101114,9.51706554 C11.2239221,9.99296851 11.0549084,10.4423404 10.8028311,10.8655569 C10.5507026,11.2895075 10.2154252,11.6580399 9.7965377,11.9715468 C9.37732565,12.2857879 8.87991804,12.5355452 8.30424659,12.7210748 C7.7286435,12.9066727 7.0747765,12.9989168 6.34150128,12.9989168 C5.58967641,12.9989168 4.92366506,12.8922803 4.34271567,12.6778637 C3.76171505,12.4633957 3.26963665,12.1855538 2.86443077,11.843228 C2.46043761,11.5009193 2.13923473,11.1175678 1.90111243,10.6943513 C1.66305846,10.2712031 1.50584752,9.84991591 1.43026534,9.43124081 C1.34405896,8.96481322 1.33230744,8.51812174 1.39422504,8.09036395 C1.45607433,7.66187202 1.56776513,7.25992819 1.72991239,6.88419106 C1.89163262,6.50847102 2.09400499,6.1634819 2.33667073,5.84915548 C2.57967812,5.5357168 2.84395098,5.25481883 3.12913066,5.00772487 C3.37632279,4.78839123 3.60037059,4.58150362 3.80007832,4.38644744 C4.00017895,4.19137417 4.16651098,4.01298097 4.29982599,3.85131909 C4.46154622,3.6709796 4.60473388,3.49905698 4.72850077,3.3373951 L7.94015402,3.3373951 L7.94015402,3.33812923 L7.94015402,3.33812923 Z M6.42736607,7.72029497 L5.74119946,7.03444834 C5.64626481,6.93962631 5.5794109,6.8682622 5.54183332,6.82044141 C5.46590952,6.75435278 5.36562863,6.69900292 5.24225461,6.65645763 C5.11848771,6.61357087 5.01368042,6.63938487 4.92786691,6.73500937 C4.85226763,6.83937508 4.83293227,6.9418799 4.87088564,7.0420628 C4.90924893,7.14229694 4.95176282,7.22084868 4.99958884,7.27700095 L5.2133711,7.47700826 C5.31819548,7.5912591 5.43248255,7.71503656 5.55592492,7.84861375 C5.69904424,8.00039053 5.8562381,8.1621207 6.0271136,8.33324092 L6.01269748,8.63269699 L5.04176112,8.63269699 C4.95628923,8.63269699 4.88229556,8.66610834 4.82078788,8.7329311 C4.75846034,8.79975388 4.72810791,8.87070822 4.72810791,8.94700635 C4.72810791,9.02328741 4.75618861,9.0893248 4.81357982,9.14621122 C4.87088564,9.20316592 4.94721937,9.23237741 5.04217108,9.23237741 L6.01309032,9.23237741 L6.01309032,9.7318749 L5.04217108,9.7318749 C4.95669916,9.7318749 4.88263716,9.75768893 4.82111241,9.8096413 C4.75887026,9.8623961 4.72850077,9.93114807 4.72850077,10.017246 C4.71903805,10.09281 4.74484701,10.1572937 4.80710624,10.2100485 C4.8686139,10.2620692 4.94721937,10.2886856 5.04217108,10.2886856 L6.01309032,10.2886856 L6.01309032,10.5733055 C6.02257012,10.7068998 6.06586974,10.7995195 6.14179354,10.8518816 C6.21773442,10.9042267 6.31307898,10.9304333 6.42770769,10.9304333 C6.54199477,10.9391746 6.63467473,10.9046364 6.70607213,10.8237969 C6.77705961,10.7421721 6.81315116,10.659079 6.81315116,10.5733055 L6.81315116,10.2886856 L7.81216819,10.2886856 C7.9071199,10.2886856 7.98572536,10.2670032 8.04796751,10.2241165 C8.10949226,10.1812468 8.13530122,10.1121534 8.12583849,10.017246 C8.12583849,9.81723865 7.99291636,9.71707284 7.7259789,9.71707284 L6.81315116,9.71707284 L6.82715737,9.23237741 L7.75479406,9.21755824 C7.88850192,9.22783605 7.98345363,9.20128791 8.0403666,9.13980893 C8.09734787,9.07751046 8.12583849,9.00428543 8.12583849,8.91811926 C8.12583849,8.84262355 8.09540068,8.77274477 8.03315853,8.711317 C7.97163378,8.64982096 7.87369294,8.61868026 7.74078788,8.61868026 L6.81315116,8.61868026 L6.81315116,8.34732592 C6.974154,8.1954638 7.12186806,8.04788692 7.25511474,7.90550018 C7.36941891,7.79124931 7.48370599,7.67442047 7.59760021,7.55557706 C7.71188731,7.43639217 7.79776915,7.35329907 7.85507496,7.30588804 C8.07379356,7.11607319 8.12122672,6.94949435 7.99745983,6.80637345 C7.9314087,6.7210097 7.84559515,6.67812294 7.74078788,6.67812294 C7.6359635,6.67812294 7.54068726,6.7168098 7.45521535,6.79237381 C7.40778221,6.83104358 7.326905,6.89901023 7.2118151,6.99917604 C7.09752803,7.09941018 6.98322386,7.20150524 6.86932964,7.30621244 C6.73603173,7.42959722 6.5891034,7.56737432 6.42736607,7.72029497 L6.42736607,7.72029497 Z" id="形状" fill="#FF6290"></path>
            </g>
        </g>
    </g>
</svg>