<?xml version="1.0" encoding="UTF-8"?>
<svg width="11px" height="11px" viewBox="0 0 11 11" version="1.1" xmlns="http://www.w3.org/2000/svg" xmlns:xlink="http://www.w3.org/1999/xlink">
    <!-- Generator: Sketch 59.1 (86144) - https://sketch.com -->
    <title>排行榜</title>
    <desc>Created with Sketch.</desc>
    <g id="页面-1" stroke="none" stroke-width="1" fill="none" fill-rule="evenodd">
        <g id="精选备份-13" transform="translate(-24.000000, -589.000000)" fill-rule="nonzero">
            <g id="排行榜" transform="translate(23.000000, 588.000000)">
                <rect id="矩形" fill="#000000" opacity="0" x="0" y="0" width="13" height="13"></rect>
                <path d="M4.00661027,11.3523987 C3.21774044,11.3523987 2.42739895,11.3523987 1.61261524,11.3523987 C1.61261524,9.7482808 1.61261524,8.1408796 1.61261524,6.49962264 C2.41864512,6.49962264 3.20012367,6.49962264 4.00661027,6.49962264 C4.00661027,8.11761218 4.00661027,9.72428008 4.00661027,11.3523987 Z M7.66397842,11.3466516 C6.89081473,11.3466516 6.10430971,11.3466516 5.29883297,11.3466516 C5.29883297,8.11239793 5.29883297,4.88875037 5.29883297,1.62138693 C6.09609633,1.62138693 6.86572043,1.62138693 7.66397842,1.62138693 C7.66397842,4.85498088 7.66397842,8.0872275 7.66397842,11.3466516 Z M11.3647072,11.3558621 C10.5717269,11.3558621 9.7900758,11.3558621 8.9788393,11.3558621 C8.9788393,9.14482725 8.9788393,6.92904751 8.9788393,4.684167 C9.76241878,4.684167 10.5512886,4.684167 11.3647072,4.684167 C11.3647072,6.90460276 11.3647072,9.1211031 11.3647072,11.3558621 Z" id="形状" fill="#FF6290"></path>
            </g>
        </g>
    </g>
</svg>