<?xml version="1.0" encoding="UTF-8"?>
<svg width="28px" height="14px" viewBox="0 0 28 14" version="1.1" xmlns="http://www.w3.org/2000/svg" xmlns:xlink="http://www.w3.org/1999/xlink">
    <!-- Generator: Sketch 59.1 (86144) - https://sketch.com -->
    <title>编组 2</title>
    <desc>Created with Sketch.</desc>
    <g id="页面-1" stroke="none" stroke-width="1" fill="none" fill-rule="evenodd">
        <g id="我的备份-6" transform="translate(-88.000000, -654.000000)">
            <g id="分组-2" transform="translate(0.000000, 387.000000)">
                <g id="编组-2" transform="translate(88.000000, 267.000000)">
                    <path d="M6.61645943,0 L25.84,0 C27.0329351,2.24950594e-16 28,0.96706494 28,2.16 L28,11.84 C28,13.0329351 27.0329351,14 25.84,14 L6.61645943,14 C5.50885451,14 4.5807392,13.1622072 4.46773152,12.0603823 L4.30769231,10.5 L4.30769231,10.5 L0.687756406,7.55880208 C0.379138539,7.30805006 0.332228999,6.85459118 0.582981016,6.54597331 C0.614209875,6.50753779 0.649320888,6.47242678 0.687756406,6.44119792 L4.30769231,3.5 L4.30769231,3.5 L4.46773152,1.93961765 C4.5807392,0.83779283 5.50885451,6.47552934e-16 6.61645943,0 Z" id="矩形" fill="#FC3066"></path>
                    <text id="推荐" font-family="PingFangSC-Regular, PingFang SC" font-size="8.64" font-weight="normal" letter-spacing="0.247680062" fill="#FFFFFF">
                        <tspan x="7.11231994" y="10">推荐</tspan>
                    </text>
                </g>
            </g>
        </g>
    </g>
</svg>