<?xml version="1.0" encoding="UTF-8"?>
<svg width="45px" height="46px" viewBox="0 0 45 46" version="1.1" xmlns="http://www.w3.org/2000/svg"
    xmlns:xlink="http://www.w3.org/1999/xlink">
    <!-- Generator: Sketch 54.1 (76490) - https://sketchapp.com -->
    <title>分组 14 copy</title>
    <desc>Created with Sketch.</desc>
    <defs>
        <path
            d="M16.8552384,32.6176006 C16.3346894,32.8940491 15.6908486,32.6918804 15.4171798,32.1660441 C15.3082034,31.9566534 15.2705984,31.7168129 15.3101864,31.4836529 L16.3882267,25.1343539 L11.8215746,20.6377554 C11.4004416,20.2230827 11.3918244,19.5420607 11.8023276,19.1166503 C11.9657922,18.9472496 12.1799799,18.837007 12.4117319,18.8029894 L18.72269,17.8766392 L21.5450362,12.0998562 C21.8053107,11.5671258 22.4438258,11.3483999 22.9711996,11.611318 C23.1812026,11.7160134 23.3511829,11.8877202 23.4548255,12.0998562 L26.2771718,17.8766392 L32.5881298,18.8029894 C33.1701213,18.8884167 33.5733625,19.4342586 33.4887941,20.0221614 C33.4551186,20.2562674 33.3459845,20.4726306 33.1782872,20.6377554 L28.611635,25.1343539 L29.6896754,31.4836529 C29.7890914,32.0691802 29.399793,32.625255 28.8201532,32.7256808 C28.5893375,32.7656709 28.3519087,32.7276839 28.1446233,32.6176006 L22.4999309,29.6198683 L16.8552384,32.6176006 Z"
            id="path-1"></path>
    </defs>
    <g id="APP" stroke="none" stroke-width="1" fill="none" fill-rule="evenodd">
        <g id="首页-分享到" transform="translate(-238.000000, -544.000000)">
            <g id="编组-3" transform="translate(-1.000000, 481.295567)">
                <g id="分组-17" transform="translate(239.000000, 63.000000)">
                    <g id="分组-14-copy">
                        <circle id="椭圆形复制-2" fill="#E8E8E8" cx="22.5" cy="22.5" r="22.5"></circle>
                        <mask id="mask-2" fill="white">
                            <use xlink:href="#path-1"></use>
                        </mask>
                        <use id="Mask" stroke="#4A4A4A" stroke-width="1.5" fill-rule="nonzero"
                            xlink:href="#path-1"></use>
                    </g>
                </g>
            </g>
        </g>
    </g>
</svg>