<?xml version="1.0" encoding="UTF-8"?>
<svg width="18px" height="18px" viewBox="0 0 18 18" version="1.1" xmlns="http://www.w3.org/2000/svg" xmlns:xlink="http://www.w3.org/1999/xlink">
    <!-- Generator: Sketch 59.1 (86144) - https://sketch.com -->
    <title>编组 6</title>
    <desc>Created with Sketch.</desc>
    <g id="页面-1" stroke="none" stroke-width="1" fill="none" fill-rule="evenodd">
        <g id="精选备份-12" transform="translate(-326.000000, -35.000000)" fill-rule="nonzero">
            <g id="编组-6" transform="translate(326.000000, 35.000000)">
                <g id="搜索">
                    <rect id="矩形" fill="#000000" opacity="0" x="0" y="0" width="17.4636" height="17.4636"></rect>
                    <path d="M17.1361572,17.136157 C16.6995672,17.572747 16.0446822,17.572747 15.6080922,17.136157 L12.2245198,13.7525846 C9.2775374,15.9355345 5.23908003,15.826387 2.51039262,13.3159946 C-0.545737278,10.4781597 -0.764032278,5.45737483 2.18295014,2.40124493 C5.12993255,-0.654884966 10.0415699,-0.764032466 13.0976998,2.29209743 C15.8263872,5.02078485 16.0446822,9.27753721 13.7525848,12.2245196 L17.1361572,15.608092 C17.5727471,16.044682 17.5727471,16.699567 17.1361572,17.136157 Z M12.0062248,4.47504736 C9.82327488,1.41891747 5.34822752,1.41891747 3.16527759,4.47504736 C1.74636014,6.33055481 1.74636014,9.05924223 3.16527759,10.9147497 C5.34822752,13.9708796 9.82327488,13.9708796 12.0062248,10.9147497 C13.4251423,8.95009473 13.4251423,6.3305548 12.0062248,4.47504736 Z" id="形状" fill="#FFFFFF"></path>
                </g>
            </g>
        </g>
    </g>
</svg>