<?xml version="1.0" encoding="UTF-8"?>
<svg width="9px" height="10px" viewBox="0 0 9 10" version="1.1" xmlns="http://www.w3.org/2000/svg" xmlns:xlink="http://www.w3.org/1999/xlink">
    <!-- Generator: Sketch 59.1 (86144) - https://sketch.com -->
    <title>编组 3</title>
    <desc>Created with Sketch.</desc>
    <g id="页面-1" stroke="none" stroke-width="1" fill="none" fill-rule="evenodd" opacity="0.699999988">
        <g id="精选备份-13" transform="translate(-159.000000, -388.000000)" fill="#FFFFFF" fill-rule="nonzero">
            <g id="编组-3" transform="translate(159.000000, 388.000000)">
                <path d="M8.5148,1.449 L8.1046,1.442 C7.45752879,1.41104749 6.81995339,1.27388364 6.2174,1.036 C5.65044528,0.810413841 5.11005532,0.523082252 4.606,0.1792 L4.3568,-7.63833441e-14 L4.1174,0.1792 C3.61069526,0.523626728 3.06746147,0.810972514 2.4976,1.036 C1.86226009,1.27808611 1.19177088,1.41521014 0.5124,1.442 L-3.73034936e-14,1.449 L-3.73034936e-14,5.6406 C-3.73034936e-14,7.7406 2.8,9.968 4.2574,9.968 C5.7148,9.968 8.4672,7.7434 8.4672,5.6406 L8.5148,1.449 Z M7.56,5.6392 C7.56,7.266 5.1632,9.128 4.2,9.128 C3.2368,9.128 0.84,7.266 0.84,5.6392 L0.84,2.2526 C1.48486746,2.20562701 2.11837134,2.0577622 2.7174,1.8144 C3.26944163,1.59427184 3.80272277,1.32973817 4.312,1.0234 C4.79055881,1.33307799 5.29671076,1.59787044 5.824,1.8144 C6.524,2.0944 7.5642,2.2078 7.5642,2.2526 L7.56,5.6392 Z" id="形状"></path>
                <polygon id="路径" points="3.99 7.2142 2.2246 5.7106 2.7664 5.0722 3.899 6.0354 6.0494 3.5588 6.6836 4.1104"></polygon>
            </g>
        </g>
    </g>
</svg>