<?xml version="1.0" encoding="UTF-8"?>
<svg width="102px" height="30px" viewBox="0 0 102 30" version="1.1" xmlns="http://www.w3.org/2000/svg" xmlns:xlink="http://www.w3.org/1999/xlink">
    <title>编组 5</title>
    <g id="页面-1" stroke="none" stroke-width="1" fill="none" fill-rule="evenodd">
        <g id="我的备份-14" transform="translate(-40.000000, -194.000000)" fill="#FFFFFF" fill-rule="nonzero">
            <g id="svip" transform="translate(40.000000, 194.000000)">
                <path d="M80.0000434,6.00000008 L78.4286179,6.00000008 C77.5596196,6.00000008 76.8571925,6.67198986 76.8571925,7.49997723 L76.8571925,22.499749 C76.8571925,23.3277364 77.5596196,23.9997261 78.4286179,23.9997261 L80.0000434,23.9997261 C80.8690417,23.9997261 81.5714688,23.3277364 81.5714688,22.499749 L81.5714688,7.49997732 C81.5714688,6.67198986 80.8690417,6.00000008 80.0000434,6.00000008 Z M70.5714905,6.00000008 L67.4286395,6.00000008 C67.4286395,6.00000008 67.4286395,14.7178674 67.4286395,16.4998403 C67.4773537,18.890804 64.2857886,19.4997947 64.2857886,19.4997947 C64.2857886,19.4997947 61.1429376,18.890804 61.1429376,16.4998403 C61.1429376,14.4373717 61.1429376,6.00000008 61.1429376,6.00000008 L58.0000866,6.00000008 C57.1326598,6.00000008 56.4286611,6.67198986 56.4286611,7.49997723 L56.4286611,17.9998175 C56.4773753,18.1558151 61.9616502,24.0462254 62.714363,23.9997261 L65.857214,23.9997261 C66.7576408,23.9997261 72.1429159,17.9683179 72.1429159,17.9998175 L72.1429159,7.49997723 C72.1429159,6.67198986 71.4404888,6.00000008 70.5714905,6.00000008 Z M96.5000108,6.00000008 L91.7857344,6.00000008 C91.2404498,6.00000008 90.7250222,6.09899856 90.2300232,6.23999641 C89.9911666,6.10049856 89.7271671,6.00000008 89.4285962,6.00000008 L87.8571708,6.00000008 C86.9881725,6.00000008 86.2857453,6.67198986 86.2857453,7.49997723 L86.2857453,22.499749 C86.2857453,23.3292364 86.9881725,23.9997261 87.8571708,23.9997261 L89.4285962,23.9997261 C90.2975945,23.9997261 91.0000217,23.3292364 91.0000217,22.499749 L91.0000217,17.9233187 C91.2593069,17.9608181 91.5170207,17.9998175 91.7857344,17.9998175 L96.5000108,17.9998175 C99.5375763,17.9998175 102,15.6493533 102,12.7498974 L102,11.2499203 C102,8.35046437 99.5375763,6.00000008 96.5000108,6.00000008 Z M97.2857236,13.499886 C97.2857236,14.3278734 96.581725,14.9998632 95.7142981,14.9998632 L91.0000217,14.9998632 L91.0000217,8.99995447 L95.7142981,8.99995447 C96.581725,8.99995447 97.2857236,9.67044424 97.2857236,10.4999316 L97.2857236,13.499886 Z M48.6642481,11.9999088 L50.3299591,11.9999088 C50.9082437,11.9999088 51.4158141,11.7344128 51.7143849,11.3324189 C51.7143849,10.2059361 51.4818139,9.47694712 51.1282432,8.99995439 L51.164386,8.99995439 C50.2796734,7.23148131 48.4049629,6 46.2143957,6 C45.9441105,6 45.6879682,6.0509992 45.428683,6.08999864 L45.428683,6 L40.7144066,6 L40.7144066,6.07499896 C38.0524118,6.44249337 36.0000642,8.60696046 36.0000642,11.2499202 C36.0000642,14.087877 38.3619827,16.3843421 41.3099769,16.4818405 C41.306834,16.4878405 41.3036911,16.4938404 41.3005483,16.4998403 L45.428683,16.4998403 C46.2961098,16.4998403 47.0001085,17.1703301 47.0001085,17.9998175 L47.0001085,19.4997946 C47.0001085,20.329282 46.2961098,20.9997718 45.428683,20.9997718 L40.7144066,20.9997718 L40.7144066,19.4997946 C40.7144066,18.6703072 39.9695509,17.9998175 39.050267,17.9998175 L37.3845561,17.9998175 C36.8078428,17.9998175 36.298701,18.2653135 36.0000642,18.6673073 C35.9954159,19.80729 36.2437011,20.533279 36.6192718,20.9997718 L36.5501291,20.9997718 C37.4348416,22.7682449 39.3111236,23.9997262 41.5001193,23.9997262 C41.7704045,23.9997262 42.0265468,23.948727 42.285832,23.9097276 L42.285832,23.9997262 L47.0001085,23.9997262 L47.0001085,23.9232274 C49.6621032,23.557233 51.7143849,21.3912659 51.7143849,18.7498061 C51.7143849,15.9238491 49.3698181,13.6363839 46.4391096,13.5208857 C46.4422524,13.5148858 46.4438238,13.5058859 46.4469667,13.499886 L42.285832,13.499886 C41.4184052,13.499886 40.7144066,12.8278962 40.7144066,11.9999089 L40.7144066,10.4999317 C40.7144066,9.67194432 41.4184052,8.99995455 42.285832,8.99995455 L47.0001085,8.99995455 L47.0001085,10.4999317 C47.0001085,11.327919 47.7449642,11.9999088 48.6642481,11.9999088 Z" id="形状"></path>
                <path d="M15,0 C6.71216616,0 0,6.71216616 0,15 C0,23.2878338 6.71216616,30 15,30 C23.2878338,30 30,23.2878338 30,15 C30,6.71216616 23.2878338,0 15,0 Z M20.652819,10.3086053 L22.7002967,13.7448071 C22.7091988,13.7715134 22.727003,13.7982196 22.735905,13.8249258 L19.0237389,13.8249258 C18.9347181,13.8249258 18.8813056,13.7448071 18.9169139,13.6646884 L20.4480712,10.3175074 C20.4925816,10.2373887 20.6083086,10.2284866 20.652819,10.3086053 L20.652819,10.3086053 Z M15.7566766,9.56083087 L19.7091988,9.56083087 C19.8338279,9.56083087 19.9762611,9.60534126 20.1008902,9.6676558 L18.4183976,13.3442137 C18.3827893,13.4243324 18.2759644,13.4332344 18.2225519,13.3620178 L15.6587537,9.7388724 C15.6053413,9.66765577 15.6676558,9.56083087 15.7566766,9.56083087 L15.7566766,9.56083087 Z M15.0267062,9.88130563 L17.6973294,13.6468843 C17.7507418,13.7181009 17.6884273,13.8249258 17.5994065,13.8249258 L12.2759644,13.8249258 C12.1780415,13.8249258 12.1246291,13.7181009 12.1780415,13.6468843 L14.8397626,9.88130563 C14.884273,9.81899109 14.9821958,9.81899109 15.0267062,9.88130563 L15.0267062,9.88130563 Z M9.8902077,9.6676558 C10.0148368,9.60534126 10.1483679,9.56973293 10.272997,9.56973293 L14.1186943,9.56973293 C14.2166172,9.56973293 14.2700297,9.66765577 14.2166172,9.74777449 L11.652819,13.379822 C11.6083086,13.4510386 11.4925816,13.4421365 11.4569733,13.3620178 L9.83679524,9.81899109 C9.810089,9.76557864 9.83679524,9.69436201 9.8902077,9.6676558 L9.8902077,9.6676558 Z M7.28189909,13.7448071 L9.26706231,10.4065282 C9.32047477,10.3264095 9.43620179,10.3353116 9.47181009,10.4154303 L10.958457,13.6646884 C10.9940653,13.7359051 10.9317507,13.8249258 10.851632,13.8249258 L7.2373887,13.8249258 C7.24629079,13.7982196 7.26409494,13.7715134 7.28189909,13.7448071 L7.28189909,13.7448071 Z M13.7893175,22.6379822 L7.35311572,14.6172107 C7.29080118,14.5459941 7.24629079,14.4836795 7.21068249,14.4391691 L7.18397625,14.4391691 L7.1661721,14.4124629 L11.189911,14.4124629 C11.2344214,14.4124629 11.2789317,14.4480712 11.2967359,14.4925816 L13.9050445,22.5756676 C13.9317507,22.6468843 13.8338279,22.7002967 13.7893175,22.6379822 L13.7893175,22.6379822 Z M14.8575668,23.2522255 L11.9376855,14.5637982 C11.9109792,14.4925816 11.9643917,14.4124629 12.0534125,14.4124629 L17.8308605,14.4124629 C17.9020772,14.4124629 17.9643917,14.4925816 17.9376855,14.5637982 L15.0178042,23.2522255 C14.9910979,23.3323442 14.884273,23.3323442 14.8575668,23.2522255 L14.8575668,23.2522255 Z M22.6379822,14.6172107 L16.0860534,22.7804154 C16.0237389,22.8605341 15.9080119,22.7982196 15.9347181,22.7002967 L18.578635,14.4925816 C18.5875371,14.4480712 18.6320474,14.4124629 18.6854599,14.4124629 L22.7448071,14.4124629 C22.7181009,14.4836796 22.6824926,14.5548962 22.6379822,14.6172107 Z" id="形状"></path>
            </g>
        </g>
    </g>
</svg>