<?xml version="1.0" encoding="UTF-8"?>
<svg width="45px" height="45px" viewBox="0 0 45 45" version="1.1" xmlns="http://www.w3.org/2000/svg"
    xmlns:xlink="http://www.w3.org/1999/xlink">
    <!-- Generator: Sketch 54.1 (76490) - https://sketchapp.com -->
    <title>举报 2</title>
    <desc>Created with Sketch.</desc>
    <g id="APP" stroke="none" stroke-width="1" fill="none" fill-rule="evenodd">
        <g id="首页-分享到" transform="translate(-7.000000, -606.000000)">
            <g id="编组-3" transform="translate(-1.000000, 481.295567)">
                <g id="分组-5" transform="translate(0.000000, 124.000000)">
                    <g id="举报-2" transform="translate(7.000000, 0.000000)">
                        <g id="举报" transform="translate(0.720000, 0.103448)">
                            <g id="lianjie">
                                <g id="分组-16">
                                    <circle id="椭圆形复制-2" fill="#E8E8E8" cx="22.78" cy="23.1009852"
                                        r="22.5"></circle>
                                    <path
                                        d="M20.8090066,19.4951346 C21.1701952,19.5077476 21.453405,19.7926355 21.4415734,20.1314495 C21.4297417,20.4702636 21.1273491,20.7347017 20.7661604,20.7220888 C19.738162,20.6861903 18.877506,21.4388221 18.8438313,22.4031389 C18.8319996,22.7419529 18.5296069,23.0063911 18.1684183,22.9937782 C17.8072297,22.9811652 17.5240199,22.6962773 17.5358515,22.3574633 C17.5931895,20.7155183 19.058631,19.4340102 20.8090066,19.4951346 Z M15.6639046,29.1303601 L29.4508714,29.1303601 L29.4508714,23.4946968 C29.4508714,20.3822059 26.7610738,17.8590335 23.4430403,17.8590335 L21.6717357,17.8590335 C18.3537022,17.8590335 15.6639046,20.3822059 15.6639046,23.4946968 L15.6639046,29.1303601 Z M21.6717357,16.4424542 L23.4430403,16.4424542 C27.5950941,16.4424542 30.9609987,19.5998508 30.9609987,23.4946968 L30.9609987,29.6025531 C30.9609987,30.1241232 30.5102607,30.5469393 29.9542472,30.5469393 L15.1605288,30.5469393 C14.6045153,30.5469393 14.1537773,30.1241232 14.1537773,29.6025531 L14.1537773,23.4946968 C14.1537773,19.5998508 17.5196819,16.4424542 21.6717357,16.4424542 Z M22.5523244,12 L22.5624516,12 C22.9766652,12 23.3124516,12.3357864 23.3124516,12.75 L23.3124516,14.5553516 C23.3124516,14.9695652 22.9766652,15.3053516 22.5624516,15.3053516 L22.5523244,15.3053516 C22.1381108,15.3053516 21.8023244,14.9695652 21.8023244,14.5553516 L21.8023244,12.75 C21.8023244,12.3357864 22.1381108,12 22.5523244,12 Z M29.2633355,13.7741893 L29.2841294,13.793695 C29.5607337,14.0531645 29.5746242,14.4877381 29.3151547,14.7643424 C29.3051461,14.7750121 29.294799,14.7853591 29.2841294,14.7953678 L27.8395739,16.1504373 C27.5510357,16.4211013 27.1018784,16.4211013 26.8133403,16.1504373 L26.7925465,16.1309315 C26.5159421,15.8714621 26.5020516,15.4368884 26.7615211,15.1602841 C26.7715298,15.1496145 26.7818768,15.1392674 26.7925465,15.1292587 L28.237102,13.7741893 C28.5256401,13.5035253 28.9747974,13.5035253 29.2633355,13.7741893 Z M15.8514405,13.7741893 C16.1399786,13.5035253 16.5891359,13.5035253 16.877674,13.7741893 L18.3222295,15.1292587 C18.3328992,15.1392674 18.3432462,15.1496145 18.3532549,15.1602841 C18.6127244,15.4368884 18.5988339,15.8714621 18.3222295,16.1309315 L18.3014357,16.1504373 C18.0128976,16.4211013 17.5637403,16.4211013 17.2752021,16.1504373 L15.8306466,14.7953678 C15.819977,14.7853591 15.8096299,14.7750121 15.7996213,14.7643424 C15.5401518,14.4877381 15.5540423,14.0531645 15.8306466,13.793695 L15.8514405,13.7741893 Z M14.5,31.9659389 L30.614776,31.9659389 C30.8909184,31.9659389 31.114776,32.1897965 31.114776,32.4659389 L31.114776,32.8825181 C31.114776,33.1586605 30.8909184,33.3825181 30.614776,33.3825181 L14.5,33.3825181 C14.2238576,33.3825181 14,33.1586605 14,32.8825181 L14,32.4659389 C14,32.1897965 14.2238576,31.9659389 14.5,31.9659389 Z"
                                        id="合并形状" fill="#4A4A4A" fill-rule="nonzero"></path>
                                </g>
                            </g>
                        </g>
                    </g>
                </g>
            </g>
        </g>
    </g>
</svg>