<?xml version="1.0" encoding="UTF-8"?>
<svg width="13px" height="12px" viewBox="0 0 13 12" version="1.1" xmlns="http://www.w3.org/2000/svg" xmlns:xlink="http://www.w3.org/1999/xlink">
    <!-- Generator: Sketch 59.1 (86144) - https://sketch.com -->
    <title>喇叭</title>
    <desc>Created with Sketch.</desc>
    <defs>
        <linearGradient x1="59.8055971%" y1="8.54919615%" x2="34.6557581%" y2="91.4508039%" id="linearGradient-1">
            <stop stop-color="#FDEC99" offset="0%"></stop>
            <stop stop-color="#FFB040" offset="50.5928567%"></stop>
            <stop stop-color="#FA7017" offset="100%"></stop>
        </linearGradient>
    </defs>
    <g id="页面-1" stroke="none" stroke-width="1" fill="none" fill-rule="evenodd">
        <g id="首页/推荐" transform="translate(-18.000000, -701.000000)" fill-rule="nonzero">
            <g id="喇叭" transform="translate(16.000000, 699.000000)">
                <rect id="矩形" fill="#000000" opacity="0" x="0" y="0" width="16" height="16"></rect>
                <path d="M8.4,13.3371875 C8.196875,13.3371875 7.9921875,13.2825 7.8078125,13.1715625 L5.1890625,11.3121875 C5.175,11.3028125 5.159375,11.2934375 5.146875,11.2840625 C5.021875,11.22 4.890625,11.1871875 4.75625,11.1871875 L3.5875,11.1871875 C2.7125,11.1871875 2,10.3965625 2,9.42625 L2,5.9121875 C2,4.9403125 2.7125,4.15125 3.5875,4.15125 L4.75625,4.15125 C4.9078125,4.15125 5.0609375,4.1075 5.1984375,4.0246875 L7.8171875,2.1653125 C8.178125,1.9496875 8.6125,1.945 8.978125,2.15125 C9.3875,2.3840625 9.640625,2.841875 9.640625,3.3465625 L9.6359375,5.3871875 L9.63125,11.9903125 C9.63125,12.495 9.3765625,12.9528125 8.96875,13.185625 C8.7890625,13.2871875 8.5953125,13.3371875 8.4,13.3371875 Z M12.221875,11.1778125 C12.0078125,10.96375 12.0078125,10.6153125 12.221875,10.40125 C12.9515625,9.6715625 13.353125,8.70125 13.353125,7.6684375 C13.353125,6.635625 12.9515625,5.6653125 12.221875,4.935625 C12.0078125,4.7215625 12.0078125,4.373125 12.221875,4.1590625 C12.4359375,3.945 12.784375,3.945 12.9984375,4.1590625 C13.9359375,5.0965625 14.4515625,6.341875 14.4515625,7.6684375 C14.4515625,8.995 13.9359375,10.2403125 12.9984375,11.1778125 C12.8921875,11.285625 12.7515625,11.33875 12.6109375,11.33875 C12.4703125,11.33875 12.3296875,11.285625 12.221875,11.1778125 Z M10.3703125,9.9090625 C10.15625,9.695 10.15625,9.3465625 10.3703125,9.1325 C11.178125,8.3246875 11.178125,7.010625 10.3703125,6.2028125 C10.15625,5.98875 10.15625,5.6403125 10.3703125,5.42625 C10.584375,5.2121875 10.9328125,5.2121875 11.146875,5.42625 C12.3828125,6.6621875 12.3828125,8.673125 11.146875,9.9090625 C11.040625,10.016875 10.9,10.07 10.759375,10.07 C10.61875,10.07 10.478125,10.016875 10.3703125,9.9090625 Z" id="形状" fill="url(#linearGradient-1)"></path>
            </g>
        </g>
    </g>
</svg>