<?xml version="1.0" encoding="UTF-8"?>
<svg width="45px" height="45px" viewBox="0 0 45 45" version="1.1" xmlns="http://www.w3.org/2000/svg"
    xmlns:xlink="http://www.w3.org/1999/xlink">
    <!-- Generator: Sketch 54.1 (76490) - https://sketchapp.com -->
    <title>分组 15</title>
    <desc>Created with Sketch.</desc>
    <g id="APP" stroke="none" stroke-width="1" fill="none" fill-rule="evenodd">
        <g id="首页-分享到" transform="translate(-300.000000, -611.000000)">
            <g id="编组-3" transform="translate(-1.000000, 481.295567)">
                <g id="分组-17-copy" transform="translate(301.000000, 129.000000)">
                    <g id="分组-15">
                        <circle id="椭圆形复制-2" fill="#E8E8E8" cx="22.5" cy="23.2044335"
                            r="22.5"></circle>
                        <path
                            d="M14.3556166,24.9581722 L14.3556166,30.8325108 C14.3556166,31.082073 14.5579267,31.284383 14.8074888,31.284383 L20.6818274,31.284383 L20.6818274,24.9581722 L14.3556166,24.9581722 Z M13,23.6025556 L22.037444,23.6025556 L22.037444,32.6399996 L14.8074888,32.6399996 C13.8092403,32.6399996 13,31.8307593 13,30.8325108 L13,23.6025556 Z M24.2919637,23.6025556 L25.6475803,23.6025556 L25.6475803,32.6399996 L24.2919637,32.6399996 L24.2919637,23.6025556 Z M29.2150763,23.6025556 L30.5706929,23.6025556 L30.5706929,32.6399996 L29.2150763,32.6399996 L29.2150763,23.6025556 Z M14.3556166,21.3862609 L20.6818274,21.3862609 L20.6818274,15.0600501 L14.8074888,15.0600501 C14.5579267,15.0600501 14.3556166,15.2623602 14.3556166,15.5119223 L14.3556166,21.3862609 Z M13,22.7418775 L13,15.5119223 C13,14.5136738 13.8092403,13.7044335 14.8074888,13.7044335 L22.037444,13.7044335 L22.037444,22.7418775 L13,22.7418775 Z M30.6349714,21.3862609 L30.6349714,15.5119223 C30.6349714,15.2623602 30.4326613,15.0600501 30.1830992,15.0600501 L24.3087606,15.0600501 L24.3087606,21.3862609 L30.6349714,21.3862609 Z M31.990588,22.7418775 L22.953144,22.7418775 L22.953144,13.7044335 L30.1830992,13.7044335 C31.1813477,13.7044335 31.990588,14.5136738 31.990588,15.5119223 L31.990588,22.7418775 Z"
                            id="合并形状" fill="#4A4A4A" fill-rule="nonzero"></path>
                    </g>
                </g>
            </g>
        </g>
    </g>
</svg>