<?xml version="1.0" encoding="UTF-8"?>
<svg width="11px" height="12px" viewBox="0 0 11 12" version="1.1" xmlns="http://www.w3.org/2000/svg" xmlns:xlink="http://www.w3.org/1999/xlink">
    <!-- Generator: Sketch 59.1 (86144) - https://sketch.com -->
    <title>时间</title>
    <desc>Created with Sketch.</desc>
    <g id="页面-1" stroke="none" stroke-width="1" fill="none" fill-rule="evenodd">
        <g id="精选备份-13" transform="translate(-24.000000, -663.000000)" fill-rule="nonzero">
            <g id="时间" transform="translate(23.000000, 663.000000)">
                <rect id="矩形" fill="#000000" opacity="0" x="0" y="0" width="13" height="13"></rect>
                <path d="M6.5,11.4552055 C3.60050293,11.4552055 1.25,9.10470255 1.25,6.20520548 C1.25,3.3057084 3.60050293,0.955205475 6.5,0.955205475 C9.39949707,0.955205475 11.75,3.3057084 11.75,6.20520548 C11.75,9.10470255 9.39949707,11.4552055 6.5,11.4552055 Z M6.95117187,6.36857071 L6.95117187,3.26233438 C6.95117187,3.01316446 6.74916992,2.81116251 6.5,2.81116251 C6.25083008,2.81116251 6.04882812,3.01316446 6.04882812,3.26233438 L6.04882812,6.81445157 L7.76306592,8.12546475 C7.96099707,8.27683292 8.24415869,8.23908829 8.39552686,8.04116739 C8.54689502,7.84323624 8.50915039,7.56007462 8.31122949,7.40870645 L6.95117187,6.36857071 Z" id="形状" fill="#FF6290"></path>
            </g>
        </g>
    </g>
</svg>