<?xml version="1.0" encoding="UTF-8"?>
<svg width="102px" height="102px" viewBox="0 0 102 102" version="1.1" xmlns="http://www.w3.org/2000/svg" xmlns:xlink="http://www.w3.org/1999/xlink">
    <!-- Generator: Sketch 61.2 (89653) - https://sketch.com -->
    <title>立即推广</title>
    <desc>Created with Sketch.</desc>
    <defs>
        <linearGradient x1="50%" y1="0%" x2="50%" y2="100%" id="linearGradient-1">
            <stop stop-color="#EB5C3F" offset="0%"></stop>
            <stop stop-color="#C82525" offset="100%"></stop>
        </linearGradient>
        <linearGradient x1="50.0009945%" y1="-2.88668095%" x2="50%" y2="99.6875244%" id="linearGradient-2">
            <stop stop-color="#FFCA90" offset="0%"></stop>
            <stop stop-color="#FDFAD2" offset="49.3718328%"></stop>
            <stop stop-color="#FFCA90" offset="100%"></stop>
        </linearGradient>
        <linearGradient x1="50%" y1="0%" x2="50%" y2="98.9257812%" id="linearGradient-3">
            <stop stop-color="#C41E24" offset="0%"></stop>
            <stop stop-color="#EB5D3F" offset="100%"></stop>
        </linearGradient>
        <polygon id="path-4" points="25.0611586 7.10542736e-15 63.6433753 7.10542736e-15 89.8290692 26.8361489 89.8290692 63.7250521 63.6433753 89.5479354 25.0611586 89.5479354 4.54747351e-13 63.7250521 4.54747351e-13 26.8361489"></polygon>
        <linearGradient x1="50%" y1="0%" x2="50%" y2="100%" id="linearGradient-5">
            <stop stop-color="#FDEFC3" offset="0%"></stop>
            <stop stop-color="#E9B379" offset="100%"></stop>
        </linearGradient>
        <linearGradient x1="50%" y1="0%" x2="50%" y2="100%" id="linearGradient-6">
            <stop stop-color="#FFCB92" offset="0%"></stop>
            <stop stop-color="#FDEFC3" offset="100%"></stop>
        </linearGradient>
    </defs>
    <g id="立即推广" stroke="none" stroke-width="1" fill="none" fill-rule="evenodd">
        <g id="icon/春节/账号安全">
            <rect id="矩形" x="0" y="0" width="102" height="102"></rect>
            <g id="icon/春节/立即推广" transform="translate(6.000000, 6.000000)">
                <g id="路径-5">
                    <use fill="url(#linearGradient-1)" fill-rule="evenodd" xlink:href="#path-4"></use>
                    <path stroke="#B30F15" stroke-width="6" d="M23.7580017,-3 L64.9076288,-3 L92.8290692,25.6150114 L92.8290692,64.9799697 L64.8737745,92.5479354 L23.7921302,92.5479354 L-3,64.9414682 L-3,25.6531732 L23.7580017,-3 Z"></path>
                    <path stroke="url(#linearGradient-2)" stroke-width="3" d="M24.4095801,-1.5 L64.2755021,-1.5 L91.3290692,26.2255802 L91.3290692,64.3525109 L64.2585749,91.0479354 L24.4266444,91.0479354 L-1.5,64.3332601 L-1.5,26.2446611 L24.4095801,-1.5 Z"></path>
                    <path stroke="url(#linearGradient-3)" stroke-width="2" d="M25.4955442,1 L1,27.2304741 L1,63.31958 L25.484168,88.5479354 L63.2332422,88.5479354 L88.8290692,63.3067462 L88.8290692,27.2431947 L63.2219575,1 L25.4955442,1 Z" stroke-linejoin="square"></path>
                </g>
                <g id="编组-13" transform="translate(15.000000, 15.000000)">
                    <rect id="矩形" x="0" y="0" width="60" height="60"></rect>
                    <g id="推广" transform="translate(0.000000, 3.750000)" fill-rule="nonzero">
                        <rect id="矩形" fill="#000000" opacity="0" x="0" y="0" width="49.3493976" height="49.3493976"></rect>
                        <path d="M27.8939571,9.94165316 L27.8939571,35.2609849 L47.4223462,44.7750506 C50.20192,46.1291516 53.4391906,44.1052027 53.4391906,41.0132951 L53.4391906,4.18934299 C53.4391906,1.09809012 50.2019201,-0.925858699 47.4223462,0.427587518 L27.8939571,9.94165316 Z M23.7098635,35.1542545 L23.7098635,10.0490384 L12.9759283,10.0490384 C6.31215369,10.0490384 0.489781205,15.0634027 0.0307750361,21.7108077 C-0.453113108,28.7288226 4.83691692,34.6153642 11.6244465,35.1123481 C12.0940298,35.1384871 12.5198666,35.3964436 12.7605032,35.80053 L20.1799029,48.6513939 C20.3648121,48.9718396 20.669466,49.2056864 21.0268202,49.3014721 C21.3841744,49.3972577 21.7649445,49.3471328 22.0853352,49.1621283 L28.1244424,45.6753837 C28.4448881,45.4904745 28.6787349,45.1858205 28.7745206,44.8284663 C28.8703062,44.4711122 28.8201813,44.0903421 28.6351768,43.7699514 L23.6600997,35.1542545 L23.7098635,35.1542545 Z M53.4391906,13.2777966 L53.4391906,16.4508979 C55.7782755,18.0000861 57.1848707,20.6188031 57.1848707,23.4243872 C57.1848707,26.2299713 55.7782755,28.8486883 53.4391906,30.3978765 L53.4391906,33.5709778 C57.417454,31.7626578 59.9716333,27.7959899 59.9716333,23.4260242 C59.9716333,19.0560584 57.417454,15.0893905 53.4391906,13.2810706 L53.4391906,13.2777966 Z" id="形状" fill="url(#linearGradient-5)"></path>
                        <path d="M27.8939571,9.94165316 L27.8939571,35.2609849 L47.4223462,44.7750506 C50.20192,46.1291516 53.4391906,44.1052027 53.4391906,41.0132951 L53.4391906,4.18934299 C53.4391906,1.09809012 50.2019201,-0.925858699 47.4223462,0.427587518 L27.8939571,9.94165316 Z M23.7098635,35.1542545 L23.7098635,10.0490384 L12.9759283,10.0490384 C6.31215369,10.0490384 0.489781205,15.0634027 0.0307750361,21.7108077 C-0.453113108,28.7288226 4.83691692,34.6153642 11.6244465,35.1123481 C12.0940298,35.1384871 12.5198666,35.3964436 12.7605032,35.80053 L20.1799029,48.6513939 C20.3648121,48.9718396 20.669466,49.2056864 21.0268202,49.3014721 C21.3841744,49.3972577 21.7649445,49.3471328 22.0853352,49.1621283 L28.1244424,45.6753837 C28.4448881,45.4904745 28.6787349,45.1858205 28.7745206,44.8284663 C28.8703062,44.4711122 28.8201813,44.0903421 28.6351768,43.7699514 L23.6600997,35.1542545 L23.7098635,35.1542545 Z M53.4391906,13.2777966 L53.4391906,16.4508979 C55.7782755,18.0000861 57.1848707,20.6188031 57.1848707,23.4243872 C57.1848707,26.2299713 55.7782755,28.8486883 53.4391906,30.3978765 L53.4391906,33.5709778 C57.417454,31.7626578 59.9716333,27.7959899 59.9716333,23.4260242 C59.9716333,19.0560584 57.417454,15.0893905 53.4391906,13.2810706 L53.4391906,13.2777966 Z" id="形状" stroke="url(#linearGradient-6)" stroke-width="2"></path>
                    </g>
                </g>
            </g>
        </g>
    </g>
</svg>