<?xml version="1.0" encoding="UTF-8"?>
<svg width="102px" height="102px" viewBox="0 0 102 102" version="1.1" xmlns="http://www.w3.org/2000/svg" xmlns:xlink="http://www.w3.org/1999/xlink">
    <!-- Generator: Sketch 61.2 (89653) - https://sketch.com -->
    <title>推广赚钱</title>
    <desc>Created with Sketch.</desc>
    <defs>
        <linearGradient x1="50%" y1="0%" x2="50%" y2="100%" id="linearGradient-1">
            <stop stop-color="#EB5C3F" offset="0%"></stop>
            <stop stop-color="#C82525" offset="100%"></stop>
        </linearGradient>
        <linearGradient x1="50.0009945%" y1="-2.88668095%" x2="50%" y2="99.6875244%" id="linearGradient-2">
            <stop stop-color="#FFCA90" offset="0%"></stop>
            <stop stop-color="#FDFAD2" offset="49.3718328%"></stop>
            <stop stop-color="#FFCA90" offset="100%"></stop>
        </linearGradient>
        <linearGradient x1="50%" y1="0%" x2="50%" y2="98.9257812%" id="linearGradient-3">
            <stop stop-color="#C41E24" offset="0%"></stop>
            <stop stop-color="#EB5D3F" offset="100%"></stop>
        </linearGradient>
        <polygon id="path-4" points="25.0611586 7.10542736e-15 63.6433753 7.10542736e-15 89.8290692 26.8361489 89.8290692 63.7250521 63.6433753 89.5479354 25.0611586 89.5479354 4.54747351e-13 63.7250521 4.54747351e-13 26.8361489"></polygon>
        <linearGradient x1="50%" y1="0%" x2="50%" y2="100%" id="linearGradient-5">
            <stop stop-color="#FDEFC3" offset="0%"></stop>
            <stop stop-color="#E9B379" offset="100%"></stop>
        </linearGradient>
        <linearGradient x1="50%" y1="0%" x2="50%" y2="100%" id="linearGradient-6">
            <stop stop-color="#FFCB92" offset="0%"></stop>
            <stop stop-color="#FDEFC3" offset="100%"></stop>
        </linearGradient>
        <linearGradient x1="50%" y1="0%" x2="50%" y2="100%" id="linearGradient-7">
            <stop stop-color="#FDEFC3" offset="0%"></stop>
            <stop stop-color="#E9B379" offset="100%"></stop>
        </linearGradient>
        <linearGradient x1="50%" y1="0%" x2="50%" y2="100%" id="linearGradient-8">
            <stop stop-color="#FFCB92" offset="0%"></stop>
            <stop stop-color="#FDEFC3" offset="100%"></stop>
        </linearGradient>
        <linearGradient x1="50%" y1="0%" x2="50%" y2="100%" id="linearGradient-9">
            <stop stop-color="#FFCB92" offset="0%"></stop>
            <stop stop-color="#FDEFC3" offset="100%"></stop>
        </linearGradient>
    </defs>
    <g id="推广赚钱" stroke="none" stroke-width="1" fill="none" fill-rule="evenodd">
        <g id="icon/春节/账号安全">
            <rect id="矩形" x="0" y="0" width="102" height="102"></rect>
        </g>
        <g id="icon/春节/推广赚钱" transform="translate(6.000000, 6.000000)">
            <g id="路径-5">
                <use fill="url(#linearGradient-1)" fill-rule="evenodd" xlink:href="#path-4"></use>
                <path stroke="#B30F15" stroke-width="6" d="M23.7580017,-3 L64.9076288,-3 L92.8290692,25.6150114 L92.8290692,64.9799697 L64.8737745,92.5479354 L23.7921302,92.5479354 L-3,64.9414682 L-3,25.6531732 L23.7580017,-3 Z"></path>
                <path stroke="url(#linearGradient-2)" stroke-width="3" d="M24.4095801,-1.5 L64.2755021,-1.5 L91.3290692,26.2255802 L91.3290692,64.3525109 L64.2585749,91.0479354 L24.4266444,91.0479354 L-1.5,64.3332601 L-1.5,26.2446611 L24.4095801,-1.5 Z"></path>
                <path stroke="url(#linearGradient-3)" stroke-width="2" d="M25.4955442,1 L1,27.2304741 L1,63.31958 L25.484168,88.5479354 L63.2332422,88.5479354 L88.8290692,63.3067462 L88.8290692,27.2431947 L63.2219575,1 L25.4955442,1 Z" stroke-linejoin="square"></path>
            </g>
            <g id="钱袋子" transform="translate(15.000000, 15.000000)" fill-rule="nonzero">
                <rect id="矩形" fill="#000000" opacity="0" x="0" y="0" width="60" height="60"></rect>
                <path d="M18.5836409,15 C18.5836409,15 23.578298,19.1428572 30,19.1428572 C36.421702,19.1428572 41.5590635,15 41.5590635,15 C41.5590635,15 47.1245386,10 44.2704488,7.85714285 C41.4163589,5.71428567 37.1352244,8.57142858 37.1352244,8.57142858 C37.1352245,8.57142858 33.8530212,5 30,5 C26.1469788,5 23.0074801,8.57142858 23.0074801,8.57142858 C23.0074801,8.57142858 18.7263454,5.71428573 15.8722557,7.85714285 C13.0181659,10 18.583641,15 18.5836409,15 L18.5836409,15 Z" id="路径" fill="url(#linearGradient-5)"></path>
                <path d="M18.5836409,15 C18.5836409,15 23.578298,19.1428572 30,19.1428572 C36.421702,19.1428572 41.5590635,15 41.5590635,15 C41.5590635,15 47.1245386,10 44.2704488,7.85714285 C41.4163589,5.71428567 37.1352244,8.57142858 37.1352244,8.57142858 C37.1352245,8.57142858 33.8530212,5 30,5 C26.1469788,5 23.0074801,8.57142858 23.0074801,8.57142858 C23.0074801,8.57142858 18.7263454,5.71428573 15.8722557,7.85714285 C13.0181659,10 18.583641,15 18.5836409,15 L18.5836409,15 Z" id="路径" stroke="url(#linearGradient-6)" stroke-width="2"></path>
                <path d="M19.5825723,19.8571429 C19.5825723,19.8571429 24.0064115,22.7142857 30,22.7142857 C35.5325432,22.7142857 39.8491429,20.2797971 40.4804982,19.9052604 L40.5601321,19.8571429 C40.5601321,19.8571429 46.6964251,20 51.2629687,29.2857143 C55.5441033,38.1428572 53.688945,43.5714286 53.688945,43.5714286 C53.688945,43.5714286 63.3928502,56 30,56 C-3.39285019,56 6.31105501,43.7142858 6.31105501,43.7142858 C6.31105501,43.7142858 4.59860113,38 8.73703128,29.4285714 C13.1344437,20.2116402 19.1198105,19.8702724 19.5571389,19.8576292 Z M29.8572955,26.8571429 C23.1501846,26.8571429 17.727414,32.2857143 17.727414,38.8571429 C17.727414,45.4285714 23.1501846,50.8571429 29.8572955,50.8571429 C36.5644065,50.8571429 41.987177,45.4285715 41.987177,38.8571429 C41.987177,32.2857143 36.5644064,26.8571429 29.8572955,26.8571429 Z" id="形状结合" fill="url(#linearGradient-7)"></path>
                <path d="M19.5825723,19.8571429 C19.5825723,19.8571429 24.0064115,22.7142857 30,22.7142857 C35.5325432,22.7142857 39.8491429,20.2797971 40.4804982,19.9052604 L40.5601321,19.8571429 C40.5601321,19.8571429 46.6964251,20 51.2629687,29.2857143 C55.5441033,38.1428572 53.688945,43.5714286 53.688945,43.5714286 C53.688945,43.5714286 63.3928502,56 30,56 C-3.39285019,56 6.31105501,43.7142858 6.31105501,43.7142858 C6.31105501,43.7142858 4.59860113,38 8.73703128,29.4285714 C13.1344437,20.2116402 19.1198105,19.8702724 19.5571389,19.8576292 Z M29.8572955,26.8571429 C23.1501846,26.8571429 17.727414,32.2857143 17.727414,38.8571429 C17.727414,45.4285714 23.1501846,50.8571429 29.8572955,50.8571429 C36.5644065,50.8571429 41.987177,45.4285715 41.987177,38.8571429 C41.987177,32.2857143 36.5644064,26.8571429 29.8572955,26.8571429 Z" id="形状结合" stroke="url(#linearGradient-8)" stroke-width="2"></path>
                <polygon id="路径" fill="url(#linearGradient-9)" points="22.2939576 38.2857143 30.1427045 46.1428572 37.9914513 38.2857143 30.1427045 30.4285714"></polygon>
            </g>
        </g>
    </g>
</svg>