<?xml version="1.0" encoding="UTF-8"?>
<svg width="102px" height="102px" viewBox="0 0 102 102" version="1.1" xmlns="http://www.w3.org/2000/svg" xmlns:xlink="http://www.w3.org/1999/xlink">
    <!-- Generator: Sketch 61.2 (89653) - https://sketch.com -->
    <title>官方社群</title>
    <desc>Created with Sketch.</desc>
    <defs>
        <linearGradient x1="50%" y1="0%" x2="50%" y2="100%" id="linearGradient-1">
            <stop stop-color="#EB5C3F" offset="0%"></stop>
            <stop stop-color="#C82525" offset="100%"></stop>
        </linearGradient>
        <linearGradient x1="50.0009945%" y1="-2.88668095%" x2="50%" y2="99.6875244%" id="linearGradient-2">
            <stop stop-color="#FFCA90" offset="0%"></stop>
            <stop stop-color="#FDFAD2" offset="49.3718328%"></stop>
            <stop stop-color="#FFCA90" offset="100%"></stop>
        </linearGradient>
        <linearGradient x1="50%" y1="0%" x2="50%" y2="98.9257812%" id="linearGradient-3">
            <stop stop-color="#C41E24" offset="0%"></stop>
            <stop stop-color="#EB5D3F" offset="100%"></stop>
        </linearGradient>
        <polygon id="path-4" points="25.0611586 7.10542736e-15 63.6433753 7.10542736e-15 89.8290692 26.8361489 89.8290692 63.7250521 63.6433753 89.5479354 25.0611586 89.5479354 4.54747351e-13 63.7250521 4.54747351e-13 26.8361489"></polygon>
        <linearGradient x1="50%" y1="0%" x2="50%" y2="100%" id="linearGradient-5">
            <stop stop-color="#FDEFC3" offset="0%"></stop>
            <stop stop-color="#E9B379" offset="100%"></stop>
        </linearGradient>
        <linearGradient x1="50%" y1="0%" x2="50%" y2="100%" id="linearGradient-6">
            <stop stop-color="#FFCB92" offset="0%"></stop>
            <stop stop-color="#FDEFC3" offset="100%"></stop>
        </linearGradient>
    </defs>
    <g id="官方社群" stroke="none" stroke-width="1" fill="none" fill-rule="evenodd">
        <g id="icon/春节/账号安全">
            <rect id="矩形" x="0" y="0" width="102" height="102"></rect>
            <g id="icon/春节/官方社群" transform="translate(6.000000, 6.000000)">
                <g id="路径-5">
                    <use fill="url(#linearGradient-1)" fill-rule="evenodd" xlink:href="#path-4"></use>
                    <path stroke="#B30F15" stroke-width="6" d="M23.7580017,-3 L64.9076288,-3 L92.8290692,25.6150114 L92.8290692,64.9799697 L64.8737745,92.5479354 L23.7921302,92.5479354 L-3,64.9414682 L-3,25.6531732 L23.7580017,-3 Z"></path>
                    <path stroke="url(#linearGradient-2)" stroke-width="3" d="M24.4095801,-1.5 L64.2755021,-1.5 L91.3290692,26.2255802 L91.3290692,64.3525109 L64.2585749,91.0479354 L24.4266444,91.0479354 L-1.5,64.3332601 L-1.5,26.2446611 L24.4095801,-1.5 Z"></path>
                    <path stroke="url(#linearGradient-3)" stroke-width="2" d="M25.4955442,1 L1,27.2304741 L1,63.31958 L25.484168,88.5479354 L63.2332422,88.5479354 L88.8290692,63.3067462 L88.8290692,27.2431947 L63.2219575,1 L25.4955442,1 Z" stroke-linejoin="square"></path>
                </g>
                <g id="群众" transform="translate(15.000000, 15.000000)" fill-rule="nonzero">
                    <rect id="矩形" fill="#000000" opacity="0" x="0" y="0" width="60" height="60"></rect>
                    <path d="M50.6026667,51.3786667 C51.0830704,50.5605955 51.3353831,49.628696 51.3333333,48.68 L51.3333333,44.6666667 C51.3333333,38.8 46.0053333,33.7333334 38.3093333,31.3893333 C41.3893333,28.456 43.3333333,24.144 43.3333333,19.3333333 C43.3333333,16.4293333 42.624,13.7066666 41.3866667,11.36 C46.9413333,11.776 51.3333333,16.9786667 51.3333333,23.3333333 C51.3333333,27.48 49.4666666,31.136 46.6213333,33.2906667 C54.0106666,34.8906667 59.3333333,39.3786667 59.3333333,44.6666667 L59.3333333,48.712 C59.3333333,50.1847593 58.139426,51.3786667 56.6666667,51.3786667 L50.6026667,51.3786667 L50.6026667,51.3786667 Z M22,32.6666667 C14.6373333,32.6666667 8.66666669,26.1013334 8.66666669,18 C8.66666669,9.89866662 14.6373333,3.33333331 22,3.33333331 C29.3626667,3.33333331 35.3333333,9.89866662 35.3333333,18 C35.3333333,26.1013334 29.3626667,32.6666667 22,32.6666667 Z M43.3333333,51.3466667 C43.3333333,54.2921853 40.9455187,56.68 38,56.68 L6,56.68 C3.05448135,56.68 0.666666687,54.2921853 0.666666687,51.3466667 L0.666666687,47.3333333 C0.666666687,39.232 10.2186667,32.6666667 22,32.6666667 C33.7813333,32.6666667 43.3333333,39.232 43.3333333,47.3333333 L43.3333333,51.3466667 L43.3333333,51.3466667 Z" id="形状" fill="url(#linearGradient-5)"></path>
                    <path d="M50.6026667,51.3786667 C51.0830704,50.5605955 51.3353831,49.628696 51.3333333,48.68 L51.3333333,44.6666667 C51.3333333,38.8 46.0053333,33.7333334 38.3093333,31.3893333 C41.3893333,28.456 43.3333333,24.144 43.3333333,19.3333333 C43.3333333,16.4293333 42.624,13.7066666 41.3866667,11.36 C46.9413333,11.776 51.3333333,16.9786667 51.3333333,23.3333333 C51.3333333,27.48 49.4666666,31.136 46.6213333,33.2906667 C54.0106666,34.8906667 59.3333333,39.3786667 59.3333333,44.6666667 L59.3333333,48.712 C59.3333333,50.1847593 58.139426,51.3786667 56.6666667,51.3786667 L50.6026667,51.3786667 L50.6026667,51.3786667 Z M22,32.6666667 C14.6373333,32.6666667 8.66666669,26.1013334 8.66666669,18 C8.66666669,9.89866662 14.6373333,3.33333331 22,3.33333331 C29.3626667,3.33333331 35.3333333,9.89866662 35.3333333,18 C35.3333333,26.1013334 29.3626667,32.6666667 22,32.6666667 Z M43.3333333,51.3466667 C43.3333333,54.2921853 40.9455187,56.68 38,56.68 L6,56.68 C3.05448135,56.68 0.666666687,54.2921853 0.666666687,51.3466667 L0.666666687,47.3333333 C0.666666687,39.232 10.2186667,32.6666667 22,32.6666667 C33.7813333,32.6666667 43.3333333,39.232 43.3333333,47.3333333 L43.3333333,51.3466667 L43.3333333,51.3466667 Z" id="形状" stroke="url(#linearGradient-6)" stroke-width="2"></path>
                </g>
            </g>
        </g>
    </g>
</svg>