<?xml version="1.0" encoding="UTF-8"?>
<svg width="18px" height="20px" viewBox="0 0 18 20" version="1.1" xmlns="http://www.w3.org/2000/svg" xmlns:xlink="http://www.w3.org/1999/xlink">
    <!-- Generator: Sketch 59.1 (86144) - https://sketch.com -->
    <title>编组 3</title>
    <desc>Created with Sketch.</desc>
    <g id="页面-1" stroke="none" stroke-width="1" fill="none" fill-rule="evenodd" opacity="0.299999982">
        <g id="精选备份-13" transform="translate(-120.000000, -1014.000000)" fill="#000000" fill-rule="nonzero">
            <g id="编组-5" transform="translate(0.000000, 998.000000)">
                <g id="编组-3" transform="translate(120.000000, 16.000000)">
                    <path d="M17.0296,2.898 L16.2092,2.884 C14.9150576,2.82209497 13.6399068,2.54776728 12.4348,2.072 C11.3008906,1.62082768 10.2201106,1.0461645 9.212,0.3584 L8.7136,-1.52766688e-13 L8.2348,0.3584 C7.22139051,1.04725346 6.13492295,1.62194503 4.9952,2.072 C3.72452018,2.55617222 2.38354175,2.83042028 1.0248,2.884 L-7.46069873e-14,2.898 L-7.46069873e-14,11.2812 C-7.46069873e-14,15.4812 5.6,19.936 8.5148,19.936 C11.4296,19.936 16.9344,15.4868 16.9344,11.2812 L17.0296,2.898 Z M15.12,11.2784 C15.12,14.532 10.3264,18.256 8.4,18.256 C6.4736,18.256 1.68,14.532 1.68,11.2784 L1.68,4.5052 C2.96973491,4.41125403 4.23674268,4.1155244 5.4348,3.6288 C6.53888326,3.18854368 7.60544555,2.65947634 8.624,2.0468 C9.58111763,2.66615598 10.5934215,3.19574088 11.648,3.6288 C13.048,4.1888 15.1284,4.4156 15.1284,4.5052 L15.12,11.2784 Z" id="形状"></path>
                    <polygon id="路径" points="7.98 14.4284 4.4492 11.4212 5.5328 10.1444 7.798 12.0708 12.0988 7.1176 13.3672 8.2208"></polygon>
                </g>
            </g>
        </g>
    </g>
</svg>