<?xml version="1.0" encoding="UTF-8"?>
<svg width="16px" height="22px" viewBox="0 0 16 22" version="1.1" xmlns="http://www.w3.org/2000/svg" xmlns:xlink="http://www.w3.org/1999/xlink">
    <!-- Generator: Sketch 59.1 (86144) - https://sketch.com -->
    <title>验证码</title>
    <desc>Created with Sketch.</desc>
    <g id="APP" stroke="none" stroke-width="1" fill="none" fill-rule="evenodd">
        <g id="切换已登陆账号" transform="translate(-52.000000, -368.000000)" fill="#FFFFFF" fill-rule="nonzero">
            <path d="M65,368 C66.3807119,368 67.5,369.119288 67.5,370.5 L67.5,387.5 C67.5,388.880712 66.3807119,390 65,390 L55,390 C53.6192881,390 52.5,388.880712 52.5,387.5 L52.5,370.5 C52.5,369.119288 53.6192881,368 55,368 L65,368 Z M65,369 L55,369 C54.1715729,369 53.5,369.671573 53.5,370.5 L53.5,387.5 C53.5,388.328427 54.1715729,389 55,389 L65,389 C65.8284271,389 66.5,388.328427 66.5,387.5 L66.5,370.5 C66.5,369.671573 65.8284271,369 65,369 Z M62,384.5 C62.2761424,384.5 62.5,384.723858 62.5,385 C62.5,385.276142 62.2761424,385.5 62,385.5 L58,385.5 C57.7238576,385.5 57.5,385.276142 57.5,385 C57.5,384.723858 57.7238576,384.5 58,384.5 L62,384.5 Z M63.9330415,373.525107 C64.1454867,373.737553 64.1454867,374.081994 63.9330415,374.294439 L60.4371056,377.790375 L60.3748802,377.852601 C59.9843559,378.243125 59.3511909,378.243125 58.9606666,377.852601 L57.1589585,376.050893 C56.9465133,375.838447 56.9465133,375.494006 57.1589585,375.281561 C57.3714037,375.069115 57.7158455,375.069115 57.9282907,375.281561 L59.6677734,377.021043 L63.1637093,373.525107 C63.3761545,373.312662 63.7205963,373.312662 63.9330415,373.525107 Z" id="验证码"></path>
        </g>
    </g>
</svg>