<?xml version="1.0" encoding="UTF-8"?>
<svg width="33px" height="23px" viewBox="0 0 33 23" version="1.1" xmlns="http://www.w3.org/2000/svg" xmlns:xlink="http://www.w3.org/1999/xlink">
    <!-- Generator: Sketch 59.1 (86144) - https://sketch.com -->
    <title>下载2</title>
    <desc>Created with Sketch.</desc>
    <g id="页面-1" stroke="none" stroke-width="1" fill="none" fill-rule="evenodd">
        <g id="首页/推荐" transform="translate(-306.000000, -579.000000)">
            <g id="右边" transform="translate(303.000000, 319.000000)">
                <g id="下载2" transform="translate(2.000000, 260.000000)">
                    <rect id="矩形" fill="#000000" fill-rule="nonzero" opacity="0" x="0" y="0" width="37.044" height="37.044"></rect>
                    <path d="M26.8428436,8.5632089 C26.8516332,8.40851142 26.8565554,8.25311076 26.8565554,8.09630377 C26.8565554,3.62484332 23.2408533,-7.10542736e-15 18.780292,-7.10542736e-15 C14.3197307,-7.10542736e-15 10.7040286,3.62484332 10.7040286,8.09630377 C10.7040286,8.11985998 10.7047317,8.1430646 10.7050833,8.16662081 C10.2538927,8.08286931 9.79596322,8.0407365 9.33706535,8.04075331 C5.21648691,8.04075331 1.87607602,11.3896023 1.87607602,15.5203767 C1.87607602,19.6511511 5.21648691,23 9.33706535,23 C9.44043139,23 9.54309427,22.9971873 9.64540556,22.9929683 C9.7347082,22.9975389 9.82436242,23 9.91471981,23 L26.3460537,23 C26.4452007,23 26.543293,22.9968357 26.6410337,22.991562 C30.4719059,22.810144 33.522259,19.646932 33.522259,15.7714085 C33.5226106,11.9637409 30.5784362,8.84377388 26.8428436,8.5632089 Z M21.7220053,14.5795347 L18.5275022,17.8819744 C18.5000786,17.9210003 18.4691391,17.9582684 18.4350353,17.9934269 C18.2961592,18.1372252 18.1221245,18.2261763 17.9396518,18.2609832 C17.6464297,18.3232138 17.3285967,18.2430524 17.0969021,18.018741 C17.0559139,17.979173 17.0187181,17.9358564 16.9858012,17.8893577 L13.6984796,14.7092696 C13.3282604,14.3510043 13.318416,13.7603412 13.6766814,13.390122 C14.0349467,13.0199028 14.6256098,13.0100584 14.995829,13.3683237 L16.5811266,14.9019383 C16.5811266,14.8998288 16.580775,14.8977193 16.580775,14.8956098 L16.4953398,9.74066771 C16.4847923,9.11379131 16.9847464,8.59731267 17.6116228,8.58676511 C18.2384992,8.57621755 18.7549778,9.0761717 18.7655254,9.70304809 L18.8509606,14.8583417 L18.8509606,14.8643187 L20.3810594,13.2825369 C20.7393247,12.9123177 21.3299878,12.9024733 21.700207,13.2607386 C22.0704262,13.6183008 22.0802706,14.2089639 21.7220053,14.5795347 Z" id="形状" fill="#FFFFFF" opacity="0.9"></path>
                </g>
            </g>
        </g>
    </g>
</svg>