<?xml version="1.0" encoding="UTF-8"?>
<svg width="46px" height="18px" viewBox="0 0 46 18" version="1.1" xmlns="http://www.w3.org/2000/svg" xmlns:xlink="http://www.w3.org/1999/xlink">
    <title>编组 5</title>
    <g id="页面-1" stroke="none" stroke-width="1" fill="none" fill-rule="evenodd">
        <g id="我的备份-13" transform="translate(-41.000000, -201.000000)" fill="#FFFFFF" fill-rule="nonzero">
            <g id="svip" transform="translate(41.000000, 201.000000)">
                <path d="M23.5713822,-2.48689958e-14 L21.9999568,-2.48689958e-14 C21.1309585,-2.48689958e-14 20.4285313,0.671989775 20.4285313,1.49997715 L20.4285313,16.4997489 C20.4285313,17.3277363 21.1309585,17.9997261 21.9999568,17.9997261 L23.5713822,17.9997261 C24.4403805,17.9997261 25.1428077,17.3277363 25.1428077,16.4997489 L25.1428077,1.49997723 C25.1428077,0.671989775 24.4403805,-2.48689958e-14 23.5713822,-2.48689958e-14 Z M14.1428294,-2.48689958e-14 L10.9999784,-2.48689958e-14 C10.9999784,-2.48689958e-14 10.9999784,8.71786731 10.9999784,10.4998402 C11.0486926,12.8908039 7.85712741,13.4997946 7.85712741,13.4997946 C7.85712741,13.4997946 4.71427643,12.8908039 4.71427643,10.4998402 C4.71427643,8.43737162 4.71427643,-2.48689958e-14 4.71427643,-2.48689958e-14 L1.57142545,-2.48689958e-14 C0.703998612,-2.48689958e-14 3.55271368e-15,0.671989775 3.55271368e-15,1.49997715 L3.55271368e-15,11.9998174 C0.0487141774,12.155815 5.53298909,18.0462253 6.28570188,17.9997261 L9.42855286,17.9997261 C10.3289796,17.9997261 15.7142547,11.9683179 15.7142547,11.9998174 L15.7142547,1.49997715 C15.7142547,0.671989775 15.0118277,-2.48689958e-14 14.1428294,-2.48689958e-14 Z M40.0713497,-2.48689958e-14 L35.3570733,-2.48689958e-14 C34.8117886,-2.48689958e-14 34.2963611,0.0989984818 33.8013621,0.239996325 C33.5625054,0.100498482 33.298506,-2.48689958e-14 32.9999351,-2.48689958e-14 L31.4285096,-2.48689958e-14 C30.5595114,-2.48689958e-14 29.8570842,0.671989775 29.8570842,1.49997715 L29.8570842,16.4997489 C29.8570842,17.3292363 30.5595114,17.9997261 31.4285096,17.9997261 L32.9999351,17.9997261 C33.8689334,17.9997261 34.5713605,17.3292363 34.5713605,16.4997489 L34.5713605,11.9233186 C34.8306458,11.960818 35.0883595,11.9998175 35.3570733,11.9998175 L40.0713497,11.9998175 C43.1089152,11.9998175 45.5713389,9.64935325 45.5713389,6.74989735 L45.5713389,5.2499202 C45.5713389,2.35046429 43.1089152,-2.48689958e-14 40.0713497,-2.48689958e-14 Z M40.8570624,7.49988592 C40.8570624,8.3278733 40.1530638,8.99986307 39.285637,8.99986307 L34.5713605,8.99986307 L34.5713605,2.99995439 L39.285637,2.99995439 C40.1530638,2.99995439 40.8570624,3.67044416 40.8570624,4.49993154 L40.8570624,7.49988592 Z" id="形状"></path>
            </g>
        </g>
    </g>
</svg>