<?xml version="1.0" encoding="UTF-8"?>
<svg width="12px" height="12px" viewBox="0 0 12 12" version="1.1" xmlns="http://www.w3.org/2000/svg" xmlns:xlink="http://www.w3.org/1999/xlink">
    <!-- Generator: Sketch 59.1 (86144) - https://sketch.com -->
    <title>评论</title>
    <desc>Created with Sketch.</desc>
    <g id="1.1.0版本" stroke="none" stroke-width="1" fill="none" fill-rule="evenodd">
        <g id="播放界面（加载中）" transform="translate(-116.000000, -353.000000)" fill-rule="nonzero">
            <g id="评论" transform="translate(116.000000, 353.000000)">
                <rect id="矩形" fill="#000000" opacity="0" x="0" y="0" width="12" height="12"></rect>
                <path d="M7.98254984,9.19447814 C7.24907913,9.90566795 6.12365416,11.1816269 6.12365416,11.1816269 C6.05548038,11.2526307 5.94449563,11.2526307 5.8765497,11.1816269 C5.8765497,11.1816269 4.33904813,9.59016187 3.96762395,9.19447814 L1.83694455,9.19447814 C1.04688422,9.19447814 0.406722246,8.45611475 0.406722246,7.65502189 L0.406722246,2.21576171 C0.406722246,1.41468084 1.0329017,0.765117246 1.80503419,0.765117246 L10.1949418,0.765117246 C10.9672902,0.765117246 11.5932538,1.41468084 11.5932538,2.21576171 L11.5932538,7.65502189 C11.5932538,8.45599484 10.9531038,9.19447814 10.1632713,9.19447814 L7.98254984,9.19447814 Z M3.20335813,4.37857932 C2.81729188,4.37857932 2.50419616,4.70336712 2.50419616,5.10395552 C2.50419616,5.504436 2.81727989,5.82922379 3.20335813,5.82922379 C3.58943637,5.82922379 3.90252009,5.504436 3.90252009,5.10395552 C3.90252009,4.70336712 3.58942437,4.37857932 3.20335813,4.37857932 L3.20335813,4.37857932 Z M5.999994,4.37857932 C5.61392775,4.37857932 5.30083204,4.70336712 5.30083204,5.10395552 C5.30083204,5.504436 5.61414361,5.82922379 5.999994,5.82922379 C6.38606025,5.82922379 6.69915596,5.504436 6.69915596,5.10395552 C6.69915596,4.70336712 6.38606025,4.37857932 5.999994,4.37857932 L5.999994,4.37857932 Z M8.79662988,4.37857932 C8.41077949,4.37857932 8.09746792,4.70336712 8.09746792,5.10395552 C8.09746792,5.504436 8.41077949,5.82922379 8.79662988,5.82922379 C9.18292398,5.82922379 9.49579185,5.504436 9.49579185,5.10395552 C9.49579185,4.70336712 9.18292398,4.37857932 8.79662988,4.37857932 L8.79662988,4.37857932 Z" id="形状" fill="#F21313"></path>
            </g>
        </g>
    </g>
</svg>