<?xml version="1.0" encoding="UTF-8"?>
<svg width="15px" height="15px" viewBox="0 0 15 15" version="1.1" xmlns="http://www.w3.org/2000/svg" xmlns:xlink="http://www.w3.org/1999/xlink">
    <title>icon_jb (3)</title>
    <defs>
        <linearGradient x1="50%" y1="0%" x2="50%" y2="100%" id="linearGradient-1">
            <stop stop-color="#FF972A" offset="0%"></stop>
            <stop stop-color="#FFCC34" offset="100%"></stop>
        </linearGradient>
        <linearGradient x1="46.0996186%" y1="0.262140577%" x2="58.4506482%" y2="98.1973118%" id="linearGradient-2">
            <stop stop-color="#FECF32" offset="0%"></stop>
            <stop stop-color="#FF8700" offset="100%"></stop>
        </linearGradient>
        <linearGradient x1="9.53994276%" y1="11.0967359%" x2="87.766245%" y2="90.7370033%" id="linearGradient-3">
            <stop stop-color="#FBCC29" offset="0%"></stop>
            <stop stop-color="#FEEF5B" offset="100%"></stop>
        </linearGradient>
        <linearGradient x1="9.53994276%" y1="11.0967359%" x2="87.766245%" y2="90.7370033%" id="linearGradient-4">
            <stop stop-color="#FFFFFF" stop-opacity="0" offset="0%"></stop>
            <stop stop-color="#FFFFFF" stop-opacity="0" offset="57.4512283%"></stop>
            <stop stop-color="#FFFFFF" stop-opacity="0.491055254" offset="100%"></stop>
        </linearGradient>
        <linearGradient x1="87.4006167%" y1="82.3697327%" x2="17.4891738%" y2="13.4552138%" id="linearGradient-5">
            <stop stop-color="#FFE89B" offset="0%"></stop>
            <stop stop-color="#FF8809" offset="100%"></stop>
        </linearGradient>
        <linearGradient x1="50%" y1="-4.86884647%" x2="50%" y2="97.4464917%" id="linearGradient-6">
            <stop stop-color="#FFFACB" offset="0%"></stop>
            <stop stop-color="#FFEB44" offset="100%"></stop>
        </linearGradient>
        <linearGradient x1="50%" y1="0%" x2="50%" y2="100%" id="linearGradient-7">
            <stop stop-color="#FFED7A" offset="2.06397804%"></stop>
            <stop stop-color="#FCD83B" offset="100%"></stop>
        </linearGradient>
        <linearGradient x1="50%" y1="-4.86884647%" x2="50%" y2="97.4464917%" id="linearGradient-8">
            <stop stop-color="#FFFACB" offset="0%"></stop>
            <stop stop-color="#FFEB44" offset="100%"></stop>
        </linearGradient>
    </defs>
    <g id="页面-1" stroke="none" stroke-width="1" fill="none" fill-rule="evenodd">
        <g id="发现" transform="translate(-296.000000, -665.000000)">
            <g id="编组-4备份-8" transform="translate(289.000000, 665.000000)">
                <g id="icon_jb-(3)" transform="translate(8.000000, 1.000000)">
                    <g id="编组">
                        <g id="椭圆形" transform="translate(6.990593, 6.408447) rotate(-15.000000) translate(-6.990593, -6.408447) translate(2.490593, 1.908447)" fill="url(#linearGradient-1)">
                            <g id="path-2-link" transform="translate(0.015400, 0.214225)">
                                <ellipse id="path-2" cx="3.6227018" cy="3.58659966" rx="3.47659565" ry="3.46747011"></ellipse>
                            </g>
                        </g>
                        <g id="椭圆形" transform="translate(7.491166, 6.670550) rotate(-15.000000) translate(-7.491166, -6.670550) translate(2.991166, 2.670550)" fill="url(#linearGradient-2)">
                            <g id="path-5-link" transform="translate(0.091322, 0.120040)">
                                <ellipse id="path-5" cx="3.55145963" cy="3.54112645" rx="3.47659565" ry="3.46747011"></ellipse>
                            </g>
                        </g>
                        <path d="M6.51790321,11.047061 C3.99731942,11.047061 1.95398251,9.00991604 1.95398251,6.49697035 C1.95398251,3.98402465 3.99731942,1.94687968 6.51790321,1.94687968 C9.03848705,1.94687968 11.081824,3.98402465 11.081824,6.49697035 C11.081824,9.00991604 9.03848705,11.047061 6.51790321,11.047061 Z M6.51790321,9.93455814 C8.42220116,9.93455814 9.96593964,8.39549764 9.96593964,6.49697035 C9.96593964,4.59844302 8.42220116,3.05938253 6.51790321,3.05938253 C4.61360532,3.05938253 3.06986684,4.59844302 3.06986684,6.49697035 C3.06986684,8.39549764 4.61360532,9.93455814 6.51790321,9.93455814 Z" id="椭圆形" fill="url(#linearGradient-3)" fill-rule="nonzero" transform="translate(6.517903, 6.496970) rotate(-135.000000) translate(-6.517903, -6.496970) "></path>
                        <path d="M6.51080125,11.0470613 C3.99021745,11.0470613 1.94688054,9.00991637 1.94688054,6.49697068 C1.94688054,3.98402498 3.99021745,1.94688001 6.51080125,1.94688001 C9.03138509,1.94688001 11.074722,3.98402498 11.074722,6.49697068 C11.074722,9.00991637 9.03138509,11.0470613 6.51080125,11.0470613 Z M6.51080125,9.93455847 C8.4150992,9.93455847 9.95883768,8.39549797 9.95883768,6.49697068 C9.95883768,4.59844335 8.4150992,3.05938287 6.51080125,3.05938287 C4.60650334,3.05938287 3.06276486,4.59844335 3.06276486,6.49697068 C3.06276486,8.39549797 4.60650334,9.93455847 6.51080125,9.93455847 Z" id="椭圆形" stroke="url(#linearGradient-5)" stroke-width="0.5" fill="url(#linearGradient-4)" fill-rule="nonzero" transform="translate(6.510801, 6.496971) rotate(-135.000000) translate(-6.510801, -6.496971) "></path>
                        <g id="合并形状" opacity="0.800000012" transform="translate(2.163200, 2.163200)" fill="#FF7B32">
                            <g id="path-10-link">
                                <path d="M4.4155829,8.1447204 C4.43354611,8.15361272 4.44923104,8.16627398 4.46164386,8.18171042 L4.4776848,8.2068223 L4.47807331,8.2068786 C4.55273875,8.21769525 4.6044984,8.28699217 4.5936818,8.36165756 C4.59080155,8.38153915 4.58359269,8.40041389 4.57270379,8.4170105 L4.55369143,8.44003782 C4.56650725,8.51453334 4.51650602,8.58531314 4.44201049,8.59812896 C4.41238028,8.60322638 4.38189603,8.59842553 4.35526666,8.58446808 L4.35414034,8.58446808 C4.28718951,8.61955957 4.20446788,8.59373247 4.16937639,8.52678165 C4.16007144,8.50902875 4.15483607,8.48956255 4.15389005,8.4697783 L4.15571557,8.44003782 C4.10161069,8.38745843 4.10037405,8.3009738 4.15295343,8.24686892 C4.16695404,8.23246212 4.18386843,8.22141103 4.20242533,8.21436435 L4.2317222,8.2068223 C4.26534492,8.13890161 4.3476622,8.11109762 4.4155829,8.1447204 Z M8.42419989,4.1029124 C8.44216316,4.11180477 8.45784804,4.12446598 8.47026086,4.13990247 L8.48669036,4.1650706 C8.56135575,4.17588725 8.61311545,4.24518417 8.6022988,4.31984961 C8.59941861,4.33973115 8.59220969,4.35860594 8.58132079,4.3752025 L8.56230848,4.39822981 C8.5751243,4.47272534 8.52512301,4.54350513 8.45062749,4.55632096 C8.42099733,4.56141838 8.39051303,4.55661759 8.36388371,4.54266013 L8.36275733,4.54266013 C8.29580651,4.57775162 8.21308488,4.55192447 8.17799339,4.48497365 C8.16868844,4.46722075 8.16345306,4.44775455 8.1625071,4.4279703 L8.16433257,4.39822981 C8.11022769,4.34565048 8.1089911,4.2591658 8.16157043,4.20506097 C8.18257137,4.18345077 8.21012832,4.16939094 8.23995068,4.1650706 L8.24033919,4.16501436 C8.27396197,4.09709361 8.3562792,4.06928967 8.42419989,4.1029124 Z M0.414321925,4.1029124 C0.432285165,4.11180477 0.447970047,4.12446598 0.460382872,4.13990247 L0.476423849,4.16501436 L0.47681236,4.1650706 C0.551477788,4.17588725 0.603237458,4.24518417 0.592420809,4.31984961 C0.589540606,4.33973115 0.58233172,4.35860594 0.571442804,4.3752025 L0.552430483,4.39822981 C0.565246296,4.47272534 0.515245031,4.54350513 0.440749523,4.55632096 C0.411119318,4.56141838 0.380635055,4.55661759 0.354005706,4.54266013 L0.35287936,4.54266013 C0.285928531,4.57775162 0.203206898,4.55192447 0.168115424,4.48497365 C0.158810457,4.46722075 0.153575108,4.44775455 0.152629108,4.4279703 L0.154454584,4.39822981 C0.100349734,4.34565048 0.099113092,4.2591658 0.151692475,4.20506097 C0.172693372,4.18345077 0.20025035,4.16939094 0.230072706,4.1650706 L0.230461217,4.16501436 C0.264083975,4.09709361 0.34640122,4.06928967 0.414321925,4.1029124 Z M4.4155829,0.140191703 C4.43354611,0.14908404 4.44923104,0.161745287 4.46164386,0.177181747 L4.4776848,0.202293627 L4.47807331,0.202349908 C4.55273875,0.213166552 4.6044984,0.282463469 4.5936818,0.357128896 C4.59080155,0.377010467 4.58359269,0.395885204 4.57270379,0.412481788 L4.55369143,0.435509128 C4.56650725,0.510004631 4.51650602,0.580784443 4.44201049,0.593600256 C4.41238028,0.59869768 4.38189603,0.593896869 4.35526666,0.579939416 L4.35470347,0.579644236 L4.35414034,0.579939416 C4.28718951,0.615030889 4.20446788,0.589203779 4.16937639,0.522252945 C4.16007144,0.504500049 4.15483607,0.48503385 4.15389005,0.465249613 L4.15571557,0.435509128 C4.10161069,0.382929751 4.10037405,0.29644509 4.15295343,0.24234024 C4.17395432,0.220730051 4.20151133,0.206670219 4.23133369,0.202349908 L4.2317222,0.202293627 C4.26534492,0.134372922 4.3476622,0.106568945 4.4155829,0.140191703 Z" id="path-10"></path>
                            </g>
                        </g>
                    </g>
                    <g id="编组-2" transform="translate(6.552853, 6.427805) rotate(-3.000000) translate(-6.552853, -6.427805) translate(4.052853, 3.927805)" fill="url(#linearGradient-7)" fill-rule="nonzero" stroke="url(#linearGradient-8)" stroke-width="0.5">
                        <path d="M0.105078531,4.16526434 C0.671087632,2.28874688 1.03535759,1.234725 1.19788841,1.0031987 C1.44168465,0.655909264 1.69206689,0.222449498 2.64701542,0.126738849 C3.60196395,0.0310281987 4.61516007,0.474556554 4.73718966,1.37484877 C4.85921925,2.27514099 4.10171677,3.11754826 3.3105882,3.43243501 C2.51945963,3.74732175 1.93175688,3.55901593 1.79343535,3.10266895 C1.70122101,2.79843763 1.99019141,2.5190388 2.66034658,2.26447246 L3.70078488,1.80919994 C3.49969842,1.66349087 3.30500579,1.52370574 3.11670699,1.38984456 C2.92840818,1.25598338 2.68733939,1.08565145 2.39350059,0.87884877 L2.34857025,1.02007275 L1.4636669,4.07551667 C1.35638695,4.51802255 1.08562248,4.73927549 0.651373488,4.73927549 C0.217124496,4.73927549 0.0350261771,4.54793844 0.105078531,4.16526434 Z" id="路径-11"></path>
                    </g>
                </g>
            </g>
        </g>
    </g>
</svg>