<?xml version="1.0" encoding="UTF-8"?>
<svg width="40px" height="40px" viewBox="0 0 40 40" version="1.1" xmlns="http://www.w3.org/2000/svg" xmlns:xlink="http://www.w3.org/1999/xlink">
    <title>编组 9</title>
    <g id="页面-1" stroke="none" stroke-width="1" fill="none" fill-rule="evenodd">
        <g id="撩吧备份-9" transform="translate(-210.000000, -592.000000)">
            <g id="编组-9" transform="translate(210.000000, 592.000000)">
                <circle id="椭圆形备份-4" fill="#D8D8D8" cx="20" cy="20" r="20"></circle>
                <g id="视频" transform="translate(8.000000, 8.000000)" fill="#000000" fill-rule="nonzero">
                    <rect id="矩形" opacity="0" x="0" y="0" width="24" height="24"></rect>
                    <path d="M18.6,22.8 L5.4,22.8 C2.7492,22.8 0.6,20.6508 0.6,18 L0.6,6 C0.6,3.3492 2.7492,1.2 5.4,1.2 L18.6,1.2 C21.2508,1.2 23.4,3.3492 23.4,6 L23.4,18 C23.4,20.6508 21.2508,22.8 18.6,22.8 Z M22.2,6.72 C22.2,4.3344 20.2656,2.4 17.88,2.4 L6.12,2.4 C3.7344,2.4 1.8,4.3344 1.8,6.72 L1.8,17.28 C1.8,19.6656 3.7344,21.6 6.12,21.6 L17.88,21.6 C20.2656,21.6 22.2,19.6656 22.2,17.28 L22.2,6.72 Z M9,7.224 L16.2,12 L9,16.776 L9,7.224 Z" id="形状"></path>
                </g>
            </g>
        </g>
    </g>
</svg>