<?xml version="1.0" encoding="UTF-8"?>
<svg width="22px" height="12px" viewBox="0 0 22 12" version="1.1" xmlns="http://www.w3.org/2000/svg" xmlns:xlink="http://www.w3.org/1999/xlink">
    <title>编组 4</title>
    <defs>
        <linearGradient x1="99.4302996%" y1="64.7099729%" x2="1.37002276%" y2="35.1239669%" id="linearGradient-1">
            <stop stop-color="#F548FF" offset="0%"></stop>
            <stop stop-color="#F203FF" offset="0%"></stop>
            <stop stop-color="#FF7CAF" offset="33.050153%"></stop>
            <stop stop-color="#FF31A4" offset="63.4026655%"></stop>
            <stop stop-color="#FF93DB" offset="100%"></stop>
        </linearGradient>
    </defs>
    <g id="页面-1" stroke="none" stroke-width="1" fill="none" fill-rule="evenodd">
        <g id="撩吧备份-7" transform="translate(-261.000000, -316.000000)">
            <g id="编组-4" transform="translate(261.000000, 316.000000)">
                <rect id="矩形备份" fill="url(#linearGradient-1)" x="0" y="0" width="22" height="12" rx="6"></rect>
                <path d="M6.73025712,7.29007337 L5.51496328,3.00001577 L4,3.00001577 L5.8246281,9 L7.35411846,9 L9.18919192,3.00001577 L7.99613865,3.00001577 L6.73025712,7.29007337 Z M10.1923806,9 L11.6120661,9 L11.6120661,3 L10.1923806,3 L10.1923806,9 Z M17.6662948,3.77355177 C17.4437282,3.48356255 17.1907897,3.28219517 16.9074311,3.16927609 C16.6240886,3.05656212 16.2155142,3 15.681483,3 L13.287213,3 L13.287213,8.99998423 L14.7334458,8.99998423 L14.7334458,6.77132715 L15.7348026,6.77132715 C16.1681084,6.77132715 16.4861777,6.74504195 16.6894284,6.69225065 C16.8926951,6.63945936 17.1025505,6.53255148 17.3191873,6.37151121 C17.5358402,6.21025007 17.7034963,5.98908201 17.8221396,5.70777039 C17.9407989,5.42645875 18,5.13779484 18,4.84177864 C18,4.41970076 17.8888453,4.06377764 17.6662948,3.77355177 Z M16.3534573,5.43960135 C16.2109986,5.6008625 15.9632668,5.6812643 15.6102617,5.6812643 L14.684674,5.6812643 L14.684674,4.09006284 L15.605714,4.09006284 C15.9292149,4.09006284 16.1701331,4.16200793 16.3289509,4.30544058 C16.4877525,4.44909411 16.5671373,4.64243077 16.5671373,4.88565568 C16.5671373,5.09391781 16.495916,5.27834022 16.3534573,5.43960135 Z" id="形状" fill="#FFFFFF" fill-rule="nonzero"></path>
            </g>
        </g>
    </g>
</svg>