<?xml version="1.0" encoding="UTF-8"?>
<svg width="16px" height="15px" viewBox="0 0 16 15" version="1.1" xmlns="http://www.w3.org/2000/svg" xmlns:xlink="http://www.w3.org/1999/xlink">
    <title>形状结合</title>
    <g id="页面-1" stroke="none" stroke-width="1" fill="none" fill-rule="evenodd">
        <g id="编组-10" transform="translate(-176.000000, -697.000000)" fill="#FFFFFF">
            <path d="M184,694.5 C184.685595,694.5 185.241379,695.055784 185.241379,695.741379 L185.241,703.258 L192.758621,703.258621 C193.444216,703.258621 194,703.814405 194,704.5 C194,705.185595 193.444216,705.741379 192.758621,705.741379 L185.241,705.741 L185.241379,713.258621 C185.241379,713.944216 184.685595,714.5 184,714.5 C183.314405,714.5 182.758621,713.944216 182.758621,713.258621 L182.758,705.741 L175.241379,705.741379 C174.555784,705.741379 174,705.185595 174,704.5 C174,703.814405 174.555784,703.258621 175.241379,703.258621 L182.758,703.258 L182.758621,695.741379 C182.758621,695.055784 183.314405,694.5 184,694.5 Z" id="形状结合" transform="translate(184.000000, 704.500000) rotate(-315.000000) translate(-184.000000, -704.500000) "></path>
        </g>
    </g>
</svg>