<?xml version="1.0" encoding="UTF-8"?>
<svg width="10px" height="12px" viewBox="0 0 10 12" version="1.1" xmlns="http://www.w3.org/2000/svg" xmlns:xlink="http://www.w3.org/1999/xlink">
    <!-- Generator: Sketch 59.1 (86144) - https://sketch.com -->
    <title>share-2</title>
    <desc>Created with Sketch.</desc>
    <defs>
        <path d="M7.97453361,0.129898332 C9.06482035,0.129898332 9.94867239,1.01375037 9.94867239,2.10403711 C9.94867239,3.19432386 9.06482035,4.0781759 7.97453361,4.0781759 C7.42595549,4.0781759 6.92963843,3.8544197 6.57187026,3.49319515 L3.95243145,5.02210148 C4.0005263,5.19274171 4.02625605,5.37275609 4.02625605,5.55877998 C4.02625605,5.74444475 4.00062554,5.9241232 3.95270974,6.09447012 L6.57379164,7.62242755 C6.93141433,7.26234042 7.42693685,7.03938407 7.97453361,7.03938407 C9.06482035,7.03938407 9.94867239,7.92323611 9.94867239,9.01352285 C9.94867239,10.1038096 9.06482035,10.9876616 7.97453361,10.9876616 C6.88424687,10.9876616 6.00039483,10.1038096 6.00039483,9.01352285 C6.00039483,8.82650286 6.02640086,8.64555691 6.07499394,8.47410398 L3.45484781,6.94787016 C3.09707459,7.30913455 2.60072973,7.53291876 2.05211726,7.53291876 C0.961830521,7.53291876 0.0779784819,6.64906673 0.0779784819,5.55877998 C0.0779784819,4.46849324 0.961830521,3.5846412 2.05211726,3.5846412 C2.60069538,3.5846412 3.09701244,3.80839739 3.45478061,4.16962195 L6.07421942,2.64071562 C6.02612458,2.47007539 6.00039483,2.290061 6.00039483,2.10403711 C6.00039483,1.01375037 6.88424687,0.129898332 7.97453361,0.129898332 Z" id="path-1"></path>
    </defs>
    <g id="1.1.0版本" stroke="none" stroke-width="1" fill="none" fill-rule="evenodd">
        <g id="播放界面（加载中）" transform="translate(-301.000000, -353.000000)">
            <g id="编组-11" transform="translate(293.000000, 349.000000)">
                <g id="图标/分享" transform="translate(3.000000, 0.000000)">
                    <g id="编组">
                        <g id="share-2" transform="translate(5.000000, 4.600000)">
                            <mask id="mask-2" fill="white">
                                <use xlink:href="#path-1"></use>
                            </mask>
                            <use id="Combined-Shape" fill="#F21313" fill-rule="nonzero" xlink:href="#path-1"></use>
                        </g>
                    </g>
                </g>
            </g>
        </g>
    </g>
</svg>