<?xml version="1.0" encoding="UTF-8"?>
<svg width="40px" height="40px" viewBox="0 0 40 40" version="1.1" xmlns="http://www.w3.org/2000/svg" xmlns:xlink="http://www.w3.org/1999/xlink">
    <title>编组 8</title>
    <g id="页面-1" stroke="none" stroke-width="1" fill="none" fill-rule="evenodd">
        <g id="撩吧备份-9" transform="translate(-110.000000, -592.000000)">
            <g id="编组-8" transform="translate(110.000000, 592.000000)">
                <circle id="椭圆形" fill="#D8D8D8" cx="20" cy="20" r="20"></circle>
                <g id="图片" transform="translate(8.000000, 8.000000)" fill="#000000" fill-rule="nonzero">
                    <rect id="矩形" opacity="0" x="0" y="0" width="24" height="24"></rect>
                    <path d="M4.4953125,6.75 C4.4953125,7.99264069 5.50267181,9 6.7453125,9 C7.98795319,9 8.9953125,7.99264069 8.9953125,6.75 C8.9953125,5.50735931 7.98795319,4.5 6.7453125,4.5 C5.50267181,4.5 4.4953125,5.50735931 4.4953125,6.75 Z" id="路径"></path>
                    <path d="M22.4320313,3.79453125 C22.4203125,3.74765625 22.4085938,3.6984375 22.3945313,3.6515625 C22.3804688,3.6046875 22.3664063,3.5578125 22.35,3.51328125 C22.3429688,3.48984375 22.3335938,3.46640625 22.3265625,3.4453125 C22.3007813,3.37734375 22.275,3.309375 22.2445313,3.24375 C22.2046875,3.15703125 22.1601563,3.0703125 22.1132813,2.98828125 C22.0898438,2.94609375 22.0640625,2.90625 22.0382813,2.86640625 C22.0242188,2.8453125 22.0125,2.8265625 21.9984375,2.8078125 C21.9585938,2.74921875 21.9164063,2.690625 21.871875,2.634375 C21.8414063,2.596875 21.8109375,2.559375 21.7804688,2.52421875 C21.7171875,2.4515625 21.6515625,2.38359375 21.5835938,2.31796875 C21.0492188,1.809375 20.3296875,1.4953125 19.5375,1.4953125 L4.47421875,1.4953125 C3.83671875,1.4953125 3.24375,1.69921875 2.75859375,2.04609375 C2.73984375,2.06015625 2.72109375,2.07421875 2.7,2.08828125 C2.64375,2.13046875 2.5875,2.175 2.53359375,2.221875 C2.51484375,2.23828125 2.4984375,2.25234375 2.4796875,2.26875 C2.45390625,2.2921875 2.428125,2.31796875 2.40234375,2.34140625 L2.35078125,2.39296875 C2.2921875,2.4515625 2.2359375,2.51484375 2.184375,2.578125 C2.1703125,2.596875 2.15390625,2.615625 2.13984375,2.634375 C2.1046875,2.67890625 2.06953125,2.72578125 2.03671875,2.77265625 C1.81171875,3.09375 1.65,3.459375 1.56796875,3.85546875 C1.565625,3.86484375 1.56328125,3.87421875 1.56328125,3.88125 C1.55390625,3.93046875 1.54453125,3.9796875 1.5375,4.02890625 C1.5140625,4.18359375 1.5,4.340625 1.5,4.5 L1.5,19.5 C1.5,19.715625 1.5234375,19.9289062 1.56796875,20.1328125 C1.68515625,20.690625 1.95703125,21.1921875 2.34140625,21.5882812 L2.4046875,21.6515625 C2.446875,21.69375 2.49140625,21.7335937 2.5359375,21.7734375 C2.625,21.8507812 2.72109375,21.9234375 2.81953125,21.9914062 C2.83828125,22.0054687 2.859375,22.0171875 2.878125,22.03125 C2.91796875,22.0570313 2.96015625,22.0828125 3,22.10625 L3.06328125,22.1414063 C3.10546875,22.1648438 3.14765625,22.1859375 3.1921875,22.2070312 C3.3,22.2585938 3.4125,22.3054688 3.52734375,22.3453125 C3.57421875,22.3617188 3.61875,22.3757812 3.665625,22.3898437 C3.80625,22.4296875 3.9515625,22.4601562 4.1015625,22.4789062 C4.2328125,22.4976562 4.36640625,22.5070312 4.50234375,22.5070312 L19.5023438,22.5070312 C19.584375,22.5070312 19.66875,22.5023438 19.7484375,22.4976562 C19.93125,22.4859375 20.109375,22.4554688 20.2804688,22.4109375 C20.3507813,22.3921875 20.4210938,22.3710938 20.4914063,22.3476562 C20.60625,22.3078125 20.71875,22.2632812 20.8265625,22.209375 C20.86875,22.1882812 20.9132813,22.1671875 20.9554688,22.14375 L21.01875,22.1085937 C21.225,21.9890625 21.4171875,21.8460938 21.590625,21.6820313 C21.6046875,21.6703125 21.6164063,21.65625 21.628125,21.6445312 C21.6328125,21.6398437 21.6375,21.6375 21.6398438,21.6328125 C21.6914063,21.58125 21.7382813,21.5296875 21.7851563,21.4757812 C21.7875,21.4734375 21.7898438,21.46875 21.7945313,21.4664062 C21.8226563,21.4335938 21.8507813,21.4007813 21.8765625,21.3679687 C21.9070313,21.3304687 21.9351563,21.2929687 21.9632813,21.253125 C21.9726563,21.2390625 21.9820313,21.225 21.9914063,21.2132812 C21.9984375,21.2039062 22.0054688,21.1921875 22.0125,21.1828125 C22.0242188,21.1664062 22.0335938,21.1523438 22.0429688,21.1359375 C22.0523438,21.1195312 22.0617188,21.1054688 22.0710938,21.0890625 C22.0734375,21.084375 22.078125,21.0796875 22.0804688,21.075 L22.1296875,20.990625 C22.1484375,20.9554687 22.1671875,20.9226562 22.1859375,20.8875 C22.2164063,20.8289062 22.2445313,20.7679687 22.2703125,20.7070312 C22.2820313,20.6789062 22.29375,20.653125 22.303125,20.625 C22.3242188,20.5734375 22.3429688,20.5195312 22.3617188,20.465625 C22.3734375,20.428125 22.3875,20.3882812 22.396875,20.3484375 C22.4109375,20.3015625 22.4226563,20.2523437 22.434375,20.2054687 C22.4390625,20.184375 22.44375,20.1632812 22.4484375,20.1398437 C22.4578125,20.0953125 22.4671875,20.0507812 22.4742188,20.0039062 C22.4742188,19.9992187 22.4765625,19.9945312 22.4765625,19.9875 C22.48125,19.95 22.4882813,19.9148437 22.490625,19.8773437 C22.4953125,19.8398437 22.4976563,19.8023437 22.5023438,19.7648437 C22.5070313,19.6898437 22.5117188,19.6148437 22.5117188,19.5375 L22.5117188,4.4625 C22.509375,4.2328125 22.48125,4.01015625 22.4320313,3.79453125 L22.4320313,3.79453125 Z M2.25,4.5 C2.25,3.90234375 2.484375,3.3375 2.9109375,2.9109375 C3.3375,2.484375 3.90234375,2.25 4.5,2.25 L19.5,2.25 C20.0976562,2.25 20.6625,2.484375 21.0890625,2.9109375 C21.515625,3.3375 21.75,3.90234375 21.75,4.5 L21.75,15.0703125 L17.6296875,10.95 C17.0367188,10.3570313 16.06875,10.3570313 15.478125,10.95 L9.80625,16.621875 L7.12734375,13.9453125 C6.534375,13.3523438 5.56640625,13.3523438 4.97578125,13.9453125 L2.25,16.6710937 L2.25,4.5 Z" id="形状"></path>
                </g>
            </g>
        </g>
    </g>
</svg>