<?xml version="1.0" encoding="UTF-8"?>
<svg width="21px" height="21px" viewBox="0 0 21 21" version="1.1" xmlns="http://www.w3.org/2000/svg" xmlns:xlink="http://www.w3.org/1999/xlink">
    <!-- Generator: Sketch 60.1 (88133) - https://sketch.com -->
    <title>路径-19</title>
    <desc>Created with Sketch.</desc>
    <g id="APP" stroke="none" stroke-width="1" fill="none" fill-rule="evenodd">
        <g id="草榴-评论-copy-2" transform="translate(-326.000000, -444.000000)" fill="#FF2183">
            <g id="评论集合" transform="translate(0.000000, 200.763547)">
                <g id="分组-2" transform="translate(0.000000, 228.000000)">
                    <g id="分组-5">
                        <path d="M340.55518,35.8130596 L346.971497,16.017786 C347.074457,15.7001378 346.889697,15.3625024 346.558824,15.2636565 C346.416228,15.2210578 346.26248,15.2286837 346.125216,15.2851657 L326.380416,23.409853 C326.061916,23.540911 325.914387,23.8950299 326.050902,24.2007996 C326.098462,24.3073276 326.177025,24.3984201 326.277167,24.4631524 L330.365717,27.105994 C330.557511,27.2299702 330.804787,27.2426317 331.009228,27.1389439 L338.052591,23.5667431 C338.358986,23.4113479 338.738586,23.5238301 338.900451,23.8179784 C339.024773,24.0439016 338.987097,24.3205433 338.806452,24.5081867 L334.21721,29.2752439 C334.001622,29.4991854 333.994362,29.842473 334.200304,30.0746306 L339.478395,36.0246306 C339.703067,36.2779049 340.099068,36.3083701 340.362887,36.0926769 C340.453241,36.0188058 340.519918,35.9218483 340.55518,35.8130596 Z" id="路径-19"></path>
                    </g>
                </g>
            </g>
        </g>
    </g>
</svg>