<?xml version="1.0" encoding="UTF-8"?>
<svg width="38px" height="12px" viewBox="0 0 38 12" version="1.1" xmlns="http://www.w3.org/2000/svg" xmlns:xlink="http://www.w3.org/1999/xlink">
    <title>编组 5</title>
    <defs>
        <linearGradient x1="1.9789848%" y1="45.0138504%" x2="97.04812%" y2="54.8341461%" id="linearGradient-1">
            <stop stop-color="#D7980F" offset="0%"></stop>
            <stop stop-color="#FE9C2F" offset="34.4105114%"></stop>
            <stop stop-color="#FF9500" offset="69.8317308%"></stop>
            <stop stop-color="#FF5900" offset="100%"></stop>
        </linearGradient>
    </defs>
    <g id="页面-1" stroke="none" stroke-width="1" fill="none" fill-rule="evenodd">
        <g id="撩吧备份-7" transform="translate(-214.000000, -316.000000)">
            <g id="编组-5" transform="translate(214.000000, 316.000000)">
                <rect id="矩形" fill="url(#linearGradient-1)" x="0" y="0" width="38" height="12" rx="6"></rect>
                <g id="svip" transform="translate(1.000000, 1.000000)" fill="#FFFFFF" fill-rule="nonzero">
                    <path d="M26.6666811,2.00000003 L26.1428726,2.00000003 C25.8532065,2.00000003 25.6190642,2.22399662 25.6190642,2.50000003 L25.6190642,7.49991633 C25.6190642,7.77591213 25.8532065,7.99990872 26.1428726,7.99990872 L26.6666811,7.99990872 C26.9563472,7.99990872 27.1904896,7.77591213 27.1904896,7.49991633 L27.1904896,2.50000003 C27.1904896,2.22399662 26.9563472,2.00000003 26.6666811,2.00000003 Z M23.5238302,2.00000003 L22.4762132,2.00000003 C22.4762132,2.00000003 22.4762132,4.9059558 22.4762132,5.49994677 C22.4924512,6.29693465 21.4285962,6.49993156 21.4285962,6.49993156 C21.4285962,6.49993156 20.3809792,6.29693465 20.3809792,5.49994677 C20.3809792,4.81245723 20.3809792,2.00000003 20.3809792,2.00000003 L19.3333622,2.00000003 C19.0442199,2.00000003 18.8095537,2.22399662 18.8095537,2.50000003 L18.8095537,5.99993915 C18.8257918,6.05193835 20.6538834,8.01540848 20.9047877,7.99990872 L21.9524047,7.99990872 C22.2525469,7.99990872 24.0476386,5.98943931 24.0476386,5.99993915 L24.0476386,2.50000003 C24.0476386,2.22399662 23.8134963,2.00000003 23.5238302,2.00000003 Z M32.1666703,2.00000003 L30.5952448,2.00000003 C30.4134833,2.00000003 30.2416741,2.03299952 30.0766744,2.0799988 C29.9970555,2.03349952 29.9090557,2.00000003 29.8095321,2.00000003 L29.2857236,2.00000003 C28.9960575,2.00000003 28.7619151,2.22399662 28.7619151,2.50000003 L28.7619151,7.49991633 C28.7619151,7.77641213 28.9960575,7.99990872 29.2857236,7.99990872 L29.8095321,7.99990872 C30.0991982,7.99990872 30.3333406,7.77641213 30.3333406,7.49991633 L30.3333406,5.97443955 C30.419769,5.98693937 30.5056736,5.99993918 30.5952448,5.99993918 L32.1666703,5.99993918 C33.1791921,5.99993918 34,5.21645111 34,4.24996581 L34,3.74997343 C34,2.78348812 33.1791921,2.00000003 32.1666703,2.00000003 Z M32.4285745,4.499962 C32.4285745,4.77595779 32.1939083,4.99995439 31.904766,4.99995439 L30.3333406,4.99995439 L30.3333406,2.99998482 L31.904766,2.99998482 C32.1939083,2.99998482 32.4285745,3.22348141 32.4285745,3.49998482 L32.4285745,4.499962 Z M16.221416,3.99996959 L16.776653,3.99996959 C16.9694146,3.99996959 17.1386047,3.91147095 17.2381283,3.77747297 C17.2381283,3.4019787 17.1606046,3.15898237 17.0427477,2.9999848 L17.0547953,2.9999848 C16.7598911,2.41049377 16.1349876,2 15.4047986,2 C15.3147035,2 15.2293227,2.01699973 15.1428943,2.02999955 L15.1428943,2 L13.5714689,2 L13.5714689,2.02499965 C12.6841373,2.14749779 12.0000214,2.86898682 12.0000214,3.7499734 C12.0000214,4.69595899 12.7873276,5.46144736 13.7699923,5.49394685 C13.7689447,5.49594682 13.767897,5.4979468 13.7668494,5.49994677 L15.1428943,5.49994677 C15.4320366,5.49994677 15.6667028,5.72344336 15.6667028,5.99993915 L15.6667028,6.49993154 C15.6667028,6.77642733 15.4320366,6.99992392 15.1428943,6.99992392 L13.5714689,6.99992392 L13.5714689,6.49993154 C13.5714689,6.22343574 13.3231836,5.99993915 13.0167557,5.99993915 L12.4615187,5.99993915 C12.2692809,5.99993918 12.099567,6.08843782 12.0000214,6.22243577 C11.998472,6.60242999 12.0812337,6.84442632 12.2064239,6.99992395 L12.1833764,6.99992395 C12.4782805,7.58941497 13.1037079,7.99990874 13.8333731,7.99990874 C13.9234682,7.99990874 14.0088489,7.98290901 14.0952773,7.9699092 L14.0952773,7.99990874 L15.6667028,7.99990874 L15.6667028,7.97440914 C16.5540344,7.85241101 17.2381283,7.13042198 17.2381283,6.24993537 C17.2381283,5.3079497 16.456606,4.54546131 15.4797032,4.5069619 C15.4807508,4.50496192 15.4812746,4.50196198 15.4823222,4.499962 L14.0952773,4.499962 C13.8061351,4.499962 13.5714689,4.27596541 13.5714689,3.99996962 L13.5714689,3.49997723 C13.5714689,3.22398144 13.8061351,2.99998485 14.0952773,2.99998485 L15.6667028,2.99998485 L15.6667028,3.49997723 C15.6667028,3.775973 15.9149881,3.99996959 16.221416,3.99996959 Z" id="形状"></path>
                    <path d="M5,0 C2.23738872,0 0,2.23738872 0,5 C0,7.76261128 2.23738872,10 5,10 C7.76261128,10 10,7.76261128 10,5 C10,2.23738872 7.76261128,0 5,0 Z M6.88427299,3.43620178 L7.56676558,4.58160237 C7.56973294,4.59050445 7.57566766,4.59940652 7.57863501,4.6083086 L6.34124629,4.6083086 C6.3115727,4.6083086 6.29376854,4.58160237 6.30563798,4.55489614 L6.81602373,3.43916914 C6.83086053,3.41246291 6.86943619,3.40949555 6.88427299,3.43620178 L6.88427299,3.43620178 Z M5.25222552,3.18694362 L6.56973293,3.18694362 C6.61127596,3.18694362 6.6587537,3.20178042 6.70029673,3.22255193 L6.13946587,4.44807122 C6.12759644,4.47477745 6.09198813,4.47774481 6.07418397,4.45400594 L5.21958457,3.2462908 C5.20178042,3.22255192 5.22255193,3.18694362 5.25222552,3.18694362 L5.25222552,3.18694362 Z M5.00890207,3.29376854 L5.89910979,4.54896143 C5.91691394,4.5727003 5.89614242,4.6083086 5.86646884,4.6083086 L4.09198813,4.6083086 C4.05934718,4.6083086 4.04154302,4.57270029 4.05934718,4.54896143 L4.94658753,3.29376854 C4.96142433,3.27299703 4.99406527,3.27299703 5.00890207,3.29376854 L5.00890207,3.29376854 Z M3.2967359,3.22255193 C3.33827893,3.20178042 3.38278932,3.18991098 3.42433234,3.18991098 L4.70623145,3.18991098 C4.73887239,3.18991098 4.75667655,3.22255192 4.7388724,3.24925816 L3.88427299,4.45994065 C3.86943619,4.48367953 3.83086053,4.48071217 3.81899109,4.45400594 L3.27893175,3.27299703 C3.27002967,3.25519288 3.27893175,3.231454 3.2967359,3.22255193 L3.2967359,3.22255193 Z M2.4272997,4.58160237 L3.08902077,3.46884273 C3.10682492,3.4421365 3.1454006,3.44510386 3.15727003,3.47181009 L3.65281898,4.55489614 C3.66468842,4.57863502 3.6439169,4.6083086 3.61721067,4.6083086 L2.4124629,4.6083086 C2.41543026,4.59940652 2.42136498,4.59050445 2.4272997,4.58160237 L2.4272997,4.58160237 Z M4.59643917,7.54599406 L2.45103857,4.87240356 C2.43026706,4.84866469 2.41543026,4.82789317 2.40356083,4.81305638 L2.39465875,4.81305638 L2.38872403,4.80415431 L3.72997032,4.80415431 C3.74480712,4.80415431 3.75964392,4.81602374 3.76557863,4.83086054 L4.63501483,7.52522255 C4.64391691,7.54896143 4.61127596,7.56676558 4.59643917,7.54599406 L4.59643917,7.54599406 Z M4.95252226,7.75074184 L3.97922849,4.8545994 C3.97032641,4.83086053 3.98813057,4.80415431 4.01780415,4.80415431 L5.94362018,4.80415431 C5.96735905,4.80415431 5.98813057,4.83086054 5.97922849,4.8545994 L5.00593472,7.75074184 C4.99703264,7.77744807 4.96142433,7.77744807 4.95252226,7.75074184 L4.95252226,7.75074184 Z M7.54599406,4.87240356 L5.3620178,7.59347181 C5.34124629,7.62017804 5.30267062,7.59940652 5.3115727,7.56676558 L6.19287833,4.83086054 C6.19584569,4.81602374 6.21068248,4.80415431 6.22848664,4.80415431 L7.58160237,4.80415431 C7.57270029,4.82789318 7.56083086,4.85163205 7.54599406,4.87240356 Z" id="形状"></path>
                </g>
            </g>
        </g>
    </g>
</svg>