<?xml version="1.0" encoding="UTF-8"?>
<svg width="12px" height="12px" viewBox="0 0 12 12" version="1.1" xmlns="http://www.w3.org/2000/svg" xmlns:xlink="http://www.w3.org/1999/xlink">
    <!-- Generator: Sketch 59.1 (86144) - https://sketch.com -->
    <title>图标/打赏</title>
    <desc>Created with Sketch.</desc>
    <g id="精品-" stroke="none" stroke-width="1" fill="none" fill-rule="evenodd">
        <g id="精品" transform="translate(-19.000000, -1232.000000)">
            <g id="编组-16" transform="translate(0.000000, 929.000000)">
                <g id="编组-6" transform="translate(16.000000, 19.000000)">
                    <g id="编组-8" transform="translate(0.000000, 281.000000)">
                        <g id="图标/打赏">
                            <g id="编组-2">
                                <rect id="矩形" x="0" y="0" width="18" height="18"></rect>
                                <g id="礼物" transform="translate(2.780000, 3.600000)" fill="#F21313" fill-rule="nonzero">
                                    <path d="M5.23529412,0.132351315 C5.65247059,0.132351315 6.02888235,0.307852941 6.29411765,0.58923529 C6.56873888,0.297139582 6.95202177,0.131753014 7.35294117,0.132351315 L7.41779412,0.132351315 C7.89442534,0.132351315 8.33790265,0.37626692 8.59300181,0.778885538 C8.84810096,1.18150416 8.87929914,1.68670026 8.67567647,2.11764706 L10.1323529,2.11764706 C10.8055349,2.11740206 11.3911002,2.57871455 11.5484406,3.23325097 C11.7057811,3.8877874 11.3938616,4.56484142 10.7941177,4.87058824 L10.7941177,10.0588235 C10.7941177,10.3512096 10.5570919,10.5882353 10.2647059,10.5882353 L2.32352941,10.5882353 C2.03114337,10.5882353 1.79411764,10.3512096 1.79411764,10.0588235 L1.79411764,4.87058824 C1.19437366,4.56484142 0.882454157,3.8877874 1.03979465,3.23325097 C1.19713514,2.57871455 1.78270043,2.11740206 2.45588236,2.11764706 L3.91255882,2.11764706 C3.71323805,1.69590714 3.73857527,1.20233691 3.98003418,0.80322423 C4.22149309,0.404111555 4.6469256,0.1525947 5.113,0.133411761 L5.17044118,0.132351315 L5.23529412,0.132351315 Z M4.97058823,5.02941177 L2.58823529,5.02941177 L2.58823529,9.79411765 L4.97058823,9.79411765 L4.97058823,5.02941177 Z M6.82352942,9.79411765 L6.82352942,2.91414706 L5.76470588,2.91414706 L5.76470588,9.79411765 L6.82352942,9.79411765 Z M10,5.02941177 L7.61764706,5.02941177 L7.61764706,9.79411765 L10,9.79411765 L10,5.02941177 Z M2.45588236,2.91176271 C2.09822971,2.91089452 1.80460043,3.19435045 1.79286397,3.55181154 C1.7811275,3.90927263 2.05553113,4.21137868 2.41247059,4.23397059 L2.45588236,4.23529412 L4.97058823,4.23529412 L4.97058823,2.91202941 L2.45588236,2.91176271 Z M10.1323529,2.91176471 L7.61764706,2.91202941 L7.61764706,4.23529412 L10.1323529,4.23529412 C10.4978355,4.23529412 10.7941176,3.93901197 10.7941176,3.57352941 C10.7941176,3.20804686 10.4978355,2.91176471 10.1323529,2.91176471 Z M5.23529412,0.926470588 L5.17044118,0.926470588 C4.85155404,0.927616943 4.58988442,1.17921036 4.5762232,1.49780681 C4.56256199,1.81640325 4.80173442,2.08947245 5.11935295,2.11791176 L5.89705882,2.11764706 L5.89705882,1.58823529 L5.89573529,1.54482353 C5.87286259,1.19690522 5.58396347,0.926416896 5.23529412,0.926470588 Z M7.41779412,0.926470588 L7.35294117,0.926470588 C6.98745862,0.926470588 6.69117647,1.22275274 6.69117647,1.58823529 L6.69117647,2.11764706 L7.46888235,2.11791176 C7.78650087,2.08947245 8.0256733,1.81640325 8.01201209,1.49780681 C7.99835088,1.17921036 7.73668126,0.927616943 7.41779412,0.926470588 L7.41779412,0.926470588 Z" id="形状"></path>
                                </g>
                            </g>
                        </g>
                    </g>
                </g>
            </g>
        </g>
    </g>
</svg>