<?xml version="1.0" encoding="UTF-8"?>
<svg width="32px" height="32px" viewBox="0 0 32 32" version="1.1" xmlns="http://www.w3.org/2000/svg" xmlns:xlink="http://www.w3.org/1999/xlink">
    <title>发布</title>
    <defs>
        <linearGradient x1="100%" y1="50%" x2="0%" y2="50%" id="linearGradient-1">
            <stop stop-color="#FF00A9" offset="0%"></stop>
            <stop stop-color="#F203FF" offset="100%"></stop>
        </linearGradient>
        <path d="M16,8 C16.6033235,8 17.0924138,8.48909031 17.0924138,9.09241379 L17.092,14.907 L22.9075862,14.9075862 C23.5109097,14.9075862 24,15.3966765 24,16 C24,16.6033235 23.5109097,17.0924138 22.9075862,17.0924138 L17.092,17.092 L17.0924138,22.9075862 C17.0924138,23.5109097 16.6033235,24 16,24 C15.3966765,24 14.9075862,23.5109097 14.9075862,22.9075862 L14.907,17.092 L9.09241379,17.0924138 C8.48909031,17.0924138 8,16.6033235 8,16 C8,15.3966765 8.48909031,14.9075862 9.09241379,14.9075862 L14.907,14.907 L14.9075862,9.09241379 C14.9075862,8.48909031 15.3966765,8 16,8 Z" id="path-2"></path>
        <filter x="-43.7%" y="-31.2%" width="187.5%" height="187.5%" filterUnits="objectBoundingBox" id="filter-3">
            <feOffset dx="0" dy="2" in="SourceAlpha" result="shadowOffsetOuter1"></feOffset>
            <feGaussianBlur stdDeviation="2" in="shadowOffsetOuter1" result="shadowBlurOuter1"></feGaussianBlur>
            <feColorMatrix values="0 0 0 0 0.976470588   0 0 0 0 0.00784313725   0 0 0 0 0.82745098  0 0 0 0.319055944 0" type="matrix" in="shadowBlurOuter1"></feColorMatrix>
        </filter>
    </defs>
    <g id="页面-1" stroke="none" stroke-width="1" fill="none" fill-rule="evenodd">
        <g id="撩吧备份-7" transform="translate(-302.000000, -659.000000)">
            <g id="发布" transform="translate(302.000000, 659.000000)">
                <circle id="椭圆形" fill="#FFFFFF" cx="16" cy="16" r="16"></circle>
                <g id="形状结合">
                    <use fill="black" fill-opacity="1" filter="url(#filter-3)" xlink:href="#path-2"></use>
                    <use fill="url(#linearGradient-1)" fill-rule="evenodd" xlink:href="#path-2"></use>
                </g>
            </g>
        </g>
    </g>
</svg>