<?xml version="1.0" encoding="UTF-8"?>
<svg width="11px" height="11px" viewBox="0 0 11 11" version="1.1" xmlns="http://www.w3.org/2000/svg" xmlns:xlink="http://www.w3.org/1999/xlink">
    <!-- Generator: Sketch 59.1 (86144) - https://sketch.com -->
    <title>历史访问@1x</title>
    <desc>Created with Sketch.</desc>
    <g id="APP" stroke="none" stroke-width="1" fill="none" fill-rule="evenodd">
        <g id="切换城市" transform="translate(-18.000000, -150.000000)" fill="#48E5FF" fill-rule="nonzero">
            <path d="M23.5,150 C20.4624356,150 18,152.462439 18,155.5 C18,158.537546 20.4624502,161 23.5,161 C26.5375644,161 29,158.537546 29,155.5 C29,152.462439 26.5375644,150 23.5,150 Z M22.7269439,156.567809 C22.4401756,156.567809 22.2068696,156.334517 22.2068696,156.047792 L22.2068696,152.389797 C22.2068696,152.103029 22.4401756,151.869722 22.7269439,151.869722 C23.0136537,151.869722 23.2469159,152.103029 23.2469159,152.389797 L23.2469159,155.527746 L25.470378,155.527746 C25.7571462,155.527746 25.9904376,155.761038 25.9904376,156.047807 C25.9904376,156.334532 25.7571462,156.567809 25.470378,156.567809 L22.7269439,156.567809 L22.7269439,156.567809 Z" id="历史访问"></path>
        </g>
    </g>
</svg>