<?xml version="1.0" encoding="UTF-8"?>
<svg width="11px" height="13px" viewBox="0 0 11 13" version="1.1" xmlns="http://www.w3.org/2000/svg" xmlns:xlink="http://www.w3.org/1999/xlink">
    <!-- Generator: Sketch 59.1 (86144) - https://sketch.com -->
    <title>1_3_huo</title>
    <desc>Created with Sketch.</desc>
    <g id="APP" stroke="none" stroke-width="1" fill="none" fill-rule="evenodd">
        <g id="切换城市" transform="translate(-16.000000, -245.000000)" fill="#F81B68" fill-rule="nonzero">
            <g id="分组-2" transform="translate(0.000000, 232.000000)">
                <path d="M26.5328125,18.8831916 C26.228125,18.2467764 25.7921875,17.6830112 25.2375,17.2093323 L24.7828125,16.8213805 C24.715625,16.7661664 24.609375,16.7908674 24.5796875,16.8693296 L24.3765625,17.4112997 C24.25,17.7513024 24.0171875,18.0985701 23.6875,18.4400257 C23.665625,18.4618208 23.640625,18.4676328 23.6234375,18.4690858 C23.60625,18.4705388 23.5796875,18.4676328 23.55625,18.4472908 C23.534375,18.4298547 23.5234375,18.4037007 23.525,18.3775466 C23.5828125,17.5028389 23.3015625,16.5162499 22.6859375,15.4424807 C22.1765625,14.5503369 21.46875,13.8543485 20.584375,13.3690455 L19.9390625,13.0159658 C19.8546875,12.9694697 19.746875,13.0304958 19.7515625,13.122035 L19.7859375,13.8194764 C19.809375,14.2960614 19.75,14.7174322 19.609375,15.0676059 C19.4375,15.4962418 19.190625,15.8943646 18.875,16.2518033 C18.653125,16.5017198 18.4046875,16.7269353 18.1328125,16.9216377 C17.475,17.3909576 16.9328125,18.0026719 16.565625,18.6870362 C16.1953125,19.3786656 16,20.1531162 16,20.9290198 C16,21.6148372 16.1453125,22.2788595 16.4328125,22.9051038 C16.7109375,23.5081 17.1078125,24.0515231 17.6125,24.516484 C18.11875,24.9814449 18.70625,25.3476017 19.3609375,25.6018772 C20.0390625,25.8663237 20.7578125,26 21.5,26 C22.2421875,26 22.9609375,25.8663237 23.6390625,25.6033302 C24.29375,25.3490547 24.8828125,24.984351 25.3875,24.517937 C25.89375,24.0529761 26.290625,23.509553 26.5671875,22.9065568 C26.8546875,22.2803125 27,21.6162902 27,20.9304728 C27,20.2214073 26.84375,19.532684 26.5328125,18.8831916 Z" id="1_3_huo"></path>
            </g>
        </g>
    </g>
</svg>