<svg width="27" height="26" viewBox="0 0 27 26" fill="none" xmlns="http://www.w3.org/2000/svg">
    <path d="M24.478 19.233v-.001a.807.807 0 0 0 0-1.26L19.3 13.797a.832.832 0 0 0-.528-.19c-.417 0-.837.32-.837.818v3.368h-5.47a.808.808 0 0 0 0 1.616h5.47v3.368c0 .498.42.817.837.817.183 0 .37-.06.527-.188h.001l5.178-4.173zm-1.794-.632-3.132 2.527v-5.052l3.132 2.525z" fill="#666" stroke="#666" stroke-width=".571"/>
    <path d="M23.45 3.147H3.574c-.737 0-1.333.596-1.333 1.332v17.785c0 .736.596 1.333 1.333 1.333h7.846a.808.808 0 0 0 0-1.616H4.096a.237.237 0 0 1-.237-.237V5.002c0-.131.107-.237.237-.237h18.832c.13 0 .237.106.237.237v6.277a.808.808 0 0 0 1.615 0V4.478l-.285-.001h.285a1.328 1.328 0 0 0-1.33-1.33z" fill="#666" stroke="#666" stroke-width=".571"/>
    <path d="M7.757 9.47h11.508a.808.808 0 0 0 0-1.615H7.757a.808.808 0 0 0 0 1.615zm0 3.664h4.186a.808.808 0 0 0 0-1.616H7.757a.808.808 0 0 0 0 1.616z" fill="#666" stroke="#666" stroke-width=".571"/>
</svg>
