<?xml version="1.0" encoding="UTF-8"?>
<svg width="24px" height="21px" viewBox="0 0 24 21" version="1.1" xmlns="http://www.w3.org/2000/svg" xmlns:xlink="http://www.w3.org/1999/xlink">
    <!-- Generator: Sketch 59.1 (86144) - https://sketch.com -->
    <title>图片</title>
    <desc>Created with Sketch.</desc>
    <defs>
        <filter x="-50.0%" y="-50.0%" width="200.0%" height="200.0%" filterUnits="objectBoundingBox" id="filter-1">
            <feOffset dx="0" dy="0" in="SourceAlpha" result="shadowOffsetOuter1"></feOffset>
            <feGaussianBlur stdDeviation="2" in="shadowOffsetOuter1" result="shadowBlurOuter1"></feGaussianBlur>
            <feColorMatrix values="0 0 0 0 0   0 0 0 0 0   0 0 0 0 0  0 0 0 0.5 0" type="matrix" in="shadowBlurOuter1" result="shadowMatrixOuter1"></feColorMatrix>
            <feMerge>
                <feMergeNode in="shadowMatrixOuter1"></feMergeNode>
                <feMergeNode in="SourceGraphic"></feMergeNode>
            </feMerge>
        </filter>
    </defs>
    <g id="影院和社区" stroke="none" stroke-width="1" fill="none" fill-rule="evenodd">
        <g id="标签-已加载-已收藏" transform="translate(-213.000000, -533.000000)" fill-rule="nonzero">
            <g id="图片" filter="url(#filter-1)" transform="translate(217.000000, 535.500000)">
                <rect id="矩形" fill="#000000" opacity="0" x="0" y="0" width="16" height="16"></rect>
                <rect id="矩形" fill="#000000" opacity="0" x="0" y="0" width="16" height="16"></rect>
                <path d="M14.221875,1.778125 L1.778125,1.778125 C0.8,1.778125 0,2.578125 0,3.55625 L0,12.4453125 C0,13.421875 0.8,14.221875 1.778125,14.221875 L14.221875,14.221875 C15.2,14.221875 16,13.421875 16,12.44375 L16,3.55625 C16,2.578125 15.2,1.778125 14.221875,1.778125 Z M1.778125,2.6671875 L14.221875,2.6671875 C14.7125,2.6671875 15.1109375,3.065625 15.1109375,3.55625 L15.1109375,10.928125 L12,7.815625 L9.1109375,10.7046875 L4.015625,5.609375 L0.8890625,8.7375 L0.8890625,3.55625 C0.8890625,3.065625 1.2875,2.6671875 1.778125,2.6671875 Z M0.8890625,12.44375 L0.8890625,9.99375 L4.015625,6.865625 L10.4828125,13.3328125 L1.778125,13.3328125 C1.2875,13.3328125 0.8890625,12.934375 0.8890625,12.44375 Z M14.221875,13.3328125 L11.7390625,13.3328125 L9.7390625,11.3328125 L12,9.0734375 L15.1109375,12.184375 L15.1109375,12.4453125 C15.1109375,12.934375 14.7125,13.3328125 14.221875,13.3328125 L14.221875,13.3328125 Z M10.6671875,7.1109375 C11.6484375,7.1109375 12.4453125,6.315625 12.4453125,5.3328125 C12.4453125,4.35 11.65,3.5546875 10.6671875,3.5546875 C9.684375,3.5546875 8.8890625,4.35 8.8890625,5.3328125 C8.8890625,6.315625 9.684375,7.1109375 10.6671875,7.1109375 Z M10.6671875,4.44375 C11.1578125,4.44375 11.55625,4.8421875 11.55625,5.3328125 C11.55625,5.8234375 11.1578125,6.221875 10.6671875,6.221875 C10.1765625,6.221875 9.778125,5.8234375 9.778125,5.3328125 C9.778125,4.8421875 10.1765625,4.44375 10.6671875,4.44375 Z" id="形状" fill="#FFFFFF"></path>
            </g>
        </g>
    </g>
</svg>