<svg viewBox="0 0 114.01 114.67" xmlns="http://www.w3.org/2000/svg" xmlns:xlink="http://www.w3.org/1999/xlink"><linearGradient id="a" gradientUnits="userSpaceOnUse" x1="27.34" x2="111.56" y1="96.47" y2="12.24"><stop offset="0" stop-color="#fff"/><stop offset=".03" stop-color="#e6d4a2"/><stop offset="1" stop-color="#e7e8bf"/></linearGradient><path d="m120.29 46.64c-2.94-44.84-19.54-39.44-19.54-39.44s-22.31 27.63-74.27 30.05v38.75s22.08 1.13 36.44 5.19 24 6.34 37.11 17.57c0 0 23.55-1.91 20.26-52.12zm-113.7-8.73h14.2v37.81h-14.2zm49.83 62.47a38.9 38.9 0 0 1 -7.26-15.38h-13.32c0 13.74 12.41 31.09 15 34.58s5.91 1.92 13.47 0 1.41-9.6 1.41-9.6a66.33 66.33 0 0 1 -9.34-9.62zm0 0" fill="url(#a)" transform="translate(-6.59 -7)"/></svg>