<svg viewBox="0 0 101.22 119.46" xmlns="http://www.w3.org/2000/svg" xmlns:xlink="http://www.w3.org/1999/xlink"><linearGradient id="a" gradientUnits="userSpaceOnUse" x1="17.48" x2="109.53" y1="116.1" y2="24.05"><stop offset="0" stop-color="#ebd8a4"/><stop offset="1" stop-color="#ebecc2"/></linearGradient><path d="m65.7 80.45h11.2a3.73 3.73 0 0 0 0-7.46h-10.2l8.47-8.47a3.73 3.73 0 1 0 -5.28-5.28l-7.89 7.91-7.92-7.91a3.74 3.74 0 1 0 -5.28 5.28l8.43 8.48h-10.23a3.74 3.74 0 0 0 0 7.47h11.2v7.47h-11.2a3.73 3.73 0 1 0 0 7.46h11.2v7.47a3.74 3.74 0 0 0 7.47 0v-7.49h11.23a3.73 3.73 0 0 0 0-7.46h-11.2zm-20.35-38.79h33.45a22.4 22.4 0 0 1 21.43 15.9l13.1 43.12a14.94 14.94 0 0 1 -11.41 19 206.89 206.89 0 0 1 -39.92 4.12 178.09 178.09 0 0 1 -37.41-4 14.94 14.94 0 0 1 -11.39-18.12l10.39-42.9a22.42 22.42 0 0 1 21.76-17.12zm-10.54-10.66q-14.63-12-8.23-15.27c7.26-3.73 8.94 1.8 18-3.8s13.1-8.39 21.75-7.4 2.57 13.26 10.89 14.93 8.59-15 21.22-6.41q5.07 3.47-7.5 16.69a15 15 0 0 1 -10.83 4.66h-35.83a14.92 14.92 0 0 1 -9.47-3.4zm0 0" fill="url(#a)" transform="translate(-12.75 -4.33)"/></svg>