<?xml version="1.0" encoding="UTF-8"?>
<svg width="328px" height="130px" viewBox="0 0 328 130" version="1.1" xmlns="http://www.w3.org/2000/svg" xmlns:xlink="http://www.w3.org/1999/xlink">
    <!-- Generator: Sketch 59.1 (86144) - https://sketch.com -->
    <title>路径 35</title>
    <desc>Created with Sketch.</desc>
    <defs>
        <linearGradient x1="0%" y1="42.1456722%" x2="100%" y2="57.8543278%" id="linearGradient-1">
            <stop stop-color="#C85A49" offset="0%"></stop>
            <stop stop-color="#9A1F1F" offset="100%"></stop>
        </linearGradient>
        <rect id="path-2" x="0" y="0" width="328" height="130" rx="3"></rect>
    </defs>
    <g id="页面-1" stroke="none" stroke-width="1" fill="none" fill-rule="evenodd">
        <g id="我的收益" transform="translate(-16.000000, -84.000000)">
            <g id="路径-35" transform="translate(16.000000, 84.000000)">
                <mask id="mask-3" fill="white">
                    <use xlink:href="#path-2"></use>
                </mask>
                <use id="蒙版" fill="#3A3A44" xlink:href="#path-2"></use>
                <path d="M-16,115.039613 C-1.58423001,93.7994827 17.944748,83.8230577 42.5869341,85.1103383 C79.5502132,87.0412593 103.035097,105.079227 122.753976,115.039613 C147.448595,130.392896 173.801621,124.694218 227.752972,104.902278 C281.704323,85.1103383 331.428193,102.041971 381.644662,144.01399 C415.122308,171.995337 385.66148,171.995337 293.262177,144.01399 L-11.1977923,128.494832 L-16,115.039613 Z" fill="#FFFFFF" opacity="0.200000003" mask="url(#mask-3)"></path>
                <path d="M-37,135.127849 C-36.4666435,123.055032 -29.5874538,114.561435 -16.3624307,109.647059 C-14.0951513,108.804545 12.8656796,130.735098 43.0558537,125.256646 C73.2460278,119.778194 98.3935076,96.5873541 113.569279,97.6827306 C154.075961,100.606474 179.896807,131.116994 189.848612,135.127849 C199.800417,139.138705 245.789827,149.746568 304.913104,119.778194 C364.036382,89.8098205 383.334665,8.02225216 438.365024,71.5750508 C475.05193,113.943583 454.497657,149.7519 376.702204,179 L43.0558537,155.501347 L-37,135.127849 Z" id="路径-35复制" fill="#FFFFFF" opacity="0.100000001" mask="url(#mask-3)"></path>
            </g>
        </g>
    </g>
</svg>