<?xml version="1.0" encoding="UTF-8"?>
<svg width="12px" height="11px" viewBox="0 0 12 11" version="1.1" xmlns="http://www.w3.org/2000/svg"
    xmlns:xlink="http://www.w3.org/1999/xlink">
    <!-- Generator: Sketch 59.1 (86144) - https://sketch.com -->
    <title>Mask</title>
    <desc>Created with Sketch.</desc>
    <defs>
        <path
            d="M9.91197854,0.509488623 C7.37284637,-0.474314207 6.02281037,1.45865348 6,1.49117938 C5.97718963,1.45823107 4.62715363,-0.474736621 2.08802146,0.509488623 C-0.453645186,1.4945587 -1.61190511,6.37471073 5.53745638,10.2321978 C5.74021523,10.3416031 5.90157748,10.3737066 5.99957759,10.3770859 L5.99957759,10.3770859 L6,10.3770859 C6,10.3770859 6.00042241,10.3770859 6.00042241,10.3770859 L6.00042241,10.3770859 C6.09842252,10.3737066 6.25936236,10.3416031 6.46254362,10.2321978 C13.6119051,6.37471073 12.4536452,1.4945587 9.91197854,0.509488623 Z M6.37150852,9.04817786 C6.21068829,9.13945421 6.07950323,9.16197695 6.00087123,9.16434776 C5.92223922,9.16158181 5.79105417,9.13905908 5.63023393,9.04817786 C-0.28376224,5.69426596 0.881097833,2.14594728 2.94370624,1.52400367 C4.75895969,0.976740713 5.47850182,2.73904598 5.99889555,2.74694869 L5.99889555,2.74773897 C5.99929069,2.74773897 6.00008096,2.74734383 6.00047609,2.74734383 C6.00087123,2.74734383 6.0016615,2.74773897 6.00205664,2.74773897 L6.00205664,2.74655356 C6.52245037,2.73904598 7.24238763,0.976740713 9.05724595,1.52360854 C11.1210398,2.14594728 12.3605805,5.64487399 6.37150852,9.04817786 Z"
            id="path-1"></path>
    </defs>
    <g id="APP" stroke="none" stroke-width="1" fill="none" fill-rule="evenodd">
        <g id="我-购买" transform="translate(-6.000000, -659.000000)">
            <g id="分组-2" transform="translate(0.000000, 525.000000)">
                <g id="前景色" transform="translate(6.000000, 134.000000)">
                    <mask id="mask-2" fill="white">
                        <use xlink:href="#path-1"></use>
                    </mask>
                    <use id="Mask" fill="#FFFFFF" fill-rule="nonzero" xlink:href="#path-1"></use>
                </g>
            </g>
        </g>
    </g>
</svg>