<svg viewBox="0 0 113.98 104.36" xmlns="http://www.w3.org/2000/svg" xmlns:xlink="http://www.w3.org/1999/xlink"><linearGradient id="a" gradientUnits="userSpaceOnUse" x1="42.97" x2="103.22" y1="91.24" y2="31"><stop offset="0" stop-color="#e6d7a7"/><stop offset="1" stop-color="#e7e8bf"/></linearGradient><path d="m103.53 103.49a10.5 10.5 0 0 0 1.47-5.28v-7.85c0-11.48-10.36-21.39-25.31-26a32.54 32.54 0 0 0 9.71-23.56 33.52 33.52 0 0 0 -3.78-15.6c10.79.8 19.38 10.99 19.38 23.43a24.37 24.37 0 0 1 -9.21 19.47c14.36 3.13 24.7 11.91 24.7 22.26v7.91a5.2 5.2 0 0 1 -5.18 5.22zm-55.53-36.61c-14.3 0-25.9-12.84-25.9-28.69s11.55-28.69 25.9-28.69 25.86 12.84 25.86 28.69-11.6 28.69-25.86 28.69zm41.4 36.55a10.4 10.4 0 0 1 -10.4 10.43h-62.13a10.39 10.39 0 0 1 -10.36-10.43v-7.85c0-15.85 18.55-28.7 41.44-28.7s41.45 12.85 41.45 28.7zm0 0" fill="url(#a)" transform="translate(-6.51 -9.5)"/></svg>