<?xml version="1.0" encoding="UTF-8"?>
<svg width="18px" height="17px" viewBox="0 0 18 17" version="1.1" xmlns="http://www.w3.org/2000/svg" xmlns:xlink="http://www.w3.org/1999/xlink">
    <!-- Generator: Sketch 59.1 (86144) - https://sketch.com -->
    <title>星形</title>
    <desc>Created with Sketch.</desc>
    <g id="APP" stroke="none" stroke-width="1" fill="none" fill-rule="evenodd">
        <g id="标签-已加载-已收藏" transform="translate(-168.000000, -187.000000)" stroke="#FFFFFF" stroke-width="2">
            <g id="分组-3" transform="translate(163.000000, 181.500000)">
                <path d="M13.5051886,19.0507203 L10.6307384,20.6874406 C10.1508027,20.9607174 9.54020338,20.7931872 9.2669266,20.3132516 C9.14668908,20.1020874 9.10745404,19.8543671 9.15655339,19.6163825 L9.82491297,16.3768435 C9.8962384,16.0311291 9.78001201,15.6734211 9.51910273,15.4356563 L7.07423519,13.2076661 C6.66602526,12.8356673 6.63667032,12.2031832 7.0086691,11.7949732 C7.17234277,11.6153672 7.39581447,11.5015027 7.63732375,11.4746577 L10.9248429,11.1092328 C11.2756776,11.0702357 11.5799622,10.84916 11.7254646,10.5275472 L13.0889036,7.5138531 C13.3165516,7.01066844 13.9090086,6.78730189 14.4121933,7.01494995 C14.6335867,7.11511155 14.8109348,7.2924597 14.9110964,7.5138531 L16.2745354,10.5275472 C16.4200378,10.84916 16.7243224,11.0702357 17.0751571,11.1092328 L20.3626762,11.4746577 C20.9115804,11.5356712 21.3070939,12.0301073 21.2460804,12.5790114 C21.2192353,12.8205207 21.1053708,13.0439924 20.9257648,13.2076661 L18.4808973,15.4356563 C18.219988,15.6734211 18.1037616,16.0311291 18.175087,16.3768435 L18.8434466,19.6163825 C18.95504,20.1572756 18.6070238,20.6862204 18.0661307,20.7978138 C17.8281461,20.8469132 17.5804258,20.8076781 17.3692616,20.6874406 L14.4948114,19.0507203 C14.1880582,18.8760541 13.8119418,18.8760541 13.5051886,19.0507203 Z" id="星形"></path>
            </g>
        </g>
    </g>
</svg>