<?xml version="1.0" encoding="UTF-8"?>
<svg width="122px" height="169px" viewBox="0 0 122 169" version="1.1" xmlns="http://www.w3.org/2000/svg" xmlns:xlink="http://www.w3.org/1999/xlink">
    <!-- Generator: Sketch 59.1 (86144) - https://sketch.com -->
    <title>箭头</title>
    <desc>Created with Sketch.</desc>
    <g id="页面-1" stroke="none" stroke-width="1" fill="none" fill-rule="evenodd">
        <g id="小说内容主页提示" transform="translate(-119.000000, -106.000000)" fill-rule="nonzero">
            <g id="箭头" transform="translate(84.000000, 94.000000)">
                <rect id="矩形" fill="#000000" opacity="0" x="0" y="0" width="192" height="192"></rect>
                <path d="M125.833125,180.740625 C122.23875,180.740625 119.325,177.965625 119.325,174.54375 L119.325,98.600625 C119.325,96.294375 120.095625,94.06125 121.49625,92.311875 C123.271875,90.09375 125.896875,88.8225 128.7,88.8225 L140.206875,88.8225 C141.15,88.8225 141.97125,87.406875 142.126875,87.121875 C143.31375,84.9525 143.56875,81.466875 141.7575,79.003125 L105.8475,30.140625 C103.119375,26.428125 99.5775,24.3825 95.87625,24.3825 C92.175,24.3825 88.633125,26.42625 85.905,30.140625 L49.995,79.003125 C48.185625,81.466875 48.43875,84.9525 49.625625,87.121875 C49.78125,87.405 50.6025,88.8225 51.545625,88.8225 L63.0525,88.8225 C65.855625,88.8225 68.480625,90.09375 70.25625,92.311875 C71.656875,94.06125 72.4275,96.294375 72.4275,98.600625 L72.4275,174.54375 C72.4275,177.965625 69.51375,180.740625 65.919375,180.740625 C62.325,180.740625 59.41125,177.965625 59.41125,174.54375 L59.41125,101.21625 L51.54375,101.21625 C45.97875,101.21625 40.944375,98.086875 38.0775,92.84625 C34.46625,86.244375 34.96875,77.825625 39.32625,71.896875 L75.23625,23.034375 C80.394375,16.014375 87.916875,11.98875 95.8725,11.98875 C103.828125,11.98875 111.350625,16.014375 116.50875,23.034375 L152.41875,71.896875 C156.77625,77.825625 157.27875,86.244375 153.6675,92.84625 C150.800625,98.086875 145.768125,101.21625 140.20125,101.21625 L132.335625,101.21625 L132.335625,174.54375 C132.34125,177.965625 129.4275,180.740625 125.833125,180.740625 Z" id="路径" fill="#FFFFFF"></path>
            </g>
        </g>
    </g>
</svg>