<?xml version="1.0" encoding="UTF-8"?>
<svg width="11px" height="10px" viewBox="0 0 11 10" version="1.1" xmlns="http://www.w3.org/2000/svg" xmlns:xlink="http://www.w3.org/1999/xlink">
    <!-- Generator: Sketch 64 (93537) - https://sketch.com -->
    <title>听歌备份 4</title>
    <desc>Created with Sketch.</desc>
    <g id="页面-1" stroke="none" stroke-width="1" fill="none" fill-rule="evenodd">
        <g id="有声主页备份" transform="translate(-84.000000, -241.000000)" fill-rule="nonzero">
            <g id="听歌备份-4" transform="translate(84.000000, 240.000000)">
                <rect id="矩形" fill="#000000" opacity="0" x="0" y="0" width="11.2" height="11.2"></rect>
                <path d="M9.08075,10.1402656 C8.89951562,10.1402656 8.752625,9.993375 8.752625,9.81214062 L8.752625,4.86860938 C8.752625,3.13020312 7.33840625,1.71598437 5.6,1.71598437 C3.86159375,1.71598437 2.447375,3.13020312 2.447375,4.86860938 L2.447375,9.81203125 C2.447375,9.99326563 2.30048437,10.1401563 2.11925,10.1401563 C1.93801563,10.1401563 1.791125,9.99326563 1.791125,9.81203125 L1.791125,4.86860938 C1.791125,4.35454687 1.89185938,3.8556875 2.09059375,3.38592188 C2.2824375,2.93234375 2.55707813,2.52503125 2.90675,2.17535937 C3.25642188,1.8256875 3.66373437,1.55104687 4.1173125,1.35920312 C4.58707812,1.16046875 5.0859375,1.05973437 5.6,1.05973437 C6.1140625,1.05973437 6.61292188,1.16046875 7.0826875,1.35920312 C7.53626563,1.55104687 7.94357813,1.8256875 8.29325,2.17535937 C8.64292188,2.52503125 8.9175625,2.93234375 9.10940625,3.38592188 C9.30814063,3.8556875 9.408875,4.35454687 9.408875,4.86860938 L9.408875,9.81203125 C9.408875,9.993375 9.26198438,10.1402656 9.08075,10.1402656 Z" id="路径" fill="#FFFFFF"></path>
                <path d="M2.11925,10.1402656 C1.37123438,10.1402656 0.762671875,9.53170313 0.762671875,8.7836875 L0.762671875,6.98873438 C0.762671875,6.24071875 1.37123438,5.63215625 2.11925,5.63215625 C2.30048438,5.63215625 2.447375,5.77904688 2.447375,5.96028125 L2.447375,9.81214063 C2.447375,9.89920313 2.4128125,9.98265625 2.35123438,10.044125 C2.28965625,10.1055938 2.2063125,10.1402656 2.11925,10.1402656 L2.11925,10.1402656 Z M1.791125,6.37010938 C1.56985938,6.48790625 1.41892188,6.72098438 1.41892188,6.98873438 L1.41892188,8.7836875 C1.41892188,9.05132813 1.56985938,9.28451563 1.791125,9.4023125 L1.791125,6.37010938 L1.791125,6.37010938 Z M9.08075,10.1402656 C8.89951563,10.1402656 8.752625,9.993375 8.752625,9.81214063 L8.752625,5.96017188 C8.752625,5.7789375 8.89951563,5.63204688 9.08075,5.63204688 C9.82876563,5.63204688 10.4373281,6.24060938 10.4373281,6.988625 L10.4373281,8.78357813 C10.4373281,9.53170313 9.82876563,10.1402656 9.08075,10.1402656 L9.08075,10.1402656 Z M9.408875,6.37010938 L9.408875,9.4023125 C9.63014063,9.28451563 9.78107813,9.05132813 9.78107813,8.7836875 L9.78107813,6.98873438 C9.78107813,6.72098438 9.63014063,6.48790625 9.408875,6.37010938 Z" id="形状" fill="#FFFFFF"></path>
            </g>
        </g>
    </g>
</svg>