<?xml version="1.0" encoding="UTF-8"?>
<svg width="10px" height="18px" viewBox="0 0 10 18" version="1.1" xmlns="http://www.w3.org/2000/svg"
    xmlns:xlink="http://www.w3.org/1999/xlink">
    <!-- Generator: Sketch 57.1 (83088) - https://sketch.com -->
    <title>形状结合复制 5</title>
    <desc>Created with Sketch.</desc>
    <g id="APP" stroke="none" stroke-width="1" fill="none" fill-rule="evenodd">
        <g id="草榴首页-今日最热" transform="translate(-335.000000, -684.000000)" fill="#FFCA00">
            <g id="TOP" transform="translate(0.000000, 677.995074)">
                <path
                    d="M337.608806,6.72587025 C337.628141,6.74381946 337.646802,6.76248067 337.664751,6.78181527 L343.868306,13.4636051 C344.051987,13.5017574 344.227929,13.5889229 344.375447,13.7258703 L344.431392,13.7818153 L344.431392,13.7818153 C344.686662,14.0567885 344.793927,14.4189267 344.753187,14.7671535 C344.793927,15.115684 344.686662,15.4778221 344.431392,15.7527954 C344.275496,15.9207244 344.078079,16.0270538 343.869656,16.0706496 L337.664751,22.7527954 C337.264443,23.1840007 336.590369,23.2090481 336.159164,22.8087404 C336.139829,22.7907912 336.121168,22.77213 336.103219,22.7527954 C335.662945,22.2785393 335.662945,21.5449927 336.103219,21.0707366 L341.954,14.767 L336.103219,8.46387404 C335.662945,7.989618 335.662945,7.25607132 336.103219,6.78181527 C336.503526,6.35060997 337.177601,6.32556253 337.608806,6.72587025 Z"
                    id="形状结合复制-5"></path>
            </g>
        </g>
    </g>
</svg>