<?xml version="1.0" encoding="UTF-8"?>
<svg width="16px" height="14px" viewBox="0 0 16 14" version="1.1" xmlns="http://www.w3.org/2000/svg"
    xmlns:xlink="http://www.w3.org/1999/xlink">
    <!-- Generator: Sketch 57.1 (83088) - https://sketch.com -->
    <title>1_ssuo_phb copy@2x</title>
    <desc>Created with Sketch.</desc>
    <defs>
        <path
            d="M1.54152495,0.526169427 L7.35346853,6.43294333 C7.7020848,6.78724778 8.27191462,6.79185896 8.62621907,6.44324269 C8.62953444,6.43998055 8.63282447,6.43669275 8.63608888,6.4333796 L14.4589046,0.523603115 C14.8077618,0.169535905 15.3775946,0.165312363 15.7316619,0.514169571 C15.9033381,0.683319631 16,0.914257766 16,1.15526497 L16,11.8719923 C16,12.3690485 15.5970563,12.7719923 15.1,12.7719923 L0.9,12.7719923 C0.402943725,12.7719923 3.93938745e-16,12.3690485 0,11.8719923 L0,1.15739501 C-6.1598335e-16,0.660338738 0.402943725,0.257395012 0.9,0.257395012 C1.14121952,0.257395012 1.3723428,0.354226826 1.54152495,0.526169427 Z"
            id="path-1"></path>
        <linearGradient x1="50%" y1="0%" x2="50%" y2="100%" id="linearGradient-3">
            <stop stop-color="#FF7F7F" stop-opacity="0" offset="0%"></stop>
            <stop stop-color="#892000" offset="100%"></stop>
        </linearGradient>
        <linearGradient x1="50%" y1="0%" x2="50%" y2="100%" id="linearGradient-4">
            <stop stop-color="#FF7F7F" stop-opacity="0" offset="0%"></stop>
            <stop stop-color="#892000" offset="100%"></stop>
        </linearGradient>
        <linearGradient x1="108.682304%" y1="26.6521529%" x2="57.5604634%" y2="26.6521529%"
            id="linearGradient-5">
            <stop stop-color="#FF9B29" offset="0%"></stop>
            <stop stop-color="#FF6212" stop-opacity="0" offset="100%"></stop>
        </linearGradient>
        <path
            d="M0.327631462,6.08713458 L7.42257788,0.240259582 C7.75481675,-0.0335351767 8.23442944,-0.0336953025 8.56685106,0.239877549 L15.6719046,6.08711995 C15.8796404,6.25808015 16,6.51300988 16,6.78204806 L16,12.8688971 C16,13.3659534 15.5970563,13.7688971 15.1,13.7688971 L0.9,13.7688971 C0.402943725,13.7688971 3.93938745e-16,13.3659534 0,12.8688971 L0,6.78168066 C4.11167299e-16,6.51285286 0.120172245,6.25809966 0.327631462,6.08713458 Z"
            id="path-6"></path>
        <linearGradient x1="63.0317002%" y1="50%" x2="31.4061027%" y2="51.3292238%"
            id="linearGradient-8">
            <stop stop-color="#FFB267" stop-opacity="0.341919799" offset="0%"></stop>
            <stop stop-color="#FF7A37" offset="100%"></stop>
        </linearGradient>
    </defs>
    <g id="APP" stroke="none" stroke-width="1" fill="none" fill-rule="evenodd">
        <g id="草榴首页6-横版" transform="translate(-11.000000, -684.000000)">
            <g id="1_ssuo_phb-copy" transform="translate(11.000000, 684.000000)">
                <g id="矩形" transform="translate(0.000000, 1.000000)">
                    <mask id="mask-2" fill="white">
                        <use xlink:href="#path-1"></use>
                    </mask>
                    <use id="蒙版" fill="#F0C828" xlink:href="#path-1"></use>
                    <path
                        d="M-1.08253671,3.57354588 L4.97677572,2.87877325 C5.47059638,2.82215081 5.91681867,3.17656998 5.97344112,3.67039064 C5.98219085,3.74669957 5.98113607,3.82381467 5.97030251,3.89985574 L5.87101549,4.59675382 C5.81327235,5.00205437 5.48926496,5.31731786 5.08253671,5.36395412 L-0.976775722,6.05872675 C-1.47059638,6.11534919 -1.91681867,5.76093002 -1.97344112,5.26710936 C-1.98219085,5.19080043 -1.98113607,5.11368533 -1.97030251,5.03764426 L-1.87101549,4.34074618 C-1.81327235,3.93544563 -1.48926495,3.62018214 -1.08253671,3.57354588 Z"
                        fill="url(#linearGradient-3)" mask="url(#mask-2)"
                        transform="translate(2.000000, 4.468750) rotate(-40.000000) translate(-2.000000, -4.468750) "></path>
                    <path
                        d="M11.4231445,2.87741011 L17.480096,3.56315795 C17.888132,3.60935442 18.2131576,3.92588602 18.2701406,4.33255596 L18.3693964,5.04091439 C18.4383705,5.53316179 18.0952398,5.98812175 17.6029924,6.0570959 C17.5280391,6.06759841 17.4520605,6.06860435 17.3768555,6.06008989 L11.319904,5.37434205 C10.911868,5.32814558 10.5868424,5.01161399 10.5298594,4.60494404 L10.4306036,3.89658561 C10.3616295,3.40433821 10.7047602,2.94937825 11.1970076,2.8804041 C11.2719609,2.86990159 11.3479395,2.86889565 11.4231445,2.87741011 Z"
                        id="矩形复制-14" fill="url(#linearGradient-4)" mask="url(#mask-2)"
                        transform="translate(14.400000, 4.468750) rotate(38.000000) translate(-14.400000, -4.468750) "></path>
                    <rect stroke="#979797" stroke-width="0.9" fill="#D8D8D8" mask="url(#mask-2)"
                        x="3.65" y="-1.9875" width="4.7" height="1" rx="0.5"></rect>
                    <rect fill="url(#linearGradient-5)" mask="url(#mask-2)" x="8" y="-2.4375"
                        width="9.6" height="19.5" rx="0.9"></rect>
                </g>
                <g id="矩形">
                    <mask id="mask-7" fill="white">
                        <use xlink:href="#path-6"></use>
                    </mask>
                    <use id="蒙版" fill="#F7E066" xlink:href="#path-6"></use>
                    <rect fill="url(#linearGradient-8)" opacity="0.5" mask="url(#mask-7)" x="8"
                        y="-1.64705882" width="9.6" height="19.7647059" rx="0.9"></rect>
                </g>
            </g>
        </g>
    </g>
</svg>