<?xml version="1.0" encoding="UTF-8"?>
<svg width="20px" height="21px" viewBox="0 0 20 21" version="1.1" xmlns="http://www.w3.org/2000/svg"
    xmlns:xlink="http://www.w3.org/1999/xlink">
    <!-- Generator: Sketch 57.1 (83088) - https://sketch.com -->
    <title>玩家位置定位</title>
    <desc>Created with Sketch.</desc>
    <g id="APP" stroke="none" stroke-width="1" fill="none" fill-rule="evenodd">
        <g id="草榴首页6-横版" transform="translate(-15.000000, -436.000000)">
            <g id="位置标签" transform="translate(10.000000, 431.500000)">
                <g id="玩家位置定位" transform="translate(5.000000, 5.000000)">
                    <rect id="矩形" fill="#F0C54F" x="-9.09494702e-13" y="0" width="20" height="20"
                        rx="5"></rect>
                    <path
                        d="M9.8125,7.0625 C9.3453125,7.0625 8.90625,7.24375 8.575,7.575 C8.2453125,7.90625 8.0625,8.3453125 8.0625,8.8125 C8.0625,9.2796875 8.2453125,9.71875 8.575,10.05 C8.90625,10.3796875 9.3453125,10.5625 9.8125,10.5625 C10.2796875,10.5625 10.71875,10.3796875 11.05,10.05 C11.38125,9.71875 11.5625,9.2796875 11.5625,8.8125 C11.5625,8.3453125 11.38125,7.90625 11.05,7.575 C10.71875,7.24375 10.2796875,7.0625 9.8125,7.0625 Z M15.165625,6.4703125 C14.871875,5.7921875 14.4515625,5.184375 13.9171875,4.6625 C13.3828125,4.140625 12.7625,3.7328125 12.0703125,3.446875 C11.3546875,3.15 10.5953125,3 9.8125,3 C9.0296875,3 8.2703125,3.15 7.5546875,3.4453125 C6.8625,3.73125 6.2421875,4.140625 5.7078125,4.6609375 C5.1734375,5.1828125 4.753125,5.7921875 4.459375,6.46875 C4.1546875,7.171875 4,7.91875 4,8.6875 C4,9.790625 4.2640625,10.8890625 4.7828125,11.9484375 C5.2,12.8 5.7828125,13.6296875 6.5171875,14.41875 C7.771875,15.765625 9.0875,16.5890625 9.4609375,16.809375 C9.56875,16.8734375 9.690625,16.9046875 9.8109375,16.9046875 C9.9328125,16.9046875 10.053125,16.8734375 10.1609375,16.809375 C10.534375,16.5890625 11.85,15.765625 13.1046875,14.41875 C13.8390625,13.63125 14.421875,12.8 14.8390625,11.9484375 C15.3609375,10.890625 15.625,9.79375 15.625,8.6890625 C15.625,7.9203125 15.4703125,7.1734375 15.165625,6.4703125 Z M9.8125,11.5625 C8.29375,11.5625 7.0625,10.33125 7.0625,8.8125 C7.0625,7.29375 8.29375,6.0625 9.8125,6.0625 C11.33125,6.0625 12.5625,7.29375 12.5625,8.8125 C12.5625,10.33125 11.33125,11.5625 9.8125,11.5625 Z"
                        id="形状" fill="#FFFFFF" fill-rule="nonzero"></path>
                </g>
            </g>
        </g>
    </g>
</svg>