<?xml version="1.0" encoding="UTF-8"?>
<svg width="16px" height="18px" viewBox="0 0 16 18" version="1.1" xmlns="http://www.w3.org/2000/svg" xmlns:xlink="http://www.w3.org/1999/xlink">
    <!-- Generator: Sketch 59.1 (86144) - https://sketch.com -->
    <title>记录</title>
    <desc>Created with Sketch.</desc>
    <g id="页面-1" stroke="none" stroke-width="1" fill="none" fill-rule="evenodd">
        <g id="小说排版2备份-2" transform="translate(-327.000000, -32.000000)" fill-rule="nonzero">
            <g id="记录" transform="translate(326.000000, 32.000000)">
                <rect id="矩形" fill="#000000" opacity="0" x="0" y="0" width="18" height="18"></rect>
                <path d="M16.530934,10.0984591 L16.5325703,10.1000955 C16.6854271,10.2521515 16.7715724,10.4587324 16.7720346,10.6743386 C16.7724931,10.8899448 16.6872308,11.0968917 16.5350247,11.2495991 L16.5325703,11.2520536 L9.99144448,17.7620896 C9.67233453,18.0793064 9.15696002,18.0793064 8.83785008,17.7620896 L8.83621376,17.7604533 C8.68293,17.6079731 8.5967482,17.4006827 8.5967482,17.1844742 C8.5967482,16.9682657 8.68293,16.7609753 8.83621376,16.6084951 L15.3765214,10.0984591 C15.6957266,9.7806997 16.2117288,9.7806997 16.530934,10.0984591 L16.530934,10.0984591 Z M13.5037713,3.13444896e-06 C14.8594493,3.13444896e-06 15.9582275,1.09387749 15.9582275,2.44382841 L15.9582275,8.14553016 L14.3211052,8.14553016 L14.3219234,2.44301026 C14.3219234,2.00120813 13.9676635,1.64122123 13.5266796,1.62976709 L3.68185574,1.62976709 C3.23999368,1.62866842 2.87742753,1.97926989 2.86370367,2.42092014 L2.86370367,15.4769908 C2.86370367,15.918793 3.21714536,16.2787799 3.65894749,16.2918703 L6.95528216,16.2910521 L6.95528216,17.9208111 L3.68267389,17.9208111 C2.32699593,17.9208111 1.22739954,16.8269417 1.22739954,15.4769908 L1.22739954,2.44382841 C1.23055905,1.09129945 2.32932581,-0.00270599719 3.68185574,3.13444896e-06 L13.5037713,3.13444896e-06 Z M9.41546544,9.77528907 C9.85523898,9.78922897 10.2045279,10.149765 10.2045279,10.5897595 C10.2045279,11.0297539 9.85523898,11.39029 9.41546544,11.4042299 L5.31570542,11.4042299 C4.87593188,11.39029 4.52664295,11.0297539 4.52664295,10.5897595 C4.52664295,10.149765 4.87593188,9.78922897 5.31570542,9.77528907 L9.41464728,9.77528907 L9.41546544,9.77528907 Z M11.8699216,4.88764863 C12.3096951,4.90158867 12.6589838,5.2621247 12.6589838,5.70211901 C12.6589838,6.14211332 12.3096951,6.50264936 11.8699216,6.51658939 L5.31652358,6.51658939 C4.87675015,6.50264936 4.52746139,6.14211332 4.52746139,5.70211901 C4.52746139,5.2621247 4.87675015,4.90158867 5.31652358,4.88764863 L11.8715579,4.88764863 L11.8699216,4.88764863 Z" id="形状" fill="#FFFFFF"></path>
            </g>
        </g>
    </g>
</svg>