<?xml version="1.0" encoding="UTF-8"?>
<svg width="18px" height="17px" viewBox="0 0 18 17" version="1.1" xmlns="http://www.w3.org/2000/svg" xmlns:xlink="http://www.w3.org/1999/xlink">
    <title>筛选</title>
    <g id="裸聊" stroke="none" stroke-width="1" fill="none" fill-rule="evenodd">
        <g id="短视频-发现-裸聊专区备份" transform="translate(-292.000000, -33.000000)" fill="#FFFFFF" fill-rule="nonzero">
            <g id="筛选" transform="translate(292.000000, 33.000000)">
                <path d="M9.03510857,16.0311086 C8.91808,16.0311086 8.81275429,15.996 8.71913143,15.9257829 C8.57869714,15.8204571 6.00406857,13.5852114 6.00406857,13.5852114 C5.89874286,13.4798857 5.84022857,13.3394514 5.84022857,13.1990171 L5.84022857,6.62201143 L1.07716571,1.13337143 C0.88992,0.899314286 0.925028571,0.548228571 1.17078857,0.360982857 C1.26441143,0.290765714 1.39314286,0.243954286 1.51017143,0.243954286 L14.1024457,0.243954286 C14.2545829,0.243954286 14.3833143,0.302468571 14.48864,0.407794286 C14.5939657,0.51312 14.65248,0.653554286 14.65248,0.793988571 C14.65248,0.92272 14.6056686,1.05145143 14.5237486,1.15677714 L9.58514286,6.63371429 L9.58514286,15.4810743 C9.58514286,15.7853486 9.33938286,16.0311086 9.03510857,16.0311086 Z" id="路径"></path>
                <path d="M12.4055314,14.9193371 C12.2650971,14.9193371 12.1246629,14.8608229 12.0193371,14.7554971 C11.9140114,14.6501714 11.8554971,14.5097371 11.8554971,14.3693029 C11.8554971,14.0650286 12.1012571,13.8192686 12.4055314,13.8192686 L16.6653714,13.8192686 C16.9696457,13.8192686 17.2154057,14.0650286 17.2154057,14.3693029 C17.2154057,14.6735771 16.9696457,14.9193371 16.6653714,14.9193371 L12.4055314,14.9193371 Z M12.4055314,11.4786971 C12.1012571,11.4786971 11.8554971,11.2329371 11.8554971,10.9286629 C11.8554971,10.6243886 12.1012571,10.3786286 12.4055314,10.3786286 L16.6653714,10.3786286 C16.9696457,10.3786286 17.2154057,10.6243886 17.2154057,10.9286629 C17.2154057,11.2329371 16.9696457,11.4786971 16.6653714,11.4786971 L12.4055314,11.4786971 L12.4055314,11.4786971 Z M12.4055314,8.07316571 C12.1012571,8.07316571 11.8554971,7.81570286 11.8672,7.51142857 C11.8672,7.20715429 12.11296,6.97309714 12.4055314,6.97309714 L16.6536686,6.97309714 C16.9579429,6.97309714 17.2037029,7.21885714 17.2037029,7.52313143 C17.2037029,7.82740571 16.9579429,8.07316571 16.6536686,8.07316571 L12.4055314,8.07316571 Z" id="形状"></path>
            </g>
        </g>
    </g>
</svg>