<?xml version="1.0" encoding="UTF-8"?>
<svg width="24px" height="19px" viewBox="0 0 24 19" version="1.1" xmlns="http://www.w3.org/2000/svg" xmlns:xlink="http://www.w3.org/1999/xlink">
    <!-- Generator: Sketch 64 (93537) - https://sketch.com -->
    <title>1_weixin@3x</title>
    <desc>Created with Sketch.</desc>
    <g id="页面-1" stroke="none" stroke-width="1" fill="none" fill-rule="evenodd">
        <g id="首页/推荐/保存相册" transform="translate(-114.000000, -421.000000)">
            <g id="分组-3" transform="translate(34.000000, 261.000000)">
                <g id="编组-2" transform="translate(56.000000, 149.000000)">
                    <g id="1_weixin" transform="translate(17.000000, 2.000000)">
                        <g id="编组"></g>
                        <path d="M15.9412082,23.1749762 C14.9212846,23.1749762 14.1017089,22.97075 13.0803399,22.772221 L10.2248801,24.1818182 L11.0410055,21.762898 C8.99714851,20.3570683 7.77272727,18.5432917 7.77272727,16.3365003 C7.77272727,12.5117504 11.450467,9.5 15.9406487,9.5 C19.9562338,9.5 23.4744225,11.9053204 24.1818182,15.1446372 C23.9206711,15.1144512 23.6582185,15.098692 23.395393,15.0974056 C19.5151139,15.0974056 16.4513332,17.9467399 16.4513332,21.4590168 C16.4513332,22.0425202 16.543884,22.6058536 16.703435,23.1437335 C16.4497014,23.1643629 16.1952683,23.1747924 15.9406487,23.1753438 L15.9412082,23.1749762 Z" id="路径" fill="#FFFFFF"></path>
                        <path d="M27.3793136,25.9804001 L27.9912246,28.0681818 L25.762276,26.8131552 C24.9487921,27.0227161 24.1321993,27.2322292 23.3225205,27.2322292 C19.4547715,27.2322292 16.4090909,24.517149 16.4090909,21.1731953 C16.4090909,17.8343004 19.4547715,15.1136364 23.3225205,15.1136364 C26.9736157,15.1136364 30.2272727,17.8343004 30.2272727,21.1731953 C30.2272727,23.0560931 29.0115248,24.7242758 27.3793136,25.9804001 Z" id="路径" fill="#FFFFFF"></path>
                        <path d="M12.0909091,14.2499736 C12.0909091,14.9655852 12.6707431,15.5454545 13.3862582,15.5454545 C14.1018261,15.5454545 14.6818182,14.9655852 14.6818182,14.2499736 C14.6818182,13.5344148 14.1018261,12.9545455 13.3862582,12.9545455 C12.6707431,12.9545455 12.0909091,13.5344148 12.0909091,14.2499736 Z M20.7272727,19.8636996 C20.7272727,20.3407077 21.1140064,20.7272727 21.5910145,20.7272727 C22.0679804,20.7271041 22.4545455,20.340539 22.4545455,19.863531 C22.4545455,19.386565 22.0678118,19 21.5908458,19 C21.1138378,19 20.7272727,19.3867337 20.7272727,19.8636996 Z M18.1363636,14.2491568 C18.1357316,14.9644334 18.7149856,15.544611 19.4305006,15.5454545 C20.1460156,15.5460863 20.726482,14.9669099 20.7272727,14.251844 L20.7272727,14.2493676 C20.7272727,13.5341437 20.147228,12.9545455 19.431713,12.9545455 C19.0882932,12.9543349 18.7586313,13.0908039 18.5156282,13.3334974 C18.2728887,13.5763489 18.1363636,13.905666 18.1363636,14.2491568 Z M25.9090909,19.8636996 C25.9090909,20.3407077 26.2958246,20.7272727 26.7727905,20.7272727 C27.2497986,20.7271041 27.6363636,20.340539 27.6363636,19.863531 C27.6363636,19.386565 27.24963,19 26.7726219,19 C26.2956559,19 25.9090909,19.3867337 25.9090909,19.8636996 Z" id="Fill-3" fill="#FF6290"></path>
                    </g>
                </g>
            </g>
        </g>
    </g>
</svg>