<?xml version="1.0" encoding="UTF-8"?>
<svg width="308px" height="491px" viewBox="0 0 308 491" version="1.1" xmlns="http://www.w3.org/2000/svg" xmlns:xlink="http://www.w3.org/1999/xlink">
    <!-- Generator: Sketch 59.1 (86144) - https://sketch.com -->
    <title>编组 2</title>
    <desc>Created with Sketch.</desc>
    <defs>
        <path d="M300,2.84217094e-13 C304.418278,2.82440737e-13 308,3.581722 308,8 L308.000333,234.235893 C302.393674,234.718007 298,239.215786 298,244.693117 C298,250.170447 302.393674,254.668226 308.000333,255.150341 L308,491 L298.396,491 L292.467114,484.601159 C292.44983,484.582503 292.432193,484.564181 292.414214,484.546201 L292.359255,484.4933 C291.54899,483.742604 290.283582,483.790894 289.532886,484.601159 L289.532886,484.601159 L284.5,490.033 L279.467114,484.601159 C279.44983,484.582503 279.432193,484.564181 279.414214,484.546201 L279.359255,484.4933 C278.54899,483.742604 277.283582,483.790894 276.532886,484.601159 L276.532886,484.601159 L271.5,490.033 L266.467114,484.601159 C266.44983,484.582503 266.432193,484.564181 266.414214,484.546201 L266.359255,484.4933 C265.54899,483.742604 264.283582,483.790894 263.532886,484.601159 L263.532886,484.601159 L258.5,490.033 L253.467114,484.601159 C253.44983,484.582503 253.432193,484.564181 253.414214,484.546201 L253.359255,484.4933 C252.54899,483.742604 251.283582,483.790894 250.532886,484.601159 L250.532886,484.601159 L245.5,490.033 L240.467114,484.601159 C240.44983,484.582503 240.432193,484.564181 240.414214,484.546201 L240.359255,484.4933 C239.54899,483.742604 238.283582,483.790894 237.532886,484.601159 L237.532886,484.601159 L232.5,490.033 L227.467114,484.601159 C227.44983,484.582503 227.432193,484.564181 227.414214,484.546201 L227.359255,484.4933 C226.54899,483.742604 225.283582,483.790894 224.532886,484.601159 L224.532886,484.601159 L219.5,490.033 L214.467114,484.601159 C214.44983,484.582503 214.432193,484.564181 214.414214,484.546201 L214.359255,484.4933 C213.54899,483.742604 212.283582,483.790894 211.532886,484.601159 L211.532886,484.601159 L206.5,490.033 L201.467114,484.601159 C201.44983,484.582503 201.432193,484.564181 201.414214,484.546201 L201.359255,484.4933 C200.54899,483.742604 199.283582,483.790894 198.532886,484.601159 L198.532886,484.601159 L193.5,490.033 L188.467114,484.601159 C188.44983,484.582503 188.432193,484.564181 188.414214,484.546201 L188.359255,484.4933 C187.54899,483.742604 186.283582,483.790894 185.532886,484.601159 L185.532886,484.601159 L180.5,490.033 L175.467114,484.601159 C175.44983,484.582503 175.432193,484.564181 175.414214,484.546201 L175.359255,484.4933 C174.54899,483.742604 173.283582,483.790894 172.532886,484.601159 L172.532886,484.601159 L167.5,490.033 L162.467114,484.601159 C162.44983,484.582503 162.432193,484.564181 162.414214,484.546201 L162.359255,484.4933 C161.54899,483.742604 160.283582,483.790894 159.532886,484.601159 L159.532886,484.601159 L154.5,490.033 L149.467114,484.601159 C149.44983,484.582503 149.432193,484.564181 149.414214,484.546201 L149.359255,484.4933 C148.54899,483.742604 147.283582,483.790894 146.532886,484.601159 L146.532886,484.601159 L141,490.572 L135.467114,484.601159 C135.44983,484.582503 135.432193,484.564181 135.414214,484.546201 L135.359255,484.4933 C134.54899,483.742604 133.283582,483.790894 132.532886,484.601159 L132.532886,484.601159 L127.5,490.033 L122.467114,484.601159 C122.44983,484.582503 122.432193,484.564181 122.414214,484.546201 L122.359255,484.4933 C121.54899,483.742604 120.283582,483.790894 119.532886,484.601159 L119.532886,484.601159 L114.5,490.033 L109.467114,484.601159 C109.44983,484.582503 109.432193,484.564181 109.414214,484.546201 L109.359255,484.4933 C108.54899,483.742604 107.283582,483.790894 106.532886,484.601159 L106.532886,484.601159 L101.5,490.033 L96.4671144,484.601159 C96.4498302,484.582503 96.4321933,484.564181 96.4142136,484.546201 L96.3592554,484.4933 C95.5489905,483.742604 94.2835816,483.790894 93.5328856,484.601159 L93.5328856,484.601159 L88.5,490.033 L83.4671144,484.601159 C83.4498302,484.582503 83.4321933,484.564181 83.4142136,484.546201 L83.3592554,484.4933 C82.5489905,483.742604 81.2835816,483.790894 80.5328856,484.601159 L80.5328856,484.601159 L75.5,490.033 L70.4671144,484.601159 C70.4498302,484.582503 70.4321933,484.564181 70.4142136,484.546201 L70.3592554,484.4933 C69.5489905,483.742604 68.2835816,483.790894 67.5328856,484.601159 L67.5328856,484.601159 L62.5,490.033 L57.4671144,484.601159 C57.4498302,484.582503 57.4321933,484.564181 57.4142136,484.546201 L57.3592554,484.4933 C56.5489905,483.742604 55.2835816,483.790894 54.5328856,484.601159 L54.5328856,484.601159 L49.5,490.033 L44.4671144,484.601159 C44.4498302,484.582503 44.4321933,484.564181 44.4142136,484.546201 L44.3592554,484.4933 C43.5489905,483.742604 42.2835816,483.790894 41.5328856,484.601159 L41.5328856,484.601159 L36.5,490.033 L31.4671144,484.601159 C31.4498302,484.582503 31.4321933,484.564181 31.4142136,484.546201 L31.3592554,484.4933 C30.5489905,483.742604 29.2835816,483.790894 28.5328856,484.601159 L28.5328856,484.601159 L23.5,490.033 L18.4671144,484.601159 C18.4498302,484.582503 18.4321933,484.564181 18.4142136,484.546201 L18.3592554,484.4933 C17.5489905,483.742604 16.2835816,483.790894 15.5328856,484.601159 L15.5328856,484.601159 L9.604,491 L0,491 L0.000108393027,255.150303 C5.60655664,254.66799 10,250.170304 10,244.693117 C10,239.215929 5.60655664,234.718243 0.000108393027,234.235931 L0,8 C-5.41083001e-16,3.581722 3.581722,2.84217094e-13 8,2.84217094e-13 L300,2.84217094e-13 Z" id="path-1"></path>
    </defs>
    <g id="页面-1" stroke="none" stroke-width="1" fill="none" fill-rule="evenodd">
        <g id="首页/推荐/分享" transform="translate(-26.000000, -145.000000)">
            <g id="编组-4" transform="translate(26.000000, 145.000000)">
                <g id="分组-4">
                    <g id="位图">
                        <g id="背景">
                            <g id="编组-2">
                                <mask id="mask-2" fill="white">
                                    <use xlink:href="#path-1"></use>
                                </mask>
                                <use id="形状结合" fill="#FFFFFF" xlink:href="#path-1"></use>
                                <line x1="20" y1="243.5" x2="288.003794" y2="243.5" id="直线" stroke="#999999" stroke-linecap="square" stroke-dasharray="3" mask="url(#mask-2)"></line>
                            </g>
                        </g>
                    </g>
                </g>
            </g>
        </g>
    </g>
</svg>