<?xml version="1.0" encoding="UTF-8"?>
<svg width="25px" height="23px" viewBox="0 0 25 23" version="1.1" xmlns="http://www.w3.org/2000/svg" xmlns:xlink="http://www.w3.org/1999/xlink">
    <!-- Generator: Sketch 54.1 (76490) - https://sketchapp.com -->
    <title>路径</title>
    <desc>Created with Sketch.</desc>
    <g id="页面-1" stroke="none" stroke-width="1" fill="none" fill-rule="evenodd">
        <g id="钱包--钱包-支付备份-5" transform="translate(-16.000000, -480.000000)" fill="#6BCC03" fill-rule="nonzero">
            <g id="编组-3" transform="translate(-0.000000, 267.000000)">
                <g id="微信" transform="translate(16.500000, 213.000000)">
                    <path d="M2.08463078e-17,10.5374755 L2.08463078e-17,9.81645083 C0.0600853915,9.15551153 0.180256174,8.55465761 0.360512349,7.9538037 C0.841195481,6.39158352 1.62230557,5.06970491 2.70384262,3.92808247 C4.2059774,2.3057769 6.00853915,1.28432524 7.99135707,0.623385937 C9.13297951,0.262873588 10.2746019,0.0826174133 11.4162244,0.0225320218 C12.3775906,-0.0375533697 13.2788715,0.0225320218 14.2402378,0.202788196 C15.0213479,0.322958979 15.7423726,0.503215154 16.5234827,0.803642111 C18.3861298,1.46458142 20.0084354,2.48603307 21.3903994,3.92808247 C21.5706555,4.10833864 21.6908263,4.28859482 21.8710825,4.46885099 C21.8109971,4.46885099 21.8109971,4.52893638 21.7509117,4.52893638 C21.2702286,4.76927795 20.7895455,5.00961952 20.3088623,5.18987569 C16.9440804,6.75209587 13.5792985,8.31431605 10.2145166,9.81645083 C9.55357725,10.1168778 8.89263794,10.0567924 8.29178403,9.69628005 C7.81110089,9.39585309 7.39050315,9.09542614 6.90982002,8.79499918 C6.60939306,8.55465761 6.30896611,8.37440144 5.94845376,8.13405987 C5.6480268,7.9538037 5.46777063,8.07397448 5.46777063,8.43448683 L5.46777063,8.49457222 C5.52785602,8.79499918 5.58794141,9.09542614 5.70811219,9.39585309 C6.30896611,10.8379025 6.90982002,12.2198665 7.51067394,13.6619159 C7.69093011,14.0825136 7.99135707,14.2627698 8.35186942,14.2026844 C8.59221098,14.2026844 8.83255255,14.142599 9.01280872,14.0224282 C9.73383342,13.6619159 10.3947727,13.2413181 11.055712,12.8207204 C14.7209209,10.6576463 18.3260444,8.49457222 21.9912533,6.33149813 C22.2315949,6.15124195 22.5320218,6.03107117 22.7723634,5.850815 C22.7723634,5.91090039 22.8324488,5.91090039 22.8324488,5.97098578 C22.9526195,6.21132735 23.0727903,6.39158352 23.1328757,6.63192509 C23.793815,8.07397448 24.094242,9.57610927 23.9740712,11.1383294 C23.9139858,11.7992688 23.793815,12.4602081 23.6135589,13.1211474 C23.1929611,14.5631968 22.4719364,15.82499 21.4504848,16.9666124 C20.2487769,18.288491 18.7466421,19.3099427 17.1243366,19.970882 C16.1629703,20.3313943 15.201604,20.6318213 14.2402378,20.8120775 C13.5792985,20.9322483 12.9183592,20.9923337 12.3175053,20.9923337 L11.2359682,20.9923337 C10.7552851,20.9322483 10.2746019,20.9322483 9.8540042,20.8721629 C9.13297951,20.7519921 8.41195481,20.5717359 7.7510155,20.3313943 L7.57075933,20.3313943 C7.27033237,20.5116505 7.0299908,20.6919067 6.72956385,20.8721629 C6.06862454,21.2927606 5.46777063,21.653273 4.80683132,22.0137853 C4.68666054,22.0738707 4.50640436,22.1339561 4.38623358,22.1339561 C4.2660628,22.1339561 4.14589201,22.0738707 4.14589201,21.8936145 C4.14589201,21.7734437 4.14589201,21.5931876 4.2059774,21.4730168 C4.32614819,20.5717359 4.50640436,19.7305404 4.68666054,18.8292596 C4.68666054,18.7090888 4.68666054,18.6490034 4.56648975,18.588918 C4.2059774,18.288491 3.84546506,18.0481495 3.48495271,17.6876371 C2.28324488,16.6061001 1.32187861,15.2842215 0.721024698,13.7820867 C0.480683132,13.1211474 0.300426957,12.4001227 0.180256174,11.679098 C0.120170783,11.378671 0.120170783,11.0782441 0.120170783,10.7177317 C0,10.7177317 0,10.6576463 2.08463078e-17,10.5374755 Z" id="路径"></path>
                </g>
            </g>
        </g>
    </g>
</svg>