<?xml version="1.0" encoding="UTF-8"?>
<svg width="24px" height="24px" viewBox="0 0 24 24" version="1.1" xmlns="http://www.w3.org/2000/svg" xmlns:xlink="http://www.w3.org/1999/xlink">
    <!-- Generator: Sketch 54.1 (76490) - https://sketchapp.com -->
    <title>形状</title>
    <desc>Created with Sketch.</desc>
    <g id="页面-1" stroke="none" stroke-width="1" fill="none" fill-rule="evenodd">
        <g id="钱包--钱包-支付备份-5" transform="translate(-17.000000, -528.000000)" fill="#06B4FD" fill-rule="nonzero">
            <g id="编组-3" transform="translate(-0.000000, 267.000000)">
                <g id="支付宝" transform="translate(17.294118, 261.000000)">
                    <path d="M5.29411765,13.512 C5.01176471,13.74 4.71764706,14.076 4.63529412,14.496 C4.51764706,15.072 4.61176471,15.792 5.15294118,16.368 C5.81176471,17.052 6.82352941,17.244 7.25882353,17.28 C8.43529412,17.364 9.69411765,16.764 10.6470588,16.092 C11.0235294,15.828 11.6588235,15.288 12.2588235,14.46 C10.8941176,13.74 9.18823529,12.948 7.37647059,13.02 C6.44705882,13.056 5.77647059,13.248 5.29411765,13.512 Z M22.5882353,16.692 C23.1882353,15.252 23.5294118,13.668 23.5294118,12 C23.5294118,5.388 18.2470588,0 11.7647059,0 C5.28235294,0 0,5.388 0,12 C0,18.612 5.28235294,24 11.7647059,24 C15.6823529,24 19.1529412,22.032 21.2941176,19.032 C19.2705882,18.012 15.9411765,16.32 13.8823529,15.3 C12.9058824,16.44 11.4588235,17.58 9.82352941,18.072 C8.8,18.384 7.87058824,18.504 6.90588235,18.3 C5.94117647,18.096 5.23529412,17.64 4.82352941,17.184 C4.61176471,16.944 4.37647059,16.656 4.2,16.296 C4.21176471,16.32 4.22352941,16.344 4.22352941,16.368 C4.22352941,16.368 4.11764706,16.188 4.04705882,15.912 C4.01176471,15.768 3.97647059,15.636 3.96470588,15.492 C3.95294118,15.396 3.95294118,15.288 3.96470588,15.192 C3.95294118,15.012 3.96470588,14.82 4,14.628 C4.09411765,14.148 4.29411765,13.596 4.81176471,13.092 C5.94117647,11.964 7.44705882,11.904 8.23529412,11.916 C9.38823529,11.928 11.4117647,12.444 13.1058824,13.056 C13.5764706,12.036 13.8823529,10.944 14.0705882,10.212 L7.01176471,10.212 L7.01176471,9.432 L10.6352941,9.432 L10.6352941,7.872 L6.25882353,7.872 L6.25882353,7.08 L10.6352941,7.08 L10.6352941,5.52 C10.6352941,5.304 10.6823529,5.136 11.0117647,5.136 L12.7294118,5.136 L12.7294118,7.08 L17.4941176,7.08 L17.4941176,7.86 L12.7294118,7.86 L12.7294118,9.42 L16.5411765,9.42 C16.5411765,9.42 16.1529412,11.592 14.9647059,13.74 C17.6117647,14.7 21.3529412,16.188 22.5882353,16.692 L22.5882353,16.692 Z" id="形状"></path>
                </g>
            </g>
        </g>
    </g>
</svg>