<?xml version="1.0" encoding="UTF-8"?>
<svg width="24px" height="18px" viewBox="0 0 24 18" version="1.1" xmlns="http://www.w3.org/2000/svg" xmlns:xlink="http://www.w3.org/1999/xlink">
    <!-- Generator: Sketch 59.1 (86144) - https://sketch.com -->
    <title>银行卡</title>
    <desc>Created with Sketch.</desc>
    <g id="页面-1" stroke="none" stroke-width="1" fill="none" fill-rule="evenodd">
        <g id="钱包--钱包-支付备份-5" transform="translate(-17.000000, -582.000000)" fill="#CA3B3B" fill-rule="nonzero">
            <g id="银行卡" transform="translate(17.000000, 582.000000)">
                <path d="M21.501,18 L2.499,18 C1.119,18 0,16.815 0,15.351 L0,2.6475 C0,1.185 1.119,0 2.499,0 L21.501,0 C22.881,0 24,1.185 24,2.6475 L24,4.2345 L24,7.41 L24,15.351 C24,16.815 22.881,18 21.501,18 L21.501,18 Z M23.001,3.396 C23.001,2.1045 22.014,1.059 20.799,1.059 L3.201,1.059 C1.986,1.059 1.0005,2.1045 1.0005,3.396 L1.0005,4.236 L23.001,4.236 L23.001,3.396 L23.001,3.396 Z M1.0005,7.41 L1.0005,14.604 C1.0005,15.894 1.986,16.941 3.201,16.941 L20.799,16.941 C22.014,16.941 23.001,15.8955 23.001,14.604 L23.001,7.41 L1.0005,7.41 L1.0005,7.41 Z M15.4995,15.351 L16.9995,12.1755 L22.0005,12.1755 L20.5005,15.351 L15.4995,15.351 L15.4995,15.351 Z" id="形状"></path>
            </g>
        </g>
    </g>
</svg>