<?xml version="1.0" encoding="UTF-8"?>
<svg width="24px" height="19px" viewBox="0 0 24 19" version="1.1" xmlns="http://www.w3.org/2000/svg" xmlns:xlink="http://www.w3.org/1999/xlink">
    <!-- Generator: Sketch 59.1 (86144) - https://sketch.com -->
    <title>信用卡</title>
    <desc>Created with Sketch.</desc>
    <g id="页面-1" stroke="none" stroke-width="1" fill="none" fill-rule="evenodd">
        <g id="钱包--钱包-支付备份-5" transform="translate(-18.000000, -536.000000)" fill-rule="nonzero">
            <g id="信用卡" transform="translate(18.000000, 536.000000)">
                <rect id="矩形" fill="#000000" opacity="0" x="0" y="0" width="24" height="18"></rect>
                <path d="M21.4285714,0 L2.57142857,0 C1.11428571,0 0,1.11428571 0,2.57142857 L0,16.2857143 C0,17.7428571 1.11428571,18.8571429 2.57142857,18.8571429 L21.4285714,18.8571429 C22.8857143,18.8571429 24,17.7428571 24,16.2857143 L24,2.57142857 C24,1.11428571 22.8857143,0 21.4285714,0 Z M22.2857143,16.2857143 C22.2857143,16.8 21.9428571,17.1428571 21.4285714,17.1428571 L2.57142857,17.1428571 C2.05714286,17.1428571 1.71428571,16.8 1.71428571,16.2857143 L1.71428571,6.85714286 L22.2857143,6.85714286 L22.2857143,16.2857143 Z M22.2857143,5.14285714 L1.71428571,5.14285714 L1.71428571,2.57142857 C1.71428571,2.05714286 2.05714286,1.71428571 2.57142857,1.71428571 L21.4285714,1.71428571 C21.9428571,1.71428571 22.2857143,2.05714286 22.2857143,2.57142857 L22.2857143,5.14285714 Z M4.28571429,13.7142857 L7.71428571,13.7142857 C8.22857143,13.7142857 8.57142857,13.3714286 8.57142857,12.8571429 C8.57142857,12.3428571 8.22857143,12 7.71428571,12 L4.28571429,12 C3.77142857,12 3.42857143,12.3428571 3.42857143,12.8571429 C3.42857143,13.3714286 3.77142857,13.7142857 4.28571429,13.7142857 Z" id="行用卡" fill="#23C8FF"></path>
            </g>
        </g>
    </g>
</svg>