<?xml version="1.0" encoding="UTF-8"?>
<svg width="14px" height="14px" viewBox="0 0 14 14" version="1.1" xmlns="http://www.w3.org/2000/svg" xmlns:xlink="http://www.w3.org/1999/xlink">
    <title>形状</title>
    <g id="页面-2" stroke="none" stroke-width="1" fill="none" fill-rule="evenodd">
        <g id="短视频-设置-推广码" transform="translate(-16.000000, -491.000000)" fill="#FFFFFF" fill-rule="nonzero">
            <path d="M17.5555556,492.4 L17.5555556,495.9 L21.1851852,495.9 L21.1851852,492.4 L17.5555556,492.4 Z M16.691358,491 L22.2222222,491 L22.2222222,497.3 L16,497.3 L16,491.7 C16,491.313401 16.3095315,491 16.691358,491 Z M17.5555556,500.1 L17.5555556,503.6 L21.1851852,503.6 L21.1851852,500.1 L17.5555556,500.1 Z M16,498.7 L22.2222222,498.7 L22.2222222,505 L16.691358,505 C16.3095315,505 16,504.686599 16,504.3 L16,498.7 Z M25.3333333,492.4 L25.3333333,495.9 L28.962963,495.9 L28.962963,492.4 L25.3333333,492.4 Z M23.7777778,491 L29.308642,491 C29.6904685,491 30,491.313401 30,491.7 L30,497.3 L23.7777778,497.3 L23.7777778,491 L23.7777778,491 Z M24.2962963,498.7 L25.8518519,498.7 L25.8518519,505 L24.2962963,505 L24.2962963,498.7 Z M27.9259259,498.7 L29.4814815,498.7 L29.4814815,505 L27.9259259,505 L27.9259259,498.7 Z" id="形状"></path>
        </g>
    </g>
</svg>