<?xml version="1.0" encoding="UTF-8"?>
<svg width="26px" height="26px" viewBox="0 0 26 26" version="1.1" xmlns="http://www.w3.org/2000/svg" xmlns:xlink="http://www.w3.org/1999/xlink">
    <!-- Generator: Sketch 59.1 (86144) - https://sketch.com -->
    <title>编组 2备份</title>
    <desc>Created with Sketch.</desc>
    <g id="影院和社区" stroke="none" stroke-width="1" fill="none" fill-rule="evenodd">
        <g id="标签-未加载-未收藏" transform="translate(-167.000000, -595.000000)">
            <g id="分组-2" transform="translate(0.000000, 248.000000)">
                <g id="编组-2备份" transform="translate(167.000000, 347.000000)">
                    <circle id="椭圆形" fill="#000000" opacity="0.5" cx="13" cy="13" r="13"></circle>
                    <path d="M15.6158706,8.29201294 L21.0627701,16.406971 C21.4764474,17.0232801 21.3121819,17.8582491 20.6958727,18.2719263 C20.4743658,18.4206056 20.2136224,18.5 19.9468438,18.5 L9.0530448,18.5 C8.3107741,18.5 7.7090448,17.8982707 7.7090448,17.156 C7.7090448,16.8892214 7.7884392,16.628478 7.93711846,16.406971 L13.3840179,8.29201294 C13.7976952,7.67570384 14.6326642,7.51143829 15.2489733,7.92511556 C15.3939432,8.02242188 15.5185643,8.147043 15.6158706,8.29201294 Z" id="三角形" fill="#FFFFFF" opacity="0.899999976" transform="translate(14.500000, 13.000000) rotate(-270.000000) translate(-14.500000, -13.000000) "></path>
                </g>
            </g>
        </g>
    </g>
</svg>