<?xml version="1.0" encoding="UTF-8"?>
<svg width="42px" height="29px" viewBox="0 0 42 29" version="1.1" xmlns="http://www.w3.org/2000/svg" xmlns:xlink="http://www.w3.org/1999/xlink">
    <!-- Generator: Sketch 59.1 (86144) - https://sketch.com -->
    <title>上传视频</title>
    <desc>Created with Sketch.</desc>
    <g id="APP" stroke="none" stroke-width="1" fill="none" fill-rule="evenodd">
        <g id="首页-分享到-点击不感兴趣" transform="translate(-159.000000, -716.000000)">
            <g id="导航栏" transform="translate(0.467211, 707.000000)">
                <g id="上传视频" transform="translate(159.000000, 9.004926)">
                    <rect id="矩形" fill="#FE2C55" x="3.97297297" y="1.85240712e-13" width="37.4594595" height="28" rx="8"></rect>
                    <rect id="矩形" fill="#25F4EE" x="-3.73145959e-13" y="1.85240712e-13" width="37.4594595" height="28" rx="8"></rect>
                    <rect id="矩形" fill="#FFFFFF" x="2.27027027" y="1.85240712e-13" width="37.4594595" height="28" rx="8"></rect>
                    <path d="M21.1351351,7.84 C21.6874199,7.84 22.1351351,8.28771525 22.1351351,8.84 L22.1343243,12.319 L25.6756757,12.32 C26.2279604,12.32 26.6756757,12.7677153 26.6756757,13.32 L26.6756757,13.784 C26.6756757,14.3362847 26.2279604,14.784 25.6756757,14.784 L22.1343243,14.783 L22.1351351,19.16 C22.1351351,19.7122847 21.6874199,20.16 21.1351351,20.16 L20.8648649,20.16 C20.3125801,20.16 19.8648649,19.7122847 19.8648649,19.16 L19.8643243,14.783 L16.3243243,14.784 C15.7720396,14.784 15.3243243,14.3362847 15.3243243,13.784 L15.3243243,13.32 C15.3243243,12.7677153 15.7720396,12.32 16.3243243,12.32 L19.8643243,12.319 L19.8648649,8.84 C19.8648649,8.28771525 20.3125801,7.84 20.8648649,7.84 L21.1351351,7.84 Z" id="形状结合" fill="#000000"></path>
                </g>
            </g>
        </g>
    </g>
</svg>