<?xml version="1.0" encoding="UTF-8"?>
<svg width="40px" height="40px" viewBox="0 0 40 40" version="1.1" xmlns="http://www.w3.org/2000/svg" xmlns:xlink="http://www.w3.org/1999/xlink">
    <!-- Generator: Sketch 59.1 (86144) - https://sketch.com -->
    <title>编组</title>
    <desc>Created with Sketch.</desc>
    <g id="页面1" stroke="none" stroke-width="1" fill="none" fill-rule="evenodd">
        <g id="精品" transform="translate(-159.000000, -1008.000000)">
            <g id="编组-6" transform="translate(16.000000, 948.000000)">
                <g id="编组" transform="translate(143.000000, 60.000000)">
                    <circle id="椭圆形" fill="#111114" opacity="0.4" cx="20" cy="20" r="20"></circle>
                    <path d="M17.4712254,27.3684211 L28.2599598,27.3684211 C29.4226646,27.3684211 30.365223,26.4258626 30.365223,25.2631579 C30.365223,24.8683527 30.2542066,24.4815033 30.0448493,24.1467786 L24.6331628,15.4944663 C24.0166035,14.5086991 22.7176613,14.2093969 21.7318941,14.8259561 C21.4595196,14.9963158 21.2297467,15.226752 21.060173,15.4996164 L15.6831251,24.1519288 C15.0694102,25.1394694 15.3724558,26.4375434 16.3599963,27.0512582 C16.6935711,27.2585609 17.0784831,27.3684211 17.4712254,27.3684211 Z" id="路径-3" fill="#FFFFFF" transform="translate(22.872036, 20.000000) rotate(-270.000000) translate(-22.872036, -20.000000) "></path>
                </g>
            </g>
        </g>
    </g>
</svg>