<?xml version="1.0" encoding="UTF-8"?>
<svg width="20px" height="20px" viewBox="0 0 20 20" version="1.1" xmlns="http://www.w3.org/2000/svg" xmlns:xlink="http://www.w3.org/1999/xlink">
    <title>卡券@3x</title>
    <g id="页面-3" stroke="none" stroke-width="1" fill="none" fill-rule="evenodd">
        <g id="短视频-设置-优惠券" transform="translate(-16.000000, -437.000000)" fill-rule="nonzero">
            <g id="编组-3" transform="translate(16.000000, 436.000000)">
                <g id="卡券" transform="translate(0.000000, 1.000000)">
                    <rect id="矩形" fill="#000000" opacity="0" x="0" y="0" width="19.2" height="19.2"></rect>
                    <path d="M15.931875,2.23875 L15.931875,2.240625 L16.94625,2.240625 L16.94625,2.2425 L16.955625,2.2425 C17.595,2.2425 18.12375,2.71125 18.2175,3.324375 L18.2175,3.324375 L18.2175,6.620625 C18.2175,7.04625 17.8725,7.389375 17.44875,7.389375 L17.44875,7.389375 C17.42625,7.389375 17.401875,7.389375 17.379375,7.389375 C16.243125,7.389375 15.3225,8.311875 15.3225,9.448125 C15.3225,10.584375 16.243125,11.505 17.379375,11.505 L17.379375,11.505 L17.44875,11.503125 C17.874375,11.505 18.2175,11.85 18.2175,12.27375 L18.2175,12.27375 L18.2175,13.5375 C18.2175,13.963125 17.8725,14.30625 17.44875,14.30625 C17.023125,14.30625 16.68,13.96125 16.68,13.5375 L16.68,13.5375 L16.68,12.980625 C15.02625,12.654375 13.779375,11.1975 13.779375,9.448125 C13.779375,7.69875 15.02625,6.24 16.68,5.915625 L16.68,5.915625 L16.679625,4.19575 L16.6734697,4.15159465 C16.6240782,3.94062374 16.4394671,3.78241018 16.2156306,3.77294835 L2.32125,3.774375 L2.32125,5.91375 C3.975,6.24 5.221875,7.696875 5.221875,9.44625 C5.221875,11.195625 3.975,12.654375 2.32125,12.97875 L2.32125,12.97875 L2.320625,14.68775 L2.32965535,14.7465303 C2.37360457,14.9342553 2.52461663,15.0802086 2.71506079,15.1167595 L17.44875,15.11625 C17.874375,15.11625 18.2175,15.46125 18.2175,15.885 C18.2175,16.310625 17.8725,16.65375 17.44875,16.65375 L17.44875,16.65375 L1.9125,16.65375 C1.27875,16.57875 0.785625,16.040625 0.785625,15.38625 L0.785625,15.38625 L0.785625,12.271875 C0.785625,11.84625 1.130625,11.503125 1.554375,11.503125 L1.554375,11.503125 C1.576875,11.503125 1.60125,11.503125 1.62375,11.503125 C2.76,11.503125 3.680625,10.584375 3.680625,9.448125 C3.680625,8.311875 2.76,7.39125 1.62375,7.39125 L1.62375,7.39125 L1.554375,7.393125 C1.12875,7.39125 0.785625,7.04625 0.785625,6.6225 L0.785625,6.6225 L0.785625,4.535625 L0.7875,4.535625 L0.7875,3.52125 L0.789375,3.52125 C0.789375,2.840625 1.306875,2.289375 1.965,2.23875 L1.965,2.23875 L15.931875,2.23875 Z M12.054375,5.61375 C12.354375,5.91375 12.354375,6.399375 12.054375,6.699375 L10.602625,8.14975 L11.626875,8.150625 C12.050625,8.150625 12.39375,8.495625 12.39375,8.919375 C12.39375,9.343125 12.050625,9.688125 11.625,9.688125 L10.274625,9.68775 L10.274625,10.57475 L11.626875,10.575 C12.050625,10.576875 12.39375,10.92 12.39375,11.34375 C12.39375,11.7675 12.050625,12.1125 11.625,12.1125 L10.274625,12.11175 L10.275,13.108125 C10.275,13.531875 9.93,13.875 9.50625,13.875 C9.0825,13.875 8.7375,13.531875 8.7375,13.10625 L8.736625,12.11175 L7.385625,12.1125 C6.961875,12.1125 6.616875,11.769375 6.616875,11.34375 C6.616875,10.92 6.96,10.575 7.385625,10.575 L8.736625,10.57475 L8.736625,9.68775 L7.385625,9.688125 C6.961875,9.688125 6.616875,9.345 6.616875,8.919375 C6.616875,8.495625 6.96,8.150625 7.385625,8.150625 L8.447625,8.14975 L7.021875,6.725625 C6.721875,6.425625 6.721875,5.94 7.021875,5.64 C7.321875,5.34 7.8075,5.34 8.1075,5.64 L9.523625,7.05575 L10.96875,5.61375 C11.26875,5.31375 11.754375,5.31375 12.054375,5.61375 Z" id="形状结合" fill="#FFFFFF"></path>
                </g>
            </g>
        </g>
    </g>
</svg>