<?xml version="1.0" encoding="UTF-8"?>
<svg width="63px" height="63px" viewBox="0 0 63 63" version="1.1" xmlns="http://www.w3.org/2000/svg" xmlns:xlink="http://www.w3.org/1999/xlink">
    <!-- Generator: Sketch 59.1 (86144) - https://sketch.com -->
    <title>默认头像</title>
    <desc>Created with Sketch.</desc>
    <defs>
        <ellipse id="path-1" cx="31" cy="31.5" rx="31" ry="31.5"></ellipse>
    </defs>
    <g id="页面-1" stroke="none" stroke-width="1" fill="none" fill-rule="evenodd">
        <g id="默认头像">
            <g id="蒙版" transform="translate(0.227272, -0.000001)" fill="#D2D2D2" fill-rule="nonzero">
                <ellipse id="path-3" cx="31" cy="31.5" rx="31" ry="31.5"></ellipse>
            </g>
            <g id="Clipped" transform="translate(0.227272, -0.000001)">
                <mask id="mask-2" fill="white">
                    <use xlink:href="#path-1"></use>
                </mask>
                <g id="path-3"></g>
                <path d="M21.4351374,33.0047057 C21.3750884,28.432567 21.9811199,25.0180093 26.1741621,22.7142908 C27.0323683,22.2427912 29.0654368,21.9940935 30.0361427,21.9940935 C31.0996134,21.8833642 30.0467489,21.0000008 32.3928854,21.0000008 C34.7390218,21.0000008 38.0018306,22.05244 39.5613659,25.3100102 C41.1209541,28.5675805 41.2529249,32.1428327 41.2529249,32.9999777 C41.2529249,33.8571229 42.114561,33.4285503 42.114561,34.7142679 C42.114561,35.9999854 41.7428686,38.5439129 40.4208386,40.2719031 C39.0988085,41.999947 38.6680168,42.4285195 37.806328,43.7142372 C36.9446919,44.9999548 36.5138475,46.4017742 36.5138475,47.5713899 C36.5138475,51.8571151 43.7152548,52.1737764 47.8896174,54.8803325 C50.1491629,56.3453337 51.4833294,58.405136 51.8921699,61.0596315 L51.8922227,61.0596315 C52.033375,61.976305 51.4180036,62.8359216 50.5176892,62.9796924 C50.433133,62.9931929 50.3476742,63.0000008 50.2620847,63.0000008 L12.4227589,63.0000008 C11.5114689,63.0000008 10.7727277,62.2478364 10.7727277,61.3199879 C10.7727277,61.2308564 10.7796929,61.1418861 10.7935707,61.0538829 C11.2113289,58.402181 12.5428571,56.3443129 14.7880498,54.8803861 C18.938931,52.1738838 26.1741093,51.8571689 26.1741094,47.5714436 C26.1741094,46.4300879 25.743265,45.0000008 24.8816289,43.7142908 C24.0199929,42.4285733 23.5891485,42.0000008 22.2967207,40.2719568 C21.0042403,38.5439129 20.5734486,35.9999855 20.5734486,34.7143215 C20.5735014,33.4285502 21.4351374,33.8571229 21.4351374,33.0047057 Z" id="路径" fill="#FFFFFF" fill-rule="nonzero" mask="url(#mask-2)"></path>
            </g>
        </g>
    </g>
</svg>