<?xml version="1.0" encoding="UTF-8"?>
<svg width="48px" height="48px" viewBox="0 0 48 48" version="1.1" xmlns="http://www.w3.org/2000/svg" xmlns:xlink="http://www.w3.org/1999/xlink">
    <title>客服</title>
    <g id="页面-1" stroke="none" stroke-width="1" fill="none" fill-rule="evenodd" opacity="0.5">
        <g id="约炮/全国楼凤备份-6" transform="translate(-221.000000, -653.000000)" fill="#000000" fill-rule="nonzero">
            <g id="客服" transform="translate(221.000000, 653.000000)">
                <rect id="矩形" opacity="0" x="0" y="0" width="48" height="48"></rect>
                <path d="M24.2075066,37.8717577 C24.4497976,37.8717577 24.6968864,37.8573642 24.9439752,37.8309761 C27.3213054,37.5551002 29.3411965,35.9478235 30.0848618,33.7336199 C30.1397658,33.567018 30.0572067,33.386224 29.8953471,33.3186066 C29.7319884,33.2475486 29.5412253,33.3067158 29.446749,33.457744 C29.4371533,33.4697386 28.4919786,34.9450747 24.8168324,35.4248588 C24.2650807,35.4968264 23.7301214,35.5352092 23.2215503,35.5352092 C20.6451097,35.5352092 19.4960268,34.5948323 19.4864311,34.5852367 C19.3538164,34.4736602 19.1607485,34.4716491 19.0258384,34.5804388 C18.8931284,34.6878842 18.8621631,34.8778049 18.9538708,35.0218402 C20.1109183,36.7986206 22.0871985,37.8706849 24.2075066,37.8717577 L24.2075066,37.8717577 Z M43.9818082,15.840072 C43.9482233,15.840072 43.9194363,15.8472687 43.8882503,15.8472687 C41.7340197,6.82732767 33.5009246,0.100754672 23.6293668,0.100754672 C13.486731,0.100754672 5.0617222,7.2015593 3.19536211,16.5909341 C1.3817782,16.9075916 0,18.4500975 0,20.3140587 L0,27.7794992 C0,29.8713579 1.73441953,31.5673947 3.87905442,31.5673947 C5.08811034,31.5673947 6.15323105,31.015643 6.8633115,30.168824 C8.57853966,34.5540507 12.068969,38.0876605 16.4877805,39.9540207 C16.5440609,39.8467605 16.609898,39.7447934 16.684492,39.6493578 C16.7540607,39.5629966 16.8308261,39.491029 16.8979959,39.491029 C16.9649519,39.4919193 17.0301132,39.5128044 17.0851117,39.551002 C16.0631716,38.8169324 12.368834,35.0338348 11.5675946,29.7538108 C11.2173522,27.4292568 13.0189415,25.1478834 15.115598,24.7712529 C18.4812834,24.166725 21.8301764,23.4758359 25.1958619,22.8809036 C27.335699,22.5042731 28.7990404,21.3695837 29.6938378,19.4792343 C29.9025438,19.0378329 30.2048078,18.1454345 30.3439452,16.8572143 C30.3799783,16.6605499 30.5518258,16.5180176 30.7517617,16.5189665 C30.8908991,16.5189665 31.0084462,16.5861362 31.0876106,16.6868909 L31.1787696,16.6293168 C32.5053726,18.493278 35.1369884,22.6146234 35.5160178,26.9638663 C35.9478235,31.9344295 35.7079314,35.3360988 31.7713029,38.8193313 C31.7058784,38.8770268 31.6683228,38.9599986 31.6681493,39.0472288 C31.6681493,39.1551802 31.7257234,39.2463392 31.8120846,39.3015143 L31.9080414,39.3446949 C31.9368285,39.3518917 31.9608176,39.3590884 31.9872058,39.3590884 C32.0159928,39.3590884 32.0375831,39.3518917 32.0615723,39.3446949 L32.2246989,39.2559348 C36.2069069,37.1352891 39.2583337,33.5944825 40.668899,29.3387976 C41.242241,30.1592284 42.1346394,30.7493628 43.173372,30.95567 C41.5085212,38.2795742 34.7483632,42.8663102 26.3761307,43.5619971 C25.8238585,42.2962384 24.5664363,41.4850593 23.1855665,41.5037233 C21.2928182,41.5037233 19.7551102,42.9526713 19.7551102,44.742266 C19.7551102,46.5294617 21.2928182,47.9784097 23.1855665,47.9784097 C24.7160778,47.9784097 25.9947024,47.0308361 26.4385027,45.7258234 C36.1301414,44.9653656 43.9026438,39.3950722 45.5243141,30.742166 C46.9564696,30.1616272 47.9640162,28.8038383 47.9640162,27.2157529 L47.9640162,19.6663501 C47.9640162,17.5553001 46.1816182,15.8424709 43.9818082,15.8424709 L43.9818082,15.840072 Z M40.4074167,18.011095 C37.8789545,11.3900745 31.3275026,6.66180216 23.6197711,6.6618022 C15.9456245,6.6618022 9.4181618,11.3516917 6.86571042,17.9271328 C6.74096658,17.7783997 6.58983455,17.648858 6.44589933,17.5193163 C7.89004945,9.50452298 15.024439,3.41126494 23.6293668,3.41126494 C32.1935129,3.41126494 39.3039132,9.44454994 40.7960418,17.4041681 C40.6497076,17.5960818 40.5129691,17.7951922 40.4050177,18.011095 L40.4074167,18.011095 Z" id="形状"></path>
            </g>
        </g>
    </g>
</svg>