<?xml version="1.0" encoding="UTF-8"?>
<svg width="44px" height="44px" viewBox="0 0 44 44" version="1.1" xmlns="http://www.w3.org/2000/svg" xmlns:xlink="http://www.w3.org/1999/xlink">
    <title>yuyin</title>
    <desc>Created with Sketch.</desc>
    <defs>
        <path d="M35.86,17.6 C36.9535238,17.6 37.84,18.3879788 37.84,19.36 L37.84,19.36 L37.84,22.88 C37.84,30.1356654 31.6658077,36.1094997 23.7328067,36.8767178 L23.732,40.48 L28.93,40.48 C29.8389917,40.48 30.5844804,41.1911509 30.6567568,42.0956526 L30.6625,42.24 C30.6625,43.2120212 29.8868333,44 28.93,44 L28.93,44 L15.07,44 C14.1131667,44 13.3375,43.2120212 13.3375,42.24 C13.3375,41.2679788 14.1131667,40.48 15.07,40.48 L15.07,40.48 L20.267,40.48 L20.2671933,36.8767178 C12.4418138,36.119908 6.32784557,30.2967927 6.16339795,23.17458 L6.16,22.88 L6.16,19.36 C6.16,18.3879788 7.0464762,17.6 8.14,17.6 C9.2335238,17.6 10.12,18.3879788 10.12,19.36 L10.12,19.36 L10.12,22.88 C10.1200001,28.7121269 15.4388572,33.4399998 22,33.4399998 C28.5611428,33.4399998 33.8799999,28.7121269 33.88,22.88 L33.88,22.88 L33.88,19.36 C33.88,18.3879788 34.7664762,17.6 35.86,17.6 Z M22,1.76 C26.9208571,1.76 30.91,5.54721831 30.91,9.43530295 L30.91,22.3665818 C30.91,26.2546664 26.9208571,29.92 22,29.92 C17.0791429,29.92 13.09,26.2546664 13.09,22.3665818 L13.09,9.43530295 C13.09,5.54721831 17.0791429,1.76 22,1.76 Z M22,5.39586857 C19.2661905,5.39586857 17.05,7.57775289 17.05,9.52179521 L17.05,21.8742857 C17.05,23.818328 19.2661905,26.0683247 22,26.0683247 C24.7338095,26.0683247 26.95,23.818328 26.95,21.8742857 L26.95,9.52179521 C26.95,7.57775289 24.7338095,5.39586857 22,5.39586857 Z" id="path-1"></path>
    </defs>
    <g id="页面-1" stroke="none" stroke-width="1" fill="none" fill-rule="evenodd">
        <g id="all-icon" transform="translate(-476.000000, -1885.000000)">
            <g id="语音" transform="translate(470.000000, 1884.000000)">
                <g>
                    <rect id="矩形" fill="#000000" fill-rule="nonzero" opacity="0" x="0" y="0" width="44" height="44"></rect>
                    <mask id="mask-2" fill="white">
                        <use xlink:href="#path-1"></use>
                    </mask>
                    <use id="Combined-Shape" fill="#000000" fill-rule="nonzero" xlink:href="#path-1"></use>
                </g>
            </g>
        </g>
    </g>
</svg>