<?xml version="1.0" encoding="UTF-8"?>
<svg width="16px" height="16px" viewBox="0 0 16 16" version="1.1" xmlns="http://www.w3.org/2000/svg" xmlns:xlink="http://www.w3.org/1999/xlink">
    <title>键盘</title>
    <g id="页面-3" stroke="none" stroke-width="1" fill="none" fill-rule="evenodd">
        <g id="撩吧备份-18" transform="translate(-214.000000, -683.000000)" fill="#000000" fill-rule="nonzero">
            <g id="键盘" transform="translate(214.000000, 683.000000)">
                <rect id="矩形" opacity="0" x="0" y="0" width="16" height="16"></rect>
                <path d="M8.02326423,1.05355769 C4.18684133,1.05355769 1.07678994,4.16362506 1.07678994,8.00004797 C1.07678994,11.8364709 4.18684133,14.9464423 8.02326423,14.9464423 C11.8596871,14.9464423 14.9696746,11.8364709 14.9696746,8.00004797 C14.9696746,4.16362506 11.8596871,1.05355769 8.02326423,1.05355769 Z M8.02326423,14.1067236 C4.65055892,14.1067236 1.91650861,11.3727373 1.91650861,8.00003198 C1.91650861,4.62731069 4.65055892,1.89326038 8.02326423,1.89326038 C11.3959855,1.89326038 14.1299719,4.62731069 14.1299719,8.00003198 C14.1299719,11.3727373 11.3959855,14.1067236 8.02326423,14.1067236 Z M6.64290411,6.61967186 L7.19502577,6.61967186 C7.34743444,6.61967186 7.47114256,6.49597972 7.47114256,6.34357106 L7.47114256,5.23929577 C7.47114256,5.08695106 7.34743444,4.96327491 7.19502577,4.96327491 L6.64290411,4.96327491 C6.49049544,4.96327491 6.36678731,5.08696705 6.36678731,5.23929577 L6.36678731,6.34357106 C6.36680331,6.49597972 6.49049544,6.61967186 6.64290411,6.61967186 Z M6.64290411,9.10430728 L7.19502577,9.10430728 C7.34743444,9.10430728 7.47114256,8.98061514 7.47114256,8.82820648 L7.47114256,7.72393117 C7.47114256,7.5715225 7.34743444,7.44791031 7.19502577,7.44791031 L6.64290411,7.44791031 C6.49049544,7.44791031 6.36678731,7.5715225 6.36678731,7.72393117 L6.36678731,8.82820647 C6.36680331,8.98061514 6.49049544,9.10430728 6.64290411,9.10430728 Z M8.85142273,6.61967186 L9.40356039,6.61967186 C9.55596906,6.61967186 9.67966119,6.49597972 9.67966119,6.34357106 L9.67966119,5.23929577 C9.67966119,5.08695106 9.55596905,4.96327491 9.40356039,4.96327491 L8.85142273,4.96327491 C8.69907803,4.96327491 8.57540187,5.08696705 8.57540187,5.23929577 L8.57540187,6.34357106 C8.57540187,6.49597972 8.69909402,6.61967186 8.85142273,6.61967186 Z M8.85142273,9.10430728 L9.40356039,9.10430728 C9.55596906,9.10430728 9.67966119,8.98061514 9.67966119,8.82820648 L9.67966119,7.72393117 C9.67966119,7.5715225 9.55596905,7.44791031 9.40356039,7.44791031 L8.85142273,7.44791031 C8.69907803,7.44791031 8.57540188,7.5715225 8.57540188,7.72393117 L8.57540188,8.82820647 C8.57540188,8.98061514 8.69909402,9.10430728 8.85142273,9.10430728 Z M4.4343695,6.61967186 L4.98649116,6.61967186 C5.13885186,6.61967186 5.262528,6.49597972 5.262528,6.34357106 L5.262528,5.23929577 C5.262528,5.08695106 5.13883586,4.96327491 4.98649116,4.96327491 L4.4343695,4.96327491 C4.28196083,4.96327491 4.1582527,5.08696705 4.1582527,5.23929577 L4.1582527,6.34357106 C4.15826869,6.49597972 4.28196083,6.61967186 4.4343695,6.61967186 Z M11.612175,4.96327491 L11.0600373,4.96327491 C10.9076286,4.96327491 10.7839365,5.08696705 10.7839365,5.23929577 L10.7839365,6.34357106 C10.7839365,6.49597973 10.9076286,6.61967186 11.0600373,6.61967186 L11.612175,6.61967186 C11.7645836,6.61967186 11.8881958,6.49597972 11.8881958,6.34357106 L11.8881958,5.23929577 C11.8881958,5.08695105 11.7645836,4.96327491 11.612175,4.96327491 Z M5.262544,8.82820647 L5.262544,7.72393117 C5.262544,7.5715225 5.13885186,7.44791031 4.98650716,7.44791031 L4.4343855,7.44791031 C4.28197683,7.44791031 4.1582687,7.5715225 4.1582687,7.72393117 L4.1582687,8.82820647 C4.1582687,8.98061514 4.28197683,9.10430727 4.4343855,9.10430727 L4.98650716,9.10430727 C5.13885186,9.10430727 5.262544,8.98061514 5.262544,8.82820647 Z M11.612175,7.44791031 L11.0600373,7.44791031 C10.9076286,7.44791031 10.7839365,7.5715225 10.7839365,7.72393117 L10.7839365,8.82820647 C10.7839365,8.98061514 10.9076286,9.10430727 11.0600373,9.10430727 L11.612175,9.10430727 C11.7645836,9.10430727 11.8881958,8.98061512 11.8881958,8.82820647 L11.8881958,7.72393117 C11.8881958,7.5715225 11.7645836,7.44791031 11.612175,7.44791031 Z M11.0600373,10.2085826 L4.98649116,10.2085826 C4.83408248,10.2085826 4.71039036,10.3322747 4.71039036,10.4846834 L4.71039036,10.7607042 C4.71039036,10.9131129 4.8340825,11.036821 4.98649116,11.036821 L11.0600373,11.036821 C11.212382,11.036821 11.3360741,10.9131129 11.3360741,10.7607042 L11.3360741,10.4846834 C11.3360741,10.3322587 11.212382,10.2085826 11.0600373,10.2085826 Z" id="形状"></path>
            </g>
        </g>
    </g>
</svg>