<?xml version="1.0" encoding="UTF-8"?>
<svg width="16px" height="16px" viewBox="0 0 16 16" version="1.1" xmlns="http://www.w3.org/2000/svg" xmlns:xlink="http://www.w3.org/1999/xlink">
    <title>语音备份 2</title>
    <g id="页面-3" stroke="none" stroke-width="1" fill="none" fill-rule="evenodd">
        <g id="撩吧备份-18" transform="translate(-322.000000, -642.000000)" fill="#000000" fill-rule="nonzero">
            <g id="语音备份-2" transform="translate(330.000000, 650.000000) rotate(-180.000000) translate(-330.000000, -650.000000) translate(322.000000, 642.000000)">
                <rect id="矩形" opacity="0" x="0" y="0" width="16" height="16"></rect>
                <path d="M7.30396041,3.79503677 C7.02359606,3.54427128 6.59955586,3.54427128 6.31919151,3.79503677 C6.06384392,4.07363493 6.06384392,4.50120751 6.31919151,4.77980567 C8.13445983,6.60455221 8.13445983,9.55301081 6.31919151,11.3777573 C6.06842601,11.6581217 6.06842601,12.0821619 6.31919151,12.3625263 C6.59778967,12.6178739 7.02536226,12.6178739 7.30396041,12.3625263 C9.61782447,9.97538392 9.61782447,6.18217911 7.30396041,3.79503677 L7.30396041,3.79503677 Z M2.97097722,7.15309874 C2.74004761,7.38235232 2.61017088,7.69429456 2.61017088,8.01969538 C2.61017088,8.34509619 2.74004761,8.65703843 2.97097722,8.88629202 C3.32217443,9.24058213 3.85247658,9.34787963 4.31378018,9.15798503 C4.77508377,8.96809043 5.07616691,8.51855504 5.07616691,8.01969538 C5.07616691,7.52083571 4.77508377,7.07130032 4.31378018,6.88140572 C3.85247658,6.69151113 3.32217443,6.79880862 2.97097722,7.15309874 L2.97097722,7.15309874 Z" id="形状"></path>
            </g>
        </g>
    </g>
</svg>