<?xml version="1.0" encoding="UTF-8"?>
<svg width="14px" height="14px" viewBox="0 0 14 14" version="1.1" xmlns="http://www.w3.org/2000/svg" xmlns:xlink="http://www.w3.org/1999/xlink">
    <title>编组 2</title>
    <g id="页面-3" stroke="none" stroke-width="1" fill="none" fill-rule="evenodd">
        <g id="撩吧备份-18" transform="translate(-190.000000, -684.000000)">
            <g id="编组-2" transform="translate(191.000000, 685.000000)">
                <g id="喇叭" transform="translate(1.500000, 1.500000)" fill="#000000" fill-rule="nonzero">
                    <rect id="矩形" opacity="0" x="0" y="0" width="9.6" height="9.6"></rect>
                    <path d="M8.01744726,4.80317881 C8.01596046,3.69915278 7.28107432,2.73055727 6.21824196,2.43178807 C6.12175377,2.40788832 6.01964075,2.43050058 5.94226333,2.49290173 C5.8648859,2.55530288 5.82115389,2.65030758 5.82406977,2.74966887 C5.81786994,2.89474011 5.91076131,3.02557303 6.04976513,3.06754967 C6.83634783,3.28911252 7.37969268,4.00664926 7.37969268,4.82384106 C7.37969268,5.64103286 6.83634783,6.3585696 6.04976513,6.58013245 C5.91076131,6.6221091 5.81786994,6.75294201 5.82406977,6.89801324 C5.82115389,6.99737453 5.8648859,7.09237924 5.94226333,7.15478038 C6.01964075,7.21718153 6.12175377,7.23979379 6.21824196,7.21589404 C7.29596611,6.9130803 8.03465658,5.92250421 8.01744726,4.80317881 L8.01744726,4.80317881 Z M4.95943402,0 C4.86172014,0.00850102784 4.7698013,0.0499765979 4.69877176,0.117615891 L4.59704991,0.206622516 L3.56711613,1.04582782 L2.10168567,2.25059603 L0.782480372,2.25059603 C0.431358939,2.25059603 0.146718778,2.53523619 0.146718778,2.88635762 L0.146718778,6.64370861 C0.146718778,6.99483004 0.431358943,7.2794702 0.782480372,7.2794702 L2.01903667,7.2794702 L3.52261282,8.51602649 L4.56526183,9.37112583 L4.70195057,9.48238411 C4.77298011,9.5500234 4.86489895,9.59149897 4.96261282,9.6 C5.07387111,9.6 5.15016249,9.51735099 5.17877176,9.37112583 C5.18251895,9.33201007 5.18251895,9.2926257 5.17877176,9.25350994 L5.17877176,0.349668872 C5.18391584,0.303188249 5.18391584,0.256281948 5.17877176,0.209801325 C5.14380487,0.0731125875 5.06433467,0 4.95943402,0 Z M3.00764593,7.26675497 L2.24791084,6.63099338 L0.782480372,6.63099338 L0.782480372,2.88635762 L2.32738103,2.88635762 L3.06486447,2.28238411 L4.55254659,1.05854304 L4.55254659,8.53827815 L3.00764593,7.26675497 Z" id="形状"></path>
                    <path d="M6.87943402,0.670728478 C6.78131499,0.622647906 6.66537872,0.628330767 6.5724323,0.685776816 C6.47948588,0.743222864 6.42255785,0.844379743 6.42166255,0.953642381 C6.42203181,1.07591823 6.49248288,1.18715676 6.60287772,1.2397351 C7.95493693,1.90317639 8.81177154,3.27804539 8.81177154,4.78410596 C8.81177154,6.29016653 7.95493693,7.66503553 6.60287772,8.32847682 C6.49248288,8.38105516 6.42203181,8.49229369 6.42166255,8.61456953 C6.4203567,8.72496212 6.47640005,8.82813891 6.56972711,8.88711643 C6.66305418,8.94609395 6.78029846,8.95242531 6.87943402,8.90384106 C8.45259588,8.13483127 9.4501991,6.53675627 9.4501991,4.78569536 C9.4501991,3.03463445 8.45259588,1.43655946 6.87943402,0.667549669 L6.87943402,0.670728478 Z" id="路径"></path>
                </g>
                <circle id="椭圆形" stroke="#000000" stroke-width="0.7" cx="6.3" cy="6.3" r="6.3"></circle>
            </g>
        </g>
    </g>
</svg>