<?xml version="1.0" encoding="UTF-8"?>
<svg width="16px" height="16px" viewBox="0 0 16 16" version="1.1" xmlns="http://www.w3.org/2000/svg" xmlns:xlink="http://www.w3.org/1999/xlink">
    <title>图片</title>
    <g id="页面-1" stroke="none" stroke-width="1" fill="none" fill-rule="evenodd">
        <g id="画板" transform="translate(-590.000000, -838.000000)" fill-rule="nonzero">
            <g id="图片" transform="translate(590.000000, 838.000000)">
                <rect id="矩形" fill="#000000" opacity="0" x="0" y="0" width="16" height="16"></rect>
                <path d="M8,0 C3.58170313,0 0,3.58171875 0,8 C0,12.4182812 3.58170313,16 8,16 C12.4182812,16 16,12.4182812 16,8 C16,3.58171875 12.4182812,0 8,0 Z M8,15.2 C4.02351562,15.2 0.8,11.9764844 0.8,8 C0.8,4.02351562 4.02351562,0.8 8,0.8 C11.9765625,0.8 15.2,4.02351562 15.2,8 C15.2,11.9764844 11.9765625,15.2 8,15.2 Z M13.9801406,11.7276562 L2.01984375,11.7276562 L4.664375,7.66445312 L6.54157812,10.5486719 L9.88771875,5.26265625 L13.9801406,11.7276562 Z M5.264375,4.58695313 C5.264375,4.91828125 4.99578125,5.18695313 4.664375,5.18695313 C4.33304688,5.18695313 4.06439063,4.91828125 4.06439063,4.58695313 C4.06439063,4.255625 4.33304688,3.98695313 4.664375,3.98695313 C4.99576563,3.98695313 5.264375,4.255625 5.264375,4.58695313 Z" id="形状" fill="#54A6E3"></path>
            </g>
        </g>
    </g>
</svg>