<?xml version="1.0" encoding="UTF-8"?>
<svg width="16px" height="18px" viewBox="0 0 16 18" version="1.1" xmlns="http://www.w3.org/2000/svg" xmlns:xlink="http://www.w3.org/1999/xlink">
    <!-- Generator: Sketch 59.1 (86144) - https://sketch.com -->
    <title>形状</title>
    <desc>Created with Sketch.</desc>
    <g id="APP" stroke="none" stroke-width="1" fill="none" fill-rule="evenodd">
        <g id="我-左滑-设置" transform="translate(-15.000000, -95.000000)" fill="#FFFFFF" fill-rule="nonzero" stroke="#FFFFFF" stroke-width="0.6">
            <g id="分组-4" transform="translate(15.000000, 94.000000)">
                <g id="分组">
                    <g id="5_safety-certificate-f" transform="translate(0.000000, 1.000000)">
                        <g id="分组" transform="translate(0.998184, 0.964844)">
                            <path d="M3.22059575,4.80068084 C3.22059575,2.71693617 4.91591489,1.02127659 7,1.02127659 C9.08374469,1.02127659 10.7790638,2.71693617 10.7790638,4.80068084 L10.7790638,5.54553192 L3.22059575,5.54553192 L3.22059575,4.80068084 Z M11.9361702,5.54553192 L11.8003404,5.54553192 L11.8003404,4.77719148 C11.8003404,4.76902128 11.7982979,4.76119148 11.7979575,4.7533617 C11.7720851,2.12834042 9.63080852,0 7,0 C4.36885106,0 2.22757447,2.12834042 2.20170212,4.7533617 C2.2013617,4.76153192 2.19931916,4.76902128 2.19931916,4.77719148 L2.19931916,5.54553192 L2.06382978,5.54553192 C1.03131916,5.54553192 0.191489359,6.3853617 0.191489359,7.41753192 L0.191489359,12.4291915 C0.191489359,12.7114043 0.419914891,12.9398298 0.702127656,12.9398298 C0.984,12.9398298 1.21276595,12.7114043 1.21276595,12.4291915 L1.21276595,7.41753192 C1.21276595,6.94842553 1.59438298,6.56646808 2.06382978,6.56646808 L11.9361702,6.56646808 C12.4052766,6.56646808 12.787234,6.94842553 12.787234,7.41753192 L12.787234,12.4483404 C12.787234,14.130383 12.1666383,14.8166808 10.6459575,14.8166808 L3.35370212,14.8166808 C1.83302128,14.8166808 1.21276595,14.130383 1.21276595,12.4483404 C1.21276595,12.1664681 0.984,11.9377021 0.702127656,11.9377021 C0.419914891,11.9377021 0.191489359,12.1664681 0.191489359,12.4483404 C0.191489359,14.6975319 1.25531916,15.8379575 3.35370212,15.8379575 L10.6459575,15.8379575 C12.7446808,15.8379575 13.8085106,14.6975319 13.8085106,12.4483404 L13.8085106,7.41753192 C13.8085106,6.3853617 12.9683404,5.54553192 11.9361702,5.54553192 Z M6.99986383,13.0580766 C7.38794894,13.0580766 7.70352341,12.7350128 7.70352341,12.3377362 L7.70352341,10.6369702 C8.03373617,10.4010553 8.23492766,10.0105872 8.23492766,9.59424681 C8.23492766,8.89433192 7.68071489,8.3248 6.99986383,8.3248 C6.31901277,8.3248 5.7648,8.89433192 5.7648,9.59424681 C5.7648,10.0105872 5.96633192,10.4013958 6.29688511,10.6369702 L6.29688511,12.3377362 C6.29688511,12.7350128 6.61211916,13.0580766 6.99986383,13.0580766 Z" id="形状"></path>
                        </g>
                    </g>
                </g>
            </g>
        </g>
    </g>
</svg>