<?xml version="1.0" encoding="UTF-8"?>
<svg width="15px" height="16px" viewBox="0 0 15 16" version="1.1" xmlns="http://www.w3.org/2000/svg" xmlns:xlink="http://www.w3.org/1999/xlink">
    <!-- Generator: Sketch 59.1 (86144) - https://sketch.com -->
    <title>5_qlhc</title>
    <desc>Created with Sketch.</desc>
    <g id="APP" stroke="none" stroke-width="1" fill="none" fill-rule="evenodd">
        <g id="我-左滑-设置" transform="translate(-16.000000, -325.000000)" fill="#FFFFFF" fill-rule="nonzero" stroke="#FFFFFF" stroke-width="0.66">
            <g id="分组-13" transform="translate(16.000000, 322.000000)">
                <g id="分组-6" transform="translate(0.000000, 0.000000)">
                    <g id="5_qlhc" transform="translate(0.500000, 3.000000)">
                        <path d="M4.5359375,1.25625 L9.46875,1.25625 C9.6765625,1.25625 9.84375,1.0890625 9.84375,0.88125 C9.84375,0.6734375 9.6765625,0.50625 9.46875,0.50625 L4.5359375,0.50625 C4.328125,0.50625 4.1609375,0.6734375 4.1609375,0.88125 C4.1609375,1.0890625 4.328125,1.25625 4.5359375,1.25625 Z M5.5953125,12 L5.5953125,5.575 C5.5953125,5.3671875 5.428125,5.2 5.2203125,5.2 C5.0125,5.2 4.8453125,5.3671875 4.8453125,5.575 L4.8453125,12 C4.8453125,12.2078125 5.0125,12.375 5.2203125,12.375 C5.4265625,12.375 5.5953125,12.2078125 5.5953125,12 Z M11.7296875,4.9515625 C11.521875,4.9515625 11.3546875,5.11875 11.3546875,5.3265625 L11.3546875,13.5359375 C11.35625,13.7625 11.2859375,13.9609375 11.1984375,14.0828125 C11.10625,14.2078125 11.021875,14.2421875 10.9578125,14.2421875 L3.0484375,14.2421875 C2.984375,14.2421875 2.9,14.2078125 2.8078125,14.0828125 C2.71875,13.9609375 2.65,13.7625 2.6515625,13.5359375 L2.6515625,5.3265625 C2.6515625,5.11875 2.484375,4.9515625 2.2765625,4.9515625 C2.06875,4.9515625 1.9015625,5.11875 1.9015625,5.3265625 L1.9015625,13.5359375 C1.903125,13.90625 2.00625,14.25 2.196875,14.51875 C2.384375,14.7859375 2.6859375,14.9921875 3.0484375,14.9921875 L10.9578125,14.9921875 C11.3203125,14.9921875 11.621875,14.784375 11.809375,14.51875 C12,14.25 12.1046875,13.90625 12.1046875,13.5359375 L12.1046875,5.3265625 C12.1046875,5.1203125 11.9359375,4.9515625 11.7296875,4.9515625 Z M13.61875,2.8203125 L0.38125,2.8203125 C0.1734375,2.8203125 0.00625,2.9875 0.00625,3.1953125 C0.00625,3.403125 0.1734375,3.5703125 0.38125,3.5703125 L13.6171875,3.5703125 C13.825,3.5703125 13.9921983,3.403125 13.9921983,3.1953125 C13.99375,2.9890625 13.825,2.8203125 13.61875,2.8203125 Z M9.175,12 L9.175,5.575 C9.175,5.3671875 9.0078125,5.2 8.8,5.2 C8.5921875,5.2 8.425,5.3671875 8.425,5.575 L8.425,12 C8.425,12.2078125 8.5921875,12.375 8.8,12.375 C9.0078125,12.375 9.175,12.2078125 9.175,12 Z"></path>
                    </g>
                </g>
            </g>
        </g>
    </g>
</svg>