<?xml version="1.0" encoding="UTF-8"?>
<svg width="19px" height="18px" viewBox="0 0 19 18" version="1.1" xmlns="http://www.w3.org/2000/svg" xmlns:xlink="http://www.w3.org/1999/xlink">
    <!-- Generator: Sketch 59.1 (86144) - https://sketch.com -->
    <title>1_cs_xqu</title>
    <desc>Created with Sketch.</desc>
    <g id="APP" stroke="none" stroke-width="1" fill="none" fill-rule="evenodd">
        <g id="我-左滑" transform="translate(-146.000000, -112.000000)" fill="#FFFFFF" stroke="#FFFFFF" stroke-width="1.6">
            <g id="分组-2" transform="translate(146.000000, 55.000000)">
                <g id="5_skin-fill" transform="translate(0.000000, 4.000000)">
                    <path d="M9.10415091,67.231536 L5.45268462,69.3106916 C5.06873608,69.529313 4.58025662,69.3952889 4.3616352,69.0113403 C4.26544519,68.842409 4.23405715,68.6442327 4.27333663,68.4538451 L5.12236593,64.3385999 C5.17942627,64.0620284 5.08644516,63.775862 4.87771774,63.5856502 L1.77195816,60.7553938 C1.44539022,60.4577948 1.42190627,59.9518074 1.71950529,59.6252395 C1.85044422,59.4815547 2.02922159,59.3904631 2.22242901,59.3689871 L6.39862426,58.9047812 C6.67929199,58.8735835 6.9227197,58.6967229 7.03912155,58.4394327 L8.77112286,54.6110825 C8.9532413,54.2085348 9.42720689,54.0298415 9.82975462,54.21196 C10.0068693,54.2920892 10.1487479,54.4339678 10.2288771,54.6110825 L11.9608784,58.4394327 C12.0772803,58.6967229 12.320708,58.8735835 12.6013757,58.9047812 L16.777571,59.3689871 C17.2166943,59.4177979 17.5331051,59.8133467 17.4842943,60.2524701 C17.4628183,60.4456775 17.3717266,60.6244548 17.2280418,60.7553938 L14.1222823,63.5856502 C13.9135548,63.775862 13.8205737,64.0620284 13.8776341,64.3385999 L14.7266634,68.4538451 C14.8159381,68.8865596 14.5375251,69.3097154 14.1048106,69.3989901 C13.914423,69.4382696 13.7162467,69.4068816 13.5473154,69.3106916 L9.89584909,67.231536 C9.6504466,67.0918031 9.3495534,67.0918031 9.10415091,67.231536 Z" id="1_cs_xqu"></path>
                </g>
            </g>
        </g>
    </g>
</svg>