<?xml version="1.0" encoding="UTF-8"?>
<svg width="16px" height="17px" viewBox="0 0 16 17" version="1.1" xmlns="http://www.w3.org/2000/svg" xmlns:xlink="http://www.w3.org/1999/xlink">
    <!-- Generator: Sketch 59.1 (86144) - https://sketch.com -->
    <title>5_bbgx</title>
    <desc>Created with Sketch.</desc>
    <g id="APP" stroke="none" stroke-width="1" fill="none" fill-rule="evenodd">
        <g id="我-左滑-设置" transform="translate(-16.000000, -381.000000)" fill="#FFFFFF" fill-rule="nonzero">
            <g id="分组-14" transform="translate(16.000000, 379.000000)">
                <g id="分组-7" transform="translate(0.000000, 0.000000)">
                    <g id="分组-8">
                        <g id="5_bbgx" transform="translate(0.000000, 2.500000)">
                            <path d="M7.93986771,-3.49054119e-13 C3.55478854,-3.49054119e-13 9.41469125e-14,3.577125 9.41469125e-14,7.98975 C9.41469125e-14,12.402375 3.55478854,15.9795 7.93986771,15.9795 C12.3249469,15.9795 15.8797354,12.4023571 15.8797354,7.98975 C15.8797354,3.57714286 12.3249292,-3.49054119e-13 7.93986771,-3.49054119e-13 Z M7.93627292,14.7065 C4.26501667,14.7065 1.28888333,11.7116786 1.28888333,8.01735714 C1.28888333,4.32303571 4.26501667,1.32821429 7.93627292,1.32821429 C11.6075292,1.32821429 14.5836625,4.32303571 14.5836625,8.01735714 C14.5836625,11.7116786 11.6075292,14.7065 7.93627292,14.7065 Z" id="形状"></path>
                            <path d="M11.2351941,6.72047942 L7.95585571,3.41999591 C7.95536957,3.41950663 7.9547673,3.41914863 7.95410521,3.41895536 C7.95348308,3.41877375 7.95281145,3.41894683 7.95235457,3.41940649 L4.61446861,6.77762619 C4.39293547,7.00050887 4.39283457,7.36041279 4.61424271,7.58341964 C4.83371942,7.80448112 5.19084618,7.80576583 5.41190766,7.58628912 C5.41281844,7.58538487 5.41372613,7.58447751 5.41463072,7.58356706 L7.38975833,5.59564286 L7.38975833,5.59564286 L7.38899379,11.9913254 C7.38895638,12.3043129 7.64265256,12.5580697 7.95564007,12.5581071 C7.95566265,12.5581071 7.95568523,12.5581071 7.95570781,12.5581071 C8.26874371,12.5581071 8.52251995,12.3043613 8.5225574,11.9913254 L8.52332188,5.60255357 L8.52332188,5.60255357 L10.4349547,7.5265149 C10.6545193,7.74749555 11.0116519,7.74864346 11.2326325,7.52907882 C11.2335425,7.52817469 11.2344494,7.52726746 11.2353531,7.52635714 C11.4567734,7.30333317 11.4567023,6.94341597 11.2351941,6.72047942 Z" id="路径" stroke="#FFFFFF" stroke-width="0.3"></path>
                        </g>
                    </g>
                </g>
            </g>
        </g>
    </g>
</svg>