<?xml version="1.0" encoding="UTF-8"?>
<svg width="19px" height="16px" viewBox="0 0 19 16" version="1.1" xmlns="http://www.w3.org/2000/svg" xmlns:xlink="http://www.w3.org/1999/xlink">
    <!-- Generator: Sketch 59.1 (86144) - https://sketch.com -->
    <title>形状</title>
    <desc>Created with Sketch.</desc>
    <g id="APP" stroke="none" stroke-width="1" fill="none" fill-rule="evenodd">
        <g id="我-左滑" transform="translate(-148.000000, -223.000000)" fill="#FFFFFF" fill-rule="nonzero">
            <g id="分组-3" transform="translate(148.000000, 220.000000)">
                <g id="5_qianbao" transform="translate(0.102918, 3.283251)">
                    <path d="M16.8746205,0 L1.12537951,0 C0.503991904,0 0,0.516955017 0,1.15432526 L0,3.46297578 L17.997982,3.46297578 L17.997982,1.15432526 C18,0.516955017 17.4960081,0 16.8746205,0 Z M0.00202406387,4.61522491 L0.00202406387,13.8456747 L0.00202406387,13.9287197 C0.00202406387,14.5204152 0.469582818,15 1.04644102,15 L1.12740358,15 L13.9215113,15 L16.955583,15 C17.5324412,15 18,14.5204152 18,13.9287197 L18,10.9141869 L18,4.61522491 L0.00202406387,4.61522491 Z M6.47093219,11.5391003 L1.97143821,11.5391003 C1.66175644,11.5391003 1.40874845,11.2816609 1.40874845,10.9619377 C1.40874845,10.6422145 1.65973237,10.3847751 1.97143821,10.3847751 L6.47093219,10.3847751 C6.78061397,10.3847751 7.03362195,10.6422145 7.03362195,10.9619377 C7.03362195,11.2795848 6.78263803,11.5391003 6.47093219,11.5391003 Z M7.59631171,9.23044983 L1.97143821,9.23044983 C1.66175644,9.23044983 1.40874845,8.97301038 1.40874845,8.6532872 C1.40874845,8.33564014 1.65973237,8.07612457 1.97143821,8.07612457 L7.59631171,8.07612457 C7.90599348,8.07612457 8.15900146,8.33356401 8.15900146,8.6532872 C8.15900146,8.97301038 7.90599348,9.23044983 7.59631171,9.23044983 Z M11.8610143,9.23044983 L10.7356348,9.23044983 C10.4239289,9.23044983 10.172945,8.97301038 10.172945,8.6532872 C10.172945,8.33564014 10.4239289,8.07612457 10.7356348,8.07612457 L11.8610143,8.07612457 C12.1706961,8.07612457 12.423704,8.33356401 12.423704,8.6532872 C12.423704,8.97301038 12.1727201,9.23044983 11.8610143,9.23044983 Z" id="形状"></path>
                </g>
            </g>
        </g>
    </g>
</svg>