<?xml version="1.0" encoding="UTF-8"?>
<svg width="44px" height="44px" viewBox="0 0 44 44" version="1.1" xmlns="http://www.w3.org/2000/svg" xmlns:xlink="http://www.w3.org/1999/xlink">
    <!-- Generator: Sketch 61.2 (89653) - https://sketch.com -->
    <title>wallet</title>
    <desc>Created with Sketch.</desc>
    <defs>
        <linearGradient x1="50%" y1="0%" x2="50%" y2="100%" id="linearGradient-1">
            <stop stop-color="#EACB9B" offset="0%"></stop>
            <stop stop-color="#C2965E" offset="100%"></stop>
        </linearGradient>
        <linearGradient x1="50%" y1="0%" x2="50%" y2="100%" id="linearGradient-2">
            <stop stop-color="#BF9359" offset="0%"></stop>
            <stop stop-color="#EBCC9C" offset="48.0283995%"></stop>
            <stop stop-color="#BF9359" offset="100%"></stop>
        </linearGradient>
    </defs>
    <g id="页面-1" stroke="none" stroke-width="1" fill="none" fill-rule="evenodd">
        <g id="wallet" fill-rule="nonzero">
            <circle id="椭圆形" fill="#FFF5E5" cx="22" cy="22" r="22"></circle>
            <g id="Dollar_bag" transform="translate(12.000000, 10.000000)">
                <path d="M9.94210526,14.3210526 C9.56795919,14.3212654 9.23042022,14.096378 9.08651786,13.7510123 C8.9426155,13.4056466 9.02060751,13.0076213 9.28421053,12.7421053 C9.65166273,12.393896 10.2272846,12.393896 10.5947368,12.7421053 C10.7705332,12.9158053 10.8691502,13.1528654 10.8684211,13.4 C10.8684211,13.8360143 11.2218805,14.1894737 11.6578947,14.1894737 C12.093909,14.1894737 12.4473684,13.8360143 12.4473684,13.4 C12.4481734,12.2304305 11.6363597,11.2173046 10.4947368,10.9631579 L10.4684211,10.4736842 C10.4684211,10.0376699 10.1149616,9.68421053 9.67894737,9.68421053 C9.24293309,9.68421053 8.88947368,10.0376699 8.88947368,10.4736842 L8.88947368,11.1368421 C7.81785636,11.6266826 7.23372828,12.7982741 7.4874489,13.9488971 C7.74116952,15.0995201 8.76385736,15.9167972 9.94210526,15.9105263 C10.5059312,15.913369 10.9790351,16.3363943 11.0446809,16.8963929 C11.1103267,17.4563915 10.7478828,17.9773637 10.2,18.1105263 L9.7,18.1105263 C9.14495699,17.9924905 8.76818465,17.4749959 8.82631579,16.9105263 C8.86917577,16.4776423 8.55379334,16.0916519 8.12105263,16.0473684 C7.91256483,16.0238669 7.70341201,16.0854634 7.54094118,16.2182139 C7.37847034,16.3509645 7.27642105,16.5436429 7.25789474,16.7526316 C7.13644069,17.9308176 7.80156999,19.0493469 8.89473684,19.5052632 C8.93002057,19.8751621 9.22005614,20.1695224 9.58939233,20.2102767 C9.95872853,20.2510311 10.3059669,20.0269906 10.4210526,19.6736842 C11.7970767,19.4275947 12.7564685,18.1701779 12.6304068,16.7780175 C12.504345,15.385857 11.3346891,14.321228 9.93684211,14.3263158 L9.94210526,14.3210526 Z" id="Shape" fill="url(#linearGradient-1)"></path>
                <path d="M19.8368421,19.3894737 C19.6263158,17.0263158 18.6,9.43684211 14.0473684,6.58421053 L14.0473684,6.55263158 L15.6263158,2.34210526 C15.8074423,1.85733326 15.7395175,1.31457447 15.4445123,0.889389044 C15.1495071,0.464203621 14.6648727,0.210526316 14.1473684,0.210526316 L5.72631579,0.210526316 C5.20881148,0.210526316 4.72417708,0.464203621 4.42917189,0.889389044 C4.13416669,1.31457447 4.06624191,1.85733326 4.24736842,2.34210526 L5.82631579,6.55263158 L5.82631579,6.58421053 C1.26315789,9.43684211 0.236842105,17.0263158 0.0368421053,19.3894737 C-0.0513556143,20.406753 0.29028854,21.4145078 0.978947368,22.1684211 C1.67829598,22.9343427 2.66809301,23.3700062 3.70526316,23.3684254 L16.1526316,23.3684254 C17.1898017,23.3700062 18.1795988,22.9343427 18.8789474,22.1684211 C19.573323,21.4171244 19.9207999,20.4090596 19.8368421,19.3894737 Z M5.73157895,1.78947368 L14.1526316,1.78947368 L12.5736842,6 L7.31052632,6 L5.73157895,1.78947368 Z M16.1631579,21.7894821 L3.72105263,21.7894821 C3.13423681,21.7911266 2.57336099,21.5477824 2.17367684,21.1181219 C1.77399268,20.6884614 1.57177578,20.111481 1.61578947,19.5263158 C2.00526316,15.1421053 3.6,9.27894737 7.30526316,7.57894737 L12.5684211,7.57894737 C16.2526316,9.28421053 17.8736842,15.1421053 18.2578947,19.5263158 C18.3017701,20.1096548 18.100951,20.6849477 17.703586,21.1142616 C17.306221,21.5435756 16.7481432,21.7881965 16.1631579,21.7894821 Z" id="Shape" fill="url(#linearGradient-2)"></path>
            </g>
        </g>
    </g>
</svg>