<?xml version="1.0" encoding="UTF-8"?>
<svg width="55px" height="55px" viewBox="0 0 55 55" version="1.1" xmlns="http://www.w3.org/2000/svg" xmlns:xlink="http://www.w3.org/1999/xlink">
    <!-- Generator: Sketch 61.2 (89653) - https://sketch.com -->
    <title>Shape</title>
    <desc>Created with Sketch.</desc>
    <defs>
        <path d="M16.7155266,0.42888165 L8.57220413,0.42888165 C4.07477131,0.42888165 0.42888165,4.07477131 0.42888165,8.57220413 L0.42888165,16.7155266 C0.42888165,18.2146709 1.6441782,19.4299674 3.14332248,19.4299674 C4.64246675,19.4299674 5.8577633,18.2146709 5.8577633,16.7155266 L5.8577633,8.57220413 C5.8577633,7.07305985 7.07305985,5.8577633 8.57220413,5.8577633 L16.7155266,5.8577633 C18.2146709,5.8577633 19.4299674,4.64246675 19.4299674,3.14332248 C19.4299674,1.6441782 18.2146709,0.42888165 16.7155266,0.42888165 Z M54.7176982,16.7155266 L54.7176982,8.57220413 C54.7176982,4.07477131 51.0718085,0.42888165 46.5743757,0.42888165 L38.4310532,0.42888165 C36.9319089,0.42888165 35.7166124,1.6441782 35.7166124,3.14332248 C35.7166124,4.64246675 36.9319089,5.8577633 38.4310532,5.8577633 L46.5743757,5.8577633 C48.07352,5.8577633 49.2888165,7.07305985 49.2888165,8.57220413 L49.2888165,16.7155266 C49.2888165,18.2146709 50.5041131,19.4299674 52.0032573,19.4299674 C53.5024016,19.4299674 54.7176982,18.2146709 54.7176982,16.7155266 Z M38.4310532,54.7176982 L46.5743757,54.7176982 C51.0718085,54.7176982 54.7176982,51.0718085 54.7176982,46.5743757 L54.7176982,38.4310532 C54.7176982,36.9319089 53.5024016,35.7166124 52.0032573,35.7166124 C50.5041131,35.7166124 49.2888165,36.9319089 49.2888165,38.4310532 L49.2888165,46.5743757 C49.2888165,48.07352 48.07352,49.2888165 46.5743757,49.2888165 L38.4310532,49.2888165 C36.9319089,49.2888165 35.7166124,50.5041131 35.7166124,52.0032573 C35.7166124,53.5024016 36.9319089,54.7176982 38.4310532,54.7176982 Z M0.42888165,38.4310532 L0.42888165,46.5743757 C0.42888165,51.0718085 4.07477131,54.7176982 8.57220413,54.7176982 L16.7155266,54.7176982 C18.2146709,54.7176982 19.4299674,53.5024016 19.4299674,52.0032573 C19.4299674,50.5041131 18.2146709,49.2888165 16.7155266,49.2888165 L8.57220413,49.2888165 C7.07305985,49.2888165 5.8577633,48.07352 5.8577633,46.5743757 L5.8577633,38.4310532 C5.8577633,36.9319089 4.64246675,35.7166124 3.14332248,35.7166124 C1.6441782,35.7166124 0.42888165,36.9319089 0.42888165,38.4310532 Z" id="path-1"></path>
    </defs>
    <g id="控件" stroke="none" stroke-width="1" fill="none" fill-rule="evenodd">
        <g id="图标/全屏" transform="translate(-23.000000, -23.000000)">
            <g id="编组">
                <g id="maximize" transform="translate(23.000000, 23.000000)">
                    <mask id="mask-2" fill="white">
                        <use xlink:href="#path-1"></use>
                    </mask>
                    <use id="Shape" fill="#FFFFFF" fill-rule="nonzero" xlink:href="#path-1"></use>
                </g>
            </g>
        </g>
    </g>
</svg>