<?xml version="1.0" encoding="UTF-8"?>
<svg width="55px" height="55px" viewBox="0 0 55 55" version="1.1" xmlns="http://www.w3.org/2000/svg" xmlns:xlink="http://www.w3.org/1999/xlink">
    <!-- Generator: Sketch 61.2 (89653) - https://sketch.com -->
    <title>Shape</title>
    <desc>Created with Sketch.</desc>
    <defs>
        <path d="M14.0010858,3.14332248 L14.0010858,11.286645 C14.0010858,12.7857892 12.7857892,14.0010858 11.286645,14.0010858 L3.14332248,14.0010858 C1.6441782,14.0010858 0.42888165,15.2163823 0.42888165,16.7155266 C0.42888165,18.2146709 1.6441782,19.4299674 3.14332248,19.4299674 L11.286645,19.4299674 C15.7840778,19.4299674 19.4299674,15.7840778 19.4299674,11.286645 L19.4299674,3.14332248 C19.4299674,1.6441782 18.2146709,0.42888165 16.7155266,0.42888165 C15.2163823,0.42888165 14.0010858,1.6441782 14.0010858,3.14332248 Z M52.0032573,14.0010858 L43.8599349,14.0010858 C42.3607906,14.0010858 41.145494,12.7857892 41.145494,11.286645 L41.145494,3.14332248 C41.145494,1.6441782 39.9301975,0.42888165 38.4310532,0.42888165 C36.9319089,0.42888165 35.7166124,1.6441782 35.7166124,3.14332248 L35.7166124,11.286645 C35.7166124,15.7840778 39.362502,19.4299674 43.8599349,19.4299674 L52.0032573,19.4299674 C53.5024016,19.4299674 54.7176982,18.2146709 54.7176982,16.7155266 C54.7176982,15.2163823 53.5024016,14.0010858 52.0032573,14.0010858 Z M41.145494,52.0032573 L41.145494,43.8599349 C41.145494,42.3607906 42.3607906,41.145494 43.8599349,41.145494 L52.0032573,41.145494 C53.5024016,41.145494 54.7176982,39.9301975 54.7176982,38.4310532 C54.7176982,36.9319089 53.5024016,35.7166124 52.0032573,35.7166124 L43.8599349,35.7166124 C39.362502,35.7166124 35.7166124,39.362502 35.7166124,43.8599349 L35.7166124,52.0032573 C35.7166124,53.5024016 36.9319089,54.7176982 38.4310532,54.7176982 C39.9301975,54.7176982 41.145494,53.5024016 41.145494,52.0032573 Z M3.14332248,41.145494 L11.286645,41.145494 C12.7857892,41.145494 14.0010858,42.3607906 14.0010858,43.8599349 L14.0010858,52.0032573 C14.0010858,53.5024016 15.2163823,54.7176982 16.7155266,54.7176982 C18.2146709,54.7176982 19.4299674,53.5024016 19.4299674,52.0032573 L19.4299674,43.8599349 C19.4299674,39.362502 15.7840778,35.7166124 11.286645,35.7166124 L3.14332248,35.7166124 C1.6441782,35.7166124 0.42888165,36.9319089 0.42888165,38.4310532 C0.42888165,39.9301975 1.6441782,41.145494 3.14332248,41.145494 Z" id="path-1"></path>
    </defs>
    <g id="控件" stroke="none" stroke-width="1" fill="none" fill-rule="evenodd">
        <g id="图标/缩小" transform="translate(-23.000000, -23.000000)">
            <g id="编组">
                <g id="minimize" transform="translate(23.000000, 23.000000)">
                    <mask id="mask-2" fill="white">
                        <use xlink:href="#path-1"></use>
                    </mask>
                    <use id="Shape" fill="#FFFFFF" fill-rule="nonzero" xlink:href="#path-1"></use>
                </g>
            </g>
        </g>
    </g>
</svg>