<?xml version="1.0" encoding="UTF-8"?>
<svg width="15px" height="16px" viewBox="0 0 15 16" version="1.1" xmlns="http://www.w3.org/2000/svg" xmlns:xlink="http://www.w3.org/1999/xlink">
    <!-- Generator: Sketch 59.1 (86144) - https://sketch.com -->
    <title>形状</title>
    <desc>Created with Sketch.</desc>
    <g id="视频UI界面" stroke="none" stroke-width="1" fill="none" fill-rule="evenodd">
        <g id="next" fill="#FFFFFF" fill-rule="nonzero">
            <path d="M13.125,9.0894825 L1.875,15.818639 C1.0625,16.3313367 0,15.6904646 0,14.7291565 L0,1.2708435 C0,0.3095354 1.0625,-0.33133665 1.875,0.181361 L13.125,6.9105175 C13.9375,7.3591279 13.9375,8.6408721 13.125,9.0894825 L13.125,9.0894825 Z M15,12.7424532 C15,13.639674 14.1875,14.4087205 13.125,14.4087205 C12.0625,14.4087205 11.25,13.639674 11.25,12.7424532 L11.25,3.2575468 C11.25,2.3603259 12.0625,1.5912795 13.125,1.5912795 C14.1875,1.5912795 15,2.3603259 15,3.2575468 L15,12.7424532 L15,12.7424532 Z" id="形状"></path>
        </g>
    </g>
</svg>