<?xml version="1.0" encoding="UTF-8"?>
<svg width="44px" height="56px" viewBox="0 0 44 56" version="1.1" xmlns="http://www.w3.org/2000/svg" xmlns:xlink="http://www.w3.org/1999/xlink">
    <!-- Generator: Sketch 61.2 (89653) - https://sketch.com -->
    <title>Combined Shape</title>
    <desc>Created with Sketch.</desc>
    <defs>
        <path d="M15.9577939,0.161697152 C17.6491362,0.161697152 19.02024,1.53280096 19.02024,3.22414321 L19.02024,52.2232802 C19.02024,53.9146224 17.6491362,55.2857262 15.9577939,55.2857262 L3.70800969,55.2857262 C2.01666743,55.2857262 0.645563629,53.9146224 0.645563629,52.2232802 L0.645563629,3.22414321 C0.645563629,1.53280096 2.01666743,0.161697152 3.70800969,0.161697152 L15.9577939,0.161697152 Z M40.4573624,0.161697152 C42.1487047,0.161697152 43.5198085,1.53280096 43.5198085,3.22414321 L43.5198085,52.2232802 C43.5198085,53.9146224 42.1487047,55.2857262 40.4573624,55.2857262 L28.2075782,55.2857262 C26.5162359,55.2857262 25.1451321,53.9146224 25.1451321,52.2232802 L25.1451321,3.22414321 C25.1451321,1.53280096 26.5162359,0.161697152 28.2075782,0.161697152 L40.4573624,0.161697152 Z" id="path-1"></path>
    </defs>
    <g id="控件" stroke="none" stroke-width="1" fill="none" fill-rule="evenodd">
        <g id="图标/暂停" transform="translate(-29.000000, -21.000000)">
            <g id="编组">
                <g id="pause" transform="translate(29.000000, 21.000000)">
                    <mask id="mask-2" fill="white">
                        <use xlink:href="#path-1"></use>
                    </mask>
                    <use id="Combined-Shape" fill="#FFFFFF" fill-rule="nonzero" xlink:href="#path-1"></use>
                </g>
            </g>
        </g>
    </g>
</svg>