<svg xmlns="http://www.w3.org/2000/svg" width="20.013" height="20.013" viewBox="0 0 20.013 20.013">
    <g data-name="组 7005">
        <path data-name="路径 9393" d="M10.006 10.006H0A10.006 10.006 0 1 0 10.006 0 10.006 10.006 0 0 0 0 10.006z" style="fill:#f78377"/>
        <path data-name="路径 9394" d="M202.383 299.291c-1.076-2.9-2.7-5.629-3.027-8.731l-2.2.826a1.962 1.962 0 0 0-1.326 2.427l2.176 5.679c.025.05.025.075.05.075.475.926 1.3 1.151 2.477.7l1.976-.75c-.051-.076-.076-.151-.126-.226z" transform="translate(-191.901 -284.881)" style="opacity:.5;fill:#fff"/>
        <path data-name="路径 9395" d="M343.97 224h-5.053a2.121 2.121 0 0 0-2.276 1.951v6.579c0 .05 0 .075.025.075.125 1.126.851 1.651 2.226 1.651h5.128c1.451 0 2.226-.675 2.226-2.051v-6.279A2.121 2.121 0 0 0 343.97 224zm-.65 4.228-1.176 1.276h.65a.363.363 0 0 1 .375.35.354.354 0 0 1-.325.35h-.976v.65h.876a.3.3 0 0 1 .35.225v.1a.425.425 0 0 1-.375.375h-.826v.851a.426.426 0 0 1-.375.35c-.175 0-.5-.375-.5-.375v-.851h-.7c-.2-.05-.375-.2-.35-.375a.3.3 0 0 1 .275-.3.15.15 0 0 1 .1.025h.926v-.65h-.851a.379.379 0 0 1-.375-.325.354.354 0 0 1 .325-.35h.675l-1.176-1.276-.05-.075a.289.289 0 0 1 .025-.425c.025 0 .025-.025.05-.025a.375.375 0 0 1 .475.05l1.2 1.326 1.2-1.326a.379.379 0 0 1 .475-.05.319.319 0 0 1 .1.425.087.087 0 0 1-.023.05zm.4-2.352a3.282 3.282 0 0 1-2.076.675 4.561 4.561 0 0 1-2.276-.675.44.44 0 0 1-.125-.475.258.258 0 0 1 .375-.15 3.524 3.524 0 0 0 3.877 0 .269.269 0 0 1 .35.075.087.087 0 0 0 .025.05.48.48 0 0 1-.151.5z" transform="translate(-330.061 -219.622)" style="fill:#fff"/>
    </g>
</svg>
