<svg xmlns="http://www.w3.org/2000/svg" width="20" height="20" viewBox="0 0 20 20">
    <g data-name="组 6437">
        <path data-name="矩形 1896" style="fill:none" d="M0 0h20v20H0z"/>
        <g data-name="组 6436">
            <path data-name="矩形 1895" style="fill:none" d="M0 0h20v20H0z"/>
            <path data-name="25 Basket" d="M11.778 20h-7.72a2.085 2.085 0 0 1-2.084-1.971L1.25 4.584a1.25 1.25 0 1 1 0-2.5h4.583a2.083 2.083 0 1 1 4.167 0h4.584a1.25 1.25 0 1 1 0 2.5l-.725 13.445A2.083 2.083 0 0 1 11.778 20zM10 6.666a.834.834 0 0 0-.833.833v8.334a.833.833 0 0 0 1.667 0V7.5A.834.834 0 0 0 10 6.666zm-4.167 0A.834.834 0 0 0 5 7.5v8.334a.833.833 0 1 0 1.666 0V7.5a.834.834 0 0 0-.833-.834z" transform="translate(2.083)" style="fill:#fff;opacity:.5"/>
        </g>
    </g>
</svg>
