<svg xmlns="http://www.w3.org/2000/svg" width="16.073" height="16.073" viewBox="0 0 16.073 16.073">
    <g data-name="组 6970">
        <path data-name="路径 9325" d="M15.442 4.908a8.045 8.045 0 1 0-2.382 9.4.457.457 0 0 0-.571-.713 7.116 7.116 0 1 1 1.561-1.735.457.457 0 0 0 .77.491 8.051 8.051 0 0 0 .621-7.439z"/>
        <path data-name="路径 9326" d="M10.594 3.47H5.483a.457.457 0 1 0 0 .913h5.114a.457.457 0 1 0 0-.913zm-2.557 9.681a.457.457 0 0 0 .457-.457V6.477l1.778 1.778a.457.457 0 0 0 .646-.646L9.007 5.698a1.372 1.372 0 0 0-1.937 0L5.159 7.609a.457.457 0 1 0 .646.646l1.778-1.778v6.217a.457.457 0 0 0 .453.457z"/>
    </g>
</svg>
