<svg xmlns="http://www.w3.org/2000/svg" width="87" height="35" viewBox="0 0 87 35">
    <g data-name="组 6422" transform="translate(-325 -77)">
        <rect width="87" height="35" rx="17.5" transform="translate(325 77)" style="fill:#202020"/>
        <g data-name="组 5708">
            <text transform="translate(348.135 86)" style="font-size:12px;font-family:PingFangSC-Heavy,PingFang SC;font-weight:800;letter-spacing:-.024em;fill:#fff"><tspan x="6.855" y="13">主页</tspan></text>
            <path d="M527.489-958.688a.653.653 0 0 0 .463-.192l5.1-5.1-5.1-5.1a.655.655 0 0 0-.927 0 .655.655 0 0 0 0 .927l4.171 4.171-4.171 4.171a.655.655 0 0 0 0 .927.653.653 0 0 0 .464.196z" transform="translate(-144.186 1058.978)" style="fill:#fff"/>
        </g>
    </g>
</svg>
