<svg xmlns="http://www.w3.org/2000/svg" width="14.145" height="14.146" viewBox="0 0 14.145 14.146">
    <g data-name="组 6506">
        <path data-name="路径 9044" d="M331.583 328a3.583 3.583 0 1 0 3.583 3.583 3.6 3.6 0 0 0-3.583-3.583zm0 6.232a2.648 2.648 0 1 1 2.648-2.648 2.646 2.646 0 0 1-2.648 2.648z" transform="translate(-324.511 -324.511)" style="fill:#fff"/>
        <path data-name="路径 9045" d="M162.627 157.081a1.373 1.373 0 0 1-.654-1.184 1.412 1.412 0 0 1 .654-1.184.783.783 0 0 0 .312-.872 7.956 7.956 0 0 0-.623-1.5.755.755 0 0 0-.841-.374 1.387 1.387 0 0 1-1.651-1.651.845.845 0 0 0-.374-.841 6.913 6.913 0 0 0-1.5-.623.8.8 0 0 0-.872.312 1.373 1.373 0 0 1-1.184.654 1.412 1.412 0 0 1-1.184-.654.783.783 0 0 0-.872-.312 7.959 7.959 0 0 0-1.5.623.755.755 0 0 0-.374.841 1.364 1.364 0 0 1-.374 1.278 1.387 1.387 0 0 1-1.278.374.845.845 0 0 0-.841.374 6.914 6.914 0 0 0-.623 1.5.8.8 0 0 0 .312.872 1.373 1.373 0 0 1 .654 1.184 1.412 1.412 0 0 1-.654 1.184.783.783 0 0 0-.312.872 7.958 7.958 0 0 0 .623 1.5.8.8 0 0 0 .841.374 1.364 1.364 0 0 1 1.278.374 1.387 1.387 0 0 1 .374 1.277.844.844 0 0 0 .374.841 6.912 6.912 0 0 0 1.5.623.8.8 0 0 0 .872-.312 1.373 1.373 0 0 1 1.184-.654 1.412 1.412 0 0 1 1.184.654.813.813 0 0 0 .654.343.53.53 0 0 0 .218-.031 7.955 7.955 0 0 0 1.5-.623.755.755 0 0 0 .374-.841 1.364 1.364 0 0 1 .374-1.277 1.387 1.387 0 0 1 1.277-.374.844.844 0 0 0 .841-.374 6.911 6.911 0 0 0 .623-1.5.783.783 0 0 0-.312-.873zm-1.091 1.807a2.336 2.336 0 0 0-2.68 2.68 6.76 6.76 0 0 1-1.091.467 2.353 2.353 0 0 0-3.8 0 6.759 6.759 0 0 1-1.091-.467 2.336 2.336 0 0 0-2.68-2.68 6.762 6.762 0 0 1-.467-1.091 2.353 2.353 0 0 0 0-3.8 6.761 6.761 0 0 1 .467-1.091 2.336 2.336 0 0 0 2.68-2.68 6.759 6.759 0 0 1 1.091-.467 2.353 2.353 0 0 0 3.8 0 6.76 6.76 0 0 1 1.091.467 2.336 2.336 0 0 0 2.68 2.68A6.76 6.76 0 0 1 162 154a2.353 2.353 0 0 0 0 3.8 6.761 6.761 0 0 1-.464 1.088z" style="fill:#fff" transform="translate(-148.824 -148.824)"/>
    </g>
</svg>
