<svg data-name="组 6535" xmlns="http://www.w3.org/2000/svg" width="27.079" height="27.081" viewBox="0 0 27.079 27.081">
    <path data-name="路径 9047" d="M90.378 61.839A13.539 13.539 0 1 1 76.839 48.3a13.539 13.539 0 0 1 13.539 13.539z" transform="translate(-63.299 -48.3)" style="fill:#ffd96b"/>
    <path data-name="路径 9048" d="m198.663 179.7 19.145 19.148a13.539 13.539 0 0 1-19.145-19.148z" transform="translate(-194.7 -175.729)" style="fill:#fdc223"/>
    <path data-name="路径 9049" d="M205.286 180.443a9.843 9.843 0 1 1-9.843-9.843 9.843 9.843 0 0 1 9.843 9.843z" transform="translate(-181.903 -166.904)" style="fill:#f9ab10"/>
    <path data-name="路径 9050" d="M185.8 173.486a9.832 9.832 0 0 1 13.9 13.9z" transform="translate(-179.008 -167.097)" style="fill:#f9b721"/>
    <path data-name="路径 9051" d="M396.921 338.294h2.424v-1.445h-2.424v-.783h2.424v-1.445h-1.7l2.031-4.122h-2.013l-1.306 2.783a5.286 5.286 0 0 0-.354.922 6.055 6.055 0 0 0-.354-.922l-1.333-2.783H392.3l2.058 4.122h-1.732v1.445h2.457v.783h-2.457v1.445h2.457v3.058h1.834v-3.058z" transform="translate(-382.535 -321.972)" style="fill:#d3830d"/>
    <path data-name="路径 9052" d="m444.214 459 3.91 3.911h-1.23v3.058h-1.838v-3.058H442.6v-1.445h2.457v-.783H442.6v-1.445h1.732z" transform="translate(-432.508 -446.588)" style="fill:#bf790a"/>
</svg>
