<svg xmlns="http://www.w3.org/2000/svg" width="12.964" height="12.964" viewBox="0 0 12.964 12.964">
    <defs>
        <clipPath id="swr008scna">
            <path data-name="路径 87" d="M0 0h12.964v12.964H0z" style="fill:none;stroke:#707070"/>
        </clipPath>
    </defs>
    <g data-name="蒙版组 3225" style="clip-path:url(#swr008scna)">
        <path data-name="路径 83" d="M8.039 13.264a4.793 4.793 0 0 0 2.978-1.1 11.907 11.907 0 0 0 2.827-3.41 11.892 11.892 0 0 0-2.826-3.4A4.8 4.8 0 0 0 8.039 4.26a4.8 4.8 0 0 0-2.978 1.094 11.892 11.892 0 0 0-2.826 3.4 11.907 11.907 0 0 0 2.827 3.41 4.793 4.793 0 0 0 2.978 1.1m0-8.428a3.926 3.926 0 1 1-3.926 3.926 3.93 3.93 0 0 1 3.925-3.926m0 9.076q-3.536 0-6.418-4.918a.468.468 0 0 1 0-.473Q4.5 3.612 8.039 3.612t6.418 4.91a.468.468 0 0 1 0 .473q-2.882 4.918-6.418 4.918zm0-8.428a3.278 3.278 0 1 0 3.278 3.278 3.278 3.278 0 0 0-3.278-3.277z" transform="translate(-1.558 -2.281)" style="fill:#7c879f"/>
        <path data-name="路径 84" d="M8.307 9.243a.936.936 0 1 0 .936-.936.936.936 0 0 0-.936.936z" transform="translate(-3.932 -3.933)" style="fill:#7c879f"/>
    </g>
</svg>
