<svg xmlns="http://www.w3.org/2000/svg" width="12.517" height="12.518" viewBox="0 0 12.517 12.518">
    <g data-name="组 6535">
        <path data-name="路径 9047" d="M75.816 54.558a6.258 6.258 0 1 1-6.258-6.258 6.258 6.258 0 0 1 6.259 6.258z" transform="translate(-63.3 -48.3)" style="fill:#ffd96b"/>
        <path data-name="路径 9048" d="m196.532 179.7 8.85 8.851a6.258 6.258 0 0 1-8.85-8.851z" transform="translate(-194.7 -177.864)" style="fill:#fdc223"/>
        <path data-name="路径 9049" d="M194.7 175.15a4.55 4.55 0 1 1-4.55-4.55 4.55 4.55 0 0 1 4.55 4.55z" transform="translate(-183.891 -168.891)" style="fill:#f9ab10"/>
        <path data-name="路径 9050" d="M185.8 172.041a4.545 4.545 0 0 1 6.425 6.425z" transform="translate(-182.66 -169.088)" style="fill:#f9b721"/>
        <path data-name="路径 9051" d="M394.436 334.1h1.12v-.668h-1.12v-.362h1.12v-.668h-.788l.939-1.905h-.93l-.6 1.287a2.444 2.444 0 0 0-.163.426 2.8 2.8 0 0 0-.163-.426l-.616-1.287h-.93l.951 1.905h-.8v.668h1.136v.362h-1.136v.668h1.136v1.414h.848V334.1z" transform="translate(-387.786 -326.558)" style="fill:#d3830d"/>
        <path data-name="路径 9052" d="m443.346 459 1.808 1.808h-.569v1.414h-.849v-1.414H442.6v-.668h1.136v-.362H442.6v-.668h.8z" transform="translate(-437.935 -453.263)" style="fill:#bf790a"/>
    </g>
</svg>
