<svg xmlns="http://www.w3.org/2000/svg" width="139.982" height="34.32" viewBox="0 0 139.982 34.32">
    <defs>
        <linearGradient id="pdwxcz3taa" x1=".5" y1="-4.08" x2=".5" y2="1" gradientUnits="objectBoundingBox">
            <stop offset="0" stop-color="#fff"/>
            <stop offset="1" stop-color="#191d26"/>
        </linearGradient>
    </defs>
    <g data-name="组 5424" style="opacity:.379">
        <path data-name="路径 23" d="M24.019 8.76h7.14a14.308 14.308 0 0 1 2.955.3 7.278 7.278 0 0 1 2.505 1.005 5.157 5.157 0 0 1 1.725 1.89 6.123 6.123 0 0 1 .645 2.955 6.6 6.6 0 0 1-.69 3.24 4.938 4.938 0 0 1-1.86 1.905 7.771 7.771 0 0 1-2.715.915 21 21 0 0 1-3.225.24H27.8V30h-3.78zm6.06 9.21q.81 0 1.68-.06a5.16 5.16 0 0 0 1.6-.36 2.848 2.848 0 0 0 1.2-.9 2.685 2.685 0 0 0 .465-1.68 2.649 2.649 0 0 0-.42-1.575 2.782 2.782 0 0 0-1.08-.9 4.556 4.556 0 0 0-1.47-.4A14.136 14.136 0 0 0 30.5 12h-2.7v5.97zm11.547-9.21h7.38a15.035 15.035 0 0 1 2.955.285 7.567 7.567 0 0 1 2.535.975 5.1 5.1 0 0 1 1.77 1.86 5.99 5.99 0 0 1 .66 2.97 5.915 5.915 0 0 1-1.275 3.87 5.469 5.469 0 0 1-3.645 1.89l5.64 9.39h-4.56l-4.92-9h-2.76v9h-3.78zm6.72 9q.81 0 1.62-.075a4.975 4.975 0 0 0 1.485-.36 2.534 2.534 0 0 0 1.1-.87 2.765 2.765 0 0 0 .42-1.635 2.609 2.609 0 0 0-.39-1.5 2.424 2.424 0 0 0-1.02-.855 4.7 4.7 0 0 0-1.4-.375 12.711 12.711 0 0 0-1.485-.09h-3.27v5.76zm11.366-9h3.78V30h-3.78zm5.246 0h4.35L75.1 24.81l5.97-16.05h4.08L76.569 30H73.3zm21.656 0h3.78V30h-3.78zm7.706 0h3.78v17.82h9.03V30H94.321zm14.846 0h14.07v3.42h-10.29v5.22h9.75v3.42h-9.75v5.76h10.83V30h-14.61zm36.476 19.68a18.353 18.353 0 0 1-8.79 2.1 12.414 12.414 0 0 1-4.515-.8 10.121 10.121 0 0 1-5.863-5.74 11.791 11.791 0 0 1-.84-4.53 12.3 12.3 0 0 1 .84-4.635 10.4 10.4 0 0 1 2.326-3.555 10.191 10.191 0 0 1 3.54-2.265 12.414 12.414 0 0 1 4.515-.8 17.156 17.156 0 0 1 4.56.585 9.386 9.386 0 0 1 3.81 2.085l-2.79 2.82a7 7 0 0 0-2.475-1.53 8.766 8.766 0 0 0-3.075-.54 7.361 7.361 0 0 0-2.985.585 6.83 6.83 0 0 0-2.295 1.62 7.358 7.358 0 0 0-1.485 2.415 8.283 8.283 0 0 0-.525 2.97 9.132 9.132 0 0 0 .525 3.15 7.4 7.4 0 0 0 1.485 2.49 6.91 6.91 0 0 0 2.295 1.65 7.2 7.2 0 0 0 2.985.6 13.087 13.087 0 0 0 2.715-.27 7.71 7.71 0 0 0 2.265-.84V21h-4.35v-3.42h8.13zm3.746-19.68h14.07v3.42h-10.29v5.22h9.75v3.42h-9.75v5.76H164V30h-14.61z" transform="translate(-24.02 -8.22)" style="fill:url(#pdwxcz3taa)"/>
        <text transform="translate(34.999 28.32)" style="fill:#c2d6d8;font-size:17px;font-family:Avenir-Black,Avenir;font-weight:800;letter-spacing:-.024em"><tspan x="0" y="0">VIP</tspan><tspan y="0" style="font-family:PingFangSC-Heavy,PingFang SC">特权</tspan></text>
    </g>
</svg>
