<svg xmlns="http://www.w3.org/2000/svg" width="24" height="24" viewBox="0 0 24 24">
    <g data-name="组 6340">
        <path data-name="矩形 1834" style="fill:none" d="M0 0h24v24H0z"/>
        <g data-name="组 6325">
            <path data-name="路径 8987" d="M71.718 78.279V73.83a2.112 2.112 0 0 1 2.112-2.112h13.44a2.112 2.112 0 0 1 2.112 2.112v13.44a2.112 2.112 0 0 1-2.112 2.112H73.83a2.112 2.112 0 0 1-2.112-2.112v-2.741a.768.768 0 1 0-1.536 0v2.741a3.648 3.648 0 0 0 3.648 3.648h13.44a3.648 3.648 0 0 0 3.648-3.648V73.83a3.648 3.648 0 0 0-3.648-3.648H73.83a3.648 3.648 0 0 0-3.648 3.648v4.45a.768.768 0 0 0 1.536 0z" style="fill:#fff;opacity:.8" transform="translate(-68.55 -68.55)"/>
            <path data-name="路径 8988" d="M161.22 275.767h-1.5a.52.52 0 0 1 0-1.04h2.571a.585.585 0 0 1 .585.585v2.439a.52.52 0 1 1-1.04 0v-1.122l-2.864 3.007a.6.6 0 0 1-.081.071.65.65 0 0 1-.91-.13l-1.566-2.091-2.947 2.932a.52.52 0 0 1-.733-.737l3.265-3.248a.65.65 0 0 1 .979.071l1.558 2.08z" transform="translate(-146.57 -266.903)" style="fill:#fa8012"/>
        </g>
    </g>
</svg>
