<svg xmlns="http://www.w3.org/2000/svg" width="49.756" height="45.475" viewBox="0 0 49.756 45.475">
    <g data-name="组 6516">
        <path data-name="路径 9037" d="m60.235 361.412 33.156 18.947a1.341 1.341 0 0 1-.664 2.5H65.285a2.682 2.682 0 0 1-2.661-2.35z" transform="rotate(-35.02 -496.095 282.96)" style="fill:#f5c164"/>
        <path data-name="路径 9038" d="m237.593 361.412-2.388 19.1a2.681 2.681 0 0 1-2.661 2.349H205.1a1.341 1.341 0 0 1-.666-2.5z" transform="rotate(-35.02 -427.483 500.264)" style="fill:#f5c164"/>
        <path data-name="路径 9039" d="m186.385 240.941 14.737 22.672a2.681 2.681 0 0 1-2.248 4.143H173.9a2.681 2.681 0 0 1-2.248-4.143z" transform="rotate(-35.02 -260.642 393.398)" style="fill:#ffe09e"/>
        <path data-name="路径 9040" d="m512 240.941 14.737 22.672a2.681 2.681 0 0 1-2.248 4.143H512z" transform="rotate(-35.02 -97.728 909.367)" style="fill:#f9cf7e"/>
        <path data-name="路径 9041" d="M451.765 153.27a2.681 2.681 0 1 0 2.681-2.681 2.681 2.681 0 0 0-2.681 2.681z" transform="rotate(-35.02 10.276 774.973)" style="fill:#ffe19f"/>
        <path data-name="路径 9042" d="M903.53 273.74a2.681 2.681 0 1 0 2.681-2.681 2.681 2.681 0 0 0-2.682 2.681z" transform="rotate(-35.02 43.844 1516.561)" style="fill:#ffe19f"/>
        <path data-name="路径 9043" d="M2.681 273.74H0a2.681 2.681 0 1 0 2.681-2.681A2.681 2.681 0 0 0 0 273.74z" transform="rotate(-35.02 -388.092 148.567)" style="fill:#ffe19f"/>
    </g>
</svg>
