<svg xmlns="http://www.w3.org/2000/svg" width="24" height="24" viewBox="0 0 24 24">
    <g data-name="组 6338">
        <path data-name="矩形 1832" style="fill:none" d="M0 0h24v24H0z"/>
        <g data-name="组 6326">
            <path data-name="路径 8989" d="M85.736 76.979a.665.665 0 0 0-.713-.64.675.675 0 0 0-.64.713c0 .165.018.329.018.512a9.727 9.727 0 1 1-9.727-9.727 9.475 9.475 0 0 1 4.077.9l.439.219a.679.679 0 1 0 .622-1.207 6.183 6.183 0 0 0-.494-.238 10.961 10.961 0 0 0-4.644-1.024 11.08 11.08 0 1 0 11.08 11.08c0-.204-.018-.387-.018-.588z" style="fill:#d2d2d2" transform="translate(-62.674 -65.565)"/>
            <path data-name="路径 8990" d="M864.294 349.773a.731.731 0 1 0 .731-.731.731.731 0 0 0-.731.731z" transform="translate(-843.115 -340.973)" style="fill:#d2d2d2"/>
            <path data-name="路径 8991" d="M820.935 255.105a.731.731 0 1 0 .731-.731.731.731 0 0 0-.732.731z" transform="translate(-800.853 -248.701)" style="fill:#d2d2d2"/>
            <path data-name="路径 8992" d="M750.837 173.446a.731.731 0 1 0 .731-.731.731.731 0 0 0-.731.731z" transform="translate(-732.529 -169.107)" style="fill:#d2d2d2"/>
            <path data-name="路径 8993" d="m291.135 263.106.7-1.575a.509.509 0 1 0-.931-.411l-.822 1.863-.041.123h-1.89a.436.436 0 0 0-.041-.123l-.822-1.863a.509.509 0 0 0-.931.411l.7 1.575h-1.822a.506.506 0 0 0-.507.507.515.515 0 0 0 .507.507h3.191v2.6h-3.191a.506.506 0 0 0-.507.507.514.514 0 0 0 .507.507h3.191v2.547a.507.507 0 1 0 1.013 0v-2.547h3.2a.506.506 0 0 0 .507-.507.515.515 0 0 0-.507-.507h-3.218v-2.6h3.2a.506.506 0 0 0 .507-.507.515.515 0 0 0-.507-.507z" transform="translate(-276.8 -253.311)" style="fill:#fa8012"/>
        </g>
    </g>
</svg>
