<svg xmlns="http://www.w3.org/2000/svg" width="24" height="24" viewBox="0 0 24 24">
    <g data-name="组 6335">
        <path data-name="矩形 1830" style="fill:none" d="M0 0h24v24H0z"/>
        <g data-name="组 6331">
            <path data-name="路径 8999" d="M84.034 73.388v-.142a9.246 9.246 0 1 0-18.493 0v.142A2.306 2.306 0 0 0 64 75.558v3.082a2.312 2.312 0 1 0 4.623 0v-3.082a2.306 2.306 0 0 0-1.541-2.17v-.142a7.705 7.705 0 1 1 15.411 0v.142a2.306 2.306 0 0 0-1.541 2.17v3.082a2.312 2.312 0 1 0 4.623 0v-3.082a2.306 2.306 0 0 0-1.541-2.17zM67.082 78.64a.771.771 0 1 1-1.541 0v-3.082a.771.771 0 0 1 1.541 0zm16.952 0a.771.771 0 1 1-1.541 0v-3.082a.771.771 0 1 1 1.541 0zm-6.164 6.869v-.7a.77.77 0 0 0-.771-.771h-3.082a.77.77 0 0 0-.771.771v1.541a.772.772 0 0 0 .771.771H77.1c3.83 0 6.935-2.76 6.935-6.164h-1.542c0 2.322-2.014 4.227-4.623 4.552z" transform="translate(-62.788 -63.559)" style="fill:#fff;opacity:.8"/>
            <path data-name="路径 9000" d="M83.264 80.952zm-5.394 4.557v-.7a.77.77 0 0 0-.771-.771h-3.082a.77.77 0 0 0-.771.771v1.541a.772.772 0 0 0 .771.771H77.1c3.83 0 6.935-2.76 6.935-6.164h-1.542c0 2.322-2.014 4.227-4.623 4.552z" transform="translate(-62.788 -63.559)" style="fill:#ff8500"/>
        </g>
    </g>
</svg>
