<svg xmlns="http://www.w3.org/2000/svg" width="24" height="24" viewBox="0 0 24 24">
    <g data-name="组 6739">
        <path data-name="矩形 1829" style="fill:none" d="M0 0h24v24H0z"/>
        <path data-name="路径 8994" d="m167.9 145.153 6.155-2.57a2.236 2.236 0 0 1 2.462 0l6.155 2.57v-15.141a1.163 1.163 0 0 0-1.231-1.231h-12.309a1.163 1.163 0 0 0-1.231 1.231zm1.231-17.6h12.31a2.469 2.469 0 0 1 2.462 2.462v16.126a.582.582 0 0 1-.616.616c-.123 0-.246 0-.246-.123l-7.139-3.062a1.118 1.118 0 0 0-1.231 0l-7.139 3.062a.649.649 0 0 1-.862-.246v-16.376a2.469 2.469 0 0 1 2.462-2.462z" transform="translate(-163.287 -125.151)" style="fill:#fff;opacity:.8"/>
        <path data-name="8 Like" d="M4.326.651 4.06.915 3.8.651a2.225 2.225 0 0 0-3.145 0A2.226 2.226 0 0 0 .568 3.71a23.836 23.836 0 0 0 3.2 2.951.491.491 0 0 0 .594 0 23.733 23.733 0 0 0 3.2-2.951A2.226 2.226 0 0 0 7.471.651a2.225 2.225 0 0 0-3.145 0z" transform="translate(7.939 7.167)" style="stroke:#ff7600;fill:none"/>
    </g>
</svg>
