<svg xmlns="http://www.w3.org/2000/svg" width="38.051" height="38.054" viewBox="0 0 38.051 38.054">
    <g data-name="组 6555">
        <g data-name="组 6535">
            <path data-name="路径 9047" d="M101.35 67.325A19.025 19.025 0 1 1 82.325 48.3a19.025 19.025 0 0 1 19.025 19.025z" transform="translate(-63.299 -48.3)" style="fill:#ffd96b"/>
            <path data-name="路径 9048" d="m200.268 179.7 26.9 26.907a19.025 19.025 0 0 1-26.9-26.907z" transform="translate(-194.7 -174.12)" style="fill:#fdc223"/>
            <path data-name="路径 9049" d="M213.262 184.431a13.831 13.831 0 1 1-13.831-13.831 13.831 13.831 0 0 1 13.832 13.831z" transform="translate(-180.405 -165.406)" style="fill:#f9ab10"/>
            <path data-name="路径 9050" d="M185.8 174.575a13.815 13.815 0 0 1 19.53 19.53z" transform="translate(-176.256 -165.597)" style="fill:#f9b721"/>
            <path data-name="路径 9051" d="M398.793 341.452h3.407v-2.03h-3.406v-1.1h3.406v-2.03h-2.4l2.854-5.792h-2.828l-1.835 3.911a7.43 7.43 0 0 0-.5 1.3 8.508 8.508 0 0 0-.5-1.3l-1.873-3.911H392.3l2.892 5.792h-2.433v2.03h3.453v1.1h-3.453v2.03h3.453v4.3h2.578v-4.3z" transform="translate(-378.578 -318.516)" style="fill:#d3830d"/>
            <path data-name="路径 9052" d="m444.868 459 5.5 5.5h-1.728v4.3h-2.582v-4.3H442.6v-2.03h3.452v-1.1H442.6v-2.03h2.433z" transform="translate(-428.419 -441.559)" style="fill:#bf790a"/>
        </g>
    </g>
</svg>
