<svg xmlns="http://www.w3.org/2000/svg" width="24" height="24" viewBox="0 0 24 24">
    <g data-name="组 6733">
        <path data-name="矩形 1829" style="fill:none" d="M0 0h24v24H0z"/>
        <g data-name="组 6732">
            <path data-name="路径 9129" d="m26.05 98.828 2.876-4.528a2.462 2.462 0 0 1 2.207-1.214h10.983a2.484 2.484 0 0 1 2.1 1.058l2.735 3.689a2.619 2.619 0 0 1-.183 3.336l-8.339 9a2.617 2.617 0 0 1-3.759.082l-8.252-8.165a2.616 2.616 0 0 1-.368-3.262zm.883.562a1.571 1.571 0 0 0 .221 1.957l8.252 8.165a1.571 1.571 0 0 0 2.256-.049l8.339-9a1.57 1.57 0 0 0 .109-2l-2.734-3.688a1.491 1.491 0 0 0-1.261-.635H31.133a1.48 1.48 0 0 0-1.325.728z" transform="translate(-24.64 -90.091)" style="fill:#d2d2d2"/>
            <path data-name="路径 9130" d="m356.264 582.712-3.14 3.14a.594.594 0 0 1-.08.065.535.535 0 0 1-.091.048.48.48 0 0 1-.1.029.513.513 0 0 1-.1.01.5.5 0 0 1-.1-.01.584.584 0 0 1-.1-.029.537.537 0 0 1-.091-.048.7.7 0 0 1-.08-.065l-3.14-3.14.741-.741 3.14 3.14-.37.37-.37-.37 3.14-3.14zm.153-.37a.5.5 0 0 1-.01.1.575.575 0 0 1-.029.1.542.542 0 0 1-.048.091.7.7 0 0 1-.065.08.593.593 0 0 1-.079.065.542.542 0 0 1-.091.048.475.475 0 0 1-.1.029.509.509 0 0 1-.1.01.5.5 0 0 1-.1-.01.583.583 0 0 1-.1-.029.542.542 0 0 1-.091-.048.7.7 0 0 1-.08-.065.6.6 0 0 1-.065-.08.545.545 0 0 1-.048-.091.48.48 0 0 1-.029-.1.513.513 0 0 1-.01-.1.5.5 0 0 1 .01-.1.581.581 0 0 1 .029-.1.538.538 0 0 1 .048-.091.7.7 0 0 1 .065-.08.6.6 0 0 1 .08-.065.546.546 0 0 1 .091-.048.479.479 0 0 1 .1-.029.513.513 0 0 1 .1-.01.5.5 0 0 1 .1.01.576.576 0 0 1 .1.029.546.546 0 0 1 .091.048.7.7 0 0 1 .079.065.594.594 0 0 1 .065.08.535.535 0 0 1 .048.091.472.472 0 0 1 .029.1.511.511 0 0 1 .01.099zm-6.279 0a.5.5 0 0 1-.01.1.578.578 0 0 1-.029.1.543.543 0 0 1-.048.091.707.707 0 0 1-.065.08.6.6 0 0 1-.08.065.541.541 0 0 1-.091.048.475.475 0 0 1-.1.029.509.509 0 0 1-.1.01.5.5 0 0 1-.1-.01.583.583 0 0 1-.1-.029.541.541 0 0 1-.091-.048.7.7 0 0 1-.08-.065.594.594 0 0 1-.065-.08.54.54 0 0 1-.048-.091.472.472 0 0 1-.029-.1.508.508 0 0 1-.01-.1.5.5 0 0 1 .01-.1.57.57 0 0 1 .029-.1.533.533 0 0 1 .048-.091.7.7 0 0 1 .065-.08.6.6 0 0 1 .08-.065.545.545 0 0 1 .091-.048.48.48 0 0 1 .1-.029.513.513 0 0 1 .1-.01.5.5 0 0 1 .1.01.577.577 0 0 1 .1.029.545.545 0 0 1 .091.048.7.7 0 0 1 .08.065.6.6 0 0 1 .065.08.536.536 0 0 1 .048.091.474.474 0 0 1 .029.1.511.511 0 0 1 .01.099z" transform="translate(-340.818 -568.829)" style="fill:#ee841c"/>
            <path data-name="路径 9131" d="M355.894 210.5h-6.279v-1.047h6.279zm.523-.523a.5.5 0 0 1-.01.1.577.577 0 0 1-.029.1.539.539 0 0 1-.048.091.7.7 0 0 1-.065.08.6.6 0 0 1-.08.065.539.539 0 0 1-.091.048.475.475 0 0 1-.1.029.511.511 0 0 1-.1.01.5.5 0 0 1-.1-.01.58.58 0 0 1-.1-.029.541.541 0 0 1-.091-.048.7.7 0 0 1-.08-.065.6.6 0 0 1-.065-.08.542.542 0 0 1-.048-.091.479.479 0 0 1-.029-.1.513.513 0 0 1-.01-.1.5.5 0 0 1 .01-.1.583.583 0 0 1 .029-.1.542.542 0 0 1 .048-.091.706.706 0 0 1 .065-.08.6.6 0 0 1 .08-.065.54.54 0 0 1 .091-.048.474.474 0 0 1 .1-.029.512.512 0 0 1 .1-.01.5.5 0 0 1 .1.01.58.58 0 0 1 .1.029.538.538 0 0 1 .091.048.7.7 0 0 1 .08.065.6.6 0 0 1 .065.08.54.54 0 0 1 .048.091.474.474 0 0 1 .029.1.511.511 0 0 1 .01.101zm-6.279 0a.5.5 0 0 1-.01.1.577.577 0 0 1-.029.1.539.539 0 0 1-.048.091.7.7 0 0 1-.065.08.6.6 0 0 1-.08.065.54.54 0 0 1-.091.048.475.475 0 0 1-.1.029.511.511 0 0 1-.1.01.5.5 0 0 1-.1-.01.58.58 0 0 1-.1-.029.54.54 0 0 1-.091-.048.7.7 0 0 1-.08-.065.6.6 0 0 1-.065-.08.539.539 0 0 1-.048-.091.476.476 0 0 1-.029-.1.511.511 0 0 1-.01-.1.5.5 0 0 1 .01-.1.572.572 0 0 1 .029-.1.538.538 0 0 1 .048-.091.7.7 0 0 1 .065-.08.6.6 0 0 1 .08-.065.539.539 0 0 1 .091-.048.475.475 0 0 1 .1-.029.512.512 0 0 1 .1-.01.5.5 0 0 1 .1.01.581.581 0 0 1 .1.029.539.539 0 0 1 .091.048.7.7 0 0 1 .08.065.6.6 0 0 1 .065.08.54.54 0 0 1 .048.091.475.475 0 0 1 .029.1.511.511 0 0 1 .01.101z" transform="translate(-340.818 -203.838)" style="fill:#d2d2d2"/>
        </g>
    </g>
</svg>
