<svg xmlns="http://www.w3.org/2000/svg" width="24" height="24" viewBox="0 0 24 24">
    <g data-name="组 6336">
        <path data-name="矩形 1831" style="fill:none" d="M0 0h24v24H0z"/>
        <g data-name="组 6330">
            <path data-name="路径 8995" d="M162.941 264.926h-17.9a1.44 1.44 0 0 1-1.437-1.437v-15.252a1.44 1.44 0 0 1 1.437-1.437h4.776a.553.553 0 0 1 0 1.106h-4.776a.335.335 0 0 0-.331.331v15.252a.335.335 0 0 0 .331.331h17.9a.335.335 0 0 0 .331-.331v-15.252a.335.335 0 0 0-.331-.331h-4.776a.553.553 0 1 1 0-1.106h4.776a1.44 1.44 0 0 1 1.437 1.437v15.252a1.44 1.44 0 0 1-1.437 1.437z" transform="translate(-141.989 -242.426)" style="fill:#d2d2d2"/>
            <path data-name="路径 8996" d="M353.32 188.442h-6.584A1.44 1.44 0 0 1 345.3 187v-1.768a1.44 1.44 0 0 1 1.437-1.437h1.106a.553.553 0 0 1 0 1.106h-1.106a.335.335 0 0 0-.331.331V187a.335.335 0 0 0 .331.331h6.584a.335.335 0 0 0 .331-.331v-1.768a.335.335 0 0 0-.331-.331h-1.106a.553.553 0 0 1 0-1.106h1.106a1.44 1.44 0 0 1 1.437 1.437V187a1.44 1.44 0 0 1-1.438 1.442z" transform="translate(-338.029 -181.194)" style="fill:#d2d2d2"/>
            <path data-name="路径 8997" d="M421.028 146.39a.552.552 0 0 1-.553-.553.335.335 0 0 0-.331-.331h-2.607a.335.335 0 0 0-.331.331.553.553 0 1 1-1.106 0 1.44 1.44 0 0 1 1.437-1.437h2.607a1.44 1.44 0 0 1 1.437 1.437.552.552 0 0 1-.553.553z" transform="translate(-406.842 -142.9)" style="fill:#d2d2d2"/>
            <path data-name="路径 8998" d="M335.4 451.5a.543.543 0 0 1-.39-.163l-3.219-3.216a.552.552 0 0 1 .78-.78l2.829 2.826 6.278-6.278a.552.552 0 1 1 .78.78l-6.668 6.668a.544.544 0 0 1-.39.163z" transform="translate(-324.738 -433.825)" style="fill:#f0831a"/>
        </g>
    </g>
</svg>
