<svg xmlns="http://www.w3.org/2000/svg" width="24" height="24" viewBox="0 0 24 24">
    <g data-name="组 6333">
        <path data-name="矩形 1828" style="fill:none" d="M0 0h24v24H0z"/>
        <g data-name="组 6329">
            <path d="M112.564 11.307a.692.692 0 0 0-.618-.742h-.746a8.571 8.571 0 0 1-3.214-.742 9.13 9.13 0 0 1-2.843-1.36l-.494-.371a1.056 1.056 0 0 0-.865 0l-.371.371a19.4 19.4 0 0 1-2.843 1.483 11.81 11.81 0 0 1-3.214.742h-.742a.692.692 0 0 0-.614.742v7.54a8.828 8.828 0 0 0 2.967 5.93 8.464 8.464 0 0 0 5.315 2.719A8.464 8.464 0 0 0 109.6 24.9a8.326 8.326 0 0 0 2.967-5.933z" transform="translate(-92.282 -5.812)" style="stroke:#fff;opacity:.8;fill:none"/>
            <path data-name="路径 8986" d="m-349.668 6930.3 3.239 3.562 5.334-5.753" transform="translate(358 -6919.312)" style="stroke:#f58116;stroke-linecap:round;stroke-linejoin:round;stroke-width:1.2px;fill:none"/>
        </g>
    </g>
</svg>
