<svg xmlns="http://www.w3.org/2000/svg" width="24" height="24" viewBox="0 0 24 24">
    <g data-name="组 6334">
        <path data-name="矩形 1829" style="fill:none" d="M0 0h24v24H0z"/>
        <g data-name="组 6327">
            <path data-name="路径 8994" d="m167.9 145.153 6.155-3.57a2.236 2.236 0 0 1 2.462 0l6.155 3.57v-15.141a1.163 1.163 0 0 0-1.231-1.231h-12.309a1.163 1.163 0 0 0-1.231 1.231zm1.231-17.6h12.31a2.469 2.469 0 0 1 2.462 2.462v16.126a.582.582 0 0 1-.616.616c-.123 0-.246 0-.246-.123l-7.139-4.062a1.118 1.118 0 0 0-1.231 0l-7.139 4.062a.649.649 0 0 1-.862-.246v-16.376a2.469 2.469 0 0 1 2.462-2.462z" transform="translate(-163.287 -125.152)" style="fill:#fff;opacity:.8"/>
            <path data-name="多边形 2" d="M4.406.272a.1.1 0 0 1 .189 0l.945 2.717a.1.1 0 0 0 .094.067h3.041a.1.1 0 0 1 .056.183L6.282 4.9a.1.1 0 0 0-.038.116l.938 2.7a.1.1 0 0 1-.151.116L4.556 6.15a.1.1 0 0 0-.112 0L1.969 7.83a.1.1 0 0 1-.151-.116l.938-2.7a.1.1 0 0 0-.038-.114L.269 3.238a.1.1 0 0 1 .056-.183h3.042a.1.1 0 0 0 .094-.067z" transform="translate(7.5 6.48)" style="stroke:#e98520;fill:none"/>
        </g>
    </g>
</svg>
