<svg xmlns="http://www.w3.org/2000/svg" width="30" height="30" viewBox="0 0 30 30">
    <defs>
        <linearGradient id="ywyu19z79a" x1=".5" x2=".5" y2="1" gradientUnits="objectBoundingBox">
            <stop offset="0" stop-color="#c7c7c7"/>
            <stop offset="1" stop-color="#b4d4f4"/>
        </linearGradient>
    </defs>
    <g data-name="组 6424">
        <path data-name="矩形 1890" style="fill:none" d="M0 0h30v30H0z"/>
        <g data-name="组 6188">
            <path d="M78.57 16.433q1.662 3.961 3.2 7.972c-.226.213-.281.336-.392.379a.215.215 0 0 1-.164-.005l-5.031-2.248-2.227 4a.5.5 0 0 1-.913-.082l-2.013-5.923a7.777 7.777 0 0 0 7.54-4.093zm-17.639-.064a7.633 7.633 0 0 0 7.531 4.157l-2.013 5.928a.5.5 0 0 1-.913.082l-2.228-4-5.022 2.245a.227.227 0 0 1-.173.005c-.117-.044-.177-.175-.389-.389q1.315-3.497 3.207-8.028zM69.55 0a9.444 9.444 0 0 1 9.374 9.511 9.375 9.375 0 1 1-18.747 0A9.443 9.443 0 0 1 69.55 0z" transform="translate(-54.747 1.604)" style="fill:url(#ywyu19z79a)"/>
            <text data-name="2" transform="translate(9.976 3.5)" style="fill:#151515;font-size:16px;font-family:'\30 45-SSYiFeiTi';font-style:italic"><tspan x="0" y="13">2</tspan></text>
        </g>
    </g>
</svg>
