<svg t="1652761141718" class="icon" viewBox="0 0 1411 1024" version="1.1" xmlns="http://www.w3.org/2000/svg" p-id="4669" width="32" height="32"><path d="M1122.524192 190.962509A191.515469 191.515469 0 0 0 930.731967 0.000554H191.792225A191.349415 191.349415 0 0 0 0 190.962509v642.074982A191.349415 191.349415 0 0 0 191.792225 1023.999446h738.939742a191.515469 191.515469 0 0 0 191.792225-190.961955 21.310247 21.310247 0 0 1 27.398889-20.479978l161.625771 48.43238a77.768565 77.768565 0 0 0 96.588004-52.30697 75.803594 75.803594 0 0 0 3.321078-22.417274V234.69003a77.491808 77.491808 0 0 0-77.491809-77.768565 85.794502 85.794502 0 0 0-22.417273 3.044321l-164.670092 49.262649a19.372952 19.372952 0 0 1-16.882144-3.044321 19.013169 19.013169 0 0 1-7.472424-15.221605zM407.385506 681.651708V348.71369a77.823916 77.823916 0 0 1 77.768564-77.768565 78.654185 78.654185 0 0 1 41.513469 11.900528l262.365122 166.607388a77.879267 77.879267 0 0 1 24.077811 107.381505 76.91062 76.91062 0 0 1-24.077811 24.077812l-262.365122 166.607387a77.491808 77.491808 0 0 1-107.104749-24.077811 76.744566 76.744566 0 0 1-12.177284-41.790226z m0 0" p-id="4670" fill="#8790a1"></path></svg>
