<?xml version="1.0" encoding="UTF-8"?>
<svg width="51px" height="51px" viewBox="0 0 51 51" version="1.1" xmlns="http://www.w3.org/2000/svg" xmlns:xlink="http://www.w3.org/1999/xlink">
    <!-- Generator: Sketch 59.1 (86144) - https://sketch.com -->
    <title>4_xxzs</title>
    <desc>Created with Sketch.</desc>
    <defs>
        <linearGradient x1="50%" y1="0%" x2="50%" y2="100%" id="linearGradient-1">
            <stop stop-color="#FFCE5C" offset="0%"></stop>
            <stop stop-color="#FFB23A" offset="100%"></stop>
        </linearGradient>
    </defs>
    <g id="APP" stroke="none" stroke-width="1" fill="none" fill-rule="evenodd">
        <g id="消息复制" transform="translate(-14.000000, -378.000000)">
            <g id="分组-2" transform="translate(13.000000, 377.000000)">
                <g id="4_xxzs" transform="translate(0.440000, 0.289649)">
                    <g id="bell-fill" transform="translate(0.560000, 0.046798)">
                        <circle id="椭圆形复制" fill="#FC3066" cx="25.44" cy="25.953202" r="25"></circle>
                        <g id="分组-8" transform="translate(27.000000, 40.163553)">
                            <path d="M5.28325123,7.90478794e-14 L22.04,7.90478794e-14 C22.5922847,7.89464263e-14 23.04,0.44771525 23.04,1 L23.04,5.28325123 C23.04,8.20111032 20.6746079,10.5665025 17.7567488,10.5665025 L1,10.5665025 C0.44771525,10.5665025 4.42380488e-13,10.1187872 4.42312853e-13,9.56650246 L4.42312853e-13,5.28325123 C4.41955518e-13,2.36539215 2.36539215,8.04720598e-14 5.28325123,7.90478794e-14 Z" id="矩形" fill="url(#linearGradient-1)"></path>
                            <text id="官方" font-family="PingFangSC-Medium, PingFang SC" font-size="8" font-weight="400" fill="#7F2F00">
                                <tspan x="3.52" y="8.04679803">官方</tspan>
                            </text>
                        </g>
                        <path d="M35.1142857,31.7532468 L34.36,31.7532468 L34.36,22.1036722 C34.36,18.0990987 31.082,14.7870242 26.8171429,14.2364308 L26.8171429,13.1352441 C26.8171429,12.5080217 26.2545714,12 25.56,12 C24.8654286,12 24.3028571,12.5080217 24.3028571,13.1352441 L24.3028571,14.2364308 C20.038,14.7870242 16.76,18.0990987 16.76,22.1036722 L16.76,31.7532468 L16.0057143,31.7532468 C15.4494286,31.7532468 15,32.1590965 15,32.661442 L15,33.5696373 C15,33.6945141 15.1131429,33.7966861 15.2514286,33.7966861 L22.04,33.7966861 C22.04,35.5506382 23.6177143,36.9753695 25.56,36.9753695 C27.5022857,36.9753695 29.08,35.5506382 29.08,33.7966861 L35.8685714,33.7966861 C36.0068571,33.7966861 36.12,33.6945141 36.12,33.5696373 L36.12,32.661442 C36.12,32.1590965 35.6705714,31.7532468 35.1142857,31.7532468 Z M25.56,35.158979 C24.7271429,35.158979 24.0514286,34.5487853 24.0514286,33.7966861 L27.0685714,33.7966861 C27.0685714,34.5487853 26.3928571,35.158979 25.56,35.158979 Z" id="形状" fill="#FFFFFF" fill-rule="nonzero"></path>
                    </g>
                </g>
            </g>
        </g>
    </g>
</svg>