<?xml version="1.0" encoding="UTF-8"?>
<svg width="40px" height="40px" viewBox="0 0 40 40" version="1.1" xmlns="http://www.w3.org/2000/svg" xmlns:xlink="http://www.w3.org/1999/xlink">
    <!-- Generator: Sketch 59.1 (86144) - https://sketch.com -->
    <title>我-评论</title>
    <desc>Created with Sketch.</desc>
    <defs>
        <linearGradient x1="0%" y1="0%" x2="100%" y2="95.8211343%" id="linearGradient-1">
            <stop stop-color="#FA2EFF" offset="0%"></stop>
            <stop stop-color="#E815FF" offset="100%"></stop>
        </linearGradient>
        <linearGradient x1="-2.52029732%" y1="50%" x2="134.327382%" y2="50%" id="linearGradient-2">
            <stop stop-color="#FFFFFF" offset="0%"></stop>
            <stop stop-color="#FFFFFF" stop-opacity="0.638603584" offset="100%"></stop>
        </linearGradient>
    </defs>
    <g id="APP" stroke="none" stroke-width="1" fill="none" fill-rule="evenodd">
        <g id="消息复制" transform="translate(-205.000000, -102.000000)">
            <g id="我-评论" transform="translate(205.000000, 102.000000)">
                <rect id="矩形复制-2" fill="url(#linearGradient-1)" x="0" y="0" width="40" height="40" rx="2"></rect>
                <g id="message-fill" transform="translate(7.703704, 8.000000)" fill="url(#linearGradient-2)" fill-rule="nonzero">
                    <path d="M23.0658177,7.35 C22.461864,5.91160714 21.5921705,4.62053571 20.4862641,3.51160714 C19.3803576,2.40535714 18.0892387,1.53482143 16.6478024,0.932142857 C15.1741552,0.313392857 13.6119281,0 11.9987005,0 L11.9450157,0 C10.3210511,0.00803571429 8.75077132,0.329464286 7.27175565,0.961607143 C5.84374052,1.57232143 4.56335853,2.44017857 3.46818903,3.54642857 C2.37301954,4.65267857 1.51406307,5.93839286 0.918162016,7.37142857 C0.303471293,8.85535714 -0.00790042737,10.4330357 -7.10542736e-15,12.05625 C0.00820500642,13.9151786 0.453788675,15.7607143 1.28590275,17.4107143 L1.28590275,21.4821429 C1.28590275,22.1625 1.83885598,22.7142857 2.51796844,22.7142857 L6.59264319,22.7142857 C8.24345015,23.5473214 10.0875223,23.9919643 11.9476999,24 L12.0040689,24 C13.6092438,24 15.1634182,23.6892857 16.6290127,23.08125 C18.0623963,22.4839286 19.350831,21.6267857 20.4540532,20.53125 C21.5599597,19.4357143 22.4296531,18.1553571 23.0389753,16.7276786 C23.6697715,15.2491071 23.9918802,13.6767857 24,12.0535714 C24.0053014,10.4223214 23.6885612,8.83928571 23.0658177,7.35 Z M6.68854236,13.8253968 C5.70872329,13.8253968 4.91076458,13.0291005 4.91076458,12.047619 C4.91076458,11.0661376 5.70872329,10.2698413 6.68854236,10.2698413 C7.66836143,10.2698413 8.46632014,11.0661376 8.46632014,12.047619 C8.46632014,13.0291005 7.67207286,13.8253968 6.68854236,13.8253968 Z M12.0218757,13.8253968 C11.0420566,13.8253968 10.2440979,13.0291005 10.2440979,12.047619 C10.2440979,11.0661376 11.0420566,10.2698413 12.0218757,10.2698413 C13.0016948,10.2698413 13.7996535,11.0661376 13.7996535,12.047619 C13.7996535,13.0291005 13.0054062,13.8253968 12.0218757,13.8253968 Z M17.355209,13.8253968 C16.37539,13.8253968 15.5774312,13.0291005 15.5774312,12.047619 C15.5774312,11.0661376 16.37539,10.2698413 17.355209,10.2698413 C18.3350281,10.2698413 19.1329868,11.0661376 19.1329868,12.047619 C19.1329868,13.0291005 18.3387395,13.8253968 17.355209,13.8253968 Z" id="形状"></path>
                </g>
            </g>
        </g>
    </g>
</svg>