<?xml version="1.0" encoding="UTF-8"?>
<svg width="51px" height="51px" viewBox="0 0 51 51" version="1.1" xmlns="http://www.w3.org/2000/svg" xmlns:xlink="http://www.w3.org/1999/xlink">
    <!-- Generator: Sketch 59.1 (86144) - https://sketch.com -->
    <title>4_xxzs</title>
    <desc>Created with Sketch.</desc>
    <g id="APP" stroke="none" stroke-width="1" fill="none" fill-rule="evenodd">
        <g id="消息复制" transform="translate(-14.000000, -446.000000)">
            <g id="分组-3" transform="translate(14.000000, 446.000000)">
                <g id="4_xxzs" transform="translate(0.440000, 0.789649)">
                    <g id="分组-5">
                        <g id="分组-6">
                            <circle id="椭圆形复制" fill="#FC3066" cx="25" cy="25" r="25"></circle>
                            <path d="M24.56,21.7103509 C23.62479,21.7103509 22.749008,22.0731748 22.085916,22.7362669 C21.4259517,23.3993589 21.06,24.2751409 21.06,25.2103509 C21.06,26.1455609 21.4259517,27.0213428 22.085916,27.6844349 C22.749008,28.3443991 23.62479,28.7103509 24.56,28.7103509 C25.49521,28.7103509 26.370992,28.3443991 27.034084,27.6844349 C27.6940483,27.0213428 28.06,26.1455609 28.06,25.2103509 C28.06,24.2751409 27.6940483,23.3993589 27.034084,22.7362669 C26.370992,22.0731748 25.49521,21.7103509 24.56,21.7103509 Z M37.7010707,28.2676574 L35.617425,26.518342 C35.7161911,25.9237625 35.7671671,25.3166655 35.7671671,24.7126979 C35.7671671,24.1087303 35.7161911,23.498504 35.617425,22.9070539 L37.7010707,21.1577384 C38.022857,20.888613 38.1407391,20.4505018 37.997369,20.0562017 L37.9686949,19.9748382 C37.3920285,18.3976378 36.5413658,16.9456121 35.4326368,15.6657015 L35.3752888,15.5999849 C35.1012926,15.2839189 34.6584382,15.165003 34.2570019,15.3026951 L31.6699677,16.2070818 C30.714167,15.4372578 29.6500421,14.8301609 28.4967091,14.4076965 L27.9965067,11.750865 C27.9200426,11.3409181 27.5918844,11.0217228 27.174518,10.946618 L27.088496,10.9309712 C25.4317746,10.6368108 23.6858451,10.6368108 22.0291238,10.9309712 L21.9431017,10.946618 C21.5257354,11.0217228 21.1975771,11.3409181 21.121113,11.750865 L20.6177246,14.420214 C19.4739497,14.8458077 18.4161968,15.4497753 17.466768,16.2133406 L14.8606179,15.3026951 C14.4623675,15.165003 14.0163272,15.2807896 13.7423309,15.5999849 L13.6849829,15.6657015 C12.576254,16.9518709 11.7255913,18.4007672 11.1489248,19.9748382 L11.1202508,20.0562017 C10.9768807,20.4473724 11.0947628,20.8854836 11.416549,21.1577384 L13.5256828,22.9258301 C13.4269167,23.5141508 13.3791266,24.1149891 13.3791266,24.7095685 C13.3791266,25.3104068 13.4269167,25.911245 13.5256828,26.493307 L11.422921,28.2613987 C11.1011348,28.5305241 10.9832527,28.9686353 11.1266228,29.3629354 L11.1552968,29.4442989 C11.7319633,31.0183699 12.582626,32.473525 13.6913549,33.7534356 L13.7487029,33.8191522 C14.0226992,34.1352182 14.4655535,34.2541341 14.8669899,34.116442 L17.47314,33.2057965 C18.4225688,33.9724912 19.4803217,34.5795881 20.6240966,34.9989231 L21.127485,37.6682721 C21.2039491,38.078219 21.5321074,38.3974143 21.9494737,38.4725191 L22.0354958,38.4881659 C22.8670425,38.6352461 23.7145192,38.7103509 24.5651819,38.7103509 C25.4158446,38.7103509 26.2665073,38.6352461 27.094868,38.4881659 L27.18089,38.4725191 C27.5982564,38.3974143 27.9264146,38.078219 28.0028787,37.6682721 L28.5030811,35.0114406 C29.6564141,34.5858468 30.720539,33.9818793 31.6763397,33.2120553 L34.2633739,34.116442 C34.6616242,34.2541341 35.1076646,34.1383475 35.3816608,33.8191522 L35.4390089,33.7534356 C36.5477378,32.4672662 37.3984005,31.0183699 37.9750669,29.4442989 L38.003741,29.3629354 C38.1407391,28.9748941 38.022857,28.5399122 37.7010707,28.2676574 Z M24.56,30.7103509 C21.5221729,30.7103509 19.06,28.248178 19.06,25.2103509 C19.06,22.1725238 21.5221729,19.7103509 24.56,19.7103509 C27.5978271,19.7103509 30.06,22.1725238 30.06,25.2103509 C30.06,28.248178 27.5978271,30.7103509 24.56,30.7103509 Z" id="形状" fill="#FFFFFF" fill-rule="nonzero"></path>
                        </g>
                        <g id="setting-fill" transform="translate(11.060000, 10.710351)" fill="#000000" fill-rule="nonzero" opacity="0">
                            <rect id="矩形" x="4" y="2" width="16" height="16"></rect>
                        </g>
                    </g>
                </g>
            </g>
        </g>
    </g>
</svg>