<?xml version="1.0" encoding="UTF-8"?>
<svg width="18px" height="23px" viewBox="0 0 18 23" version="1.1" xmlns="http://www.w3.org/2000/svg" xmlns:xlink="http://www.w3.org/1999/xlink">
    <!-- Generator: Sketch 59.1 (86144) - https://sketch.com -->
    <title>播放</title>
    <desc>Created with Sketch.</desc>
    <defs>
        <path d="M41.6861567,3.41820099 C42.7907262,3.41820099 43.6861567,4.31363149 43.6861567,5.41820099 L43.6861567,23.418201 C43.6861567,24.5227705 42.7907262,25.418201 41.6861567,25.418201 L39.6861567,25.418201 C38.5815872,25.418201 37.6861567,24.5227705 37.6861567,23.418201 L37.6861567,5.41820099 C37.6861567,4.31363149 38.5815872,3.41820099 39.6861567,3.41820099 L41.6861567,3.41820099 Z M52.8866527,3.41820099 C53.9912222,3.41820099 54.8866527,4.31363149 54.8866527,5.41820099 L54.8866527,23.418201 C54.8866527,24.5227705 53.9912222,25.418201 52.8866527,25.418201 L50.8866527,25.418201 C49.7820832,25.418201 48.8866527,24.5227705 48.8866527,23.418201 L48.8866527,5.41820099 C48.8866527,4.31363149 49.7820832,3.41820099 50.8866527,3.41820099 L52.8866527,3.41820099 Z" id="path-1"></path>
    </defs>
    <g id="APP" stroke="none" stroke-width="1" fill="none" fill-rule="evenodd">
        <g id="关注-copy" transform="translate(-253.000000, -643.000000)">
            <g id="前景色" transform="translate(216.000000, 640.500000)">
                <mask id="mask-2" fill="white">
                    <use xlink:href="#path-1"></use>
                </mask>
                <use id="播放" fill="#FFFFFF" xlink:href="#path-1"></use>
            </g>
        </g>
    </g>
</svg>