<?xml version="1.0" encoding="UTF-8"?>
<svg width="22px" height="24px" viewBox="0 0 22 24" version="1.1" xmlns="http://www.w3.org/2000/svg" xmlns:xlink="http://www.w3.org/1999/xlink">
    <!-- Generator: Sketch 59.1 (86144) - https://sketch.com -->
    <title>编辑</title>
    <desc>Created with Sketch.</desc>
    <g id="影院和社区" stroke="none" stroke-width="1" fill="none" fill-rule="evenodd">
        <g id="社区-首页" transform="translate(-169.000000, -648.000000)" fill="#FFFFFF" fill-rule="nonzero">
            <g id="编组-5" transform="translate(155.000000, 635.000000)">
                <g id="编辑" transform="translate(13.000000, 13.000000)">
                    <path d="M21.5648162,23.9760089 L2.3878604,23.9760089 C1.72591413,23.9760089 1.18930065,23.4393954 1.18930065,22.7774492 C1.18930065,22.1155029 1.72591413,21.5788894 2.3878604,21.5788894 L21.5648162,21.5788894 C22.2267625,21.5788894 22.763376,22.1155029 22.763376,22.7774492 C22.763376,23.4393954 22.2267625,23.9760089 21.5648162,23.9760089 L21.5648162,23.9760089 Z M8.38065909,19.1817699 L3.58642014,19.1817699 C2.92447388,19.1817699 2.3878604,18.6451565 2.3878604,17.9832102 L2.3878604,13.1889713 C2.3878604,12.8711194 2.51424926,12.5663108 2.73903839,12.3415895 L14.7246358,0.35599214 C15.1926732,-0.111903926 15.9513619,-0.111903926 16.4193993,0.35599214 L21.2136382,5.15023109 C21.6815343,5.61826849 21.6815343,6.37695717 21.2136382,6.84499457 L9.22804082,18.830592 C9.00331958,19.0553811 8.69851091,19.1817699 8.38065909,19.1817699 L8.38065909,19.1817699 Z M4.78497986,16.7846505 L7.88445535,16.7846505 L18.671493,5.99761282 L15.5720175,2.89813736 L4.78497986,13.685175 L4.78497986,16.7846505 L4.78497986,16.7846505 Z"></path>
                </g>
            </g>
        </g>
    </g>
</svg>