<?xml version="1.0" encoding="UTF-8"?>
<svg width="12px" height="11px" viewBox="0 0 12 11" version="1.1" xmlns="http://www.w3.org/2000/svg" xmlns:xlink="http://www.w3.org/1999/xlink">
    <!-- Generator: Sketch 59.1 (86144) - https://sketch.com -->
    <title>合并形状</title>
    <desc>Created with Sketch.</desc>
    <g id="影院和社区" stroke="none" stroke-width="1" fill="none" fill-rule="evenodd">
        <g id="用户主页2" transform="translate(-280.000000, -233.000000)" fill="#FFFFFF" fill-rule="nonzero">
            <g id="男性" transform="translate(278.000000, 230.000000)">
                <path d="M12.9718337,3 L12.971,3.004 L13.5,3.00439723 L13.5,7.85694131 L12.5607979,7.85694131 L12.56,4.634 L10.5642035,6.63014725 C12.0150686,8.41306754 11.9101246,11.0404766 10.2493715,12.7012297 C8.47659556,14.4740056 5.60235788,14.4740056 3.82958195,12.7012297 C2.05680602,10.9284538 2.05680602,8.05421608 3.82958195,6.28144015 C5.49033509,4.62068701 8.1177441,4.51574301 9.90066439,5.96660815 L11.927,3.939 L8.58889066,3.93920208 L8.58889066,3 L12.9718337,3 Z M4.49369811,6.94555631 C3.0877034,8.35155102 3.0877034,10.6311188 4.49369811,12.0371135 C5.89969281,13.4431082 8.17926062,13.4431082 9.58525533,12.0371135 C10.99125,10.6311188 10.99125,8.35155102 9.58525533,6.94555631 C8.17926062,5.53956161 5.89969281,5.53956161 4.49369811,6.94555631 Z" id="合并形状"></path>
            </g>
        </g>
    </g>
</svg>