<?xml version="1.0" encoding="UTF-8"?>
<svg width="11px" height="13px" viewBox="0 0 11 13" version="1.1" xmlns="http://www.w3.org/2000/svg" xmlns:xlink="http://www.w3.org/1999/xlink">
    <!-- Generator: Sketch 59.1 (86144) - https://sketch.com -->
    <title>合并形状</title>
    <desc>Created with Sketch.</desc>
    <g id="影院和社区" stroke="none" stroke-width="1" fill="none" fill-rule="evenodd">
        <g id="用户主页2" transform="translate(-248.000000, -232.000000)" fill="#FFFFFF" fill-rule="nonzero">
            <g id="女性" transform="translate(245.000000, 230.000000)">
                <path d="M10.9773077,3.09618476 C13.1030527,4.32348421 13.8313868,7.04166379 12.6040873,9.16740878 C11.4517275,11.1633545 8.98499708,11.9273327 6.92841334,10.9972602 L6.381,11.943 L8.05004636,12.9070909 L7.60560191,13.6768913 L5.937,12.713 L4.77539363,14.727104 L4.00559327,14.2826596 L5.168,12.269 L3.5,11.3065209 L3.94444444,10.5367206 L5.612,11.499 L6.15880724,10.5528696 C4.32537827,9.23676983 3.753811,6.71875925 4.90608373,4.72296433 C6.13338317,2.59721934 8.85156275,1.86888532 10.9773077,3.09618476 Z M5.67588409,5.16740878 C4.69404453,6.86800477 5.27671175,9.04254844 6.97730774,10.024388 C8.67790374,11.0062275 10.8524474,10.4235603 11.834287,8.72296433 C12.8161265,7.02236834 12.2334593,4.84782468 10.5328633,3.86598512 C8.8322673,2.88414557 6.65772364,3.46681278 5.67588409,5.16740878 Z" id="合并形状"></path>
            </g>
        </g>
    </g>
</svg>