<?xml version="1.0" encoding="UTF-8"?>
<svg width="9px" height="10px" viewBox="0 0 9 10" version="1.1" xmlns="http://www.w3.org/2000/svg" xmlns:xlink="http://www.w3.org/1999/xlink">
    <!-- Generator: Sketch 59.1 (86144) - https://sketch.com -->
    <title>热评</title>
    <desc>Created with Sketch.</desc>
    <defs>
        <path d="M7.97940341,7.52553203 C7.74857955,7.03598181 7.41832386,6.60231632 6.99810606,6.23794789 L6.65364583,5.93952345 C6.60274621,5.89705105 6.52225379,5.91605186 6.49976326,5.97640737 L6.34588068,6.39330744 C6.25,6.65484797 6.07362689,6.92197697 5.82386364,7.18463519 C5.80729167,7.20140061 5.78835227,7.20587139 5.77533144,7.20698908 C5.76231061,7.20810677 5.7421875,7.20587139 5.72443182,7.19022366 C5.70785985,7.17681133 5.69957386,7.15669282 5.70075758,7.13657432 C5.74455492,6.4637222 5.53148674,5.70480759 5.06510417,4.87883131 C4.67921402,4.19256684 4.14299242,3.65719115 3.47301136,3.28388116 L2.98413826,3.01228138 C2.9202178,2.97651516 2.83854167,3.02345833 2.8420928,3.09387309 L2.86813447,3.63036648 C2.88589015,3.99697029 2.84090909,4.32110172 2.734375,4.59046611 C2.60416667,4.920186 2.41714015,5.22643431 2.1780303,5.50138718 C2.00994318,5.69363064 1.82173295,5.8668733 1.61576705,6.01664437 C1.11742424,6.37765971 0.706676136,6.84820913 0.428503788,7.37464326 C0.147964015,7.90666588 3.01980663e-13,8.50239708 3.01980663e-13,9.09924598 C3.01980663e-13,9.62679781 0.110085227,10.1375842 0.327888258,10.6193106 C0.538589015,11.0831538 0.839251894,11.5011716 1.22159091,11.8588339 C1.60511364,12.2164961 2.05018939,12.4981551 2.54616477,12.6937517 C3.05989583,12.8971721 3.60440341,13 4.16666667,13 C4.72892992,13 5.2734375,12.8971721 5.78716856,12.6948694 C6.28314394,12.4992728 6.72940341,12.2187315 7.11174242,11.8599515 C7.49526515,11.5022893 7.79592803,11.0842715 8.00544508,10.6204283 C8.22324811,10.1387019 8.33333333,9.6279155 8.33333333,9.10036367 C8.33333333,8.55492872 8.21496212,8.0251415 7.97940341,7.52553203 Z" id="path-1"></path>
    </defs>
    <g id="影院和社区" stroke="none" stroke-width="1" fill="none" fill-rule="evenodd">
        <g id="社区-首页" transform="translate(-24.000000, -787.000000)">
            <g id="详情" transform="translate(-1.000000, 456.000000)">
                <g id="热评" transform="translate(16.000000, 323.000000)">
                    <g id="添加评论" transform="translate(9.000000, 5.000000)">
                        <mask id="mask-2" fill="white">
                            <use xlink:href="#path-1"></use>
                        </mask>
                        <use id="热评" fill="#F81B68" fill-rule="nonzero" xlink:href="#path-1"></use>
                    </g>
                </g>
            </g>
        </g>
    </g>
</svg>