<?xml version="1.0" encoding="UTF-8"?>
<svg width="32px" height="32px" viewBox="0 0 32 32" version="1.1" xmlns="http://www.w3.org/2000/svg" xmlns:xlink="http://www.w3.org/1999/xlink">
    <title>编组 8</title>
    <defs>
        <linearGradient x1="-1.11022302e-14%" y1="50%" x2="100%" y2="50%" id="linearGradient-1">
            <stop stop-color="#2A72E3" offset="0%"></stop>
            <stop stop-color="#0057BB" offset="100%"></stop>
        </linearGradient>
        <path d="M16,9.5 C16.3733412,9.5 16.6988976,9.70459156 16.8706686,10.0077743 C16.9470288,10.050857 17.0198646,10.105651 17.0857864,10.1715729 L17.0857864,10.1715729 L22.7426407,15.8284271 C23.133165,16.2189514 23.133165,16.8521164 22.7426407,17.2426407 C22.3521164,17.633165 21.7189514,17.633165 21.3284271,17.2426407 L21.3284271,17.2426407 L17,12.914 L17,24.5 C17,25.0522847 16.5522847,25.5 16,25.5 C15.4477153,25.5 15,25.0522847 15,24.5 L15,12.913 L10.6715729,17.2426407 C10.2810486,17.633165 9.6478836,17.633165 9.25735931,17.2426407 C8.86683502,16.8521164 8.86683502,16.2189514 9.25735931,15.8284271 L14.9142136,10.1715729 C14.9801354,10.105651 15.0529712,10.050857 15.1303867,10.0071909 C15.3011024,9.70459156 15.6266588,9.5 16,9.5 Z M23,7 C23.5522847,7 24,7.44771525 24,8 C24,8.55228475 23.5522847,9 23,9 L9,9 C8.44771525,9 8,8.55228475 8,8 C8,7.44771525 8.44771525,7 9,7 L23,7 Z" id="path-2"></path>
        <filter x="-43.8%" y="-27.0%" width="187.5%" height="175.7%" filterUnits="objectBoundingBox" id="filter-3">
            <feOffset dx="0" dy="2" in="SourceAlpha" result="shadowOffsetOuter1"></feOffset>
            <feGaussianBlur stdDeviation="2" in="shadowOffsetOuter1" result="shadowBlurOuter1"></feGaussianBlur>
            <feColorMatrix values="0 0 0 0 0.12294472   0 0 0 0 0.459282524   0 0 0 0 0.880717844  0 0 0 0.319001311 0" type="matrix" in="shadowBlurOuter1"></feColorMatrix>
        </filter>
    </defs>
    <g id="页面-1" stroke="none" stroke-width="1" fill="none" fill-rule="evenodd">
        <g id="撩吧备份-7" transform="translate(-302.000000, -607.000000)">
            <g id="编组-8" transform="translate(302.000000, 607.000000)">
                <circle id="椭圆形" fill="#FFFFFF" cx="16" cy="16" r="16"></circle>
                <g id="形状结合">
                    <use fill="black" fill-opacity="1" filter="url(#filter-3)" xlink:href="#path-2"></use>
                    <use fill="url(#linearGradient-1)" fill-rule="evenodd" xlink:href="#path-2"></use>
                </g>
            </g>
        </g>
    </g>
</svg>