<?xml version="1.0" encoding="UTF-8"?>
<svg width="9px" height="12px" viewBox="0 0 9 12" version="1.1" xmlns="http://www.w3.org/2000/svg" xmlns:xlink="http://www.w3.org/1999/xlink">
    <!-- Generator: Sketch 59.1 (86144) - https://sketch.com -->
    <title>形状</title>
    <desc>Created with Sketch.</desc>
    <g id="影院和社区" stroke="none" stroke-width="1" fill="none" fill-rule="evenodd">
        <g id="用户主页2" transform="translate(-190.000000, -255.000000)" fill="#848699" fill-rule="nonzero">
            <g id="地址" transform="translate(190.000000, 252.500000)">
                <path d="M4.5,14.4 C4.0155,14.4 0,10.5379999 0,7.5 C0,5.01471858 2.01471865,3 4.5,3 C6.98528135,3 9,5.01471858 9,7.5 C9,10.5379999 4.99225,14.4 4.5,14.4 Z M4.5,5.24999993 C3.11928813,5.24999993 2,6.36928806 2,7.74999993 C2,9.1307118 3.11928813,10.2499999 4.5,10.2499999 C5.88071187,10.2499999 7,9.1307118 7,7.74999993 C7,6.36928806 5.88071187,5.24999993 4.5,5.24999993 Z M4.5,9.24999993 C3.67157288,9.24999993 3,8.57842705 3,7.74999993 C3,6.9215728 3.67157288,6.24999993 4.5,6.24999993 C5.32842712,6.24999993 6,6.9215728 6,7.74999993 C6,8.14782466 5.84196474,8.52935553 5.56066017,8.8106601 C5.2793556,9.09196467 4.89782473,9.24999993 4.5,9.24999993 Z" id="形状"></path>
            </g>
        </g>
    </g>
</svg>