<?xml version="1.0" encoding="UTF-8"?>
<svg width="11px" height="11px" viewBox="0 0 11 11" version="1.1" xmlns="http://www.w3.org/2000/svg" xmlns:xlink="http://www.w3.org/1999/xlink">
    <!-- Generator: Sketch 54.1 (76490) - https://sketchapp.com -->
    <title>打赏3</title>
    <desc>Created with Sketch.</desc>
    <g id="页面-1" stroke="none" stroke-width="1" fill="none" fill-rule="evenodd">
        <g id="撩吧备份-7" transform="translate(-161.000000, -661.000000)" fill-rule="nonzero">
            <g id="打赏3" transform="translate(161.000000, 661.000000)">
                <rect id="矩形" fill="#000000" opacity="0" x="0" y="0" width="10.24" height="10.24"></rect>
                <path d="M4.00664829,4.30477331 L6.24348459,4.30477331 L6.24348459,4.64683455 L4.00664829,4.64683455 L4.00664829,4.30477331 Z M5.12003612,0 C7.94768577,0 10.239991,2.2923052 10.2399729,5.11995484 C10.2399729,7.9476948 7.9476677,10.24 5.12003612,10.24 C2.29231423,10.24 9.02999834e-06,7.94769479 9.02999834e-06,5.11995484 C9.02999834e-06,2.2923052 2.29231423,0 5.12003612,0 Z M4.86799671,7.18982451 C5.07377892,7.0183604 5.27072875,6.65357696 5.45866555,6.09536582 C5.22241247,6.03070327 4.98617744,5.96613104 4.74992435,5.90155881 C4.69655065,6.34948239 4.55237847,6.65960972 4.31744392,6.83188663 C4.08258162,7.00427191 3.82124019,7.12637213 3.53361831,7.19824148 C3.24597836,7.27018307 2.86123623,7.31600678 2.37926548,7.33589322 C2.56362598,7.57151414 2.6758462,7.77532758 2.71585389,7.94744193 C3.32584925,7.86455466 3.78567579,7.76039017 4.0950987,7.63498457 C4.40461192,7.50965123 4.66219643,7.36121637 4.86799671,7.18982451 Z M3.09315441,5.33597831 C3.10964516,5.60322607 3.11788151,5.84961204 3.11788151,6.07529876 C3.11788151,6.30149122 3.10964516,6.55633028 3.09315441,6.83979786 L3.7360229,6.83979786 L3.7360229,5.83097188 L6.51418222,5.83097188 L6.51418222,6.7412507 L7.15699653,6.7412507 C7.14050578,6.50100588 7.13226943,6.26265758 7.13226943,6.02625999 C7.1321716,5.79594296 7.14041937,5.56569801 7.15699653,5.33597831 L3.09315441,5.33597831 Z M3.36377979,3.81021324 C3.38027054,4.02876541 3.38850689,4.23422251 3.38850689,4.42638586 C3.38850689,4.61983162 3.38027054,4.85012419 3.36377979,5.11708296 L6.88637115,5.11708296 L6.88637115,3.81021324 L3.36377979,3.81021324 Z M7.2958765,7.92269677 C7.42007193,7.75977605 7.56241983,7.60527231 7.72299246,7.45900492 C7.21047859,7.11757586 6.56670698,6.79531075 5.79165958,6.49222766 C5.70172808,6.63056577 5.58986911,6.79921218 5.45593817,6.99814884 C6.31883993,7.34673052 6.93210454,7.65494327 7.2958765,7.92269677 Z M7.7724286,4.18160743 C7.75595591,3.94129035 7.74771956,3.74399734 7.7477015,3.58980066 C7.7477015,3.42296047 7.75593785,3.24210403 7.77241054,3.04733973 L6.64003937,3.04733973 C6.85631571,2.77176531 7.05317522,2.55382725 7.23074434,2.39352556 C7.00482281,2.32393205 6.76448767,2.22993656 6.5098473,2.11144877 C6.44735222,2.35254251 6.2858223,2.66449413 6.02545622,3.04733973 L5.43439001,3.04733973 C5.43439,2.71031784 5.44246379,2.38216447 5.45868361,2.06284349 L4.79150345,2.06284349 C4.80774133,2.42762693 4.81581512,2.75579836 4.81581512,3.04733973 L3.95354553,3.04733973 C4.04040647,3.0402413 4.14829177,2.99252107 4.27727367,2.90378166 C4.08928268,2.59002383 3.8715975,2.30941007 3.62423618,2.06204875 C3.4635913,2.16810977 3.30285612,2.27408048 3.14219318,2.3801415 C3.32366373,2.61917616 3.51244945,2.84153945 3.70851423,3.04732167 L2.47777652,3.04732167 C2.49426727,3.25025007 2.50241331,3.44736245 2.50241331,3.63883944 C2.50241331,3.81604731 2.49426727,4.02981301 2.47777652,4.28004621 L3.12066308,4.28004621 L3.12066308,3.54186368 L7.12956011,3.54186368 L7.12956011,4.18160743 L7.7724286,4.18160743 Z" id="形状结合" fill="#FFFFFF"></path>
            </g>
        </g>
    </g>
</svg>