<?xml version="1.0" standalone="no"?><!DOCTYPE svg PUBLIC "-//W3C//DTD SVG 1.1//EN" "http://www.w3.org/Graphics/SVG/1.1/DTD/svg11.dtd"><svg t="1650700487939" class="icon" viewBox="0 0 1451 1024" version="1.1" xmlns="http://www.w3.org/2000/svg" p-id="12599" xmlns:xlink="http://www.w3.org/1999/xlink" width="181.375" height="128"><defs><style type="text/css">@font-face { font-family: feedback-iconfont; src: url("//at.alicdn.com/t/font_1031158_u69w8yhxdu.woff2?t=1630033759944") format("woff2"), url("//at.alicdn.com/t/font_1031158_u69w8yhxdu.woff?t=1630033759944") format("woff"), url("//at.alicdn.com/t/font_1031158_u69w8yhxdu.ttf?t=1630033759944") format("truetype"); }
</style></defs><path d="M417.890133 101.376A795.477333 795.477333 0 0 1 691.895467 54.613333c275.882667 0 501.162667 123.648 676.010666 370.602667 20.821333 29.525333 20.992 68.352 0.341334 97.877333-75.690667 108.458667-161.621333 193.024-257.792 253.781334l115.456 112.896-62.634667 61.184L251.319467 61.013333 314.039467 0l103.765333 101.376z m506.794667 494.421333a238.933333 238.933333 0 0 0 33.024-121.6c0-139.093333-119.04-251.904-265.898667-251.904-43.776 0-84.992 10.069333-121.429333 27.904l103.424 101.12c5.973333-0.853333 12.032-1.109333 18.176-1.109333 73.557333 0 132.864 56.32 132.864 125.781333 0 7.168-0.682667 14.165333-1.877333 20.992l101.717333 98.816z m-669.866667-410.794666l193.536 188.586666c-14.165333 30.890667-22.016 64.853333-22.016 100.608 0 139.008 119.04 251.648 265.813334 251.648 34.816 0 68.266667-6.314667 98.816-18.005333l151.722666 147.968c-80.810667 25.685333-165.546667 38.4-250.538666 37.888-278.186667 0-503.466667-123.562667-676.181334-370.517333a84.906667 84.906667 0 0 1 0.341334-98.048c70.826667-100.266667 150.528-180.48 238.506666-240.128z m426.837334 416.682666c-66.304-5.12-118.784-56.149333-122.112-119.381333L681.570133 601.685333z" p-id="12600" fill="#ffffff"></path></svg>