<svg t="1650700438003" class="icon" viewBox="0 0 1024 1024" version="1.1" xmlns="http://www.w3.org/2000/svg" p-id="11739" width="128" height="128"><path d="M510.714 398.827c-61.76 0-111.937 50.171-111.937 111.93 0 61.76 50.178 111.879 111.937 111.879 61.76 0 111.93-50.12 111.93-111.88 0-61.757-50.17-111.929-111.93-111.929z m0 0" p-id="11740" fill="#ffffff"></path><path d="M946.864 476.65c-98.088-127.565-218.728-245.62-435.877-245.722h-0.062c0-0.059-0.16-0.059-0.22 0h-0.273c-217.139 0.111-337.79 118.165-435.87 245.722-15.44 20.113-15.44 48.095 0 68.207 98.08 127.567 218.731 245.62 435.878 245.73h1.153c0.248-0.06 0.487-0.06 0.735 0C728.606 790 848.973 672.15 946.872 544.858c15.423-20.112 15.423-48.095-0.008-68.207zM510.876 678.657h-0.33c-92.48-0.11-167.74-75.423-167.74-167.9 0-92.475 75.26-167.788 167.74-167.9h0.33c92.476 0.111 167.729 75.425 167.729 167.9 0 92.477-75.253 167.79-167.73 167.9z m0 0" p-id="11741" fill="#ffffff"></path></svg>
