<?xml version="1.0" encoding="UTF-8"?>
<svg width="20px" height="23px" viewBox="0 0 20 23" version="1.1" xmlns="http://www.w3.org/2000/svg" xmlns:xlink="http://www.w3.org/1999/xlink">
    <!-- Generator: Sketch 64 (93537) - https://sketch.com -->
    <title>前景色</title>
    <desc>Created with Sketch.</desc>
    <defs>
        <path d="M4.999,5.5 L4.999,7.5 L3.17241379,7.5 C2.52490753,7.5 2,8.01735984 2,8.65555556 L2,19.3444444 C2,19.9826402 2.52490753,20.5 3.17241379,20.5 L16.8275862,20.5 C17.4750925,20.5 18,19.9826402 18,19.3444444 L18,8.65555556 C18,8.01735984 17.4750925,7.5 16.8275862,7.5 L13.999,7.5 L13.999,5.5 L17.1428571,5.5 C18.7208136,5.5 20,6.8352911 20,8.48245614 L20,19.5175439 C20,21.1647089 18.7208136,22.5 17.1428571,22.5 L2.85714286,22.5 C1.27918643,22.5 0,21.1647089 0,19.5175439 L0,8.48245614 C0,6.8352911 1.27918643,5.5 2.85714286,5.5 L4.999,5.5 Z M10,0.5 C10.5522847,0.5 11,0.94771525 11,1.5 L10.999,12.643 L12.493069,11.1062142 C12.8183956,10.7714791 13.3534814,10.763852 13.6882165,11.0891786 L13.7052521,11.1062142 L13.7052521,11.1062142 C14.0427458,11.4534683 14.0427458,12.0061998 13.7052521,12.3534539 L10.876825,15.2636798 C10.6609636,15.4857839 10.3527534,15.563875 10.0719969,15.4962454 L10,15.5 L10,15.5 C9.94379403,15.5 9.8886711,15.495363 9.83499289,15.4864506 C9.54532104,15.5706699 9.21873209,15.4958691 8.99306905,15.2636798 L8.99306905,15.2636798 L6.16464192,12.3534539 C5.82714821,12.0061998 5.82714821,11.4534683 6.16464192,11.1062142 L6.16464192,11.1062142 L6.18167756,11.0891786 C6.51641267,10.763852 7.05149839,10.7714791 7.37682498,11.1062142 L7.37682498,11.1062142 L8.999,12.775 L9,1.5 C9,0.94771525 9.44771525,0.5 10,0.5 Z" id="path-1"></path>
    </defs>
    <g id="页面-1" stroke="none" stroke-width="1" fill="none" fill-rule="evenodd">
        <g id="我的/分享推广" transform="translate(-40.000000, -629.000000)">
            <g id="分组-3备份" transform="translate(26.000000, 622.000000)">
                <g id="前景色" transform="translate(14.000000, 7.000000)">
                    <mask id="mask-2" fill="white">
                        <use xlink:href="#path-1"></use>
                    </mask>
                    <use id="download" fill="#FFFFFF" fill-rule="nonzero" xlink:href="#path-1"></use>
                </g>
            </g>
        </g>
    </g>
</svg>