<?xml version="1.0" encoding="UTF-8"?>
<svg width="19px" height="12px" viewBox="0 0 19 12" version="1.1" xmlns="http://www.w3.org/2000/svg" xmlns:xlink="http://www.w3.org/1999/xlink">
    <!-- Generator: Sketch 59.1 (86144) - https://sketch.com -->
    <title>id</title>
    <desc>Created with Sketch.</desc>
    <g id="影院和社区" stroke="none" stroke-width="1" fill="none" fill-rule="evenodd" opacity="0.799999952">
        <g id="用户主页2备份-2" transform="translate(-106.000000, -259.000000)">
            <g id="id" transform="translate(106.500000, 259.000000)">
                <rect id="矩形" stroke="#AFAEAD" stroke-width="0.8" x="0" y="0.5" width="18" height="10.125" rx="1"></rect>
                <text id="ID" fill="#D8D8D8" font-family="PingFangSC-Regular, PingFang SC" font-size="7" font-weight="normal" letter-spacing="-0.3">
                    <tspan x="10.3115" y="7.5625">ID</tspan>
                </text>
                <g id="头像" fill-rule="nonzero">
                    <rect id="矩形" fill="#000000" opacity="0" x="0" y="0.5625" width="9" height="9"></rect>
                    <path d="M5.06250386,1.125 C2.88785947,1.125 1.125,2.88785774 1.125,5.0625 C1.125,7.23714997 2.88785947,9 5.06250386,9 C7.23714824,9 9,7.23714226 9,5.0625 C9,2.88785774 7.23714824,1.125 5.06250386,1.125 Z M5.06250386,1.66193357 C6.94071306,1.66193357 8.46307361,3.18446225 8.46307361,5.0625 C8.46307361,5.7359472 8.26730057,6.36365856 7.9295859,6.89186439 C7.36352332,6.29349737 6.61160279,5.87256877 5.76617503,5.72125961 C6.30590786,5.46100785 6.67907324,4.91044297 6.67907324,4.27126681 C6.67907324,3.38162291 5.95791573,2.66047381 5.06827096,2.66047381 C4.17862619,2.66047381 3.45747638,3.38162291 3.45747638,4.2712591 C3.45747638,4.91043526 3.83063405,5.46100014 4.37036688,5.7212519 C3.52154671,5.87317016 2.76698935,6.29688978 2.20015577,6.89911181 C1.85954984,6.36940252 1.6619341,5.7390235 1.6619341,5.0625 C1.6619341,3.18446225 3.18463389,1.66193357 5.06250386,1.66193357 Z" id="形状" fill="#AFAEAD"></path>
                </g>
            </g>
        </g>
    </g>
</svg>