<?xml version="1.0" encoding="UTF-8"?>
<svg width="40px" height="40px" viewBox="0 0 40 40" version="1.1" xmlns="http://www.w3.org/2000/svg" xmlns:xlink="http://www.w3.org/1999/xlink">
    <!-- Generator: Sketch 64 (93537) - https://sketch.com -->
    <title>我的钱包</title>
    <desc>Created with Sketch.</desc>
    <g id="页面-1" stroke="none" stroke-width="1" fill="none" fill-rule="evenodd">
        <g id="我的钱包">
            <circle id="椭圆形备份" fill="#424449" cx="20" cy="20" r="20"></circle>
            <path d="M27.9613293,11 C29.636903,11 31,12.363097 31,14.0386707 L31,14.0386707 L31,26.5744535 C31,28.2500271 29.636903,29.6131242 27.9613293,29.6131242 L27.9613293,29.6131242 L13.0386707,29.6131242 C11.363097,29.6131242 10,28.2500271 10,26.5744535 L10,26.5744535 L10,14.0386707 C10,12.363097 11.363097,11 13.0386707,11 L13.0386707,11 Z M27.9613293,12.5193354 L13.0386707,12.5193354 C12.2010105,12.5193354 11.5193354,13.2010105 11.5193354,14.0386707 L11.5193354,14.0386707 L11.5193354,17.0892429 L20.291218,17.0892429 C22.1703826,17.0892429 23.6990872,18.6179475 23.6990872,20.4971121 C23.6990872,22.3762767 22.1703826,23.9049812 20.291218,23.9049812 L20.291218,23.9049812 L11.5193354,23.9049812 L11.5193354,26.5742002 C11.5193354,27.4118605 12.2010105,28.0935356 13.0386707,28.0935356 L13.0386707,28.0935356 L27.9613293,28.0935356 C28.7989895,28.0935356 29.4806646,27.4118605 29.4806646,26.5742002 L29.4806646,26.5742002 L29.4806646,14.0386707 C29.4806646,13.2010105 28.7989895,12.5193354 27.9613293,12.5193354 L27.9613293,12.5193354 Z M20.291218,18.6085782 L11.5193354,18.6085782 L11.5193354,22.3856459 L20.291218,22.3856459 C21.3324692,22.3856459 22.1797518,21.5383632 22.1797518,20.4971121 C22.1797518,19.4558609 21.3324692,18.6085782 20.291218,18.6085782 L20.291218,18.6085782 Z M19.9488611,19.4292725 C20.5386126,19.4292725 21.0167006,19.9073606 21.0167006,20.4971121 C21.0167006,21.0868635 20.5386126,21.5649516 19.9488611,21.5649516 C19.3591096,21.5649516 18.8810216,21.0868635 18.8810216,20.4971121 C18.8810216,19.9073606 19.3591096,19.4292725 19.9488611,19.4292725 Z" id="形状结合" stroke="#D7C19A" stroke-width="0.2" fill="#D7C19A" fill-rule="nonzero"></path>
        </g>
    </g>
</svg>