<?xml version="1.0" encoding="UTF-8"?>
<svg width="15px" height="16px" viewBox="0 0 15 16" version="1.1" xmlns="http://www.w3.org/2000/svg" xmlns:xlink="http://www.w3.org/1999/xlink">
    <!-- Generator: Sketch 59.1 (86144) - https://sketch.com -->
    <title>编辑</title>
    <desc>Created with Sketch.</desc>
    <g id="影院和社区" stroke="none" stroke-width="1" fill="none" fill-rule="evenodd" opacity="0.5">
        <g id="我的" transform="translate(-324.000000, -230.000000)" fill="#FFFFFF" fill-rule="nonzero">
            <g id="编辑" transform="translate(324.000000, 230.000000)">
                <path d="M13.8769592,15.4285617 L1.53658817,15.4285617 C1.11062574,15.4285617 0.765314971,15.083251 0.765314971,14.6572885 C0.765314971,14.2313261 1.11062574,13.8860153 1.53658817,13.8860153 L13.8769592,13.8860153 C14.3029217,13.8860153 14.6482324,14.2313261 14.6482324,14.6572885 C14.6482324,15.083251 14.3029217,15.4285617 13.8769592,15.4285617 L13.8769592,15.4285617 Z M5.39295412,12.343469 L2.30786136,12.343469 C1.88189894,12.343469 1.53658817,11.9981582 1.53658817,11.5721958 L1.53658817,8.487103 C1.53658817,8.28256535 1.6179194,8.08642097 1.7625712,7.94181286 L9.47530313,0.229080942 C9.7764852,-0.0720101762 10.2647014,-0.0720101762 10.5658834,0.229080942 L13.6509762,3.3141737 C13.9520673,3.61535577 13.9520673,4.10357194 13.6509762,4.40475401 L5.93824427,12.1174859 C5.79363615,12.2621377 5.59749177,12.343469 5.39295412,12.343469 L5.39295412,12.343469 Z M3.07913454,10.8009226 L5.07364701,10.8009226 L12.0151057,3.85946385 L10.0205933,1.86495139 L3.07913454,8.80641011 L3.07913454,10.8009226 L3.07913454,10.8009226 Z"></path>
            </g>
        </g>
    </g>
</svg>