<?xml version="1.0" encoding="UTF-8"?>
<svg width="70px" height="59px" viewBox="0 0 70 59" version="1.1" xmlns="http://www.w3.org/2000/svg" xmlns:xlink="http://www.w3.org/1999/xlink">
    <!-- Generator: Sketch 59.1 (86144) - https://sketch.com -->
    <title>相册</title>
    <desc>Created with Sketch.</desc>
    <g id="页面-1" stroke="none" stroke-width="1" fill="none" fill-rule="evenodd">
        <g id="账号与安全备份-2" transform="translate(-53.000000, -614.000000)" fill-rule="nonzero">
            <g id="相册" transform="translate(48.000000, 603.000000)">
                <rect id="矩形" fill="#000000" opacity="0" x="0" y="0" width="80" height="80"></rect>
                <path d="M50,64.234375 C49.4921875,64.234375 48.984375,64.0390625 48.6015625,63.6484375 L24.7109375,39.15625 L24.6953125,39.140625 C24.5859375,39.0234375 24.4609375,39 24.375,39 C24.2890625,38.9921875 24.1640625,39.0234375 24.0546875,39.140625 L13.5625,50.15625 C12.8203125,50.9375 11.5859375,50.96875 10.8046875,50.2265625 C10.0234375,49.484375 9.9921875,48.25 10.734375,47.46875 L21.21875,36.4609375 C22.03125,35.6015625 23.1796875,35.109375 24.375,35.109375 L24.3828125,35.109375 C25.5703125,35.109375 26.71875,35.609375 27.53125,36.46875 L51.3984375,60.9296875 C52.1484375,61.703125 52.1328125,62.9375 51.3671875,63.6953125 C50.984375,64.0546875 50.4921875,64.234375 50,64.234375 L50,64.234375 Z M67.9375,58.46875 C67.421875,58.46875 66.90625,58.265625 66.5234375,57.8671875 L55.3984375,46.2109375 C55.2890625,46.09375 55.1640625,46.0703125 55.078125,46.0703125 C54.9921875,46.0703125 54.8671875,46.09375 54.7578125,46.203125 L47.8515625,53.703125 C47.1171875,54.5 45.8828125,54.546875 45.09375,53.8203125 C44.296875,53.0859375 44.25,51.8515625 44.9765625,51.0625 L51.8984375,43.5390625 C52.71875,42.671875 53.8671875,42.171875 55.0625,42.1640625 L55.0703125,42.1640625 C56.2578125,42.1640625 57.40625,42.65625 58.2265625,43.5234375 L69.34375,55.1640625 C70.0859375,55.9453125 70.0625,57.1796875 69.28125,57.921875 C68.90625,58.2890625 68.421875,58.46875 67.9375,58.46875 L67.9375,58.46875 Z" id="形状" fill="#FFFFFF"></path>
                <path d="M68.609375,69.0390625 L11.40625,69.0390625 C8.171875,69.0390625 5.546875,66.4140625 5.546875,63.1796875 L5.546875,17.015625 C5.546875,13.78125 8.171875,11.15625 11.40625,11.15625 L68.6015625,11.15625 C71.8359375,11.15625 74.4609548,13.78125 74.4609548,17.015625 L74.4609548,63.1796875 C74.46875,66.4140625 71.8359375,69.0390625 68.609375,69.0390625 Z M11.40625,15.0625 C10.328125,15.0625 9.453125,15.9375 9.453125,17.015625 L9.453125,63.1796875 C9.453125,64.2578125 10.328125,65.1328125 11.40625,65.1328125 L68.6015625,65.1328125 C69.6796875,65.1328125 70.5546875,64.2578125 70.5546875,63.1796875 L70.5546875,17.015625 C70.5546875,15.9375 69.6796875,15.0625 68.6015625,15.0625 L11.40625,15.0625 Z" id="形状" fill="#FFFFFF"></path>
            </g>
        </g>
    </g>
</svg>