<?xml version="1.0" encoding="UTF-8"?>
<svg width="30px" height="30px" viewBox="0 0 30 30" version="1.1" xmlns="http://www.w3.org/2000/svg" xmlns:xlink="http://www.w3.org/1999/xlink">
    <!-- Generator: Sketch 59.1 (86144) - https://sketch.com -->
    <title>icon/设置</title>
    <desc>Created with Sketch.</desc>
    <defs>
        <path d="M14.3127843,0.487012987 C14.8491674,0.487012987 15.3490539,0.774198846 15.6174235,1.23645295 L19.7288776,8.34110202 C19.9947088,8.80117389 19.9947088,9.37225001 19.7288776,9.83196562 L15.6178021,16.9364588 C15.3494324,17.3992696 14.849546,17.6864555 14.3128066,17.6864555 L6.10268011,17.6864555 C5.56520588,17.6864555 5.06531944,17.3990915 4.79768457,16.9364588 L0.68660907,9.83234416 C0.420421608,9.37262857 0.420421608,8.80083989 0.686965354,8.3405676 L4.79768457,1.23700965 C5.06534172,0.774555131 5.56556216,0.487012987 6.10268011,0.487012987 L14.3127843,0.487012987 Z M6.10268011,1.98261959 L1.98138374,9.09038611 L6.09245925,16.1873751 C6.09245925,16.1875532 6.09575485,16.1908489 6.10268011,16.1908489 L14.3127843,16.1908489 L18.4340806,9.08308233 L14.3230274,1.98627148 L6.10268011,1.98261959 Z M10.2075652,5.53468803 C12.1661607,5.53468803 13.7596114,7.12813866 13.7596114,9.08673422 C13.7596114,11.0453298 12.1661607,12.6387804 10.2075652,12.6387804 C8.24896965,12.6387804 6.65551901,11.0453298 6.65551901,9.08673422 C6.65551901,7.12813866 8.24896965,5.53468803 10.2075652,5.53468803 Z M10.2075652,7.40416844 C9.27976136,7.40416844 8.52502169,8.15890811 8.52502169,9.08671196 C8.52502169,10.0145158 9.27976136,10.7692555 10.2075652,10.7692555 C11.135369,10.7692555 11.8901087,10.0145158 11.8901087,9.08671196 C11.8901087,8.15890813 11.135369,7.40416844 10.2075652,7.40416844 Z" id="path-1"></path>
    </defs>
    <g id="影院和社区" stroke="none" stroke-width="1" fill="none" fill-rule="evenodd">
        <g id="我的" transform="translate(-318.000000, -45.000000)">
            <g id="icon/设置" transform="translate(318.000000, 45.000000)">
                <g id="编组-9">
                    <circle id="椭圆形" fill="#000000" opacity="0.1" cx="15" cy="15" r="15"></circle>
                    <g id="icon/标题栏/设置" transform="translate(5.000000, 5.000000)">
                        <g id="前景色/白" transform="translate(0.000000, 1.136364)">
                            <mask id="mask-2" fill="white">
                                <use xlink:href="#path-1"></use>
                            </mask>
                            <use id="蒙版" fill="#444444" fill-rule="nonzero" xlink:href="#path-1"></use>
                            <g mask="url(#mask-2)" fill="#FFFFFF" id="矩形">
                                <g transform="translate(0.000000, -0.974026)">
                                    <rect x="0" y="0" width="19.8347107" height="18.8429752"></rect>
                                </g>
                            </g>
                        </g>
                    </g>
                </g>
            </g>
        </g>
    </g>
</svg>