<?xml version="1.0" encoding="UTF-8"?>
<svg width="40px" height="40px" viewBox="0 0 40 40" version="1.1" xmlns="http://www.w3.org/2000/svg" xmlns:xlink="http://www.w3.org/1999/xlink">
    <!-- Generator: Sketch 64 (93537) - https://sketch.com -->
    <title>分享推广</title>
    <desc>Created with Sketch.</desc>
    <g id="页面-1" stroke="none" stroke-width="1" fill="none" fill-rule="evenodd">
        <g id="分享推广">
            <circle id="椭圆形备份" fill="#424449" cx="20" cy="20" r="20"></circle>
            <path d="M25.2900682,15.4881668 C26.1764911,14.2747036 26.9604534,12.7507141 26.1848183,11.212523 C25.8983394,10.5974022 25.3539578,10.1370888 24.6949762,9.95275539 C23.8540512,9.72600677 22.9847654,9.99512158 22.4278095,10.2443064 C21.7557646,9.71286287 20.9065617,9.45006369 20.0480447,9.50785072 C18.7687959,9.61525796 18.1971166,9.91552088 17.6705729,10.2807055 C16.7370834,10.0261503 15.5720015,9.89439746 14.6548043,10.3900222 C14.0614648,10.7170569 13.6369197,11.2783536 13.4873088,11.9335837 C13.1449287,13.2642401 13.9768025,14.5201888 14.8856725,15.6168168 C13.1747376,16.7757409 9.18806744,20.0388924 9.51946528,25.0626872 L9.52236169,25.0970576 C9.90987752,28.6821921 11.6776545,30.5 14.7765743,30.5 L25.791751,30.5 C25.8354385,30.4980905 30.3680824,30.4684939 30.4972142,24.7496548 C30.6188635,19.346593 26.7234303,16.3903876 25.2900682,15.4881668 Z M25.7977852,28.8359038 L14.7765743,28.8359038 C11.9985528,28.8359038 11.4040642,26.8680837 11.1931089,24.9371401 C10.908295,20.4561099 14.90112,17.5718673 16.1328194,16.7941195 C16.4533529,16.5916421 16.669858,16.2621561 16.7267407,15.8902667 C16.7836233,15.5183772 16.6753422,15.1403123 16.4297016,14.8531513 C15.6464635,13.9393543 14.9452903,13.0033598 15.1142477,12.3459081 C15.196192,12.0283407 15.3417368,11.9146084 15.4594035,11.8509994 C15.8612807,11.6334401 16.6469326,11.6839215 17.5605093,11.9859745 L17.9698689,12.121427 L18.4067444,11.8063658 C18.916513,11.4364075 19.1723627,11.2515477 20.1910551,11.1656219 C21.0416348,11.094017 21.6572431,11.7850036 21.6585706,11.7861971 L22.1358752,12.3511592 L22.7590866,11.9494561 C23.0313494,11.7741436 23.7858648,11.4322305 24.2555663,11.558613 C24.3783018,11.5917899 24.5380872,11.6668557 24.684356,11.9567359 C25.0244431,12.6312534 24.7348019,13.480964 23.7158682,14.7982542 C23.4845389,15.0965745 23.3947105,15.4791287 23.4694394,15.8477253 C23.5441683,16.2163219 23.7761782,16.5350704 24.1059183,16.7221567 C24.9129312,17.1775634 28.9332722,19.7034238 28.8198294,24.7124203 C28.7294372,28.6888752 26.0964777,28.8326815 25.7977852,28.8359038 Z M22.7846716,22.4000616 C23.2493683,22.4000616 23.6260794,22.027541 23.6260794,21.5680135 C23.6260794,21.108486 23.2493683,20.7359654 22.7846716,20.7359654 L21.9519531,20.7359654 L22.7936022,19.5717902 C22.9725419,19.3310378 23.006911,19.0137907 22.8836042,18.7410187 C22.7602974,18.4682467 22.4983227,18.2819982 22.197574,18.2532919 C21.8968253,18.2245855 21.6036636,18.3578465 21.4298747,18.6022608 L20.1435056,20.3815215 L18.8574986,18.7031043 C18.6757207,18.4669616 18.3803533,18.3446554 18.0826584,18.3822571 C17.7849635,18.4198589 17.530168,18.611656 17.4142509,18.8854004 C17.2983338,19.1591448 17.3389057,19.4732482 17.5206836,19.7093908 L18.3068182,20.7357267 L17.5154942,20.7357267 C17.0507975,20.7357267 16.6740864,21.1082474 16.6740864,21.5677748 C16.6740864,22.0273023 17.0507975,22.399823 17.5154942,22.399823 L19.3069252,22.399823 L19.3069252,23.0258879 L17.5154942,23.0258879 C17.0507975,23.0258879 16.6740864,23.3984085 16.6740864,23.857936 C16.6740864,24.3174635 17.0507975,24.6899841 17.5154942,24.6899841 L19.3069252,24.6899841 L19.3069252,25.9095337 C19.3069252,26.3678418 19.6826367,26.739374 20.1461003,26.739374 C20.609564,26.739374 20.9852755,26.3678418 20.9852755,25.9095337 L20.9852755,24.6902228 L22.7846716,24.6902228 C23.2493683,24.6902228 23.6260794,24.3177022 23.6260794,23.8581747 C23.6260794,23.3986472 23.2493683,23.0261265 22.7846716,23.0261265 L20.9852755,23.0261265 L20.9852755,22.4000616 L22.7846716,22.4000616 L22.7846716,22.4000616 Z" id="形状" fill="#D7C19A" fill-rule="nonzero"></path>
        </g>
    </g>
</svg>