<?xml version="1.0" encoding="UTF-8"?>
<svg width="45px" height="45px" viewBox="0 0 45 45" version="1.1" xmlns="http://www.w3.org/2000/svg" xmlns:xlink="http://www.w3.org/1999/xlink">
    <!-- Generator: Sketch 59.1 (86144) - https://sketch.com -->
    <title>扫描</title>
    <desc>Created with Sketch.</desc>
    <g id="页面-1" stroke="none" stroke-width="1" fill="none" fill-rule="evenodd">
        <g id="代理赚钱备份-3" transform="translate(-158.000000, -446.000000)" fill-rule="nonzero">
            <g id="扫描" transform="translate(158.000000, 446.000000)">
                <rect id="矩形" fill="#000000" opacity="0" x="0" y="0" width="44.8" height="44.8"></rect>
                <path d="M8.960175,20.608 L35.8398688,20.608 L35.8398688,24.1919563 L8.960175,24.1919563 L8.960175,20.608 Z M35.839825,0.0002625 L31.3598687,0.0002625 L31.3598687,3.58421875 L35.839825,3.58421875 C38.8042812,3.58421875 41.2157375,5.995675 41.2157375,8.96013125 L41.2157375,14.7840437 L44.7996937,14.7840437 L44.7996937,8.960175 C44.7996937,4.01165625 40.7883437,0.0002625 35.839825,0.0002625 Z M3.58421875,8.960175 C3.58421875,5.99571875 5.99589375,3.5842625 8.96013125,3.5842625 L13.4400437,3.5842625 L13.4400437,0.0002625 L8.960175,0.0002625 C4.01165625,0.0002625 0.0002625,4.01165625 0.0002625,8.960175 L0.0002625,14.7840875 L3.58421875,14.7840875 L3.58421875,8.960175 Z M3.58421875,35.839825 L3.58421875,32.703825 L0.0002625,32.703825 L0.0002625,35.839825 C0.0002625,40.7883 4.0116125,44.7997375 8.96013125,44.7997375 L13.4400437,44.7997375 L13.4400437,41.2157375 L8.960175,41.2157375 C5.99589375,41.2157375 3.58421875,38.8042812 3.58421875,35.839825 L3.58421875,35.839825 Z M41.2157375,35.839825 C41.2157375,38.8042812 38.8042812,41.2157375 35.839825,41.2157375 L31.3598687,41.2157375 L31.3598687,44.7997375 L35.839825,44.7997375 C40.7883,44.7997375 44.7996937,40.7883437 44.7996937,35.839825 L44.7996937,32.703825 L41.2157375,32.703825 L41.2157375,35.839825 L41.2157375,35.839825 Z" id="形状" fill="#FFFFFF"></path>
            </g>
        </g>
    </g>
</svg>