<?xml version="1.0" encoding="UTF-8"?>
<svg width="80px" height="60px" viewBox="0 0 80 60" version="1.1" xmlns="http://www.w3.org/2000/svg" xmlns:xlink="http://www.w3.org/1999/xlink">
    <!-- Generator: Sketch 59.1 (86144) - https://sketch.com -->
    <title>账号管理</title>
    <desc>Created with Sketch.</desc>
    <g id="页面-1" stroke="none" stroke-width="1" fill="none" fill-rule="evenodd">
        <g id="账号与安全备份-2" transform="translate(-221.000000, -612.000000)" fill-rule="nonzero">
            <g id="账号管理" transform="translate(221.000000, 599.000000)">
                <rect id="矩形" fill="#000000" opacity="0" x="0" y="0" width="80" height="80"></rect>
                <path d="M8.47257812,72.2885937 C4.01289062,72.2885937 0.432578125,68.5152344 0.432578125,63.9376563 L0.432578125,22.2264844 C0.432578125,17.6385156 4.01289062,13.875625 8.47257812,13.875625 L71.3450781,13.875625 C75.8047656,13.875625 79.3850781,17.6489063 79.3850781,22.2264844 L79.3850781,63.8734375 C79.3850781,68.4614063 75.8047656,72.2242969 71.3450781,72.2242969 L8.47257812,72.2242969 L8.47257812,72.2885937 L8.47257812,72.2885937 Z M8.47257812,17.19875 C5.77117187,17.19875 3.63789062,19.4609375 3.63789062,22.2264063 L3.63789062,63.8733594 C3.63789062,66.6389062 5.83546875,68.9010156 8.47257812,68.9010156 L71.3450781,68.9010156 C74.0464844,68.9010156 76.1797656,66.6388281 76.1797656,63.8733594 L76.1797656,22.2264063 C76.1797656,19.4608594 73.9821875,17.19875 71.3450781,17.19875 L8.47257812,17.19875 Z" id="形状" fill="#FFFFFF"></path>
                <path d="M42.3259375,30.5773437 C41.3182031,30.5773437 40.5035938,29.7625 40.5035938,28.6905469 C40.5035938,27.6185937 41.3184375,26.80375 42.3259375,26.80375 L68.0752344,26.80375 C69.0829688,26.80375 69.8975781,27.6185937 69.8975781,28.6905469 C69.8975781,29.7625 69.0827344,30.5773437 68.0752344,30.5773437 L42.3259375,30.5773437 Z M42.3259375,39.9357031 C41.3182031,39.9357031 40.5035938,39.1208594 40.5035938,38.0489062 C40.5035938,36.9769531 41.3184375,36.1621094 42.3259375,36.1621094 L68.0752344,36.1621094 C69.0829688,36.1621094 69.8975781,36.9769531 69.8975781,38.0489062 C69.8975781,39.1208594 69.0827344,39.9357031 68.0752344,39.9357031 L42.3259375,39.9357031 Z M42.3259375,49.9267969 C41.3182031,49.9267969 40.5035938,49.1119531 40.5035938,48.04 C40.5035938,46.9680469 41.3184375,46.1532031 42.3259375,46.1532031 L64.0552344,46.1532031 C65.0629687,46.1532031 65.8775781,46.9680469 65.8775781,48.04 C65.8775781,49.1119531 65.0627344,49.9267969 64.0552344,49.9267969 L42.3259375,49.9267969 Z M4.38851563,69.3940625 C4.19554688,69.3940625 4.01335938,69.3940625 3.82054688,69.3297656 C2.8128125,69.0189062 2.25546875,67.8825781 2.56625,66.8214844 C4.38859375,60.6682812 8.6553125,55.6405469 14.1866406,53.0034375 L15.4409375,52.3709375 L14.3689063,51.4277344 C11.2280469,48.7263281 9.40546875,44.7061719 9.40546875,40.4932813 C9.40546875,32.64625 15.5586719,26.3000781 23.0304688,26.3000781 C30.5665625,26.3000781 36.6554687,32.6464062 36.6554687,40.4932813 C36.6554687,44.7060937 34.833125,48.72625 31.6920313,51.4277344 L30.62,52.3709375 L31.8742969,53.0034375 C37.2128125,55.5117188 42.3047656,61.79375 44.2451563,68.2686719 C45.4994531,72.4171875 42.9266406,71.0988281 44.1167188,69.5229687 C43.8700781,69.898125 42.7982031,69.0832812 41.6084375,69.0832812 C40.6007031,69.0832812 40.096875,71.0342969 40.096875,70.8413281 C37.6421094,62.6729687 30.6096875,54.8900781 23.0092188,54.8900781 C15.2158594,54.8900781 8.37632813,60.1645312 6.0503125,67.9577344 C5.95382813,68.8261719 5.20359375,69.3941406 4.38882813,69.3941406 L4.38851563,69.3940625 Z M23.1696875,30.2663281 C17.7025781,30.2663281 13.2428906,34.8542969 13.2428906,40.50375 C13.2428906,46.1532031 17.7025781,50.7411719 23.1696875,50.7411719 C28.6367969,50.7411719 33.0964844,46.1532031 33.0964844,40.50375 C33.0321875,34.8544531 28.6261719,30.2663281 23.1696875,30.2663281 Z" id="形状" fill="#FFFFFF"></path>
            </g>
        </g>
    </g>
</svg>