<?xml version="1.0" encoding="UTF-8"?>
<svg width="40px" height="40px" viewBox="0 0 40 40" version="1.1" xmlns="http://www.w3.org/2000/svg" xmlns:xlink="http://www.w3.org/1999/xlink">
    <!-- Generator: Sketch 64 (93537) - https://sketch.com -->
    <title>编组 12</title>
    <desc>Created with Sketch.</desc>
    <g id="页面-1" stroke="none" stroke-width="1" fill="none" fill-rule="evenodd">
        <g id="编组-12">
            <g id="账户安全" fill="#424449">
                <circle id="椭圆形" cx="20" cy="20" r="20"></circle>
            </g>
            <g id="icon/标题栏/返回备份" transform="translate(7.000000, 8.500000)" fill="#D7C19A" fill-rule="nonzero">
                <g id="前景色/白" transform="translate(0.000000, 0.388889)">
                    <path d="M17.493403,0.595238095 C18.1489824,0.595238095 18.7599547,0.946243034 19.0879621,1.51122027 L24.1130726,10.1946802 C24.4379774,10.7569903 24.4379774,11.4549722 24.1130726,12.0168469 L19.0884248,20.7001163 C18.7604174,21.265774 18.1494451,21.6167789 17.4934303,21.6167789 L7.45883124,21.6167789 C6.80191829,21.6167789 6.19094598,21.2655562 5.8638367,20.7001163 L0.839188863,12.0173095 C0.513848633,11.4554349 0.513848633,10.7565821 0.839624322,10.1940271 L5.8638367,1.51190068 C6.19097321,0.946678493 6.80235375,0.595238095 7.45883124,0.595238095 L17.493403,0.595238095 Z M7.45883124,2.42320172 L2.42169124,11.1104719 L7.44633908,19.7845696 C7.44633908,19.7847873 7.45036704,19.7888153 7.45883124,19.7888153 L17.493403,19.7888153 L22.530543,11.1015451 L17.5059224,2.42766514 L7.45883124,2.42320172 Z M12.475913,6.7646187 C14.869752,6.7646187 16.8173028,8.71216948 16.8173028,11.1060085 C16.8173028,13.4998475 14.869752,15.4473983 12.475913,15.4473983 C10.082074,15.4473983 8.13452324,13.4998475 8.13452324,11.1060085 C8.13452324,8.71216948 10.082074,6.7646187 12.475913,6.7646187 Z M12.475913,9.04953921 C11.3419305,9.04953921 10.419471,9.9719988 10.419471,11.1059813 C10.419471,12.2399638 11.3419305,13.1624233 12.475913,13.1624233 C13.6098955,13.1624233 14.5323551,12.2399637 14.5323551,11.1059813 C14.5323551,9.97199882 13.6098955,9.04953921 12.475913,9.04953921 Z" id="蒙版"></path>
                </g>
            </g>
        </g>
    </g>
</svg>