<?xml version="1.0" encoding="UTF-8"?>
<svg width="40px" height="40px" viewBox="0 0 40 40" version="1.1" xmlns="http://www.w3.org/2000/svg" xmlns:xlink="http://www.w3.org/1999/xlink">
    <!-- Generator: Sketch 64 (93537) - https://sketch.com -->
    <title>分享推广</title>
    <desc>Created with Sketch.</desc>
    <g id="页面-1" stroke="none" stroke-width="1" fill="none" fill-rule="evenodd">
        <g id="我的备份-13" transform="translate(-266.000000, -344.000000)">
            <g id="分享推广" transform="translate(266.000000, 344.000000)">
                <circle id="椭圆形备份" fill="#424449" cx="20" cy="20" r="20"></circle>
                <path d="M10.1491922,9.5 L18.5604507,9.5 C19.4158536,9.58359074 19.2096898,11.0692422 19.2096898,12.0344844 L19.2096898,16.6299832 C19.2096898,17.6287132 19.4003157,18.8529063 18.7298673,19.1366274 C18.2932369,19.3213613 17.1214053,19.1922843 16.5564644,19.1922843 L12.0968156,19.1922843 C11.0659028,19.1922843 9.65823781,19.4351122 9.50002344,18.5517031 L9.50002344,10.1405343 C9.61532706,9.82726232 9.81806926,9.60029951 10.1491922,9.5 Z M11.3064468,11.3939032 L11.3064468,17.3819483 L17.3750264,17.3819483 L17.3750264,11.3103125 L11.3347103,11.3103125 C11.30183,11.3149994 11.3040798,11.3543459 11.3064468,11.3939032 Z M21.4395024,9.5 L29.8507609,9.5 C30.1938595,9.6255853 30.429646,9.85721157 30.5,10.2519651 L30.5,18.4403191 C30.4229903,18.780611 30.2430042,19.0712452 29.9072644,19.164491 C29.3585645,19.316815 28.4469394,19.1922843 27.7902946,19.1922843 L23.4717756,19.1922843 C22.8205211,19.1922843 21.8553454,19.3276652 21.3265892,19.164491 C20.5801858,18.9340364 20.7903337,17.4963319 20.7903337,16.4906887 L20.7903337,12.2015956 C20.7903337,11.0404646 20.5320254,9.66226024 21.4395024,9.5 L21.4395024,9.5 Z M22.5967805,11.3939032 L22.5967805,17.3819483 L28.6652897,17.3819483 L28.6652897,11.3103125 L22.6249736,11.3103125 C22.5921402,11.3149994 22.5943197,11.3543459 22.5967805,11.3939032 Z M14.0725854,13.148512 C14.9177703,12.9911496 15.5824066,13.5546548 15.5968196,14.3183137 C15.6157322,15.325363 14.5733359,15.8785101 13.7621093,15.4602518 C12.8340557,14.9815794 12.8951057,13.3678118 14.0725854,13.148512 Z M25.3628956,13.148512 C27.3536407,12.7815517 27.3154874,15.892524 25.3628956,15.5716358 C24.1202413,15.3674279 24.0801897,13.3850361 25.3628956,13.148512 L25.3628956,13.148512 Z M18.5040175,30.5 L10.1774556,30.5 C9.8317557,30.3954823 9.598219,30.180307 9.5,29.8316256 L9.5,21.4483203 C9.58225929,21.2029614 9.77204155,20.9168032 10.064519,20.8355325 C10.6170858,20.6821304 11.5195242,20.8077392 12.1814185,20.8077392 L16.5,20.8077392 C17.1382555,20.8077392 18.0670824,20.6671558 18.6451239,20.8355325 C19.4271496,21.0633858 19.2096429,22.4777027 19.2096429,23.4814711 L19.2096429,27.9098119 C19.2096898,28.9932107 19.4460856,30.4033328 18.5040175,30.5 Z M11.3064468,22.7016424 L11.3064468,28.6896875 L17.3750264,28.6896875 L17.3750264,22.6180517 L11.3347103,22.6180517 C11.30183,22.6227386 11.3040798,22.662085 11.3064468,22.7016424 L11.3064468,22.7016424 Z M30.5,21.5596809 L30.5,23.8992139 C30.4341223,24.6883462 30.4905554,25.5980956 30.4717131,26.4336983 L24.4596839,26.4336983 L24.4596839,25.0690156 C23.8950946,25.003985 23.208335,25.0596418 22.5967571,25.0410817 C22.5308793,26.8050643 22.5873828,28.6896641 22.5685405,30.4999766 L21.4676956,30.4999766 C20.5212216,30.3127821 20.7903102,28.9114244 20.7903102,27.7984513 L20.7903102,23.4814243 C20.7903102,22.8322896 20.6571486,21.8591968 20.8185268,21.3368426 C21.011051,20.7136967 21.8459946,20.8076923 22.6814537,20.8076923 L26.7741229,20.8076923 L26.7741229,24.5119315 L28.6652663,24.5119315 C28.6840383,23.286473 28.6276051,21.9867506 28.6934829,20.8076923 C29.6035847,20.7545195 30.4465197,20.7676194 30.5,21.5596809 L30.5,21.5596809 Z M14.2137151,24.4283642 C15.1161534,24.3297988 15.8622054,25.185649 15.512123,26.1273161 C15.02684,27.4326393 12.7066359,26.9419919 13.1411571,25.2917602 C13.2612182,24.8356552 13.6081836,24.4945197 14.2137151,24.4283642 L14.2137151,24.4283642 Z M26.4919571,30.5 L24.4596839,30.5 C24.4784559,29.7851316 24.4220227,28.9960697 24.4879005,28.3275547 L26.4919571,28.3275547 L26.4919571,30.5 Z M30.5,28.3275547 L30.5,29.7480349 C30.4214435,30.1441008 30.1868054,30.3859679 29.8225444,30.5 L28.3830068,30.5 C28.4018491,29.7851316 28.3454159,28.9960697 28.4112937,28.3275547 L30.5,28.3275547 Z" id="形状" fill="#D7C19A" fill-rule="nonzero"></path>
            </g>
        </g>
    </g>
</svg>