<?xml version="1.0" encoding="UTF-8"?>
<svg width="40px" height="40px" viewBox="0 0 40 40" version="1.1" xmlns="http://www.w3.org/2000/svg" xmlns:xlink="http://www.w3.org/1999/xlink">
    <!-- Generator: Sketch 64 (93537) - https://sketch.com -->
    <title>官方群号</title>
    <desc>Created with Sketch.</desc>
    <g id="页面-1" stroke="none" stroke-width="1" fill="none" fill-rule="evenodd">
        <g id="官方群号">
            <circle id="椭圆形备份" fill="#424449" cx="20" cy="20" r="20"></circle>
            <path d="M29.4050253,10.5358366 C29.5010317,10.7340433 29.5251562,10.9594584 29.473269,11.173493 L24.9480657,29.8399569 C24.8245105,30.3496217 24.3111844,30.6626255 23.8015196,30.5390704 C23.6804875,30.5097293 23.5664092,30.4568663 23.4657817,30.3834921 L9.89017162,20.4846097 C9.46643035,20.1756317 9.37339634,19.5816454 9.68237435,19.1579041 C9.77415354,19.0320355 9.89548971,18.9306796 10.0356857,18.8627722 L28.1364991,10.0951907 C28.608474,9.86657786 29.1764125,10.0638618 29.4050253,10.5358366 Z M28.3057076,11.3022625 C28.2398105,11.1533355 28.0761034,11.0910844 27.9400576,11.163221 L11.2874941,19.4627959 C11.2470829,19.4842234 11.212108,19.5162052 11.1856529,19.5559218 C11.0965906,19.6896293 11.1234075,19.8770559 11.24555,19.9745509 L23.4849726,28.8450386 C23.5139783,28.8681912 23.5468611,28.8848716 23.5817484,28.8941299 C23.7286582,28.9331165 23.8766233,28.8343512 23.9122378,28.6735314 L28.3253787,11.5034688 C28.3403351,11.4359323 28.3333812,11.3648047 28.3057076,11.3022625 Z" id="形状结合" fill="#D7C19A" fill-rule="nonzero"></path>
            <path d="M29,11 L28.5375473,10.5677073 L15.2583094,24.8419491 L14.4057183,29.957496 C14.3809848,30.1058969 14.409913,30.2582555 14.4873178,30.3872634 C14.6671949,30.6870586 15.0560461,30.7842714 15.3558413,30.6043943 L19.515896,28.1083614 L20.1276397,27.803532 L19.8445357,27.2373239 L19.2114959,27.5538438 L15.0301449,30.0615671 L15.8513081,25.1345879 L29,11 Z" id="路径" stroke="#D7C19A" stroke-width="0.5" fill="#D7C19A" fill-rule="nonzero"></path>
        </g>
    </g>
</svg>