<?xml version="1.0" encoding="UTF-8"?>
<svg width="18px" height="21px" viewBox="0 0 18 21" version="1.1" xmlns="http://www.w3.org/2000/svg" xmlns:xlink="http://www.w3.org/1999/xlink">
    <!-- Generator: Sketch 54.1 (76490) - https://sketchapp.com -->
    <title>合并形状</title>
    <desc>Created with Sketch.</desc>
    <g id="组件" stroke="none" stroke-width="1" fill="none" fill-rule="evenodd">
        <g id="女" transform="translate(-5.000000, -4.000000)" fill="#FFFFFF" fill-rule="nonzero">
            <path d="M10.3570933,17.8212524 C7.26301058,15.6003768 6.29840056,11.3511144 8.24290609,7.98313204 C10.3139739,4.39593736 14.9009019,3.1668737 18.4880966,5.23794151 C22.0752913,7.30900932 23.304355,11.8959374 21.2332872,15.483132 C19.2887816,18.8511144 15.1265074,20.1403688 11.6561314,18.5712524 L10.7337605,20.1688457 L13.548343,21.7938457 L12.798343,23.0928838 L9.98376047,21.4678838 L8.02236655,24.8651177 L6.72332845,24.1151177 L8.68472237,20.7178838 L5.87013981,19.0928838 L6.62013981,17.7938457 L9.43472237,19.4188457 L10.3570933,17.8212524 Z M11.7380966,16.9292845 C14.6078524,18.5861387 18.2773948,17.6028878 19.934249,14.733132 C21.5911033,11.8633763 20.6078524,8.19383386 17.7380966,6.53697961 C14.8683409,4.88012536 11.1987984,5.8633763 9.5419442,8.73313204 C7.88508995,11.6028878 8.86834088,15.2724302 11.7380966,16.9292845 Z" id="合并形状"></path>
        </g>
    </g>
</svg>