<?xml version="1.0" encoding="UTF-8"?>
<svg width="18px" height="18px" viewBox="0 0 18 18" version="1.1" xmlns="http://www.w3.org/2000/svg" xmlns:xlink="http://www.w3.org/1999/xlink">
    <!-- Generator: Sketch 54.1 (76490) - https://sketchapp.com -->
    <title>合并形状 2</title>
    <desc>Created with Sketch.</desc>
    <g id="组件" stroke="none" stroke-width="1" fill="none" fill-rule="evenodd">
        <g id="女备份" transform="translate(-4.000000, -5.000000)" fill="#FFFFFF" fill-rule="nonzero">
            <g id="矩形-2" transform="translate(1.000000, 1.000000)">
                <g id="编组">
                    <g id="合并形状-2" transform="translate(3.340948, 4.110660)">
                        <path d="M16.0681042,2.60986945 L12.8797559,5.79821772 C15.1964998,8.64571144 15.0287559,12.8416059 12.3765242,15.4938377 C9.54522305,18.3251388 4.95477695,18.3251388 2.12347584,15.4938377 C-0.707825279,12.6625365 -0.707825279,8.07209044 2.12347584,5.24078932 C4.77570754,2.58855762 8.97160205,2.42081369 11.8190958,4.73755754 L15.0566533,1.5 L9.7245696,1.5 L9.7245696,1.00152015e-14 L16.7245696,1.13010806e-14 L16.7245696,0.00702282017 L17.5681042,0.00702282017 L17.5681042,7.75702282 L16.0681042,7.75702282 L16.0681042,2.60986945 Z M3.18413601,14.4331775 C5.42965069,16.6786922 9.07034931,16.6786922 11.315864,14.4331775 C13.5613787,12.1876628 13.5613787,8.54696417 11.315864,6.3014495 C9.07034931,4.05593482 5.42965069,4.05593482 3.18413601,6.3014495 C0.938621331,8.54696417 0.938621331,12.1876628 3.18413601,14.4331775 Z" id="合并形状"></path>
                    </g>
                </g>
            </g>
        </g>
    </g>
</svg>