<?xml version="1.0" encoding="UTF-8"?>
<svg width="22px" height="25px" viewBox="0 0 22 25" version="1.1" xmlns="http://www.w3.org/2000/svg" xmlns:xlink="http://www.w3.org/1999/xlink">
    <!-- Generator: Sketch 64 (93537) - https://sketch.com -->
    <title>share</title>
    <desc>Created with Sketch.</desc>
    <g id="页面-1" stroke="none" stroke-width="1" fill="none" fill-rule="evenodd">
        <g id="我的/分享推广" transform="translate(-208.000000, -630.000000)" fill="#FFFFFF" fill-rule="nonzero">
            <g id="编组-2" transform="translate(198.000000, 622.000000)">
                <g id="分组-4备份" transform="translate(10.500000, 8.500000)">
                    <path d="M17,0 C19.209139,0 21,1.790861 21,4 C21,6.209139 19.209139,8 17,8 C15.85072,8 14.8146463,7.51530616 14.0850412,6.73918074 L7.61870779,10.2933976 C7.86324823,10.8110162 8,11.3895381 8,12 C8,12.5676663 7.88174976,13.1077138 7.66853818,13.5968535 L11.4856823,16.8888459 C12.1726637,16.3329607 13.0474483,16 14,16 C16.209139,16 18,17.790861 18,20 C18,22.209139 16.209139,24 14,24 C11.790861,24 10,22.209139 10,20 C10,19.2938266 10.1829947,18.6303939 10.5041505,18.0545355 L6.79735127,14.8591673 C6.07608183,15.5649389 5.0888479,16 4,16 C1.790861,16 3.19744231e-14,14.209139 3.19744231e-14,12 C3.19744231e-14,9.790861 1.790861,8 4,8 C5.04471117,8 5.99587931,8.4005053 6.70834067,9.05635214 L13.2708254,5.44977756 C13.0959491,5.00027639 13,4.51134325 13,4 C13,1.790861 14.790861,0 17,0 Z M14,17.5 C12.6192881,17.5 11.5,18.6192881 11.5,20 C11.5,21.3807119 12.6192881,22.5 14,22.5 C15.3807119,22.5 16.5,21.3807119 16.5,20 C16.5,18.6192881 15.3807119,17.5 14,17.5 Z M4,9.5 C2.61928813,9.5 1.5,10.6192881 1.5,12 C1.5,13.3807119 2.61928813,14.5 4,14.5 C5.38071187,14.5 6.5,13.3807119 6.5,12 C6.5,10.6192881 5.38071187,9.5 4,9.5 Z M17,1.5 C15.6192881,1.5 14.5,2.61928813 14.5,4 C14.5,5.38071187 15.6192881,6.5 17,6.5 C18.3807119,6.5 19.5,5.38071187 19.5,4 C19.5,2.61928813 18.3807119,1.5 17,1.5 Z" id="share"></path>
                </g>
            </g>
        </g>
    </g>
</svg>